<?xml version="1.0" encoding="UTF-8" standalone="no"?>
<svg
   xmlns:dc="http://purl.org/dc/elements/1.1/"
   xmlns:cc="http://creativecommons.org/ns#"
   xmlns:rdf="http://www.w3.org/1999/02/22-rdf-syntax-ns#"
   xmlns:svg="http://www.w3.org/2000/svg"
   xmlns="http://www.w3.org/2000/svg"
   xmlns:sodipodi="http://sodipodi.sourceforge.net/DTD/sodipodi-0.dtd"
   xmlns:inkscape="http://www.inkscape.org/namespaces/inkscape"
   version="1.1"
   x="0px"
   y="0px"
   viewBox="0 0 100 125"
   style="enable-background:new 0 0 100 100;"
   xml:space="preserve"
   id="svg86"
   sodipodi:docname="noun_Golem_1974739.svg"
   inkscape:version="1.0.1 (3bc2e813f5, 2020-09-07)"><metadata
     id="metadata92"><rdf:RDF><cc:Work
         rdf:about=""><dc:format>image/svg+xml</dc:format><dc:type
           rdf:resource="http://purl.org/dc/dcmitype/StillImage" /></cc:Work></rdf:RDF></metadata><defs
     id="defs90" /><sodipodi:namedview
     pagecolor="#ffffff"
     bordercolor="#666666"
     borderopacity="1"
     objecttolerance="10"
     gridtolerance="10"
     guidetolerance="10"
     inkscape:pageopacity="0"
     inkscape:pageshadow="2"
     inkscape:window-width="1920"
     inkscape:window-height="1017"
     id="namedview88"
     showgrid="false"
     inkscape:zoom="6.8"
     inkscape:cx="50"
     inkscape:cy="44.852939"
     inkscape:window-x="-8"
     inkscape:window-y="144"
     inkscape:window-maximized="1"
     inkscape:current-layer="svg86"
     inkscape:document-rotation="0" /><g
     id="g80"><path
       d="M50.00097,51.14279c-0.20253,0-0.409-0.03736-0.60759-0.11602l-18.26517-7.07679   c-0.72754-0.28217-1.16603-1.02642-1.05985-1.79918l2.26717-16.49941L32.39256,14.347   c0.00197-0.67445,0.409-1.28204,1.03232-1.54356l9.24565-3.88152c0.34411-0.14747,0.73344-0.17009,1.09524-0.07177l6.6796,1.82671   c0.89664,0.24579,1.42558,1.17094,1.17979,2.06857c-0.24382,0.89763-1.168,1.42558-2.06857,1.17979l-6.11919-1.67334   L35.753,15.47764L35.70188,25.7792c0,0.07374-0.0059,0.14747-0.01573,0.22023l-2.102,15.2911l17.02442,6.59701   c0.86715,0.33526,1.29777,1.31055,0.96153,2.1777C51.31251,50.7338,50.67542,51.14279,50.00097,51.14279z"
       id="path2" /><path
       d="M50.00097,67.57928c-0.17304,0-0.34804-0.02753-0.52304-0.08455l-5.76526-1.88177   c-0.21433-0.07079-0.41489-0.18287-0.58596-0.33231l-11.35944-9.93189c-0.34804-0.30478-0.55647-0.74131-0.57417-1.20339   c-0.0177-0.46209,0.15534-0.91237,0.47978-1.24271l7.99113-8.1622c0.65282-0.66462,1.71463-0.67347,2.38121-0.02556   c0.66462,0.65085,0.67641,1.7166,0.02556,2.38122l-6.74448,6.88999l9.75886,8.53187l5.43885,1.77559   c0.88288,0.28905,1.36659,1.23878,1.07755,2.12363C51.36953,67.12702,50.71082,67.57731,50.00097,67.57928z"
       id="path4" /><path
       d="M41.55365,99.99803h-19.4076c-0.5545,0-1.07361-0.27332-1.38822-0.7295c-0.31265-0.45816-0.38147-1.04019-0.18287-1.55733   l2.64274-6.88017l0.61546-13.7092c0.02753-0.64692,0.42669-1.22108,1.02249-1.47475   c0.5958-0.25169,1.28401-0.14354,1.76969,0.28512l4.67395,4.10962L41.4573,79.4539c0.75703-0.03342,1.45115,0.4267,1.693,1.1444   l2.2829,6.79168c0.09635,0.28905,0.11405,0.59972,0.04719,0.89861l-2.2829,10.38808   C43.02839,99.44943,42.34411,99.99803,41.55365,99.99803z M24.59609,96.63169h15.60277l1.89357-8.61053l-1.72446-5.13013   l-9.56419,0.55254c-0.43849,0.03343-0.87698-0.12388-1.20732-0.41686l-2.55819-2.24751l-0.46995,10.4746   c-0.00787,0.1809-0.04523,0.35983-0.11012,0.52894L24.59609,96.63169z"
       id="path6" /><path
       d="M41.55365,82.81828c-0.3795,0-0.76096-0.12585-1.07558-0.38737c-0.71574-0.59383-0.81406-1.65564-0.22023-2.37138   l4.23742-5.10457l-1.91716-10.64371c-0.16517-0.91631,0.44439-1.79132,1.35873-1.95649   c0.93401-0.15927,1.79132,0.44439,1.95649,1.35873l2.05481,11.4145c0.08652,0.48962-0.04523,0.99103-0.3618,1.37446   l-4.73687,5.70824C42.51715,82.61181,42.0354,82.81828,41.55365,82.81828z"
       id="path8" /><path
       d="M29.1088,82.075c-0.83372,0-1.55929-0.61939-1.66744-1.46687l-0.97136-7.53298   c-0.04129-0.31658,0.00786-0.63905,0.14354-0.92811l5.02395-10.78724c0.16714-0.35984,0.45815-0.65086,0.81996-0.81799   l5.82032-2.68403c0.85142-0.38343,1.84441-0.01966,2.23571,0.82389c0.38933,0.84552,0.01966,1.84637-0.82389,2.23571   l-5.25991,2.42448l-4.55793,9.78639l0.90844,7.04729c0.11995,0.92417-0.53091,1.76772-1.45311,1.8857   C29.25234,82.07108,29.17958,82.075,29.1088,82.075z"
       id="path10" /><path
       d="M43.31941,12.15848c-0.87305,0-1.61238-0.67445-1.67727-1.56028L41.3,5.97538   C41.2646,5.49855,41.4337,5.0286,41.76601,4.68351l2.91212-3.02519c0.20843-0.2163,0.47192-0.3736,0.76293-0.45422l4.10962-1.14145   c0.90057-0.25169,1.82475,0.27823,2.0725,1.17193c0.24972,0.89566-0.27528,1.82376-1.17193,2.0725l-3.66523,1.01855   l-2.0725,2.15214l0.28708,3.87267c0.06882,0.92712-0.62726,1.7343-1.55536,1.80312   C43.40396,12.15652,43.3607,12.15848,43.31941,12.15848z"
       id="path12" /><path
       d="M26.94191,33.16274c-0.37557,0-0.7413-0.12584-1.04018-0.36082l-9.36166-7.36289   c-0.72754-0.57122-0.85732-1.62123-0.29298-2.35271l6.96471-9.01854c0.3854-0.50043,1.01266-0.74819,1.64384-0.62529   l4.14501,0.77768l4.5599-1.46688c0.88288-0.28315,1.83261,0.20155,2.11773,1.08639   c0.28512,0.88583-0.20253,1.83458-1.08738,2.11871l-4.96496,1.59764c-0.26545,0.0875-0.55057,0.10323-0.82586,0.05211   l-3.55314-0.66658l-5.31497,6.88213l7.46613,5.87144l5.71413-0.96153c0.91631-0.16124,1.78542,0.46405,1.9388,1.38134   c0.15534,0.91729-0.46405,1.78542-1.38036,1.93978l-6.44954,1.08443C27.12871,33.15487,27.03433,33.16274,26.94191,33.16274z"
       id="path14" /><path
       d="M9.41805,65.12334c-0.24972,0-0.49748-0.05506-0.72557-0.16321c-0.41096-0.19663-0.72361-0.55057-0.86911-0.98119   L5.1413,56.0468c-0.13174-0.38737-0.11601-0.81013,0.04129-1.18766l2.17475-5.20092L6.83037,44.4917   c-0.03539-0.35492,0.04129-0.71181,0.22023-1.01954l2.32419-3.98475l2.1197-5.6866   c0.17304-0.46602,0.54467-0.83274,1.01462-0.99889c0.46602-0.16615,0.98513-0.11798,1.41575,0.13568l12.21479,7.19182   c0.7708,0.45324,1.05198,1.4305,0.64299,2.22391l-3.39584,6.57145l-0.42276,3.79893   c-0.0177,0.16714-0.06096,0.33034-0.12781,0.48568l-1.24862,2.87869l0.75507,2.73712   c0.23399,0.84355-0.21826,1.72446-1.04018,2.02728l-11.30242,4.16664C9.81131,65.08991,9.61468,65.12334,9.41805,65.12334z    M8.53517,55.57095l1.92306,5.69054l8.22709-3.03207l-0.50141-1.81688c-0.10225-0.36967-0.07472-0.7649,0.07669-1.11884   l1.38429-3.19134l0.42866-3.85793c0.0236-0.20646,0.08258-0.40506,0.17697-0.58793l2.80791-5.43295l-9.10997-5.36511   l-1.46884,3.94051c-0.03343,0.09045-0.07472,0.17697-0.12191,0.26054l-2.12166,3.63573l0.51518,5.04755   c0.02753,0.27922-0.01376,0.56237-0.12191,0.81996L8.53517,55.57095z"
       id="path16" /><path
       d="M16.95299,70.43241c-0.06882,0-0.13764-0.00393-0.20843-0.0118l-4.10961-0.51321   c-0.56433-0.07079-1.05395-0.42079-1.30367-0.93204l-2.51099-5.138c-0.40899-0.83569-0.06292-1.84441,0.77277-2.25144   c0.83765-0.40703,1.84441-0.06292,2.25144,0.77277l2.11183,4.32001l2.02335,0.25169l0.44439-0.88681l-0.10422-0.14551   c-0.53681-0.759-0.35787-1.81098,0.40113-2.34779c0.75703-0.53681,1.80902-0.35984,2.34779,0.40113l0.68625,0.96939   c0.35787,0.50732,0.40899,1.16997,0.13174,1.72643l-1.42755,2.8551C18.17211,70.07848,17.58418,70.43241,16.95299,70.43241z"
       id="path18" /><path
       d="M16.95103,70.43241c-0.7826,0-1.48457-0.54861-1.64778-1.34496c-0.1868-0.91041,0.40113-1.80116,1.31154-1.98795   l6.03661-1.23682l0.19073-1.86801l-3.66129-3.36831c-0.68428-0.62922-0.72754-1.69497-0.09832-2.37925   c0.63119-0.68231,1.69104-0.73147,2.37925-0.09832l4.28068,3.93855c0.38933,0.35984,0.58793,0.88091,0.53484,1.40985   l-0.40113,3.93855c-0.07472,0.73147-0.61546,1.3312-1.3371,1.47868l-7.24786,1.48457   C17.17715,70.42258,17.06311,70.43241,16.95103,70.43241z"
       id="path20" /><path
       d="M15.69848,37.61449c-0.04719,0-0.09635-0.00197-0.14354-0.00689c-0.92614-0.07767-1.61435-0.89271-1.5357-1.81885   l0.45815-5.42213c0.02753-0.32936,0.15141-0.64299,0.3559-0.90156l3.65146-4.62381   c0.57613-0.72852,1.63401-0.85437,2.36549-0.27823c0.72951,0.57613,0.85338,1.635,0.27725,2.3645l-3.33685,4.22661   l-0.41686,4.91777C17.30103,36.95086,16.56366,37.61449,15.69848,37.61449z"
       id="path22" /><path
       d="M23.23146,42.06625c-0.175,0-0.35197-0.02753-0.52697-0.08455c-0.88288-0.29102-1.36266-1.24271-1.07165-2.1256   l1.42755-4.3377c0.02556-0.07767,0.05702-0.15337,0.09242-0.22711l2.2829-4.5658c0.41489-0.82979,1.42558-1.17095,2.2593-0.7531   c0.83175,0.41588,1.168,1.42755,0.7531,2.2593l-2.22784,4.45568l-1.39019,4.22071   C24.59805,41.61694,23.93934,42.06625,23.23146,42.06625z"
       id="path24" /><path
       d="M50.00097,51.14279c-0.67445,0-1.31154-0.409-1.56913-1.07755c-0.33624-0.86715,0.09438-1.84245,0.96153-2.1777   l17.02245-6.59701l-2.102-15.2911c-0.00983-0.07275-0.01573-0.14649-0.01573-0.22023l-0.05112-10.30156l-7.68439-3.22575   l-6.11723,1.67334c-0.91041,0.24481-1.82475-0.28413-2.06857-1.17979c-0.24579-0.89664,0.28315-1.82278,1.17979-2.06857   l6.67763-1.82671c0.3618-0.09635,0.75113-0.07374,1.09524,0.07177l9.24565,3.88152   c0.62332,0.26152,1.03035,0.86911,1.03232,1.54356l0.05702,11.30439l2.26717,16.49941   c0.10618,0.77276-0.33231,1.51702-1.05985,1.79918l-18.2632,7.07679C50.40997,51.10543,50.2035,51.14279,50.00097,51.14279z"
       id="path26" /><path
       d="M50.00097,67.57928c-0.70984,0-1.36856-0.45226-1.60059-1.16209c-0.28905-0.88485,0.19466-1.83458,1.07755-2.12363   l5.43491-1.77362l9.71167-8.5358l-6.69926-6.89196c-0.64889-0.66757-0.63316-1.73331,0.03343-2.38122   c0.67051-0.64594,1.73429-0.63119,2.38121,0.03343l7.93411,8.1622c0.32248,0.33034,0.49355,0.77866,0.47585,1.24075   c-0.01966,0.46012-0.22613,0.89271-0.5722,1.19749l-11.30242,9.9319c-0.17107,0.15141-0.37164,0.26545-0.58793,0.33624   l-5.76329,1.88177C50.35098,67.55175,50.17401,67.57928,50.00097,67.57928z"
       id="path28" /><path
       d="M77.85393,99.99803H58.3893c-0.79439,0-1.48064-0.5545-1.64581-1.3312l-2.22588-10.38808   c-0.06292-0.29102-0.04719-0.59383,0.04523-0.87698l2.22588-6.79168c0.23793-0.7236,0.94777-1.18962,1.69694-1.1562   l10.21308,0.58794l4.67591-4.10962c0.48765-0.42669,1.1739-0.5368,1.76969-0.28512   c0.59579,0.25366,0.99496,0.82783,1.02249,1.47475l0.61546,13.7092l2.64274,6.88017   c0.1986,0.51714,0.12978,1.09917-0.18287,1.55733C78.92754,99.72472,78.40843,99.99803,77.85393,99.99803z M59.75,96.63169h15.6539   l-1.86211-4.84895c-0.0649-0.16911-0.10225-0.34804-0.11012-0.52894l-0.46996-10.4746l-2.55818,2.24751   c-0.33035,0.29298-0.75507,0.45029-1.20732,0.41686l-9.60942-0.55254l-1.68121,5.12817L59.75,96.63169z"
       id="path30" /><path
       d="M58.3893,82.81828c-0.48175,0-0.9635-0.20647-1.2958-0.60759l-4.73687-5.70824   c-0.31854-0.3854-0.45029-0.89075-0.35984-1.38232l2.11183-11.4145c0.1691-0.91434,1.04608-1.518,1.96239-1.3489   c0.91434,0.1691,1.518,1.04805,1.3489,1.96239l-1.96829,10.63977l4.23349,5.10064c0.59383,0.71574,0.49551,1.77756-0.22023,2.37138   C59.15027,82.69243,58.7688,82.81828,58.3893,82.81828z"
       id="path32" /><path
       d="M70.89118,82.075c-0.07079,0-0.14355-0.00393-0.21826-0.01376c-0.92221-0.11798-1.57306-0.96153-1.45312-1.8857   l0.90845-7.04337l-4.613-9.79229l-5.20878-2.42644c-0.84356-0.3913-1.20929-1.39412-0.81602-2.23767   c0.3913-0.83962,1.39215-1.21322,2.23767-0.81406l5.76329,2.68403c0.3559,0.16517,0.64299,0.45226,0.81209,0.80816   l5.08098,10.78724c0.13567,0.29102,0.1868,0.61546,0.14551,0.93401l-0.97136,7.53298   C72.45047,81.45561,71.7249,82.075,70.89118,82.075z"
       id="path34" /><path
       d="M56.68057,12.15848c-0.04129,0-0.08455-0.00197-0.12584-0.00492c-0.9281-0.06882-1.62418-0.876-1.55536-1.80312   l0.28512-3.86382l-2.12166-2.16099l-3.61803-1.02052c-0.89468-0.25169-1.41575-1.18176-1.16406-2.07742   c0.25169-0.89369,1.17979-1.41772,2.07644-1.16308l4.05062,1.14145c0.28315,0.07964,0.54074,0.23104,0.74524,0.44046   l2.96915,3.02519c0.34018,0.34607,0.51321,0.82094,0.47782,1.30367l-0.34214,4.62282   C58.29295,11.48404,57.55362,12.15848,56.68057,12.15848z"
       id="path36" /><path
       d="M73.00105,33.16274c-0.09438,0-0.18877-0.00787-0.28119-0.02458l-6.39251-1.08443   c-0.91631-0.15534-1.53373-1.02445-1.3784-1.94076c0.15534-0.91827,1.03625-1.53766,1.94077-1.37839l5.65907,0.95957   l7.50938-5.87046l-5.35823-6.88213l-3.55708,0.66658c-0.27528,0.05309-0.56237,0.03244-0.83176-0.05407l-4.90794-1.59764   c-0.88485-0.28708-1.36856-1.2378-1.07951-2.12166c0.28709-0.88484,1.23878-1.36856,2.12167-1.07951l4.49894,1.46393   l4.14304-0.7767c0.62726-0.11798,1.25255,0.12388,1.63992,0.62037l7.02174,9.01854   c0.57024,0.73246,0.43849,1.78935-0.29298,2.36057l-9.41869,7.36289C73.74038,33.03788,73.37464,33.16274,73.00105,33.16274z"
       id="path38" /><path
       d="M90.52491,65.12334c-0.19663,0-0.39326-0.03343-0.58203-0.10422l-11.30242-4.16664   c-0.83176-0.30478-1.28204-1.20339-1.03429-2.05284l0.80029-2.72532l-1.24271-2.86493   c-0.06293-0.14748-0.10619-0.30281-0.12585-0.46209l-0.47585-3.81073l-3.40173-6.58325   c-0.41096-0.79538-0.12782-1.77264,0.64495-2.22588l12.27182-7.19183c0.43259-0.25267,0.94973-0.30085,1.42361-0.13076   c0.46996,0.17009,0.83962,0.53976,1.01069,1.00971l2.05678,5.67087l2.37138,3.97197   c0.1868,0.31068,0.26742,0.67347,0.23006,1.03428l-0.52697,5.16652l2.17475,5.20092   c0.15927,0.38147,0.17303,0.80816,0.03736,1.19749l-2.73909,7.93214c-0.14748,0.42866-0.46012,0.77867-0.86911,0.97333   C91.01846,65.07025,90.77267,65.12334,90.52491,65.12334z M81.28123,58.23728l8.21333,3.02814l1.96829-5.70037l-2.09217-5.00232   c-0.10815-0.25759-0.14944-0.54074-0.12191-0.81996l0.51321-5.03772l-2.16689-3.63081   c-0.05505-0.09143-0.10028-0.18877-0.13764-0.28905l-1.42165-3.92183l-9.1493,5.36216l2.80594,5.43098   c0.09045,0.17598,0.14944,0.3677,0.175,0.56433l0.48175,3.86972l1.39019,3.20314c0.15534,0.3618,0.1809,0.76686,0.07079,1.1444   L81.28123,58.23728z"
       id="path40" /><path
       d="M84.24448,37.61449c-0.86518,0-1.60255-0.66364-1.67531-1.54258l-0.41686-4.92466l-3.28769-4.22956   c-0.57024-0.73442-0.43849-1.7923,0.29495-2.36254c0.7413-0.57122,1.79328-0.43357,2.36352,0.29593l3.59444,4.62381   c0.20056,0.25759,0.32051,0.56728,0.34804,0.89173l0.45815,5.42213c0.07865,0.92614-0.60956,1.74118-1.5357,1.81885   C84.34083,37.61253,84.29166,37.61449,84.24448,37.61449z"
       id="path42" /><path
       d="M76.71149,42.06625c-0.71574,0-1.3784-0.45914-1.60648-1.17684l-1.32727-4.20301l-2.27503-4.43996   c-0.42473-0.82782-0.09635-1.84245,0.7295-2.26619c0.82783-0.42374,1.84245-0.09733,2.26717,0.73049l2.33992,4.5658   c0.04326,0.08357,0.07866,0.17107,0.10815,0.26054l1.37052,4.3377c0.27922,0.88681-0.21236,1.83261-1.09917,2.11282   C77.0497,42.04068,76.87863,42.06625,76.71149,42.06625z"
       id="path44" /><path
       d="M83.04698,70.43241c-0.63119,0-1.21912-0.35394-1.5062-0.93007l-1.42755-2.8551   c-0.27724-0.55647-0.22612-1.21912,0.13174-1.72643l0.68625-0.96939c0.5368-0.75507,1.58289-0.93597,2.34779-0.40113   c0.759,0.5368,0.93794,1.58878,0.40113,2.34779l-0.10421,0.14551l0.44439,0.88681l2.02335-0.25169l2.11182-4.32001   c0.40507-0.83569,1.41576-1.17979,2.25144-0.77277c0.83569,0.40703,1.18176,1.41575,0.77277,2.25144l-2.51099,5.138   c-0.24973,0.51125-0.73934,0.86125-1.30367,0.93204l-4.10961,0.51321C83.18462,70.42848,83.11581,70.43241,83.04698,70.43241z"
       id="path46" /><path
       d="M83.04895,70.43241c-0.11208,0-0.22613-0.00983-0.34017-0.03342l-7.24786-1.48457   c-0.71181-0.14551-1.25058-0.73344-1.33514-1.45508l-0.45815-3.93855c-0.06095-0.53877,0.13961-1.07558,0.54074-1.44131   l4.33771-3.93855c0.68821-0.62529,1.75396-0.57613,2.37925,0.11405s0.57417,1.75396-0.11404,2.37925l-3.69865,3.35651   l0.21826,1.86801l6.05431,1.24075c0.91041,0.1868,1.49834,1.07755,1.31154,1.98795   C84.53352,69.8838,83.83155,70.43241,83.04895,70.43241z"
       id="path48" /><path
       d="M28.59362,99.99803c-0.90254,0-1.64974-0.71574-1.6812-1.62418l-0.11405-3.25426   c-0.03146-0.93008,0.69411-1.70874,1.62418-1.74216c0.82389-0.01966,1.70873,0.69411,1.74216,1.62418l0.11405,3.25426   c0.03146,0.93007-0.69411,1.70873-1.62418,1.74216C28.63491,99.99803,28.61525,99.99803,28.59362,99.99803z"
       id="path50" /><path
       d="M34.53191,100c-0.22219,0-0.44635-0.04523-0.66265-0.13764c-0.85535-0.36574-1.25058-1.35677-0.88484-2.21014   l1.47277-3.43517l-0.68035-2.26914c-0.26742-0.89074,0.23792-1.83064,1.12867-2.09609   c0.89861-0.27332,1.83064,0.23792,2.0961,1.12866l0.85535,2.8551c0.11405,0.3795,0.09045,0.78456-0.06489,1.14637l-1.71267,3.99557   C35.80609,99.61657,35.18473,100,34.53191,100z"
       id="path52" /><path
       d="M71.40439,99.99803c-0.00983,0-0.01966,0-0.0295,0c-0.93007-0.01573-1.6694-0.78259-1.65367-1.71266l0.05702-3.25426   c0.01573-0.93007,0.79243-1.67924,1.71266-1.65368c0.93008,0.01573,1.66941,0.7826,1.65368,1.71267l-0.05702,3.25426   C73.07183,99.2646,72.32069,99.99803,71.40439,99.99803z"
       id="path54" /><path
       d="M65.46806,100c-0.65282,0-1.27418-0.38343-1.5475-1.02248l-1.71267-3.99557   c-0.15534-0.36181-0.17894-0.76687-0.06489-1.14637l0.85535-2.8551c0.26545-0.89074,1.20142-1.40199,2.0961-1.12866   c0.89075,0.26545,1.39609,1.20535,1.12867,2.09609l-0.68034,2.26914l1.47277,3.43517   c0.36574,0.85338-0.0295,1.84441-0.88484,2.21014C65.91442,99.95477,65.69025,100,65.46806,100z"
       id="path56" /><path
       d="M16.04259,42.18029c-0.49551,0-0.98316-0.2163-1.31744-0.63218c-0.58006-0.72655-0.46209-1.78542,0.26349-2.36647   l3.13825-2.51099c0.72951-0.584,1.78542-0.4611,2.36745,0.2625c0.58007,0.72655,0.46209,1.78542-0.26349,2.36647l-3.13825,2.51099   C16.78192,42.05936,16.41029,42.18029,16.04259,42.18029z"
       id="path58" /><path
       d="M83.50121,62.4983c-0.32444,0-0.65282-0.09242-0.94187-0.28905c-0.76883-0.51911-0.97136-1.56716-0.45029-2.33796   l1.42755-2.11183c0.51911-0.76883,1.56716-0.9753,2.33796-0.45029c0.76883,0.51911,0.97136,1.56716,0.45029,2.33796   l-1.42755,2.11183C84.57285,62.23875,84.04195,62.4983,83.50121,62.4983z"
       id="path60" /><path
       d="M63.46832,58.95892c-0.34214,0-0.68625-0.10225-0.98513-0.31854l-2.68206-1.93879   c-0.7531-0.54467-0.9222-1.59665-0.37753-2.35172c0.54074-0.7531,1.59469-0.92614,2.35172-0.37753l2.68206,1.93879   c0.7531,0.54467,0.9222,1.59665,0.37753,2.35172C64.50653,58.71706,63.99136,58.95892,63.46832,58.95892z"
       id="path62" /><path
       d="M38.52945,54.45015c-0.57613,0-1.13654-0.29495-1.45115-0.82586l-1.65564-2.79611   c-0.47388-0.80029-0.20843-1.83261,0.59187-2.3065c0.80423-0.47388,1.83261-0.20843,2.3065,0.59186l1.65564,2.79611   c0.47388,0.80029,0.20843,1.83261-0.59187,2.3065C39.11541,54.37542,38.82047,54.45015,38.52945,54.45015z"
       id="path64" /><path
       d="M32.53217,72.08806c-0.27725,0-0.55647-0.06686-0.81602-0.21236l-2.56802-1.42755   c-0.81209-0.45029-1.10507-1.47671-0.65282-2.2888c0.45225-0.81406,1.47474-1.109,2.2888-0.65282l2.56802,1.42755   c0.81209,0.45029,1.10508,1.47671,0.65282,2.2888C33.69819,71.77737,33.12403,72.08806,32.53217,72.08806z"
       id="path66" /><path
       d="M64.43967,65.98066c-0.44439,0-0.88877-0.175-1.21912-0.52304c-0.64102-0.67249-0.61546-1.73823,0.05899-2.37925   l2.33992-2.22588c0.67445-0.64299,1.73823-0.61546,2.37925,0.05899c0.64102,0.67248,0.61546,1.73823-0.05899,2.37925   l-2.33992,2.22588C65.2734,65.82729,64.85654,65.98066,64.43967,65.98066z"
       id="path68" /><path
       d="M63.29921,83.10536c-0.67641,0-1.31547-0.41293-1.57306-1.08345l-1.02839-2.68403   c-0.33231-0.86715,0.10225-1.84048,0.97136-2.17475c0.86322-0.32444,1.84048,0.10225,2.17475,0.97137l1.02839,2.68403   c0.33231,0.86715-0.10225,1.84048-0.97136,2.17475C63.70427,83.068,63.49977,83.10536,63.29921,83.10536z"
       id="path70" /><path
       d="M43.49441,29.05313c-0.61153,0-1.20142-0.33427-1.50031-0.91532l-2.22588-4.33771   c-0.30675-0.59776-0.22809-1.32137,0.1986-1.83949l3.48235-4.22366c0.59383-0.72164,1.65171-0.81897,2.37139-0.22809   c0.7177,0.59088,0.81995,1.65269,0.22809,2.36942l-2.77841,3.36929l1.72053,3.35258   c0.42472,0.82782,0.09832,1.84245-0.72951,2.26717C44.01549,28.99315,43.752,29.05313,43.49441,29.05313z"
       id="path72" /><path
       d="M62.49695,21.97535c-0.77473,0-1.47278-0.53877-1.64385-1.32727c-0.19663-0.90942,0.3795-1.80508,1.28991-2.0027   l3.42533-0.74229c0.90451-0.19565,1.80312,0.38048,2.00172,1.28892c0.19663,0.90942-0.3795,1.80508-1.28991,2.0027L62.85482,21.937   C62.73487,21.96257,62.61493,21.97535,62.49695,21.97535z"
       id="path74" /><path
       d="M59.92893,38.29877c-0.25562,0-0.51714-0.05899-0.76097-0.18385l-3.13825-1.59764   c-0.82979-0.42178-1.16013-1.43541-0.73737-2.26422c0.42079-0.82782,1.43345-1.16209,2.26324-0.73639l3.13825,1.59764   c0.82979,0.42178,1.16013,1.43541,0.73737,2.26422C61.13429,37.96253,60.54243,38.29877,59.92893,38.29877z"
       id="path76" /><path
       d="M43.66352,48.68686c-0.27529,0-0.55647-0.06882-0.81602-0.21236c-0.81209-0.45029-1.10507-1.47573-0.65479-2.2888   l1.99582-3.59542c0.45226-0.81209,1.47277-1.109,2.29077-0.65479c0.81209,0.45127,1.10507,1.47572,0.65479,2.2888l-1.99582,3.59542   C44.82954,48.37421,44.25538,48.68686,43.66352,48.68686z"
       id="path78" /></g><path
     style="fill:#917c6f;stroke-width:0.147059"
     d="m 47.988517,46.789492 -1.790895,-0.699238 0.574614,-1.02307 c 0.741157,-1.319588 0.790261,-2.164692 0.164691,-2.834367 -0.556724,-0.595975 -1.304566,-0.732652 -2.040826,-0.372986 -0.452129,0.220867 -0.697232,0.525305 -1.29316,1.606203 l -0.735294,1.333686 -4.558823,-1.760999 c -2.507353,-0.968548 -4.577324,-1.774706 -4.599935,-1.79146 -0.02261,-0.01676 0.424081,-3.404759 0.992648,-7.528896 0.986604,-7.156407 1.033778,-7.628547 1.034207,-10.351046 2.5e-4,-1.568939 0.04334,-3.983188 0.09576,-5.364999 l 0.09531,-2.512383 3.771842,-1.575771 3.771843,-1.575771 3.007401,0.830956 c 1.654071,0.457026 3.23902,0.83219 3.522108,0.833698 0.283088,0.0015 1.866704,-0.372978 3.519147,-0.832193 l 3.00444,-0.834935 3.802075,1.588401 3.802075,1.588402 -0.04181,1.319455 -0.04181,1.319454 -1.0796,0.244751 c -0.59378,0.134614 -1.236006,0.328458 -1.427169,0.430766 -0.385584,0.206358 -0.802055,0.968088 -0.802055,1.466965 0,0.591595 0.446227,1.292414 0.985996,1.548551 0.508848,0.241464 0.779145,0.23899 2.065475,-0.01891 l 0.477941,-0.09582 v 2.245997 c 0,1.972485 0.125888,3.159141 1.033757,9.744429 0.568566,4.124137 1.015258,7.512049 0.992647,7.528693 -0.170886,0.125787 -16.17721,6.251688 -16.323547,6.247306 -0.103482,-0.0031 -0.994054,-0.32029 -1.979046,-0.704872 z m 12.745154,-8.62689 c 0.621258,-0.321266 0.883976,-0.784256 0.883976,-1.557847 0,-0.997084 -0.340601,-1.321618 -2.54655,-2.426419 -1.656101,-0.829422 -2.021248,-0.95998 -2.504669,-0.895537 -1.418788,0.189134 -2.030979,1.96993 -1.007812,2.931607 0.547727,0.514809 3.83349,2.150967 4.338393,2.16032 0.226442,0.0042 0.602941,-0.09126 0.836662,-0.212124 z M 44.544884,28.739159 c 0.247392,-0.208166 0.527853,-0.638988 0.623246,-0.957383 0.168278,-0.561661 0.144434,-0.637943 -0.800732,-2.561713 l -0.974175,-1.982814 1.368416,-1.65539 c 1.564215,-1.892251 1.708949,-2.125659 1.708949,-2.755967 0,-1.342718 -1.577677,-2.264249 -2.622973,-1.532095 -0.312402,0.218815 -3.476526,3.950077 -4.037331,4.760981 -0.491803,0.711131 -0.336662,1.323092 1.012502,3.993845 0.989131,1.958047 1.364848,2.563607 1.727941,2.785007 0.66403,0.404899 1.44464,0.367918 1.994157,-0.09447 z"
     id="path869" /><path
     style="fill:#917c6f;stroke-width:0.147059"
     d="m 23.800612,26.749207 c -1.969013,-1.545287 -3.59996,-2.86245 -3.624327,-2.927028 -0.02437,-0.06458 1.096108,-1.596208 2.489944,-3.403622 1.393837,-1.807413 2.552075,-3.310538 2.573863,-3.340276 0.02179,-0.02974 0.787343,0.08668 1.701232,0.258702 2.153291,0.40532 2.456944,0.395404 4.014558,-0.131103 0.717845,-0.242647 1.336098,-0.441176 1.373895,-0.441176 0.0378,0 0.02352,2.101102 -0.03172,4.669117 -0.101278,4.707814 -0.288593,7.034563 -0.590053,7.3294 -0.144846,0.141663 -3.515788,0.7956 -4.101194,0.7956 -0.124394,0 -1.837182,-1.264326 -3.806195,-2.809614 z"
     id="path871" /><path
     style="fill:#917c6f;stroke-width:0.147059"
     d="M 47.368329,9.7650054 C 46.123117,9.4124038 45.072693,9.0922988 45.034056,9.053661 44.995418,9.0150232 44.932768,8.4014809 44.894833,7.6902335 l -0.06897,-1.293177 1.012264,-0.9950149 C 46.828634,4.428411 46.884233,4.3973997 48.425194,3.9590769 L 50,3.511127 l 1.580882,0.4456587 1.580883,0.4456588 1.012157,1.0536076 1.012157,1.0536076 -0.07731,1.2392472 c -0.04252,0.681586 -0.110765,1.2726987 -0.15165,1.3135837 -0.125664,0.1256641 -4.795745,1.3798134 -5.068507,1.3611464 -0.14094,-0.0096 -1.275066,-0.30603 -2.520279,-0.6586316 z"
     id="path873" /><path
     style="fill:#917c6f;stroke-width:0.147059"
     d="m 70.114268,29.215733 c -0.948182,-0.175272 -1.78264,-0.384853 -1.85435,-0.465735 -0.271685,-0.306434 -0.462834,-2.804784 -0.559172,-7.308461 l -0.09971,-4.661401 1.383306,0.431819 c 1.644267,0.513282 1.946494,0.52405 3.956835,0.140984 0.848945,-0.161765 1.587801,-0.294118 1.641903,-0.294118 0.116192,0 5.099672,6.379676 5.196146,6.651923 0.10254,0.289366 -7.006094,5.768665 -7.523539,5.799107 -0.229598,0.01351 -1.193236,-0.118846 -2.141419,-0.294118 z"
     id="path875" /><path
     style="fill:#917c6f;stroke-width:0.147059"
     d="m 77.362984,36.58088 c -0.188082,-0.586397 -0.73052,-1.842732 -1.205417,-2.791856 -0.474897,-0.949124 -0.863449,-1.75303 -0.863449,-1.786457 0,-0.09304 4.574395,-3.655226 4.619594,-3.597384 0.02179,0.02788 0.516172,0.65996 1.098629,1.404616 l 1.059013,1.353918 0.157469,1.768629 c 0.08661,0.972745 0.122577,1.859552 0.07993,1.970682 -0.06444,0.167921 -4.322524,2.744028 -4.535646,2.744028 -0.03749,0 -0.222044,-0.479779 -0.410126,-1.066176 z"
     id="path877" /><path
     style="fill:#917c6f;stroke-width:0.147059"
     d="m 87.761446,60.545965 c -1.534998,-0.566056 -1.571051,-0.589659 -1.360294,-0.890556 0.322253,-0.460079 0.277982,-1.596403 -0.07992,-2.051404 -0.42998,-0.546631 -1.212685,-0.771319 -1.934038,-0.555196 -0.425221,0.127399 -0.712868,0.364072 -1.103759,0.908165 -0.290765,0.404724 -0.602531,0.708443 -0.692813,0.674931 -0.09028,-0.03351 -0.402355,-0.146151 -0.693495,-0.250313 l -0.529345,-0.189384 0.271992,-0.873913 c 0.399866,-1.284771 0.34761,-1.681362 -0.467762,-3.550044 -0.670673,-1.537059 -0.765252,-1.89407 -1.012777,-3.822973 l -0.273021,-2.127589 -1.429378,-2.746103 c -0.786158,-1.510356 -1.372688,-2.798681 -1.3034,-2.862943 0.293803,-0.272493 8.76493,-5.162831 8.830157,-5.097604 0.03942,0.03943 0.388823,0.936661 0.776441,1.993858 0.465099,1.268521 1.083344,2.560184 1.818048,3.798344 l 1.11329,1.876168 -0.286796,2.692383 -0.286797,2.692382 1.123534,2.710857 1.123534,2.710858 -0.921602,2.684995 c -0.506881,1.476747 -0.962868,2.723595 -1.013305,2.770771 -0.05044,0.04718 -0.801258,-0.175884 -1.668492,-0.49569 z"
     id="path879" /><path
     style="fill:#917c6f;stroke-width:0.147059"
     d="m 83.872393,66.443913 c -0.0988,-0.221417 -0.08379,-0.493072 0.04846,-0.876931 0.251521,-0.730045 0.10977,-1.366674 -0.422907,-1.899351 -0.365261,-0.365261 -0.548578,-0.432339 -1.181529,-0.432339 -0.690768,0 -0.796431,0.0493 -1.354978,0.632234 -0.675261,0.704741 -1.108502,1.507025 -1.108502,2.052744 v 0.361117 l -1.213199,-0.242514 -1.213199,-0.242514 -0.121943,-0.873157 -0.121943,-0.873157 1.00426,-0.925472 c 0.552343,-0.50901 1.207705,-1.088374 1.456361,-1.287475 l 0.452102,-0.362003 3.150839,1.16308 c 1.732962,0.639694 3.333103,1.232736 3.555868,1.31787 l 0.405029,0.154789 -0.614116,1.238264 c -0.570628,1.150577 -0.651378,1.244428 -1.140322,1.325316 -1.023955,0.169397 -1.428153,0.110441 -1.580285,-0.230501 z"
     id="path881" /><path
     style="fill:#917c6f;stroke-width:0.147059"
     d="m 47.376634,63.182534 -2.255719,-0.764877 -4.76634,-4.166683 c -2.621487,-2.291675 -4.76634,-4.212373 -4.76634,-4.268217 0,-0.05584 0.226014,-0.320595 0.502253,-0.588337 l 0.502253,-0.486802 0.219069,0.42119 c 0.588775,1.132004 1.696805,1.519021 2.597812,0.907373 1.047008,-0.710759 1.110829,-1.564304 0.229414,-3.068208 l -0.540134,-0.921599 1.071868,-1.079071 c 0.589528,-0.593488 1.14751,-1.07907 1.239959,-1.07907 0.09245,0 1.959863,0.694853 4.149808,1.544118 2.189944,0.849264 4.187703,1.544117 4.439463,1.544117 0.25176,0 2.249519,-0.694853 4.439463,-1.544117 2.189944,-0.849265 4.056831,-1.544118 4.148636,-1.544118 0.154545,0 1.175095,1.011273 4.574061,4.532487 l 1.323134,1.370722 -0.569601,0.49877 -0.5696,0.498771 -0.951892,-0.679255 c -1.123354,-0.801609 -1.932933,-0.923819 -2.640685,-0.398626 -0.984073,0.730242 -0.906859,2.032204 0.175387,2.95728 l 0.654373,0.55934 -2.850811,2.494022 -2.850814,2.494022 -2.327038,0.77741 c -1.279872,0.427575 -2.460964,0.772197 -2.62465,0.765823 -0.163685,-0.0064 -1.312684,-0.355781 -2.553329,-0.776465 z"
     id="path883" /><path
     style="fill:#917c6f;stroke-width:0.147059"
     d="m 19.926471,36.378448 c -1.132353,-0.682409 -2.1322,-1.288271 -2.221882,-1.346362 -0.118052,-0.07646 -0.122415,-0.613 -0.01581,-1.943853 l 0.147254,-1.838235 1.035051,-1.32353 c 0.569279,-0.727941 1.081509,-1.378647 1.13829,-1.446014 0.07766,-0.09214 3.831314,2.706197 4.596785,3.426895 0.06648,0.06259 -0.272442,0.89985 -0.753155,1.860577 -0.480714,0.960728 -1.027911,2.226557 -1.215993,2.812954 -0.188082,0.586397 -0.411662,1.059907 -0.496844,1.052244 -0.08518,-0.0077 -1.081348,-0.572267 -2.213701,-1.254676 z"
     id="path885" /><path
     style="fill:#917c6f;stroke-width:0.147059"
     d="m 9.572945,58.332709 -0.9247857,-2.818005 1.1163721,-2.671711 1.1163716,-2.671709 -0.2212,-2.181232 c -0.12166,-1.199677 -0.255809,-2.412848 -0.298109,-2.695937 -0.06628,-0.443537 0.07485,-0.774135 1.020659,-2.390964 0.669692,-1.144818 1.368732,-2.606719 1.793146,-3.75 0.382568,-1.030558 0.744417,-1.929948 0.80411,-1.998644 0.05969,-0.0687 0.542291,0.129833 1.072443,0.441176 l 0.963911,0.566079 -0.790837,0.735294 c -0.892306,0.829636 -1.076702,1.311059 -0.824537,2.152709 0.215149,0.718104 0.865441,1.15479 1.720811,1.155565 0.530711,4.86e-4 0.767334,-0.128037 1.891504,-1.027341 0.706701,-0.565339 1.327116,-1.006338 1.3787,-0.979996 0.05158,0.02634 0.871834,0.49899 1.822776,1.05033 l 1.728986,1.002437 -1.453072,2.808442 -1.453071,2.808443 -0.241571,2.118383 c -0.223531,1.960198 -0.296296,2.243803 -0.974443,3.797993 -0.78701,1.803683 -0.853859,2.241002 -0.513877,3.361722 0.120448,0.397046 0.219712,0.795034 0.220588,0.884418 0.0014,0.142207 -1.893936,0.88809 -6.698072,2.635937 l -1.332017,0.484616 z"
     id="path887" /><path
     style="fill:#917c6f;stroke-width:0.147059"
     d="m 14.404333,66.662203 c -0.303927,-0.04735 -0.491453,-0.29308 -0.988533,-1.29536 -0.337399,-0.68031 -0.565672,-1.266431 -0.507273,-1.302492 0.0584,-0.03606 1.649937,-0.635158 3.536752,-1.331328 3.942159,-1.454521 3.285561,-1.490268 5.206721,0.283465 l 1.113041,1.027627 -0.09576,0.876614 -0.09576,0.876614 -0.808823,0.163053 c -0.444853,0.08968 -0.990809,0.209331 -1.213235,0.265894 -0.36438,0.09266 -0.404412,0.06473 -0.404412,-0.282148 0,-0.568372 -0.423465,-1.361672 -1.108502,-2.076616 -0.558547,-0.582932 -0.66421,-0.632234 -1.354978,-0.632234 -0.632952,0 -0.816268,0.06708 -1.181529,0.432339 -0.532677,0.532677 -0.674428,1.169306 -0.422907,1.899351 0.288746,0.838093 0.07187,1.203812 -0.697204,1.175687 -0.33139,-0.01212 -0.771313,-0.04833 -0.977606,-0.08047 z"
     id="path889" /><path
     style="fill:#917c6f;stroke-width:0.147059"
     d="M 31.081215,79.728268 C 30.804164,79.495143 30.716076,79.07557 30.364018,76.312131 l -0.401354,-3.150369 0.376593,-0.841903 0.376593,-0.841903 0.812167,0.371822 c 0.840027,0.384577 1.516779,0.389561 2.008143,0.01479 1.154456,-0.880521 0.887147,-2.534963 -0.520036,-3.218625 -0.36475,-0.177209 -0.663348,-0.391733 -0.66355,-0.476719 -2.06e-4,-0.08499 0.479577,-1.191871 1.066176,-2.459746 l 1.066544,-2.305226 2.012271,-0.91487 c 1.106749,-0.503179 2.061651,-0.918765 2.122004,-0.923525 0.06035,-0.0048 0.981386,0.749431 2.046741,1.675979 l 1.937007,1.684633 0.835777,4.632353 c 0.459677,2.547794 0.850034,4.806547 0.867459,5.019451 0.02463,0.300907 -0.372538,0.879614 -1.783726,2.599054 l -1.815408,2.211954 -1.052239,0.08438 c -0.578731,0.04641 -2.309592,0.150694 -3.846356,0.231751 -1.536765,0.08106 -3.158089,0.179156 -3.602942,0.218 -0.637337,0.05565 -0.875788,0.01428 -1.124667,-0.195141 z"
     id="path891" /><path
     style="fill:#917c6f;stroke-width:0.147059"
     d="m 66.344324,79.844752 c -0.91871,-0.06159 -1.71748,-0.167671 -1.775044,-0.235725 -0.05756,-0.06805 -0.287831,-0.56664 -0.511706,-1.107968 -0.480081,-1.160833 -0.83816,-1.442238 -1.835205,-1.442238 -0.622309,0 -0.797257,0.0681 -1.193889,0.464734 -0.424795,0.424794 -0.460522,0.532881 -0.415725,1.257724 0.04526,0.732292 0.0265,0.786926 -0.245108,0.713745 -0.161765,-0.04359 -0.475405,-0.08015 -0.696978,-0.08125 -0.339226,-0.0017 -0.693469,-0.352894 -2.242647,-2.223408 -1.011883,-1.22177 -1.839787,-2.287052 -1.839787,-2.367293 0,-0.08024 0.402096,-2.327981 0.893545,-4.994977 l 0.893545,-4.849082 0.540279,-0.480968 c 0.297153,-0.264532 1.183395,-1.049294 1.969425,-1.743914 l 1.429147,-1.262947 1.171869,0.532326 1.171869,0.532326 -0.424644,0.483644 c -0.551207,0.62779 -0.685852,1.338447 -0.376931,1.989449 0.552065,1.163391 1.929584,1.333368 2.988669,0.368781 0.181667,-0.165456 0.361781,-0.269351 0.400255,-0.230878 0.03847,0.03847 0.908648,1.853073 1.933722,4.032443 l 1.863769,3.96249 -0.404062,3.150369 c -0.354411,2.763245 -0.442875,3.182795 -0.719907,3.414225 -0.173714,0.145121 -0.448197,0.256325 -0.609961,0.247121 -0.161765,-0.0092 -1.04579,-0.06713 -1.9645,-0.128725 z"
     id="path893" /><path
     style="fill:#917c6f;stroke-width:0.147059"
     d="m 59.760209,96.225842 c -0.05409,-0.215491 -0.474523,-2.151153 -0.934306,-4.30147 l -0.83597,-3.909668 0.803171,-2.426471 c 0.441744,-1.334559 0.844377,-2.470956 0.89474,-2.525326 0.05036,-0.05437 2.275391,0.03133 4.944509,0.190447 2.669118,0.159117 5.003193,0.251633 5.186834,0.205592 0.183642,-0.04604 0.944671,-0.622802 1.691177,-1.281692 1.243177,-1.097268 1.360202,-1.168057 1.392011,-0.842031 0.0191,0.195773 0.135124,2.585027 0.257829,5.309453 l 0.2231,4.953502 0.86798,2.25238 c 0.477388,1.23881 0.9144,2.36819 0.97114,2.509734 0.09245,0.230634 -0.0054,0.257353 -0.941984,0.257353 h -1.045146 v -0.963186 c 0,-1.579733 -0.547019,-2.272108 -1.795107,-2.272108 -0.565349,0 -0.792446,0.08237 -1.178807,0.427587 -0.453439,0.405148 -0.48139,0.490043 -0.532597,1.617647 l -0.05404,1.19006 h -1.507322 -1.507323 l -0.512467,-1.213236 -0.512468,-1.213235 0.341978,-1.102941 c 0.400194,-1.2907 0.430702,-1.91039 0.123314,-2.504814 -0.473086,-0.914846 -1.896877,-1.138783 -2.663188,-0.418871 -0.413647,0.388601 -1.37844,3.288575 -1.37844,4.143314 0,0.29518 0.165441,0.910782 0.367647,1.368006 0.202205,0.457224 0.367647,0.856169 0.367647,0.886546 0,0.03038 -0.660504,0.05523 -1.467787,0.05523 -1.467125,0 -1.467831,-1.47e-4 -1.566122,-0.391803 z"
     id="path895" /><path
     style="fill:#917c6f;stroke-width:0.147059"
     d="m 24.777577,96.360292 c 0.05674,-0.141544 0.493752,-1.270924 0.97114,-2.509734 l 0.867978,-2.25238 0.223101,-4.953502 c 0.122705,-2.724426 0.238728,-5.115123 0.257829,-5.31266 0.03195,-0.330469 0.143254,-0.263481 1.393359,0.838612 0.905492,0.798283 1.518592,1.226151 1.838235,1.28286 0.263783,0.0468 2.597252,-0.04543 5.185487,-0.204945 2.588235,-0.159519 4.747088,-0.244302 4.79745,-0.188408 0.05036,0.05589 0.45331,1.193539 0.895438,2.528098 l 0.803871,2.426471 -0.935408,4.255654 c -0.514473,2.34061 -0.958522,4.278771 -0.986775,4.307025 -0.02825,0.02825 -0.68295,0.03233 -1.454879,0.009 l -1.403508,-0.04231 0.349235,-0.808823 c 0.192079,-0.444853 0.351892,-1.068766 0.355141,-1.386473 0.009,-0.882092 -0.94494,-3.782567 -1.377833,-4.189249 -0.514841,-0.483668 -1.486127,-0.560708 -2.112574,-0.167565 -0.855116,0.536651 -0.965198,1.344322 -0.422002,3.096228 l 0.341978,1.102941 -0.512468,1.213235 -0.512467,1.213236 H 31.83635 30.332796 l -0.07247,-1.12924 c -0.06874,-1.071149 -0.09989,-1.154364 -0.605415,-1.617647 -0.442608,-0.40562 -0.647976,-0.488407 -1.211575,-0.488407 -0.575697,0 -0.754469,0.07584 -1.17863,0.5 -0.480908,0.480908 -0.5,0.542675 -0.5,1.617647 v 1.117647 H 25.71956 c -0.936637,0 -1.034435,-0.02672 -0.941983,-0.257353 z"
     id="path897" /></svg>
