<?xml version="1.0" encoding="UTF-8" standalone="no"?>
<svg
   xmlns:dc="http://purl.org/dc/elements/1.1/"
   xmlns:cc="http://creativecommons.org/ns#"
   xmlns:rdf="http://www.w3.org/1999/02/22-rdf-syntax-ns#"
   xmlns:svg="http://www.w3.org/2000/svg"
   xmlns="http://www.w3.org/2000/svg"
   xmlns:sodipodi="http://sodipodi.sourceforge.net/DTD/sodipodi-0.dtd"
   xmlns:inkscape="http://www.inkscape.org/namespaces/inkscape"
   viewBox="0 0 128 160"
   x="0px"
   y="0px"
   version="1.1"
   id="svg140"
   sodipodi:docname="user-knight.svg"
   inkscape:version="1.0.1 (3bc2e813f5, 2020-09-07)">
  <metadata
     id="metadata146">
    <rdf:RDF>
      <cc:Work
         rdf:about="">
        <dc:format>image/svg+xml</dc:format>
        <dc:type
           rdf:resource="http://purl.org/dc/dcmitype/StillImage" />
      </cc:Work>
    </rdf:RDF>
  </metadata>
  <defs
     id="defs144" />
  <sodipodi:namedview
     pagecolor="#ffffff"
     bordercolor="#666666"
     borderopacity="1"
     objecttolerance="10"
     gridtolerance="10"
     guidetolerance="10"
     inkscape:pageopacity="0"
     inkscape:pageshadow="2"
     inkscape:window-width="1600"
     inkscape:window-height="837"
     id="namedview142"
     showgrid="false"
     inkscape:zoom="2.65625"
     inkscape:cx="1.5076493"
     inkscape:cy="16.972065"
     inkscape:window-x="3832"
     inkscape:window-y="450"
     inkscape:window-maximized="1"
     inkscape:current-layer="svg140"
     inkscape:document-rotation="0" />
  <g
     id="g134"
     transform="matrix(-1,0,0,1,128.01422,0)">
    <path
       d="m 71.812,48.618 a 0.555,0.555 0 0 1 -0.105,-0.046 c -1.127,-0.538 -0.314,-1.377 0.623,-0.951 0.963,0.446 0.655,1.213 -0.243,1.062 a 1.717,1.717 0 0 1 -0.275,-0.065 z"
       id="path2" />
    <path
       d="m 70.914,48.959 a 0.78,0.78 0 0 1 0.931,0.524 0.758,0.758 0 0 1 -0.525,0.931 c -0.118,0.013 -0.216,0.065 -0.327,0.078 a 0.769,0.769 0 0 1 -0.931,-0.524 0.75,0.75 0 0 1 0.524,-0.924 c 0.114,-0.02 0.214,-0.066 0.328,-0.085 z"
       id="path4" />
    <path
       d="m 65.526,75.647 c 3.291,0.354 -1.861,2.458 -0.825,0.335 a 0.739,0.739 0 0 1 0.825,-0.335 z"
       id="path6" />
    <path
       d="m 108.044,120.118 a 0.629,0.629 0 0 1 0.17,0.715 c -0.485,1.4 -2.261,2.254 -3.677,2.353 -2.313,0.17 -4.647,0.065 -6.96,0.085 -1.7,0.013 -3.369,0.59 -5.04,0.524 -1.8,-0.072 -5.631,0.944 -6.758,-0.976 -1.068,-1.836 0.275,-4.72 0.583,-6.568 0,-0.013 0.007,-0.026 0.007,-0.039 -0.033,-0.04 -0.065,-0.072 -0.1,-0.118 A 1.843,1.843 0 0 1 86,115.143 a 1.124,1.124 0 0 1 0.157,-0.589 1.5,1.5 0 0 1 -0.177,-0.171 2.188,2.188 0 0 1 -0.55,-1.783 3.806,3.806 0 0 1 0.157,-1.651 3.376,3.376 0 0 1 -1.435,-1.232 c -1.042,-1.777 0.419,-4.143 -0.577,-6.194 a 2.363,2.363 0 0 1 -0.361,-1.894 c 0.053,-0.512 0.558,-0.911 0.689,-1.41 A 0.858,0.858 0 0 1 83.85,99.662 0.7,0.7 0 0 0 83.811,99.551 c -0.708,-1.324 0.144,-2.622 0.465,-3.887 a 4.122,4.122 0 0 1 -0.812,-1.33 2.527,2.527 0 0 1 -0.007,-1.252 9.224,9.224 0 0 1 -1.324,-0.42 17.525,17.525 0 0 1 -2.674,-1.422 1.02,1.02 0 0 1 -0.118,0.053 31.261,31.261 0 0 1 -11.726,1.278 c -0.111,3.906 -3.69,8.461 -7.209,9.772 -2.1,0.787 -3.238,1.914 -5.054,3.126 -0.97,0.643 -2.11,1.029 -3.034,1.724 -1.914,1.442 -3.441,3.671 -5.427,4.955 a 0.9,0.9 0 0 1 -0.072,0.085 c -1.095,1.095 -2.229,0.7 -3.225,-0.039 a 9.208,9.208 0 0 1 -2.5,0.865 c -0.019,0.131 0,0.289 -0.006,0.4 a 1.734,1.734 0 0 1 -0.236,0.878 1.341,1.341 0 0 1 -0.584,0.5 c 0.571,0.269 1.134,0.551 1.678,0.859 a 3.455,3.455 0 0 1 1.455,1.213 0.635,0.635 0 0 1 0.262,0.314 c 0.911,2.143 -0.419,2.412 -1.9,2.327 a 12.776,12.776 0 0 1 -3.933,-0.039 c -2.471,-0.151 -4.3,-1.292 -6.423,-2.484 -0.924,-0.518 -3.271,-1.567 -3.048,-2.983 a 6.312,6.312 0 0 1 2.923,-3.677 c 2.294,-1.186 2.327,-3.781 4.588,-3.29 a 3.53,3.53 0 0 1 -0.6,-0.472 c -1.422,-1.422 1.331,-2.91 2.281,-3.362 a 6.93,6.93 0 0 1 2.511,-0.472 2.864,2.864 0 0 1 1.769,-1.462 c 1.508,-0.6 1.993,-1.736 3.33,-2.575 1.3,-0.826 2.884,-2.34 4.372,-2.747 0.013,-0.006 0.026,-0.006 0.039,-0.013 0.033,-0.026 0.065,-0.052 0.1,-0.078 1.042,-0.623 2.346,-2.072 3.664,-2.072 0.891,0 0.76,-1.048 1.566,-1.206 0.164,-0.032 0.321,-0.059 0.478,-0.085 a 0.663,0.663 0 0 1 0.309,-0.629 0.957,0.957 0 0 0 0.013,-0.164 C 55.695,91.622 55.689,91.504 55.689,91.386 A 5.488,5.488 0 0 0 55.636,89.918 2.731,2.731 0 0 1 55.59,88.45 c -1.055,-0.085 -2.11,-0.184 -3.159,-0.328 a 0.411,0.411 0 0 1 -0.138,-0.033 0.649,0.649 0 0 1 -0.832,-0.517 c -0.38,-1.8 0.138,-3.7 0.052,-5.526 -0.1,-2.182 -0.327,-4.365 -0.327,-6.554 0,-3.67 -0.361,-8.258 1.986,-11.358 0.013,-0.02 0.032,-0.033 0.046,-0.053 a 10.9,10.9 0 0 1 0.209,-1.409 0.209,0.209 0 0 1 0.013,-0.059 5.547,5.547 0 0 1 -0.452,-3.284 c 0.177,-2.2 -0.754,-4.509 -0.74,-6.862 -2.347,-2.4 -0.938,-6.253 -0.735,-9.255 a 15.986,15.986 0 0 1 2.806,-7.589 0.78,0.78 0 0 1 0.354,-0.3 8.291,8.291 0 0 1 2.726,-2.8 0.747,0.747 0 0 1 -0.039,-0.5 3.128,3.128 0 0 1 0.734,-1.35 c 0.387,-0.459 0.36,-1.036 0.649,-1.534 0.216,-0.367 0.609,-0.5 0.865,-0.813 0.236,-0.282 0.17,-1.009 0.177,-1.389 a 0.737,0.737 0 0 1 -0.164,-0.446 14.835,14.835 0 0 1 0.524,-5.237 23.673,23.673 0 0 1 1.79,-3.742 c -1.35,-0.321 -2.7,-0.643 -4.064,-0.905 A 110.566,110.566 0 0 1 45.058,13.651 C 42.521,12.839 39.893,12.642 37.35,11.908 35.324,11.324 33.365,10.387 31.307,9.922 27.282,9.01 23.592,8.152 20.1,6.008 A 0.771,0.771 0 0 1 20.42,4.6 c 1.239,-1.245 5.479,-0.216 6.816,0.118 5.2,1.3 10.664,1.665 15.809,3.245 4.365,1.337 9.484,1.92 14.013,2.569 3.71,0.531 7.453,1.429 11.11,2.281 a 2.837,2.837 0 0 1 0.524,-1.921 0.73,0.73 0 0 1 0.734,-0.2 1.436,1.436 0 0 1 0.826,1.4 6.619,6.619 0 0 1 2.229,-0.288 2.277,2.277 0 0 1 1.848,0.852 3.121,3.121 0 0 1 3.447,1.844 1.96,1.96 0 0 1 1.973,0.734 c 0.184,0.354 0.584,0.531 0.78,0.892 a 2.56,2.56 0 0 1 0.1,1.225 2.311,2.311 0 0 1 -1.161,2.078 1.727,1.727 0 0 1 -1.376,0.1 3.231,3.231 0 0 0 0.636,1.514 0.58,0.58 0 0 1 -0.033,0.813 2.261,2.261 0 0 1 -0.275,2.471 2.3,2.3 0 0 1 0.059,2.15 13.6,13.6 0 0 0 -2.353,7.806 c 0.059,2.556 -0.151,6.226 -1.7,8.645 a 11.925,11.925 0 0 1 1.534,4.588 0.821,0.821 0 0 1 0.118,0.046 c 0.347,0.183 0.681,0.491 1.029,0.642 a 2.226,2.226 0 0 1 0.9,0.538 c 0.518,0.616 0.721,1.4 1.206,2.038 a 0.659,0.659 0 0 1 0.138,0.328 c 0.21,0.137 0.4,0.308 0.577,0.426 0.157,0.118 0.367,0.223 0.55,0.347 a 6.785,6.785 0 0 1 1.8,0.144 c 1.658,-4.686 2.143,-9.536 5.06,-13.777 2.215,-3.231 6.351,-5.636 10.159,-4.332 a 0.71,0.71 0 0 1 0.112,0.039 6.7,6.7 0 0 1 1.245,0.584 0.7,0.7 0 0 1 0.354,0.524 4.577,4.577 0 0 1 0.721,1.212 c 2.5,6.266 1.868,13.332 1.651,19.939 a 57.7,57.7 0 0 1 -2.706,15.631 c -0.977,3.081 -2.832,8.292 -6.542,8.665 a 0.584,0.584 0 0 1 -0.111,0 29.822,29.822 0 0 1 4.739,5.27 3.487,3.487 0 0 1 0.459,2.687 c 0.019,0.026 0.045,0.052 0.065,0.085 1.127,1.672 0.315,4.031 0.19,5.873 -0.137,1.894 -0.328,3.6 -1.534,5.119 0.754,-0.957 1.665,3.428 1.7,3.074 a 1.865,1.865 0 0 1 -0.387,1.088 0.673,0.673 0 0 1 0.223,0.544 12.733,12.733 0 0 1 -0.721,4.011 c -0.328,0.845 -0.334,0.918 0.125,1.783 a 5.439,5.439 0 0 1 0.76,2.648 1.84,1.84 0 0 1 -1.7,1.664 4.953,4.953 0 0 0 0.308,0.656 3.939,3.939 0 0 1 0.452,0.911 12.269,12.269 0 0 1 1.226,0.708 c 2.9,1.586 6.357,2.077 9.484,3.12 a 0.724,0.724 0 0 1 0.434,0.367 z m -12.964,1.757 c 1.966,-0.328 9.516,1.068 11.358,-0.918 a 69,69 0 0 1 -7.413,-2.222 c -1.232,-0.524 -2.392,-1.737 -3.788,-1.147 a 7.32,7.32 0 0 1 -2.661,0.682 c -0.97,0.039 -0.97,-1.468 0,-1.508 a 11.6,11.6 0 0 0 2.7,-0.852 c -0.124,-0.236 -0.308,-0.472 -0.4,-0.629 -0.032,-0.052 -0.052,-0.105 -0.078,-0.157 -0.039,0.039 -0.079,0.072 -0.1,0.092 a 2.956,2.956 0 0 1 -0.761,0.576 6.518,6.518 0 0 1 -1.651,0.485 c -0.951,0.164 -1.364,-1.291 -0.407,-1.448 A 3.159,3.159 0 0 0 93.8,113.97 c 0.085,-0.085 0.17,-0.17 0.262,-0.255 a 39.511,39.511 0 0 0 -4.32,-1.573 c -0.727,-0.184 -1.749,-0.361 -2.746,-0.656 a 0.657,0.657 0 0 1 -0.078,0.125 c -0.092,0.734 -0.171,1.75 0.452,1.907 a 10.777,10.777 0 0 0 3.729,0.052 c 0.964,-0.118 0.951,1.4 0,1.508 a 23.931,23.931 0 0 1 -2.91,0.079 4.957,4.957 0 0 1 -0.682,-0.046 c 0,0.013 0.007,0.019 0.007,0.032 a 0.733,0.733 0 0 1 0.026,0.1 c 0.046,-0.007 0.085,-0.033 0.131,0.006 0.184,0.164 0.38,0.328 0.577,0.472 a 4.438,4.438 0 0 0 1.416,0.682 0.766,0.766 0 0 1 -0.407,1.475 5.966,5.966 0 0 1 -1.553,-0.675 c -0.3,1.487 -0.976,5.132 0.649,5.086 a 48.153,48.153 0 0 0 6.727,-0.414 z m 4.561,-61.414 a 90.485,90.485 0 0 0 0.538,-12.931 28.365,28.365 0 0 0 -0.623,-7.623 c -0.459,-1.58 -1.107,-5.007 -3.618,-4.712 -0.131,0.006 -0.262,0.019 -0.386,0.032 a 0.82,0.82 0 0 1 0.013,0.531 7.059,7.059 0 0 1 3.749,5.978 c 0,4.345 -0.118,8.7 -0.158,13.03 a 37.263,37.263 0 0 1 -0.7,8.881 c -1.429,5.341 -1.94,11.26 -6.987,14.485 a 0.806,0.806 0 0 1 0.394,0.524 0.735,0.735 0 0 1 0.235,0.4 A 0.8,0.8 0 0 1 92.333,79 c 2.884,-0.289 5.1,-6.732 5.578,-9.117 0.315,-1.554 1.088,-3.159 1.285,-4.713 0.197,-1.554 0.223,-3.155 0.445,-4.709 z M 97.885,49.437 a 66.127,66.127 0 0 0 0.085,-7.066 c -0.616,2.445 -0.859,5 -1.848,7.348 -1.036,2.451 -1.206,5.368 -2.569,7.636 a 0.638,0.638 0 0 1 -0.158,0.183 2.966,2.966 0 0 1 -0.092,0.334 c -0.157,0.472 -0.118,0.964 -0.249,1.436 -0.15,0.55 -0.517,1.029 -0.675,1.592 a 0.929,0.929 0 0 1 -0.15,0.3 c -0.276,1.114 -0.761,2.15 -1.056,3.264 -0.4,1.5 -0.531,3.074 -0.95,4.555 -0.564,1.979 -1.081,3.887 -1.757,5.814 a 0.763,0.763 0 0 1 -0.177,0.753 3.624,3.624 0 0 0 1.724,1.731 0.685,0.685 0 0 1 0.217,-0.184 c 4.968,-2.838 5.3,-8.409 6.619,-13.318 1.18,-4.402 1.036,-9.842 1.036,-14.378 z M 97.02,40.353 a 1.28,1.28 0 0 1 -0.171,-0.138 c -0.078,-0.079 -0.144,-0.164 -0.209,-0.242 -0.649,2.313 -1.7,4.476 -2.124,6.882 -0.465,2.582 -0.734,4.922 -1.96,7.249 a 2.074,2.074 0 0 1 0.177,0.386 4.6,4.6 0 0 1 0.171,0.747 c 0.852,-2.136 1.153,-4.66 2.051,-6.757 1.095,-2.556 1.134,-5.499 2.065,-8.127 z m -2.255,58.516 c 0.846,-1.573 2.248,-5.446 1.934,-8.035 -1.718,3.788 -5.5,5.695 -9.327,6.849 a 0.756,0.756 0 0 1 -0.407,-1.455 c 3.382,-1.016 6.7,-2.569 8.311,-5.919 1.246,-2.595 0.23,-3.631 -1.265,-5.44 -1.042,-1.252 -1.855,-2.707 -3.29,-3.565 l -0.013,-0.013 c -3.3,3.7 -8.868,5.492 -13.692,6.4 1.927,1.442 3.946,3.2 6.259,3.782 a 3.386,3.386 0 0 0 3.1,-0.413 4.6,4.6 0 0 1 2.182,-0.518 0.754,0.754 0 0 1 0,1.508 c -1.383,0.039 -1.776,1.153 -2.949,1.232 -0.21,0.013 -0.426,0.007 -0.643,0 -0.006,0.013 -0.006,0.026 -0.013,0.039 a 0.83,0.83 0 0 0 0.184,0.918 c 0.242,0.334 0.472,0.682 0.714,1.022 a 0.626,0.626 0 0 1 -0.144,0.918 6.1,6.1 0 0 0 -0.328,3 c 2.353,0.059 4.706,-0.046 7.033,0.217 0.957,0.111 0.964,1.618 0,1.507 -2.3,-0.256 -4.627,-0.157 -6.947,-0.21 a 1.177,1.177 0 0 1 -0.177,0.361 c -0.892,1.2 -0.046,2.209 0.314,3.415 a 11.329,11.329 0 0 1 -0.052,2.975 c 0,2.969 5.44,3.54 7.8,4.188 0.282,0.079 4.025,1.718 2.753,-0.367 -0.334,-0.557 -0.8,-1.088 -1.075,-1.671 a 0.769,0.769 0 0 1 0,-0.76 c 1.069,-1.534 1.075,-2.786 1.134,-4.582 -0.046,0 -0.092,0.013 -0.144,0.013 a 0.663,0.663 0 0 1 -0.262,-0.039 1.143,1.143 0 0 1 -0.144,0.039 c -0.354,0.027 -0.617,0.931 -1.01,1.16 -0.511,0.3 -1.317,0.073 -1.868,0.02 a 19.541,19.541 0 0 1 -5.027,-1.534 c -0.9,-0.34 -0.511,-1.8 0.4,-1.455 a 25.835,25.835 0 0 0 2.805,1.1 18.9,18.9 0 0 0 2.648,0.465 c 0.616,0.072 0.308,-0.406 0.7,-0.793 a 2,2 0 0 1 1.357,-0.465 0.861,0.861 0 0 1 0.268,0.033 0.8,0.8 0 0 1 0.138,-0.033 c 0.354,-0.013 -0.177,-1.245 -0.184,-1.3 -0.085,-0.9 -0.38,-0.544 -0.871,-1.042 A 1.169,1.169 0 0 1 94.765,98.869 Z M 95.44,38.557 a 0.836,0.836 0 0 1 0.42,-0.846 c -1.088,-1.068 -2.511,-1.586 -3.9,-0.032 a 11.891,11.891 0 0 0 -2.53,3.768 41.321,41.321 0 0 0 -2.438,6.633 c -0.3,1.573 -1.409,3.494 -1.285,5.113 a 3.433,3.433 0 0 1 2.255,0.019 c 0.033,0.02 0.052,0.053 0.078,0.072 a 4.965,4.965 0 0 1 2.242,-0.5 2.917,2.917 0 0 1 1.1,0.288 c 1.154,-2.386 1.193,-4.87 1.822,-7.439 0.596,-2.409 1.712,-4.671 2.236,-7.076 z m -4.168,20.9 a 4.937,4.937 0 0 0 0.609,-2.385 3.263,3.263 0 0 1 -1.258,0.072 3.812,3.812 0 0 0 0,0.4 0.954,0.954 0 0 1 0.144,1.56 1.974,1.974 0 0 0 -0.511,1.035 0.665,0.665 0 0 1 0.347,0.361 c 0.033,0 0.053,0.013 0.085,0.006 a 0.32,0.32 0 0 0 0.19,-0.092 0.683,0.683 0 0 1 0.184,-0.321 3.249,3.249 0 0 1 0.21,-0.635 z m 0.013,-4.515 a 0.615,0.615 0 0 0 -0.092,-0.132 1.365,1.365 0 0 0 -1.449,-0.485 5.243,5.243 0 0 0 -1.225,0.394 0.334,0.334 0 0 1 -0.059,0.039 c -0.02,0.465 -0.1,0.924 -0.1,1.232 a 16.358,16.358 0 0 0 0.007,3.448 0.658,0.658 0 0 1 0.465,0.282 4.163,4.163 0 0 1 0.367,-1.193 c 0.033,-0.046 0.072,-0.085 0.105,-0.131 a 0.855,0.855 0 0 1 -0.072,-0.158 c -0.19,-0.517 0.118,-1.258 -0.085,-1.7 a 0.768,0.768 0 0 1 0.111,-0.832 0.668,0.668 0 0 1 1,-0.282 1.416,1.416 0 0 0 0.76,0.243 0.82,0.82 0 0 1 0.267,-0.724 z m -0.8,7.072 c -0.1,0 -0.2,-0.007 -0.288,-0.014 a 1.422,1.422 0 0 1 -0.249,-0.039 c -0.446,1.96 -0.977,3.9 -1.4,5.866 -0.223,1.042 -0.512,2.1 -0.833,3.114 -0.2,0.635 -0.793,1.356 -0.78,2.005 v 0.013 c 0.138,0.177 0.289,0.348 0.446,0.518 A 27.654,27.654 0 0 0 88.9,68 47.743,47.743 0 0 1 90.485,62.015 Z M 89.161,38.8 c -0.006,-0.045 -0.019,-0.085 -0.026,-0.131 a 25.746,25.746 0 0 0 -2.792,4.844 c -1.311,2.91 -1.626,6.122 -2.687,9.1 0.17,0.007 0.327,0.007 0.485,0.007 a 0.267,0.267 0 0 0 0.032,0.006 c 0.053,-2.359 1.632,-5.191 2.268,-7.321 A 25.711,25.711 0 0 1 89.161,38.8 Z M 88.578,61.242 A 2.223,2.223 0 0 1 88.04,61.019 l -0.124,0.02 a 0.714,0.714 0 0 1 -0.341,0.046 14.162,14.162 0 0 1 -2.366,-0.406 c -0.223,3.329 -0.76,7.6 0.721,10.755 a 3.208,3.208 0 0 0 0.341,-0.9 27.146,27.146 0 0 1 0.826,-3.113 c 0.622,-1.952 1.048,-4.148 1.481,-6.18 z m 1.828,17.978 a 17.718,17.718 0 0 1 -2.49,-1.593 c -0.669,2.1 -3.212,3.021 -5.217,3.506 -0.944,0.23 -1.344,-1.225 -0.4,-1.455 a 8.964,8.964 0 0 0 2.687,-0.9 3.788,3.788 0 0 0 1.488,-1.632 c -2.36,1.18 -5.112,1.809 -7.3,3.231 -2.248,1.455 -4.588,2.609 -6.921,3.887 A 27.234,27.234 0 0 0 77.464,83.209 43.581,43.581 0 0 0 84,81.232 c 0.878,-0.394 1.645,0.9 0.76,1.3 a 48.17,48.17 0 0 1 -8.743,2.7 15.8,15.8 0 0 1 -6.528,0.334 c -2.694,0.957 -5.788,1.121 -8.56,1.422 -0.138,0.02 -0.275,0.033 -0.413,0.046 a 1.185,1.185 0 0 1 -0.138,0.171 111.685,111.685 0 0 0 11.982,-0.4 c 5.829,-0.487 14.461,-2.27 18.046,-7.585 z M 86.874,55.31 c 0.006,-0.774 -0.21,-1.128 -1.075,-0.512 a 4.14,4.14 0 0 0 -1.173,1.737 c -0.453,0.859 -1.75,0.1 -1.305,-0.76 0.262,-0.5 0.439,-1.147 0.761,-1.652 a 2.571,2.571 0 0 0 -1.16,0.118 2.447,2.447 0 0 0 -0.794,0.564 c -0.635,0.734 -1.7,-0.334 -1.061,-1.068 a 2.327,2.327 0 0 1 0.38,-0.348 6.692,6.692 0 0 0 -0.708,-0.013 c -0.2,0.577 -0.243,1.213 -0.4,1.8 -0.216,0.807 -0.419,1.862 -1.226,2.281 -0.865,0.453 -1.625,-0.845 -0.766,-1.3 0.472,-0.249 0.6,-1.606 0.694,-2.058 0.066,-0.348 0.223,-0.774 0.289,-1.161 -0.059,-0.039 -0.118,-0.078 -0.164,-0.111 -0.131,-0.1 -0.269,-0.19 -0.406,-0.288 -0.177,-0.276 -0.315,-0.289 -0.4,-0.033 a 11.739,11.739 0 0 1 -1.626,1.756 22.945,22.945 0 0 1 -0.622,3.3 29.948,29.948 0 0 0 6.1,0.623 c 1.658,0 3,0.937 4.614,1.285 a 25.938,25.938 0 0 1 0.048,-4.16 z m -0.5,20.187 a 0.262,0.262 0 0 1 0.045,-0.02 c -1.271,-1.606 -3.323,-2.51 -5.059,-3.533 -1.383,-0.819 -4.484,-2.077 -5.25,-3.611 -0.046,-0.1 -0.118,-0.229 -0.2,-0.387 A 0.854,0.854 0 0 1 75.654,67.94 c -1.651,-0.282 -3.172,-1.259 -4.876,-1.364 -0.963,-0.059 -0.97,-1.566 0,-1.507 a 20.23,20.23 0 0 1 2.779,0.609 8.732,8.732 0 0 1 1.409,0.472 10.245,10.245 0 0 0 -1.422,-2.189 c -3.29,0.308 -6.613,-0.065 -9.936,0.538 -2.8,0.511 -6.5,1.455 -9.393,0.773 -2.176,3.3 -1.461,8.3 -1.442,12.021 0.007,1.894 0.282,3.768 0.243,5.656 -0.026,0.885 -0.177,1.848 -0.21,2.785 a 0.232,0.232 0 0 0 0.066,0.007 c 3.27,0.544 7.046,-0.1 10.27,-0.557 1.875,-0.269 4.2,-0.262 5.958,-1 a 33.31,33.31 0 0 0 3.834,-2.222 c 4.292,-2.5 9.116,-4.007 13.442,-6.462 z m -2.537,-3.959 c 0.2,0.105 0.413,0.216 0.623,0.328 -1.514,-3.4 -0.97,-7.852 -0.754,-11.372 a 0.991,0.991 0 0 1 0.059,-0.21 l -0.413,-0.118 c -0.813,2.982 -1.737,8.717 0.413,11.267 a 0.505,0.505 0 0 1 0.074,0.105 z M 81.9,59.773 c -0.138,-0.039 -0.275,-0.072 -0.419,-0.105 -1.868,-0.419 -3.835,-0.288 -5.749,-0.642 -0.183,0.668 -0.367,1.33 -0.524,1.966 a 2,2 0 0 1 -0.046,0.348 3.611,3.611 0 0 1 -0.039,1.946 5.73,5.73 0 0 1 1.383,2.825 c 0.288,1.724 3.257,3.257 5.007,4.195 C 80.424,67.074 81.106,62.683 81.9,59.773 Z M 79.12,17.347 c 0.007,-0.367 0.085,-0.537 -0.118,-0.7 a 2.45,2.45 0 0 1 -0.5,-0.577 2.176,2.176 0 0 0 -0.413,-0.059 c 0.027,0.629 -0.026,1.272 -0.052,1.908 a 2.281,2.281 0 0 0 0.7,0.19 c 0.324,-0.133 0.383,-0.447 0.383,-0.762 z m -1.462,33.794 c -0.1,-0.19 -0.209,-0.387 -0.3,-0.6 -0.091,-0.213 -0.243,-0.669 -0.459,-0.793 -0.216,-0.124 -0.413,-0.243 -0.623,-0.361 0.1,0.629 0.2,1.219 0.315,1.73 a 7.669,7.669 0 0 1 0.157,1.043 4.729,4.729 0 0 1 0.91,-1.019 z M 76.02,22.8 c 0.99,0.2 1.868,-0.078 0.865,-1.343 a 0.79,0.79 0 0 1 -0.092,-0.852 8.306,8.306 0 0 1 -0.288,-2.57 c -0.007,-0.8 0.308,-1.959 0,-2.693 a 1.781,1.781 0 0 0 -1.77,-1.2 A 0.73,0.73 0 0 1 73.49,14.1 c -0.013,-0.032 -0.039,-0.052 -0.053,-0.085 a 0.9,0.9 0 0 1 -0.2,-0.262 c -0.465,-0.511 -1.1,-0.472 -1.855,-0.38 a 4.907,4.907 0 0 0 -0.524,0.105 2.6,2.6 0 0 1 0.465,0.826 c 0.466,1.3 -0.74,2.956 -1.756,3.886 0,0.013 0.006,0.026 0.006,0.033 0.027,0.478 0.662,0.511 1.167,0.492 a 0.971,0.971 0 0 1 0.452,-0.177 2.325,2.325 0 0 0 0.348,-0.086 9.268,9.268 0 0 1 1.828,-0.458 c 0.951,-0.2 1.357,1.251 0.407,1.448 -0.459,0.1 -0.931,0.151 -1.377,0.282 -0.131,0.039 -0.255,0.079 -0.38,0.118 -0.006,0.02 -0.006,0.039 -0.013,0.059 a 5.42,5.42 0 0 0 -0.2,0.858 0.543,0.543 0 0 1 -0.006,0.059 c -0.007,0.046 -0.007,0.092 -0.013,0.138 v 0.026 c 0.033,-0.013 0.059,-0.032 0.092,-0.046 a 0.75292762,0.75292762 0 0 1 0.76,1.3 c -0.249,0.144 -0.518,0.249 -0.774,0.374 a 1.816,1.816 0 0 0 -0.655,0.354 0.9,0.9 0 0 0 -0.157,0.249 10.02,10.02 0 0 1 3.415,-0.577 8.872,8.872 0 0 1 1.553,0.164 z m 0.668,3.3 a 2.784,2.784 0 0 0 0.243,-1.357 0.619,0.619 0 0 1 -0.066,-0.131 14.06,14.06 0 0 0 -2.4,-0.479 11.326,11.326 0 0 0 -2.937,0.5 1.832,1.832 0 0 0 0.387,1.39 1.129,1.129 0 0 1 -0.039,1.088 2.473,2.473 0 0 0 -0.518,1.009 2.009,2.009 0 0 1 -0.531,1.023 c -0.406,1.219 -0.662,2.464 -1.108,3.67 -0.354,0.944 -1.324,1.271 -1.651,2.241 a 2.026,2.026 0 0 1 -1,1.344 c -1.521,0.859 0.039,2.111 0.727,3 0.59,0.754 -0.472,1.829 -1.068,1.062 -0.236,-0.3 -0.623,-0.767 -0.99,-1.3 0.393,3.205 3.73,7.361 6.4,4.084 a 10.894,10.894 0 0 0 2.32,-6.4 40.994,40.994 0 0 1 0.6,-6.135 c 0.158,-0.642 1.029,-2.786 1.541,-4.332 a 0.77,0.77 0 0 1 -1.036,0.268 c -0.177,-0.085 -0.21,-0.059 -0.439,-0.059 a 0.754,0.754 0 0 1 0,-1.507 2.661,2.661 0 0 1 1.206,0.269 0.723,0.723 0 0 1 0.359,0.752 z m 1.187,64.048 C 77.088,89.584 76.308,89.001 75.482,88.424 A 0.755,0.755 0 0 1 75.174,88 c -0.072,0.013 -0.157,0.026 -0.229,0.04 -1.612,0.236 -3.271,0.38 -4.942,0.471 a 0.691,0.691 0 0 1 -0.052,0.289 7.488,7.488 0 0 1 -1.383,2.3 30.169,30.169 0 0 0 9.307,-0.948 z m -4,-30.064 c 0.773,-3 1.782,-6.22 1.094,-9.3 -0.321,-1.455 -0.813,-2.877 -1.062,-4.345 a 11.168,11.168 0 0 0 -0.517,-2.3 c -0.066,0.059 -0.125,0.125 -0.19,0.177 a 6.762,6.762 0 0 1 -2.845,1.4 0.634,0.634 0 0 1 -0.072,0.256 c -0.171,0.354 -0.059,0.681 -0.374,1.009 a 6.137,6.137 0 0 1 -0.793,0.649 c -0.662,0.478 -1.4,0.839 -2.051,1.311 -0.787,0.57 -1.541,-0.734 -0.761,-1.3 0.6,-0.439 1.279,-0.76 1.882,-1.193 a 4.78,4.78 0 0 0 0.412,-0.3 0.353,0.353 0 0 1 0.118,-0.072 1.318,1.318 0 0 1 0.059,-0.354 1.234,1.234 0 0 1 -0.511,0.268 6.127,6.127 0 0 1 -1.252,0.348 H 66.855 C 63.381,48.612 59.18,45.676 56.401,43.5 c -0.767,-0.6 0.308,-1.658 1.068,-1.069 0.846,0.662 1.77,1.016 2.609,1.659 0.544,0.406 0.832,1.147 1.652,1.016 a 1.379,1.379 0 0 1 0.858,0.131 3.546,3.546 0 0 0 1.776,0.406 0.758,0.758 0 0 1 0.9,-1.2 2.5,2.5 0 0 0 1.16,0.373 0.757,0.757 0 0 1 0.61,-0.078 3.928,3.928 0 0 1 -0.308,-0.341 c -1.77,-2.163 -3.133,-4.143 -2.491,-6.718 a 3.492,3.492 0 0 0 -1.016,1.736 6.1,6.1 0 0 0 0.839,3.415 c 0.426,0.872 -0.878,1.632 -1.3,0.761 -0.78,-1.606 -1.554,-3.422 -0.813,-5.172 a 4.4,4.4 0 0 1 2.936,-2.726 v -0.23 a 9.638,9.638 0 0 0 -4.627,1.973 c -0.754,0.6 -1.907,-0.459 -1.147,-1.068 a 11.041,11.041 0 0 1 7.085,-2.517 1.237,1.237 0 0 1 0.223,0.039 c -3.638,-4 -13.214,0.826 -10.553,6.155 0.433,0.865 -0.865,1.632 -1.3,0.76 a 6.575,6.575 0 0 1 -0.518,-1.4 16.479,16.479 0 0 0 -0.891,3.1 c -0.361,1.96 -1.3,7.459 0.216,8.934 a 0.7,0.7 0 0 1 0.223,0.563 0.718,0.718 0 0 1 0.164,0.452 12.11,12.11 0 0 0 0.786,4.792 1.244,1.244 0 0 1 0.164,0.806 c -0.177,1.055 -0.793,3.664 0.524,3.631 0.905,-0.02 1.816,-0.033 2.714,-0.059 2.628,-0.079 4.843,-1.54 7.544,-1.54 z m -1.862,2.274 c 1.5,0 1.724,0.354 1.672,-0.551 -4.274,-0.072 -8.659,-0.53 -12.493,0.807 a 14.25,14.25 0 0 1 -6.344,0.721 c -0.04,0.707 0.327,0.5 1.265,0.5 a 20.308,20.308 0 0 0 3.323,-0.236 c 1.894,-0.3 3.8,-0.787 5.695,-0.951 2.316,-0.194 4.557,-0.286 6.884,-0.286 z M 70.429,26.523 a 1.134,1.134 0 0 1 -0.118,-0.19 c -0.02,-0.006 -0.039,-0.006 -0.059,-0.013 -1.357,-0.433 -3.716,0.354 -5.086,0.557 -1.147,0.171 -2.8,0.04 -3.893,0.544 a 2.717,2.717 0 0 1 -0.944,2.255 c -0.505,0.373 -0.347,1 -0.7,1.461 -0.1,0.145 -0.223,0.282 -0.334,0.42 a 9.578,9.578 0 0 1 3.421,-0.655 c -0.17,-0.112 -0.334,-0.217 -0.511,-0.315 a 0.75292762,0.75292762 0 0 1 0.76,-1.3 c 0.433,0.243 0.82,0.557 1.252,0.813 a 5.341,5.341 0 0 0 1.521,0.419 c 0.413,0.118 0.7,0.538 1.127,0.61 a 10.8,10.8 0 0 0 1.455,0.262 c 0.046,0.007 0.079,0.026 0.118,0.033 0.072,-0.19 0.144,-0.38 0.216,-0.577 a 0.669,0.669 0 0 1 -0.386,-0.1 21.576,21.576 0 0 0 -2.6,-0.892 5.4,5.4 0 0 1 -2.143,-1.107 c -0.649,-0.721 0.413,-1.8 1.062,-1.069 a 3.152,3.152 0 0 0 1.081,0.538 6.71,6.71 0 0 0 1.213,0.5 8.541,8.541 0 0 1 2.143,0.734 0.893,0.893 0 0 1 0.085,0.059 c 0.1,-0.288 0.19,-0.564 0.282,-0.839 a 0.775,0.775 0 0 1 0.177,-0.295 0.742,0.742 0 0 1 0.184,-0.282 c 0.216,-0.223 0.163,-0.642 0.288,-0.917 a 3.043,3.043 0 0 1 0.328,-0.571 0.432,0.432 0 0 1 0.061,-0.083 z m -0.072,-4.778 a 3.727,3.727 0 0 1 0.02,-1.547 3.053,3.053 0 0 1 -1.416,-0.347 1.806,1.806 0 0 1 -0.321,-0.262 5.323,5.323 0 0 1 -0.846,1.376 c -0.413,0.459 -1.37,0.131 -1.291,-0.531 0.007,-0.026 0.013,-0.052 0.02,-0.085 a 0.652,0.652 0 0 1 0.2,-0.7 0.006,0.006 0 0 0 0.006,-0.006 6.075,6.075 0 0 1 0.531,-0.937 c -0.583,-0.118 -1.166,-0.23 -1.75,-0.361 a 14.446,14.446 0 0 0 -0.694,3.795 c 0,1.075 0.183,2.143 0.229,3.218 0.125,-0.013 0.256,-0.026 0.374,-0.046 a 17.874,17.874 0 0 1 4.476,-0.6 0.672,0.672 0 0 1 -0.1,-0.2 1.85,1.85 0 0 1 0.053,-2.235 2.179,2.179 0 0 1 0.509,-0.532 z m -2.523,-4.437 a 13.059,13.059 0 0 0 0.327,-2.936 C 60.3,12.6 52.687,10.963 44.867,9.987 42.311,9.666 39.939,8.499 37.356,8.243 A 27.2,27.2 0 0 1 31.792,7.1 C 31.451,6.989 24.287,5.317 22.131,5.409 c 3.69,1.848 7.662,2.281 11.6,3.7 4.181,1.514 8.533,2.215 12.807,3.421 6.935,1.953 14.21,3.48 21.296,4.778 z m -4.969,75.558 c 2.2,-0.938 4.536,-1.947 5.545,-4.287 -2.1,0.079 -4.188,0.085 -6.22,0.105 -1.684,0.02 -3.382,-0.02 -5.073,-0.118 a 0.773,0.773 0 0 1 -0.1,0.334 c -0.157,0.275 0.191,0.951 0.191,1.259 V 91.6 a 3.386,3.386 0 0 1 -0.053,0.668 10.42,10.42 0 0 0 3.2,-0.859 c 1.4,-0.681 2.825,-1.055 4.234,-1.658 0.884,-0.38 1.658,0.918 0.767,1.3 A 35.2,35.2 0 0 1 56.7,93.829 c -1.344,0.216 -1.167,0.937 -2.156,1.311 a 20.879,20.879 0 0 0 -2.944,1.383 9.917,9.917 0 0 0 1.933,1.1 0.7511165,0.7511165 0 0 1 -0.4,1.448 C 51.37,98.547 50.256,97.026 48.539,98.364 a 34.529,34.529 0 0 0 -3.113,2.071 c -0.531,0.517 -0.728,1.291 -1.377,1.678 -0.636,0.367 -1.881,0.413 -2.425,1.048 a 8,8 0 0 1 0.852,0.715 c 0.721,0.655 -0.347,1.717 -1.062,1.068 a 2.74,2.74 0 0 0 -2.667,-0.38 c 2.72,0.7 5.158,2.746 7.006,4.752 a 4.371,4.371 0 0 0 -1.815,-2.452 0.757,0.757 0 0 1 0.767,-1.3 6.048,6.048 0 0 1 2.634,3.887 2.329,2.329 0 0 1 0.341,-0.308 30.382,30.382 0 0 0 2.9,-2.511 c 1.684,-1.546 3.847,-2.149 5.492,-3.814 1.4,-1.422 3.775,-1.586 5.394,-2.661 a 12.775,12.775 0 0 0 4.556,-7.092 q -0.483,0.276 -1,0.531 c -2.347,1.134 -4.628,2.773 -7.23,3.271 -0.95,0.183 -1.356,-1.272 -0.4,-1.455 2.108,-0.412 3.573,-1.74 5.473,-2.546 z m 1.18,-74.857 c -0.19,-0.046 -0.386,-0.091 -0.577,-0.131 a 23.972,23.972 0 0 0 -1.874,3.782 11.8,11.8 0 0 0 -0.472,4.208 9.8,9.8 0 0 1 2.425,-0.387 33.208,33.208 0 0 1 -0.2,-4.345 19.2,19.2 0 0 1 0.698,-3.127 z M 45.562,111.3 c -0.019,-0.072 -0.033,-0.144 -0.052,-0.216 a 0.678,0.678 0 0 1 -0.413,-0.236 c -1.94,-2.2 -4.824,-4.87 -7.97,-5.014 a 20.192,20.192 0 0 0 2.084,1.291 13.986,13.986 0 0 1 3.264,2 c 0.577,0.506 2.189,2.558 3.087,2.175 z m -3.27,-0.275 c -0.007,-0.007 -0.013,-0.013 -0.013,-0.02 a 24.145,24.145 0 0 0 -4.32,-2.825 c -0.1,-0.065 -0.2,-0.124 -0.308,-0.183 a 21.678,21.678 0 0 0 1.75,2.451 c 0.682,1.016 1.128,1.324 2.327,0.773 a 3.557,3.557 0 0 1 0.564,-0.2 z m -1.416,6.8 c 0.931,-0.118 1.376,-0.354 0.308,-0.832 -2.156,-0.964 -4.175,-1.888 -6.259,-3 -0.852,-0.459 -0.092,-1.757 0.766,-1.3 0.472,0.256 0.964,0.492 1.456,0.721 a 2.207,2.207 0 0 1 -0.361,-0.426 0.757,0.757 0 0 1 1.3,-0.767 c 0.171,0.3 0.551,0.531 0.708,0.892 a 2.423,2.423 0 0 1 0.164,0.557 1.762,1.762 0 0 1 0.42,-0.151 c 0.026,0 0.137,-0.033 0.2,-0.039 0.007,-0.21 0.02,-0.42 0.046,-0.623 a 2.172,2.172 0 0 1 -0.708,-0.544 29.182,29.182 0 0 1 -1.881,-2.523 c -0.216,-0.308 -0.413,-0.61 -0.583,-0.911 a 1.363,1.363 0 0 1 -0.131,-0.046 c -1.895,-0.964 -1.953,1.54 -3.336,2.372 a 11.091,11.091 0 0 0 -1.4,1.01 c 2.176,1.671 3.461,4.312 6.141,5.237 a 17.988,17.988 0 0 0 3.15,0.372 z m -8.036,-1.737 c 0.256,0.118 0.5,0.243 0.748,0.367 a 19.305,19.305 0 0 0 -3,-3.12 0.414,0.414 0 0 1 -0.1,-0.085 0.429,0.429 0 0 0 -0.052,0.053 c -1.194,1.257 1.683,2.45 2.404,2.784 z"
       id="path8" />
    <path
       d="m 93.972,119.633 a 0.754,0.754 0 0 1 0,1.508 34.725,34.725 0 0 1 -4.509,-0.413 c -0.951,-0.118 -0.964,-1.626 0,-1.508 a 34.551,34.551 0 0 0 4.509,0.413 z"
       id="path10" />
    <path
       d="m 93.435,107.862 c 0.917,0.3 0.524,1.75 -0.407,1.455 -1.579,-0.512 -3.257,-0.629 -4.765,-1.39 -0.871,-0.432 -0.105,-1.737 0.761,-1.3 1.369,0.691 2.962,0.773 4.411,1.235 z"
       id="path12" />
    <path
       d="m 92.524,89.175 c 0.832,-0.5 1.586,0.8 0.76,1.305 a 4.956,4.956 0 0 1 -2.674,0.917 0.754,0.754 0 0 1 0,-1.507 3.524,3.524 0 0 0 1.914,-0.715 z"
       id="path14" />
    <path
       d="m 90.308,87.294 c 0.793,-0.57 1.547,0.741 0.767,1.3 -1.992,1.436 -4.837,1.508 -7.183,1.5 a 0.754,0.754 0 0 1 0,-1.508 c 2.09,0.006 4.64,-0.014 6.416,-1.292 z"
       id="path16" />
    <path
       d="m 81.3,74.514 c 0.852,-0.479 1.612,0.825 0.767,1.3 a 2.281,2.281 0 0 1 -0.957,0.348 0.749,0.749 0 0 1 -0.754,-0.747 0.774,0.774 0 0 1 0.754,-0.761 0.688,0.688 0 0 1 -0.092,0.007 c 0.013,-0.013 0.092,-0.033 0.144,-0.059 A 1.47,1.47 0 0 1 81.3,74.514 Z"
       id="path18" />
    <path
       d="m 79.959,72.541 c 1.311,0 1.311,1.311 0,1.311 -0.659,0 -0.659,-1.311 0,-1.311 z"
       id="path20" />
    <path
       d="m 78.609,74.959 a 0.751,0.751 0 0 1 1.062,1.062 2.179,2.179 0 0 1 -0.479,0.367 c -0.852,0.465 -1.612,-0.832 -0.76,-1.3 a 0.482,0.482 0 0 0 0.177,-0.129 z"
       id="path22" />
    <path
       d="m 76.97,73.321 c 0.708,-0.662 1.776,0.4 1.062,1.061 a 6.859,6.859 0 0 1 -1.049,0.695 5.01,5.01 0 0 1 -1,0.485 0.751,0.751 0 0 1 -0.925,-0.524 0.767,0.767 0 0 1 0.525,-0.931 7.412,7.412 0 0 0 0.747,-0.386 3.108,3.108 0 0 0 0.64,-0.4 z"
       id="path24" />
    <path
       d="m 77.462,76.106 a 0.754,0.754 0 0 1 0,1.062 6.14,6.14 0 0 1 -1.383,0.937 0.766,0.766 0 0 1 -1.029,-0.268 0.746,0.746 0 0 1 0.269,-1.029 4.689,4.689 0 0 0 1.074,-0.7 0.776,0.776 0 0 1 1.069,-0.002 z"
       id="path26" />
    <path
       d="m 75.41,71.354 a 0.754,0.754 0 0 1 1.069,1.062 l -0.164,0.164 a 0.754,0.754 0 0 1 -1.069,-1.062 z"
       id="path28" />
    <path
       d="m 74.139,15.827 a 0.754,0.754 0 0 1 0,1.507 11.784,11.784 0 0 0 -1.514,0.223 0.78,0.78 0 0 1 -0.931,-0.524 0.761,0.761 0 0 1 0.524,-0.931 14.785,14.785 0 0 1 1.921,-0.275 z"
       id="path30" />
    <path
       d="m 72.952,72.01 c 0.715,-0.662 1.783,0.4 1.069,1.062 a 1.916,1.916 0 0 1 -1.193,0.55 0.758,0.758 0 0 1 -0.754,-0.754 0.771,0.771 0 0 1 0.754,-0.753 c 0.02,0 0.124,-0.105 0.124,-0.105 z"
       id="path32" />
    <path
       d="m 73.405,69.572 a 0.748,0.748 0 0 1 0.091,1.487 0.814,0.814 0 0 1 -0.786,0.243 0.774,0.774 0 0 1 -0.524,-0.931 c 0.091,-0.571 0.707,-0.793 1.219,-0.799 z"
       id="path34" />
    <path
       d="m 72.212,78.754 a 0.753,0.753 0 0 1 1.271,0.806 1.372,1.372 0 0 1 -0.288,0.328 C 73.103,79.96 73.057,80 73.038,80.019 a 0.2,0.2 0 0 1 0.032,-0.052 0.762,0.762 0 0 1 -1.029,0.268 0.751,0.751 0 0 1 -0.268,-1.029 1.553,1.553 0 0 1 0.288,-0.334 c 0.085,-0.065 0.131,-0.105 0.151,-0.118 z"
       id="path36" />
    <path
       d="m 71.792,74.677 c 0.866,-0.445 1.632,0.859 0.767,1.3 -0.36,0.184 -0.708,0.393 -1.068,0.577 -0.865,0.439 -1.626,-0.859 -0.76,-1.3 0.36,-0.19 0.707,-0.393 1.061,-0.577 z"
       id="path38" />
    <path
       d="m 72.094,53.533 c 1.311,0 1.311,1.311 0,1.311 a 0.659,0.659 0 1 1 0,-1.311 z"
       id="path40" />
    <path
       d="m 71.727,55.021 a 0.753,0.753 0 0 1 0.406,1.449 4,4 0 0 1 -1.186,0.026 0.754,0.754 0 0 1 0,-1.508 c 0.177,0.007 0.347,0.027 0.524,0.033 a 1.91,1.91 0 0 0 0.2,0.007 c 0.108,0 0.129,0 0.056,-0.007 z"
       id="path42" />
    <path
       d="m 71.4,56.811 h 0.007 c 0.013,0 0.013,0.006 0.026,0.006 0.059,0 0.124,0 0.183,-0.006 l 0.315,-0.02 a 0.754,0.754 0 0 1 0,1.507 2.346,2.346 0 0 1 -1.285,-0.183 C 69.8,57.649 70.547,56.358 71.4,56.811 Z"
       id="path44" />
    <path
       d="m 71.438,51.305 a 0.754,0.754 0 0 1 0.754,0.754 0.77,0.77 0 0 1 -0.754,0.753 c -0.137,0.014 -0.386,0.145 -0.576,0.164 0.124,-0.013 -0.131,0.053 -0.118,0.046 -0.092,0.013 -0.19,0.026 -0.289,0.033 A 0.749,0.749 0 0 1 69.7,52.3 0.772,0.772 0 0 1 70.453,51.546 h -0.026 c 0.026,-0.013 0.144,-0.045 0.144,-0.045 0.046,-0.007 0.085,-0.007 0.125,-0.014 a 2.542,2.542 0 0 1 0.742,-0.182 z"
       id="path46" />
    <path
       d="m 70.7,69.867 a 0.754,0.754 0 0 1 -0.269,1.029 2.943,2.943 0 0 1 -0.655,0.222 2.694,2.694 0 0 0 -0.492,0.105 0.767,0.767 0 0 1 -1.035,-0.268 0.753,0.753 0 0 1 0.268,-1.029 2.954,2.954 0 0 1 0.656,-0.223 2.619,2.619 0 0 0 0.491,-0.105 0.768,0.768 0 0 1 1.036,0.269 z"
       id="path48" />
    <path
       d="m 69.348,72.01 a 0.75307171,0.75307171 0 0 1 1.068,1.062 l -0.249,0.249 a 0.754,0.754 0 0 1 -1.062,-1.069 z"
       id="path50" />
    <path
       d="m 68.869,67.179 a 0.747,0.747 0 0 1 1.114,0.97 0.652,0.652 0 0 1 -0.517,0.322 c -0.643,0.052 -1.377,-0.741 -0.597,-1.292 z"
       id="path52" />
    <path
       d="m 68.2,74.71 c 0.681,-0.695 1.75,0.374 1.068,1.069 a 0.414,0.414 0 0 0 -0.131,0.177 c -0.465,0.845 -1.77,0.085 -1.3,-0.767 A 2.325,2.325 0 0 1 68.2,74.71 Z"
       id="path54" />
    <path
       d="m 68.974,79.043 a 0.765,0.765 0 0 1 -0.269,1.029 1.613,1.613 0 0 1 -1.12,0.183 c -0.964,-0.033 -0.971,-1.54 0,-1.507 0.111,0.006 0.222,0.026 0.334,0.026 h 0.026 a 0.745,0.745 0 0 1 1.029,0.269 z"
       id="path56" />
    <path
       d="m 67.663,72.567 a 0.772,0.772 0 0 1 -0.269,1.036 c -0.36,0.255 -0.766,0.432 -1.147,0.655 a 0.755,0.755 0 0 1 -0.76,-1.3 c 0.38,-0.223 0.787,-0.4 1.147,-0.656 a 0.757,0.757 0 0 1 1.029,0.265 z"
       id="path58" />
    <path
       d="m 67.447,67.835 a 0.74,0.74 0 0 1 0.485,0.7 0.749,0.749 0 0 1 -0.754,0.747 0.984,0.984 0 0 1 -0.695,-0.3 c -0.675,-0.643 0.263,-1.639 0.964,-1.147 z"
       id="path60" />
    <path
       d="m 66.051,77.273 c 0,-0.007 0.1,-0.138 0.1,-0.138 a 2.68,2.68 0 0 1 0.171,-0.209 0.746,0.746 0 0 1 1.061,0 0.759,0.759 0 0 1 0,1.061 c 0.086,-0.091 -0.085,0.131 -0.078,0.118 a 2.62,2.62 0 0 1 -0.164,0.21 0.756,0.756 0 0 1 -1.069,0 0.767,0.767 0 0 1 -0.021,-1.042 z"
       id="path62" />
    <path
       d="m 67.014,55.152 a 0.754,0.754 0 0 1 0,1.508 0.263,0.263 0 0 1 -0.052,0.006 0.726,0.726 0 0 0 -0.157,0.053 0.75,0.75 0 0 1 -0.925,-0.525 0.77,0.77 0 0 1 0.525,-0.93 1.735,1.735 0 0 1 0.609,-0.112 z"
       id="path64" />
    <path
       d="m 66.85,57.466 c 1.311,0 1.311,1.311 0,1.311 -1.311,0 -1.31,-1.311 0,-1.311 z"
       id="path66" />
    <path
       d="m 66.523,65.888 c 1.114,-0.006 0.721,1.232 -0.02,1.639 a 0.92,0.92 0 0 1 -1.167,-0.19 0.749,0.749 0 0 1 0,-1.062 1.719,1.719 0 0 1 1.187,-0.387 z"
       id="path68" />
    <path
       d="m 66.359,52.039 a 0.754,0.754 0 0 1 0,1.507 23.011,23.011 0 0 1 -6.43,-0.6 0.756,0.756 0 0 1 0.407,-1.455 21.559,21.559 0 0 0 6.023,0.548 z"
       id="path70" />
    <path
       d="m 65.69,58.823 a 0.759,0.759 0 0 1 -0.524,0.924 2.564,2.564 0 0 1 -1.134,0.118 c -0.367,-0.013 -0.741,-0.007 -1.114,-0.007 a 0.759,0.759 0 0 1 -0.4,-1.383 1.2,1.2 0 0 1 0.02,-0.209 0.752,0.752 0 0 1 0.177,-1.364 2.494,2.494 0 0 0 0.557,-0.085 0.644,0.644 0 0 1 0.137,-0.059 c -0.485,-0.3 -0.432,-1.914 0.164,-1.914 h 0.656 a 0.984,0.984 0 0 1 0,1.967 H 63.98 a 0.735,0.735 0 0 1 0.1,1.278 c -0.007,0.1 -0.02,0.183 -0.033,0.268 a 1.576,1.576 0 0 0 0.721,-0.059 0.749,0.749 0 0 1 0.922,0.525 z"
       id="path72" />
    <path
       d="m 65.127,81.337 a 0.77,0.77 0 0 1 -0.269,1.029 1.235,1.235 0 0 1 -0.708,0.183 0.751,0.751 0 0 1 -0.026,-1.5 0.767,0.767 0 0 1 1.003,0.288 z"
       id="path74" />
    <path
       d="m 64.6,70.588 c 0.944,-0.23 1.344,1.225 0.4,1.448 -0.183,0.046 -0.373,0.079 -0.564,0.131 -0.072,0.026 -0.15,0.046 -0.222,0.079 a 0.057,0.057 0 0 0 -0.027,0.006 0.761,0.761 0 0 1 -1.068,0 0.753,0.753 0 0 1 0,-1.061 3.1,3.1 0 0 1 1.481,-0.603 z"
       id="path76" />
    <path
       d="m 64.681,68.484 a 0.78,0.78 0 0 1 0,1.068 6.567,6.567 0 0 1 -0.819,0.655 c -0.715,0.656 -1.783,-0.406 -1.069,-1.068 a 6.433,6.433 0 0 0 0.82,-0.655 0.76,0.76 0 0 1 1.068,0 z"
       id="path78" />
    <path
       d="m 64.189,72.252 a 0.057,0.057 0 0 1 0.027,-0.006 0.223,0.223 0 0 1 -0.059,0.046 c 0.006,-0.02 0.019,-0.027 0.032,-0.04 z"
       id="path80" />
    <path
       d="m 63.98,47.943 a 0.754,0.754 0 0 1 0,1.507 12.356,12.356 0 0 1 -3.8,-0.275 c -1.016,-0.328 -2.123,-1.219 -3.159,-1.363 -0.95,-0.125 -0.963,-1.633 0,-1.508 1.147,0.157 1.979,0.911 3.067,1.258 a 12.186,12.186 0 0 0 3.892,0.381 z"
       id="path82" />
    <path
       d="m 62.262,67.3 a 0.659,0.659 0 1 1 1.311,0 c 0,1.308 -1.311,1.308 -1.311,0 z"
       id="path84" />
    <path
       d="m 61.594,77.175 a 0.765,0.765 0 0 1 -0.524,0.924 1.235,1.235 0 0 1 -1.508,-0.505 0.781,0.781 0 0 1 0.269,-1.035 0.8,0.8 0 0 1 0.872,0.078 0.76,0.76 0 0 1 0.891,0.538 z"
       id="path86" />
    <path
       d="M 61.2,55.48 A 0.755,0.755 0 0 1 61.219,56.987 0.754,0.754 0 0 1 60.485,55.67 1.308,1.308 0 0 1 61.2,55.48 Z"
       id="path88" />
    <path
       d="M 60.866,59.052 A 0.77,0.77 0 0 1 60.598,60.081 0.883,0.883 0 0 1 59.241,59.55 0.806,0.806 0 0 1 59.47,58.796 1.5,1.5 0 0 1 58.441,58.606 0.764,0.764 0 0 1 58.173,57.577 0.751,0.751 0 0 1 59.2,57.3 h 0.1 l 0.269,-0.02 a 0.748,0.748 0 0 1 0.459,1.324 0.765,0.765 0 0 1 0.3,0.079 0.811,0.811 0 0 1 0.538,0.369 z"
       id="path90" />
    <path
       d="m 59.68,41.31 c 0.38,0.15 0.642,0.373 0.524,0.8 a 0.761,0.761 0 0 1 -0.93,0.531 c -0.407,-0.157 -1.449,-0.4 -1.606,-0.9 -0.347,-1.087 1.547,-0.615 2.012,-0.431 z"
       id="path92" />
    <path
       d="m 60.722,39.848 a 0.75,0.75 0 0 1 -0.754,0.754 1.744,1.744 0 0 1 -0.6,-0.151 0.978,0.978 0 0 0 -0.216,-0.092 0.754,0.754 0 1 1 0,-1.507 1.752,1.752 0 0 1 0.557,0.111 c 0.1,0.04 0.2,0.085 0.289,0.131 h -0.027 c 0.014,0 0.033,0.007 0.046,0.007 a 0.048,0.048 0 0 1 0.033,0.013 c -0.006,0 -0.013,-0.007 -0.02,-0.013 a 0.76,0.76 0 0 1 0.692,0.747 z"
       id="path94" />
    <path
       d="m 60.047,39.114 a 0.048,0.048 0 0 0 -0.033,-0.013 h 0.013 c 0.007,0.006 0.014,0.013 0.02,0.013 z"
       id="path96" />
    <path
       d="m 59.955,80.779 a 0.76,0.76 0 0 1 -0.524,0.925 2.888,2.888 0 0 1 -0.773,0.19 0.755,0.755 0 0 1 -0.754,-0.754 0.771,0.771 0 0 1 0.754,-0.754 h -0.027 a 1.053,1.053 0 0 1 0.177,-0.052 1.525,1.525 0 0 1 0.223,-0.079 0.751,0.751 0 0 1 0.924,0.524 z"
       id="path98" />
    <path
       d="m 59.189,74.959 a 0.749,0.749 0 0 1 0,1.062 1.246,1.246 0 0 1 -0.859,0.3 0.754,0.754 0 0 1 0,-1.508 c 0.013,0 0.02,0.007 0.026,0.007 a 0.714,0.714 0 0 1 0.833,0.139 z"
       id="path100" />
    <path
       d="m 58.238,78.073 a 0.762,0.762 0 0 1 -0.524,0.93 6.862,6.862 0 0 1 -1.272,0.105 0.754,0.754 0 0 1 0,-1.507 4.667,4.667 0 0 0 0.865,-0.053 0.774,0.774 0 0 1 0.931,0.525 z"
       id="path102" />
    <path
       d="m 58.055,50.591 c 0.865,0.439 0.1,1.736 -0.761,1.3 -0.445,-0.223 -0.858,-0.531 -1.311,-0.734 A 4.6,4.6 0 0 1 54.85,50.548 c -0.741,-0.636 0.327,-1.7 1.061,-1.069 a 6.956,6.956 0 0 0 0.97,0.459 c 0.387,0.226 0.774,0.449 1.174,0.653 z"
       id="path104" />
    <path
       d="m 57.838,72.115 a 0.754,0.754 0 0 1 0,1.507 3.241,3.241 0 0 1 -0.937,-0.111 0.752,0.752 0 0 1 0.4,-1.449 2.1,2.1 0 0 0 0.537,0.053 z"
       id="path106" />
    <path
       d="m 57.753,58.921 c 0.97,0.039 0.977,1.547 0,1.507 a 4.464,4.464 0 0 1 -1.016,-0.19 0.758,0.758 0 0 1 0.053,-1.461 h -0.426 c -0.656,0 -0.656,-1.966 0,-1.966 h 0.655 c 0.649,0 0.655,1.913 0.02,1.959 a 0.588,0.588 0 0 1 0.1,0.02 3.557,3.557 0 0 0 0.614,0.131 z"
       id="path108" />
    <path
       d="m 57.019,37.148 c 1.311,0 1.311,1.311 0,1.311 -0.655,0 -0.655,-1.311 0,-1.311 z"
       id="path110" />
    <path
       d="m 56.488,69.113 a 0.75205602,0.75205602 0 0 1 0.407,1.448 c -0.276,0.072 -0.721,0.125 -0.905,0.2 a 3.122,3.122 0 0 1 -0.937,0.242 0.754,0.754 0 1 1 0,-1.507 5.577,5.577 0 0 0 0.616,-0.216 2.211,2.211 0 0 1 0.38,-0.053 c 0.151,-0.042 0.295,-0.081 0.439,-0.114 z"
       id="path112" />
    <path
       d="m 56.527,54.91 a 0.754,0.754 0 0 1 0,1.507 0.786,0.786 0 0 0 -0.373,0.053 0.744,0.744 0 0 1 -0.924,-0.525 0.762,0.762 0 0 1 0.524,-0.924 1.926,1.926 0 0 1 0.773,-0.111 z"
       id="path114" />
    <path
       d="m 56.16,100.16 c 0.951,-0.157 1.364,1.292 0.407,1.455 -2.353,0.394 -5.211,0.918 -7.531,0.079 -0.911,-0.321 -0.518,-1.783 0.4,-1.448 2.038,0.734 4.673,0.262 6.724,-0.086 z"
       id="path116" />
    <path
       d="m 56.364,82.372 a 0.983,0.983 0 0 1 0,1.966 h -0.656 c -0.655,0 -0.655,-1.966 0,-1.966 z"
       id="path118" />
    <path
       d="m 56.364,80.406 a 0.659,0.659 0 1 1 0,1.311 h -0.656 c -0.655,0 -0.655,-1.311 0,-1.311 z"
       id="path120" />
    <path
       d="m 56.2,67.035 a 0.755,0.755 0 0 1 0.754,0.754 0.764,0.764 0 0 1 -0.754,0.754 c 0.111,-0.007 -0.026,0.013 -0.04,0.026 a 0.774,0.774 0 0 1 -1.068,0 0.761,0.761 0 0 1 0,-1.068 1.793,1.793 0 0 1 1.108,-0.466 z"
       id="path122" />
    <path
       d="m 56.082,74.638 c 0.662,0.695 -0.393,1.75 -1.069,1.055 a 1.3,1.3 0 0 1 -0.386,-0.858 0.757,0.757 0 0 1 0.753,-0.754 0.719,0.719 0 0 1 0.702,0.557 z"
       id="path124" />
    <path
       d="m 55.027,44.279 a 0.776,0.776 0 0 1 0.268,1.035 0.759,0.759 0 0 1 -1,0.282 0.751,0.751 0 0 1 0.027,-1.5 1.238,1.238 0 0 1 0.705,0.183 z"
       id="path126" />
    <path
       d="m 54.784,46.343 a 0.753,0.753 0 0 1 -0.426,1.442 c -0.02,-0.006 -0.177,-0.052 -0.242,-0.078 -0.007,0 -0.02,-0.007 -0.027,-0.007 a 0.756,0.756 0 0 1 0.426,-1.448 c 0.02,0.006 0.19,0.059 0.249,0.085 0.007,0 0.013,0.006 0.02,0.006 z"
       id="path128" />
    <path
       d="m 54.784,46.343 c -0.007,0 -0.013,-0.006 -0.02,-0.006 a 0.026,0.026 0 0 1 0.02,0.006 z"
       id="path130" />
    <path
       d="m 49.154,103.49 c 1.311,0.007 1.311,1.514 0,1.507 -0.655,0 -1.147,-0.039 -1.8,-0.078 -0.531,-0.033 -0.866,-0.21 -1.4,-0.249 -0.963,-0.059 -1.048,-1.567 -0.078,-1.508 0.609,0.04 1.114,0.223 1.717,0.276 0.578,0.045 1.561,0.052 1.561,0.052 z"
       id="path132" />
  </g>
  <path
     style="fill:#b3b3b3;stroke-width:0.188235"
     d="m 74.654639,85.707943 c 0.364151,-0.0726 0.381363,-0.211273 0.376471,-3.03319 -0.0028,-1.626409 0.03554,-5.28652 0.08525,-8.133579 0.09684,-5.546242 0.03913,-6.090335 -0.858443,-8.094118 l -0.463751,-1.035294 -2.170303,0.05862 c -1.704472,0.04604 -2.727509,-0.04376 -4.766321,-0.418345 -3.623039,-0.665657 -5.461836,-0.843052 -9.14921,-0.882656 l -3.2,-0.03437 -0.656059,0.910806 c -0.360832,0.500943 -0.530243,0.862634 -0.37647,0.803756 0.153773,-0.05888 1.105404,-0.29778 2.114735,-0.530894 1.995667,-0.460919 2.400147,-0.381789 2.400147,0.469554 0,0.550012 -0.296999,0.781258 -1.22353,0.952652 -0.414117,0.07661 -1.451606,0.380656 -2.305528,0.675668 -0.853924,0.295012 -1.700983,0.539601 -1.882353,0.54353 -0.181372,0.0039 -0.554284,0.33205 -0.828693,0.729159 -0.571652,0.82726 -1.593421,1.505441 -5.446588,3.615075 -1.510035,0.826753 -3.161109,1.868889 -3.669054,2.315858 l -0.923537,0.81267 1.740892,0.874329 c 0.957491,0.480881 3.273604,1.553758 5.146918,2.384172 4.124058,1.828136 4.866473,2.199476 7.029212,3.515858 3.144841,1.914151 4.204451,2.330793 6.597555,2.594179 0.621176,0.06837 2.761037,0.328966 4.755245,0.579106 3.217363,0.403567 6.573339,0.546778 7.673411,0.327454 z M 70.86801,84.127235 c -0.359578,-0.298424 -0.335316,-1.102865 0.04597,-1.52418 0.353636,-0.390763 1.378538,-0.461228 1.721414,-0.118351 0.296653,0.296653 0.290356,1.515329 -0.0094,1.821481 -0.268491,0.274206 -1.343849,0.164742 -1.757973,-0.17895 z m -7.875641,-1.787742 c -0.599231,-0.599231 -0.233982,-1.400661 0.635967,-1.395436 0.841483,0.0051 1.213275,0.510807 0.931919,1.267705 -0.189781,0.510545 -1.110096,0.585521 -1.567886,0.127731 z m 5.169156,-0.735706 c -0.265258,-0.163939 -0.245421,-0.912734 0.03152,-1.189672 0.538652,-0.538652 2.032941,-0.01288 2.032941,0.715294 0,0.548563 -0.683755,0.934739 -1.327923,0.749995 -0.298192,-0.08552 -0.629633,-0.209548 -0.736535,-0.275617 z m 2.924962,-0.01723 c -0.649527,-0.649527 -0.144832,-1.26628 0.961653,-1.175171 0.585983,0.04825 0.7304,0.139485 0.780528,0.493095 0.03383,0.23864 -0.04007,0.556287 -0.164225,0.705882 -0.299211,0.360527 -1.207324,0.346827 -1.577956,-0.02381 z M 59.295961,80.18161 c -0.470241,-0.251665 -0.493276,-1.22939 -0.03468,-1.472172 0.181176,-0.09592 0.668235,-0.11907 1.082353,-0.05145 0.648656,0.105913 0.761343,0.195904 0.813601,0.649742 0.03336,0.289741 -0.04054,0.648737 -0.164225,0.797771 -0.262103,0.315815 -1.172835,0.356661 -1.697045,0.07611 z m -4.474029,-0.151478 c -0.512249,-0.394047 -0.510278,-1.280813 0.0036,-1.602456 0.736094,-0.460768 1.905835,0.75997 1.483821,1.548511 -0.261435,0.488495 -0.892717,0.511391 -1.487383,0.05394 z m 15.054723,-1.239966 c -0.338507,-0.338507 -0.143065,-1.179843 0.302706,-1.30309 0.180936,-0.05003 0.710151,-0.03449 1.176033,0.03451 0.752439,0.111452 0.853835,0.184562 0.90772,0.654497 0.09618,0.838854 -0.277634,1.131103 -1.272402,0.994755 -0.467428,-0.06407 -0.968754,-0.235372 -1.114057,-0.380675 z m -9.030923,-0.437227 c -0.644181,-0.5488 -0.614692,-1.493889 0.05183,-1.661175 0.273851,-0.06873 0.483204,-0.275037 0.517647,-0.510108 0.03945,-0.269247 0.259572,-0.44671 0.692551,-0.558333 0.78441,-0.202224 1.115373,-0.08563 1.324594,0.46662 0.243597,0.642988 -0.111084,0.955907 -0.95516,0.842692 l -0.705582,-0.09464 0.295892,0.451588 c 0.269906,0.411929 0.268813,0.492917 -0.01245,0.922177 -0.363528,0.554814 -0.68038,0.591803 -1.209325,0.141177 z m 5.845664,-0.340086 c -0.874776,-0.612716 -0.345191,-1.453862 0.931631,-1.479721 0.633166,-0.01282 0.792966,0.05922 0.92879,0.418716 0.129696,0.343279 0.06774,0.53051 -0.295866,0.894117 -0.53214,0.53214 -0.975557,0.579439 -1.564555,0.166888 z M 51.156953,77.74532 c -0.911902,-0.578312 -1.14701,-1.171635 -0.658029,-1.660616 0.364583,-0.364584 0.874357,-0.26404 1.763731,0.347866 0.857692,0.590107 1.075424,1.180037 0.608034,1.647428 -0.35143,0.35143 -0.756635,0.272297 -1.713736,-0.334678 z m 4.75689,-1.419082 c -0.709743,-0.359654 -0.934919,-0.577269 -0.934919,-0.903529 0,-0.947466 0.781775,-1.125531 1.974873,-0.449816 0.882772,0.49996 1.018652,0.904168 0.483759,1.439061 -0.479492,0.479492 -0.399444,0.483995 -1.523713,-0.08572 z M 48.449879,76.20248 c -1.017897,-0.956265 0.05302,-1.995027 1.216572,-1.180044 0.497322,0.348337 0.533783,0.773312 0.106828,1.245093 -0.410274,0.453348 -0.791539,0.434607 -1.3234,-0.06505 z m 20.377784,-0.07475 c -0.645285,-0.645286 -0.290452,-1.39832 0.658895,-1.39832 0.798745,0 1.215916,0.451356 0.987774,1.068717 -0.250349,0.677455 -1.123953,0.852318 -1.646669,0.329603 z M 58.686747,75.822538 c -0.357166,-0.480199 -0.360407,-0.532204 -0.0616,-0.988235 0.404743,-0.617717 0.929321,-0.612329 1.422472,0.01461 0.473172,0.601541 0.483582,0.782887 0.07111,1.238668 -0.41934,0.463364 -0.965364,0.362301 -1.431975,-0.265043 z m -12.701233,0.119728 c -0.739456,-0.517934 -0.442191,-1.589326 0.440966,-1.589326 0.486699,0 1.399503,0.675396 1.399503,1.035511 0,0.749757 -1.091714,1.078264 -1.840469,0.553815 z M 71.823823,75.59959 c -0.373115,-0.569446 -0.05574,-1.389559 0.601581,-1.554537 0.889545,-0.223262 1.362218,0.913929 0.689052,1.65777 -0.427533,0.472419 -0.940326,0.431402 -1.290633,-0.103233 z M 50.82942,75.057744 c -1.067432,-0.636989 -1.371076,-1.212069 -0.92425,-1.75046 0.322546,-0.388645 0.83568,-0.336998 1.6422,0.165289 0.386178,0.240505 0.847853,0.490995 1.025944,0.556646 0.425574,0.15688 0.632059,1.001105 0.332992,1.361458 -0.358516,0.431986 -0.955422,0.3363 -2.076886,-0.332933 z m 10.142638,-1.120976 c -0.632299,-0.355372 -0.732292,-0.496972 -0.684452,-0.969252 0.09171,-0.905409 0.580473,-1.049789 1.616217,-0.477433 0.871775,0.481747 1.148223,0.967294 0.907659,1.594192 -0.151567,0.394979 -0.994466,0.327385 -1.839424,-0.147507 z M 47.437138,73.78161 c -0.546758,-0.292616 -0.478463,-1.086912 0.10607,-1.233621 0.700764,-0.17588 1.035716,0.03053 1.035716,0.638258 0,0.811968 -0.373325,1.006631 -1.141786,0.595363 z m 22.516658,-0.10964 c -0.472249,-0.181219 -0.713949,-0.765656 -0.489831,-1.184424 0.242903,-0.453869 1.595308,-0.717301 1.992057,-0.388028 0.584591,0.485167 0.267759,1.346283 -0.571216,1.552506 -0.582265,0.143123 -0.608548,0.143686 -0.93101,0.01995 z m -15.86899,-0.378265 c -0.70634,-0.445442 -0.458458,-1.57606 0.345542,-1.57606 0.647177,0 1.66569,0.715328 1.675106,1.17647 0.0015,0.07765 -0.170863,0.314922 -0.383217,0.527276 -0.4098,0.4098 -0.838097,0.376401 -1.637431,-0.127686 z m 3.529412,-0.07018 c -0.427017,-0.427017 -0.458435,-0.62454 -0.181612,-1.141786 0.386976,-0.723072 1.687494,-0.212323 1.687494,0.662725 0,0.857521 -0.855321,1.129622 -1.505882,0.479061 z m -6.055767,-0.687998 c -0.47532,-0.430158 -0.430552,-0.940882 0.113732,-1.297511 0.570016,-0.37349 1.17479,-0.112754 1.349067,0.581622 0.225572,0.898751 -0.739077,1.370848 -1.462799,0.715889 z M 63.430542,72.258285 C 62.817528,72.054889 62.3201,71.627948 62.3201,71.305197 c 0,-0.08374 0.170702,-0.32296 0.379338,-0.531596 0.407776,-0.407776 0.931758,-0.372898 1.926545,0.128236 0.379873,0.191365 0.517647,0.401431 0.517647,0.789269 0,0.290675 -0.05647,0.58497 -0.12549,0.65399 -0.188602,0.188602 -0.869793,0.151354 -1.587598,-0.08681 z m -5.240837,-1.037308 c -0.795406,-0.159081 -1.24974,-0.829273 -0.946408,-1.396054 0.192695,-0.360055 0.326058,-0.397622 1.056262,-0.297536 1.190568,0.163185 1.573483,0.415325 1.573483,1.036096 0,0.289691 -0.05647,0.583181 -0.125491,0.652201 -0.158334,0.158335 -0.782043,0.160454 -1.557846,0.0053 z M 54.257119,71.04062 c -0.884104,-0.619251 -0.193254,-1.846258 0.833551,-1.480453 0.662411,0.235988 0.914887,0.66195 0.759444,1.281284 -0.09781,0.389721 -0.239719,0.499723 -0.644658,0.499723 -0.28558,0 -0.712332,-0.135249 -0.948337,-0.300554 z m 17.242653,-0.280974 c -0.844897,-0.22148 -1.195005,-0.744593 -0.885452,-1.322997 0.18217,-0.34039 0.341559,-0.386324 1.090731,-0.314338 0.482561,0.04637 1.130711,0.205375 1.440334,0.353347 0.68194,0.325909 0.859047,1.063913 0.345533,1.439834 -0.340544,0.249297 -0.490339,0.237573 -1.991146,-0.155846 z m -7.909083,-0.893048 c -0.770364,-0.711675 -0.61385,-1.725424 0.266391,-1.725424 0.461893,0 1.66302,1.094008 1.66302,1.514708 0,0.436395 -0.696393,0.938798 -1.103962,0.796439 -0.169291,-0.05913 -0.540744,-0.322706 -0.825449,-0.585723 z m -3.165316,-0.602635 c -0.237863,-0.1273 -0.364096,-0.394017 -0.364096,-0.769292 0,-0.462202 0.107633,-0.615061 0.550895,-0.782373 0.529635,-0.199916 0.540583,-0.227881 0.283685,-0.724667 -0.406424,-0.785936 -0.180709,-1.10528 0.78122,-1.10528 0.663658,0 0.880553,0.08848 1.12265,0.457965 0.39275,0.599411 0.09149,1.206635 -0.674669,1.359866 -0.424307,0.08486 -0.514197,0.176041 -0.390847,0.396453 0.235207,0.420292 0.02655,0.993899 -0.428407,1.177726 -0.522525,0.211126 -0.465246,0.211803 -0.880431,-0.0104 z m 11.216718,-0.590354 c -0.561797,-0.255972 -0.808662,-0.977373 -0.472903,-1.381938 0.527835,-0.636002 2.068559,-0.09346 2.068559,0.728412 0,0.81569 -0.652876,1.083085 -1.595656,0.653526 z M 57.992717,68.237736 c -0.304721,-0.367167 -0.09796,-1.15698 0.332345,-1.269506 0.580764,-0.151873 1.171509,0.180254 1.171509,0.658643 0,0.241454 -0.101647,0.540654 -0.225882,0.664889 -0.31205,0.31205 -0.998231,0.283042 -1.277972,-0.05403 z m 6.623854,-0.134209 c -0.124235,-0.124235 -0.225882,-0.446118 -0.225882,-0.715294 0,-0.963177 0.973119,-1.301914 1.351897,-0.470588 0.418285,0.918035 -0.464325,1.847572 -1.126015,1.185882 z"
     id="path73" />
  <path
     style="fill:#b3b3b3;stroke-width:0.188235"
     d="m 73.353682,61.062441 c 0.06771,-0.269775 0.06755,-1.156612 -3.39e-4,-1.97075 -0.101461,-1.216612 -0.05553,-1.681875 0.257908,-2.612292 0.209744,-0.622622 0.451806,-1.965223 0.537914,-2.983559 0.12749,-1.507737 0.24074,-1.96538 0.609927,-2.464733 0.403463,-0.545713 0.460294,-0.844702 0.516304,-2.716278 0.0386,-1.289873 -0.05223,-2.86322 -0.234912,-4.068962 -0.327059,-2.158688 -0.831962,-4.151752 -1.051763,-4.151752 -0.07733,0 -0.245853,0.254118 -0.374503,0.564706 -0.182342,0.440213 -0.351907,0.564706 -0.769155,0.564706 -0.788245,0 -1.036589,-0.576122 -0.657138,-1.524463 1.055938,-2.63905 -0.994761,-5.651192 -4.614358,-6.777737 -1.886186,-0.587048 -4.569459,-0.333743 -5.258418,0.496401 -0.239348,0.288397 -0.277401,0.275655 1.887304,0.631929 1.346518,0.221613 3.494812,1.200664 4.512255,2.056386 0.601688,0.506051 0.635545,0.588824 0.427565,1.045292 -0.307211,0.674253 -1.036045,0.649733 -2.11629,-0.0712 -0.465883,-0.31092 -1.294943,-0.734086 -1.842356,-0.94037 -1.073028,-0.404355 -1.68694,-0.493366 -1.075291,-0.155909 1.256951,0.693484 2.347824,2.475552 2.351102,3.840799 0.0021,0.881134 -0.439043,2.486 -0.969827,3.528083 -0.300809,0.590573 -0.451895,0.70708 -0.854368,0.658823 -0.825824,-0.09902 -0.938869,-0.543512 -0.478748,-1.882446 0.639317,-1.860387 0.694016,-2.462239 0.298768,-3.287288 l -0.346927,-0.724183 -0.108818,1.135929 c -0.128471,1.341095 -0.764018,2.802392 -1.832259,4.212871 -0.424625,0.560664 -0.728826,1.089319 -0.676003,1.174789 0.05282,0.08547 0.398327,0.0291 0.767785,-0.125271 0.369458,-0.154369 0.782405,-0.280671 0.917661,-0.280671 0.399514,0 0.874035,0.592963 0.775637,0.969238 -0.112283,0.429369 0.211258,0.448346 1.126207,0.06606 0.371671,-0.155294 0.914387,-0.282353 1.206035,-0.282353 0.348481,0 0.82958,-0.259051 1.403343,-0.75564 0.480191,-0.415602 1.141813,-0.893461 1.470272,-1.06191 0.328459,-0.168448 0.79921,-0.463704 1.046113,-0.656124 0.841362,-0.655704 1.817106,-0.299909 1.683182,0.613755 -0.08208,0.559956 -2.998871,2.596048 -4.861508,3.393616 -1.81023,0.775127 -3.874062,0.86421 -5.364706,0.231561 -0.517647,-0.219696 -1.195294,-0.451414 -1.505883,-0.514928 -0.630366,-0.128907 -0.655811,-0.152152 1.002836,0.91615 0.917459,0.590918 1.194863,1.198971 0.776801,1.702704 -0.353396,0.425816 -0.838732,0.32647 -2.011276,-0.411698 -1.447356,-0.911175 -2.079669,-1.521772 -2.215278,-2.139197 -0.08569,-0.390138 -0.28198,-0.562 -0.829109,-0.725924 -0.394262,-0.118124 -1.029267,-0.426788 -1.411119,-0.685921 -0.381854,-0.259132 -0.724422,-0.47115 -0.761263,-0.47115 -0.03684,0 -0.165508,0.444706 -0.285928,0.988235 -0.120419,0.54353 -0.520926,2.258824 -0.890014,3.811765 -0.602703,2.535874 -0.659307,2.996122 -0.555621,4.517647 0.101242,1.485636 0.419143,3.139388 1.076495,5.6 l 0.188576,0.705882 4.55745,-0.01485 c 3.237781,-0.01056 4.410054,-0.06877 4.048421,-0.201049 -0.87877,-0.321428 -0.902158,-1.376692 -0.03534,-1.594251 0.247173,-0.06204 0.576653,-0.06396 0.732179,-0.0043 0.323492,0.124136 0.387141,-0.169425 0.07814,-0.360397 -0.112549,-0.06956 -0.15953,-0.29895 -0.104403,-0.509756 0.06828,-0.261094 -0.04651,-0.498715 -0.360072,-0.745359 -0.534641,-0.420548 -0.580696,-0.83204 -0.1603,-1.432239 0.24462,-0.349245 0.444433,-0.417789 1.082353,-0.371296 l 0.78235,0.05702 0.0569,0.988235 c 0.0473,0.821613 0.116574,0.988235 0.410844,0.988235 0.194672,0 0.39509,0.148236 0.445373,0.329412 0.07711,0.277839 0.0496,2.086609 -0.03865,2.541177 -0.01507,0.07765 -0.408585,0.141176 -0.874467,0.141176 -1.104661,0 -1.081509,0.248761 0.04706,0.505642 0.491764,0.111934 1.730861,0.425133 2.753548,0.695996 1.404585,0.372011 2.313102,0.49248 3.714061,0.49248 1.841361,0 1.855511,-0.0035 1.977737,-0.490498 z m -3.812731,-0.921689 c -0.196882,-0.513065 0.09859,-1.176839 0.577345,-1.296999 0.402927,-0.101129 0.447505,-0.194347 0.35767,-0.747942 -0.137221,-0.845588 0.198288,-1.430484 0.838993,-1.462624 0.444343,-0.02229 0.455706,-0.03629 0.08708,-0.107264 -0.826544,-0.159149 -0.978549,-1.419305 -0.200972,-1.666099 0.457013,-0.14505 1.325696,0.05866 1.514264,0.355097 0.291595,0.458404 0.146412,1.075288 -0.301051,1.279166 -0.398135,0.181402 -0.427333,0.268407 -0.267122,0.795964 0.125618,0.413645 0.109911,0.76263 -0.05207,1.157005 -0.12757,0.310589 -0.21447,0.744586 -0.193113,0.964437 0.06129,0.630882 -0.470872,1.012034 -1.41299,1.012034 -0.573152,0 -0.873951,-0.08972 -0.948032,-0.282775 z M 67.06176,59.538049 c -0.04171,-0.431177 0.04335,-0.666631 0.29836,-0.825886 0.226129,-0.141219 0.328074,-0.372512 0.278498,-0.631855 -0.106345,-0.556308 0.330086,-0.869284 1.264127,-0.90653 1.219467,-0.04863 1.590809,0.937303 0.571487,1.517327 -0.309934,0.176362 -0.564052,0.432108 -0.564706,0.568326 -0.0032,0.657638 -0.399443,0.997355 -1.095855,0.939432 -0.628436,-0.05227 -0.69905,-0.114329 -0.751911,-0.660814 z m -6.382484,-0.737417 c -0.505044,-0.135394 -0.733917,-0.740034 -0.422267,-1.11555 0.126279,-0.152156 0.54746,-0.27332 0.950105,-0.27332 0.55083,0 0.775702,0.09797 0.943186,0.410918 0.187238,0.349856 0.157153,0.461739 -0.202466,0.752941 -0.454569,0.368087 -0.623256,0.398009 -1.268558,0.225011 z m -5.290933,-1.076104 c -0.0349,-0.304864 0.06963,-0.678819 0.243422,-0.870861 0.280638,-0.3101 0.28061,-0.345767 -3.76e-4,-0.453579 -0.214543,-0.08233 -0.288778,-0.304529 -0.250432,-0.749598 0.03491,-0.405209 -0.06138,-0.748467 -0.2679,-0.954984 -0.400765,-0.400764 -0.403584,-0.563904 -0.01643,-0.951051 0.465255,-0.465255 1.465733,-0.308179 1.543779,0.242374 0.03383,0.238641 -0.04007,0.556288 -0.164224,0.705882 -0.189696,0.22857 -0.117931,0.271993 0.449516,0.271993 0.807824,0 1.20639,0.513436 0.87673,1.129411 -0.110814,0.207059 -0.296335,0.376471 -0.412267,0.376471 -0.118834,0 -0.07489,0.150166 0.10074,0.344233 0.406115,0.448751 0.397532,1.091607 -0.01788,1.339562 -0.181177,0.108141 -0.710589,0.175879 -1.176471,0.15053 -0.777589,-0.04231 -0.852076,-0.08991 -0.908228,-0.580383 z m 11.16737,-0.689116 c -0.41155,-0.15647 -0.484854,-0.287845 -0.435783,-0.781016 0.08083,-0.812337 0.565891,-1.094139 1.237089,-0.718696 0.62568,0.349982 0.785484,1.094075 0.309687,1.441986 -0.403801,0.295266 -0.476307,0.299034 -1.110993,0.05773 z m -5.835294,-0.37647 c -0.415221,-0.157866 -0.485292,-0.2865 -0.435783,-0.8 0.05345,-0.554406 0.123104,-0.617243 0.741464,-0.668911 1.072847,-0.08965 1.655087,0.704342 0.998202,1.361227 -0.344272,0.344273 -0.621409,0.36716 -1.303883,0.107684 z m 0.241124,-3.497092 c -0.419446,-0.920584 -0.07709,-1.101658 2.319462,-1.226782 1.179738,-0.06159 2.755929,-0.222828 3.502646,-0.3583 1.101382,-0.199816 1.412297,-0.200976 1.647059,-0.0061 0.359863,0.29866 0.376038,1.017244 0.02937,1.304951 -0.388456,0.322388 -3.349612,0.732546 -5.438137,0.753246 -1.801716,0.01786 -1.84385,0.0083 -2.060404,-0.466974 z m -4.967255,-0.47251 c -0.345128,-0.286432 -0.33523,-1.006351 0.01786,-1.299394 0.293339,-0.24345 1.387244,-0.129926 2.022127,0.209852 0.33637,0.180021 0.46415,1.097239 0.191701,1.37604 -0.195465,0.20002 -1.910812,-0.02019 -2.231695,-0.286498 z m 13.897108,-0.841192 c -0.872751,-0.6113 -0.44979,-1.191747 1.633276,-2.241421 1.235019,-0.622335 1.901311,-0.471129 1.901311,0.431477 0,0.482052 -0.157501,0.623858 -1.458824,1.313451 -0.802353,0.42518 -1.503505,0.776761 -1.558116,0.781288 -0.05461,0.0045 -0.287553,-0.123631 -0.517647,-0.284795 z m -13.312154,-1.40097 c -0.415221,-0.157867 -0.485291,-0.286501 -0.435784,-0.8 0.05215,-0.540863 0.131432,-0.618839 0.683056,-0.671789 0.732928,-0.07035 1.164175,0.225344 1.164175,0.798245 0,0.775613 -0.506836,1.017476 -1.411447,0.673544 z m 6.907917,-1.16718 c -0.29485,-0.294851 -0.289508,-0.994917 0.0094,-1.233351 0.129412,-0.103226 1.04,-0.227998 2.023529,-0.277272 1.489868,-0.07464 2.022885,-0.192689 3.194579,-0.707506 1.834096,-0.805861 2.323785,-0.937093 2.7036,-0.724538 0.429131,0.240154 0.417651,1.262723 -0.01583,1.409714 -0.181177,0.06144 -1.049412,0.432758 -1.929412,0.82516 -1.986546,0.885824 -1.984108,0.885276 -4.056471,0.91184 -1.101118,0.01411 -1.783407,-0.05804 -1.929412,-0.204047 z m -8.442855,-0.816423 c -0.181218,-0.472247 0.493129,-1.054505 1.146989,-0.990358 0.680406,0.06675 0.891512,0.652199 0.372122,1.031986 -0.465099,0.340089 -1.382277,0.314955 -1.519111,-0.04163 z m 17.664803,-1.345189 c -0.04422,-0.456426 0.03848,-0.650919 0.346944,-0.816005 0.58596,-0.313597 1.283297,-0.07873 1.423379,0.479398 0.171116,0.681782 -0.22479,1.060554 -1.037336,0.992442 -0.6067,-0.05086 -0.680804,-0.11716 -0.732987,-0.655835 z m -0.02944,-1.741308 c -0.264734,-0.494659 -0.245926,-0.687356 0.100941,-1.034223 0.590439,-0.590439 1.774789,-0.269229 1.774789,0.481344 0,0.84351 -1.485807,1.281457 -1.87573,0.552879 z m -4.602992,-2.761925 c -0.170987,-0.06561 -0.297748,-0.333233 -0.297748,-0.628609 0,-0.635718 0.600249,-0.951252 1.809595,-0.951252 0.816991,0 0.848345,0.02052 0.791143,0.517647 -0.0886,0.77 -1.440075,1.393345 -2.30299,1.062214 z m -0.636572,-2.182214 c -0.416758,-0.416759 -0.26104,-1.063916 0.329476,-1.369284 1.08684,-0.562026 1.990181,-0.228708 1.859092,0.685976 -0.105349,0.735074 -1.653456,1.21842 -2.188568,0.683308 z m 2.716401,-2.193954 c -0.178714,-0.197477 -0.26417,-0.484486 -0.196647,-0.660449 0.134356,-0.350127 0.871927,-0.592927 1.301002,-0.428276 0.282992,0.108594 0.398371,1.071395 0.157284,1.312483 -0.245265,0.245264 -0.950348,0.120214 -1.261639,-0.223758 z"
     id="path75" />
  <path
     style="fill:#4d4d4d;stroke-width:0.188235"
     d="m 66.837747,24.938459 c 0,-1.487973 -0.410191,-3.023035 -1.31963,-4.938461 -0.503843,-1.061177 -1.005986,-1.929412 -1.115872,-1.929412 -0.262183,0 -0.254553,0.121181 0.10297,1.635378 0.225413,0.954677 0.27842,1.838985 0.207483,3.461381 l -0.09528,2.179112 1.110163,0.183602 1.110164,0.183602 z"
     id="path77" />
  <path
     style="fill:#4d4d4d;stroke-width:0.188235"
     d="m 62.988884,23.97186 c 0.152683,-1.425734 0.03006,-3.321197 -0.299447,-4.628784 -0.208785,-0.828518 -0.260231,-0.884509 -0.720616,-0.784278 -1.004429,0.218677 -1.001588,0.215316 -0.690597,0.816705 0.809892,1.56616 -0.448146,2.6987 -1.425525,1.283318 -0.232346,-0.33647 -0.441328,-0.638508 -0.464405,-0.671195 -0.02308,-0.03269 -0.389331,0.03411 -0.813899,0.148432 -0.71724,0.193132 -0.771942,0.254574 -0.771942,0.867052 0,0.378365 0.17163,0.891332 0.40287,1.204102 0.425122,0.575008 0.530079,1.323786 0.284279,2.02808 -0.137166,0.393025 -0.09386,0.423529 0.601255,0.423529 0.411987,0 1.412989,0.127045 2.224449,0.282321 0.811461,0.155276 1.489817,0.282335 1.507459,0.282353 0.01764,1.8e-5 0.09239,-0.563218 0.166119,-1.251635 z"
     id="path79" />
  <path
     style="fill:#ff0000;stroke-width:0.188235"
     d=""
     id="path81" />
  <path
     style="fill:#28170b;stroke-width:0.188235"
     d="m 68.126246,30.753135 c -0.127014,-0.297755 -0.374272,-0.710784 -0.549462,-0.917843 -0.465747,-0.550468 -0.927272,-1.525148 -0.927272,-1.958275 0,-0.440688 -0.938411,-0.768411 -2.20509,-0.770087 -0.436329,-5.78e-4 -1.664564,-0.170205 -2.729412,-0.376951 -1.763451,-0.342383 -3.912557,-0.502653 -3.912557,-0.29178 0,0.107932 0.316392,0.892911 0.805412,1.998257 l 0.38047,0.859988 1.75534,-0.603351 c 0.965437,-0.331843 2.063346,-0.785079 2.439799,-1.007192 0.758685,-0.447634 1.314173,-0.379698 1.492624,0.182549 0.299011,0.942103 -0.375619,1.435115 -3.337742,2.439182 -1.005842,0.34095 -1.778733,0.700924 -1.717535,0.799944 0.162277,0.26257 1.469652,0.0068 2.180423,-0.426553 0.337136,-0.205554 0.786979,-0.374052 0.999651,-0.374439 0.212672,-3.87e-4 0.787378,-0.254822 1.277125,-0.56541 1.320789,-0.83762 2.195022,-0.724388 2.195022,0.284303 0,0.139432 -0.12192,0.375432 -0.270932,0.524444 -0.235752,0.235752 -0.156316,0.285755 0.611765,0.385095 0.485483,0.06279 1.076333,0.169362 1.313,0.236828 0.410635,0.117057 0.419748,0.09792 0.199371,-0.418709 z"
     id="path87" />
  <path
     style="fill:#28170b;stroke-width:0.188235"
     d="m 55.512802,22.423545 c -0.854026,-0.414001 -0.65919,-1.717665 0.25671,-1.717665 0.389817,0 0.410698,-0.07869 0.150099,-0.56562 -0.12063,-0.2254 -0.49199,-0.398113 -1.029229,-0.478677 -0.947816,-0.142134 -1.286422,-0.437517 -1.196496,-1.043765 0.11635,-0.784383 0.573151,-0.860029 2.36709,-0.391992 2.305963,0.601625 2.495556,0.479533 1.453494,-0.936008 -0.9228,-1.253536 -1.19359,-2.203605 -0.871379,-3.057241 0.164646,-0.436197 0.160203,-0.600052 -0.01936,-0.714099 -0.546456,-0.34707 -1.515988,-0.03193 -1.999523,0.649933 -0.221251,0.312 -0.399174,0.349109 -1.1783,0.245754 -0.813884,-0.107966 -0.970728,-0.06871 -1.386457,0.347021 -0.257817,0.257817 -0.474757,0.578491 -0.482089,0.712608 -0.0073,0.134118 -0.03387,1.472102 -0.05897,2.973297 -0.03758,2.247825 -0.104784,2.819717 -0.380837,3.241027 -0.595508,0.908861 -0.410523,0.986293 2.36614,0.990437 2.289428,0.0034 2.489754,-0.02201 2.009107,-0.25501 z m -2.097813,-5.142002 c -0.242801,-0.126353 -0.32376,-0.348972 -0.282353,-0.776405 l 0.05805,-0.599258 1.389511,0.01317 c 1.130669,0.01072 1.437488,0.07878 1.647059,0.365389 0.337602,0.461698 0.325066,0.750559 -0.0488,1.124423 -0.245304,0.245303 -0.517232,0.280788 -1.364706,0.178085 -0.582098,-0.07054 -1.211543,-0.207976 -1.398766,-0.305406 z"
     id="path89" />
  <path
     style="fill:#28170b;stroke-width:0.188235"
     d="m 39.429876,59.294115 c 0.144464,-0.363581 0.205767,-1.645559 0.154391,-3.228644 -0.03964,-1.221583 -0.05512,-1.257223 -0.633432,-1.458824 -0.779849,-0.271857 -1.331276,-0.261171 -1.734414,0.03361 -0.417354,0.305176 -0.218643,0.971786 0.233852,0.784496 1.230217,-0.509194 1.550545,-0.13515 1.51757,1.772055 -0.02522,1.458828 0.239059,2.65848 0.462033,2.097307 z"
     id="path93" />
  <path
     style="fill:#28170b;stroke-width:0.188235"
     d=""
     id="path95" />
  <path
     style="fill:#28170b;stroke-width:0.0941176"
     d="m 37.505831,60.246086 c 0.217817,-0.240685 0.14493,-0.517292 -0.275765,-1.046537 -0.421058,-0.529699 -0.455583,-1.055441 -0.09727,-1.481267 0.129412,-0.153798 0.235294,-0.321368 0.235294,-0.37238 0,-0.07346 -1.115062,-0.229213 -1.197671,-0.167293 -0.0882,0.06611 0.233011,1.365321 0.499838,2.021708 0.54999,1.352956 0.553548,1.357409 0.835578,1.045769 z"
     id="path99" />
  <path
     style="fill:#28170b;stroke-width:0.133102"
     d="m 89.497874,117.52348 c 1.66088,-0.30064 2.449926,-0.86053 5.094989,-3.61534 l 1.665294,-1.73439 -0.856574,-0.59491 c -0.59398,-0.41252 -1.040986,-0.86929 -1.45812,-1.48995 -0.33085,-0.49227 -0.75578,-1.01636 -0.944288,-1.16464 -0.706612,-0.55582 -1.080225,-0.31746 -2.379624,1.51821 -0.566489,0.80028 -1.290196,1.71527 -1.608238,2.03331 -0.637941,0.63795 -0.717839,0.90302 -0.304748,1.01104 0.207599,0.0543 0.305735,-0.0141 0.407232,-0.28396 0.215741,-0.57352 1.054487,-1.35374 1.45528,-1.35374 0.438976,0 0.792231,0.37561 0.792231,0.84237 0,0.19555 0.02835,0.35555 0.06299,0.35555 0.03465,0 0.337324,-0.13328 0.672621,-0.29618 0.561801,-0.27295 0.63779,-0.28038 0.968553,-0.0947 0.292595,0.16423 0.358923,0.29597 0.358923,0.71286 0,0.47852 -0.04525,0.53695 -0.703853,0.90904 -0.38712,0.21871 -1.972149,0.99232 -3.522287,1.71913 -1.550139,0.72682 -2.848865,1.35191 -2.886058,1.38911 -0.323559,0.32356 1.679587,0.40984 3.185676,0.13722 z"
     id="path101" />
  <path
     style="fill:#28170b;stroke-width:0.133102"
     d="m 96.019894,115.57491 c 1.118841,-0.59006 1.730332,-1.17562 1.730332,-1.65696 0,-0.51933 -0.228298,-0.5205 -0.858139,-0.004 -0.654998,0.53672 -2.15618,2.19683 -1.981543,2.19132 0.06109,-0.002 0.560303,-0.24041 1.10935,-0.52997 z"
     id="path103" />
  <path
     style="fill:#28170b;stroke-width:0.133102"
     d="m 40.140875,122.01584 c 0.518636,-0.58223 0.631781,-1.5665 0.37307,-3.24541 -0.241011,-1.56403 -0.18482,-1.47579 -0.754704,-1.18524 -1.032618,0.52646 -1.818422,0.44564 -1.981416,-0.20378 -0.126212,-0.50287 0.158786,-0.84712 1.046537,-1.26413 0.454654,-0.21357 0.976384,-0.51124 1.1594,-0.6615 l 0.332756,-0.27319 -1.74697,-0.003 -1.74697,-0.003 -0.07865,0.39326 c -0.04386,0.21932 -0.235373,0.49596 -0.432968,0.62543 -0.336635,0.22057 -0.398294,0.22063 -1.235733,0.001 -0.484781,-0.12697 -1.104137,-0.37806 -1.376349,-0.55797 -0.480349,-0.31748 -0.498974,-0.31956 -0.632236,-0.0706 -0.07552,0.14111 -0.137307,0.28784 -0.137307,0.32607 0,0.0989 2.089767,0.7466 2.408765,0.7466 0.345708,0 0.918796,0.57738 0.918796,0.92567 0,0.14974 -0.121614,0.39387 -0.270253,0.54251 -0.230126,0.23012 -0.373405,0.25727 -0.964992,0.1828 -0.382108,-0.0481 -1.211382,-0.25679 -1.842833,-0.46375 -1.356766,-0.44469 -1.572505,-0.41281 -3.237244,0.47842 -1.062168,0.56864 -4.456806,1.73147 -6.828546,2.33912 -0.67716,0.17349 -1.2312,0.36009 -1.2312,0.41466 0,0.20313 0.87479,0.54093 1.85251,0.71535 1.09139,0.1947 3.67368,0.22183 6.532948,0.0686 1.189965,-0.0638 2.381322,-0.038 3.527215,0.0762 0.951682,0.0949 2.718617,0.21162 3.926522,0.2595 2.046243,0.0811 2.211461,0.0699 2.419855,-0.16405 z m -6.738137,-1.14538 c -0.273782,-0.39088 -0.261695,-0.71451 0.03787,-1.01408 0.18993,-0.18993 0.541836,-0.26497 1.563954,-0.33349 0.725384,-0.0486 1.900833,-0.15701 2.61211,-0.24084 1.479819,-0.1744 1.701575,-0.0942 1.701575,0.61542 0,0.74581 -0.288637,0.85968 -2.994805,1.18144 -0.219619,0.0261 -0.920002,0.0565 -1.556406,0.0674 -1.056677,0.0182 -1.175082,-0.006 -1.3643,-0.27587 z"
     id="path105" />
  <path
     style="fill:#28170b;stroke-width:0.133102"
     d="m 36.152637,114.34221 c -0.0845,-0.72382 0.10372,-0.78622 2.440342,-0.80903 2.410319,-0.0235 2.455602,-0.0465 2.455602,-1.24366 0,-0.38864 -0.02515,-0.70662 -0.0559,-0.70662 -0.308573,0 -3.222384,0.79682 -4.384278,1.19894 -2.002925,0.69318 -2.506215,0.91557 -2.413089,1.06625 0.130393,0.21098 1.168055,0.76418 1.602829,0.8545 0.395739,0.0822 0.405055,0.0727 0.35449,-0.36038 z"
     id="path107" />
  <path
     style="fill:#28170b;stroke-width:0.133102"
     d="m 88.158043,110.81731 c 0.622961,-0.6483 1.935452,-2.41275 1.852128,-2.48992 -0.06886,-0.0638 -2.386167,1.36851 -3.3165,2.04987 l -0.807289,0.59124 0.574548,0.23321 c 0.855624,0.3473 1.032505,0.30724 1.697113,-0.3844 z"
     id="path109" />
  <path
     style="fill:#786721;stroke-width:0.188235"
     d="m 80.728101,108.97824 c 0,-0.90742 1.93527,-3.44018 2.682895,-3.51121 0.448334,-0.0426 0.800223,0.0611 0.937752,0.27641 0.293783,0.45987 0.113084,0.88361 -0.703,1.6485 -0.465882,0.43666 -0.847059,0.88204 -0.847059,0.98974 0,0.1077 0.317647,-0.10766 0.705883,-0.47858 1.171162,-1.11893 2.515773,-2.0579 3.900572,-2.72385 1.2074,-0.58063 1.261857,-0.6311 0.681041,-0.6311 -0.347212,0 -0.922816,0.18017 -1.27912,0.40038 -0.531908,0.32874 -0.729552,0.36314 -1.104571,0.19227 -0.60572,-0.27598 -0.589208,-0.90437 0.04105,-1.56222 l 0.497795,-0.51959 -0.450736,-0.17852 c -0.247905,-0.0982 -0.849714,-0.31943 -1.337353,-0.49165 -0.620992,-0.21932 -1.004925,-0.50456 -1.281512,-0.95209 -0.70547,-1.14147 -4.146335,-3.476812 -5.122701,-3.476812 -0.292419,0 -1.035075,0.254118 -1.650347,0.564706 -1.307221,0.659883 -2.15701,0.730197 -2.439761,0.201871 -0.305726,-0.571254 -0.05221,-0.9088 1.173066,-1.561863 l 1.14038,-0.607816 -1.596034,-0.757272 c -0.877819,-0.4165 -1.855021,-0.975617 -2.171559,-1.242483 -0.39068,-0.329372 -1.082033,-0.593816 -2.152573,-0.823365 -3.243924,-0.695572 -7.756359,-2.338497 -8.079074,-2.941496 -0.288175,-0.538458 0.08797,-1.114635 0.727669,-1.114635 0.285056,0 1.404427,0.34443 2.487496,0.7654 3.125839,1.21496 3.806038,1.452613 4.557449,1.592317 l 0.705882,0.13124 v -1.126831 c 0,-0.619758 0.05294,-1.391538 0.117648,-1.715067 l 0.117647,-0.588235 h -5.587114 -5.587111 l 0.340052,0.585783 c 0.187031,0.322181 0.669866,0.870131 1.072968,1.217665 0.796802,0.686963 8.166114,4.474695 9.108585,4.681696 0.822119,0.180568 1.092469,0.55804 0.823099,1.149242 -0.117854,0.258664 -0.337548,0.517599 -0.488207,0.575412 -0.531023,0.203773 -2.490301,-0.536499 -5.350967,-2.021753 -1.590722,-0.825901 -2.939996,-1.453864 -2.998387,-1.395474 -0.1663,0.1663 0.704659,2.146972 1.507633,3.428555 0.400533,0.639266 1.257082,1.657008 1.903445,2.261648 1.002302,0.937607 1.479119,1.215837 3.240868,1.891097 1.560342,0.59807 2.339559,1.02334 3.185309,1.73845 0.615805,0.52068 1.885665,1.40382 2.821909,1.96253 0.936245,0.55871 2.379859,1.62411 3.208032,2.36756 2.059147,1.8485 2.541062,2.18976 2.541062,1.79944 z m -2.667531,-4.17691 c -0.741232,-0.6708 -0.17167,-1.38259 1.106332,-1.38259 0.472433,0 1.408376,-0.10123 2.079873,-0.22496 1.127258,-0.2077 1.240885,-0.19763 1.48141,0.1313 0.223602,0.3058 0.197344,0.93731 -0.05034,1.21073 -0.162096,0.17894 -2.291619,0.54642 -3.252567,0.56127 -0.702994,0.0109 -1.127567,-0.0811 -1.364706,-0.29575 z m -5.783054,-2.95145 c -1.43944,-0.26237 -1.752517,-0.59839 -1.259128,-1.3514 0.29383,-0.44844 0.419381,-0.49703 1.02234,-0.39566 3.223079,0.54186 5.28959,0.54117 6.705695,-0.002 0.317785,-0.12195 0.852266,0.43006 0.852266,0.88021 0,0.4814 -0.720981,0.92483 -1.823492,1.12152 -1.052748,0.1878 -3.7659,0.0632 -5.497681,-0.25243 z"
     id="path115" />
  <path
     style="fill:#786721;stroke-width:0.188235"
     d=""
     id="path117" />
  <path
     style="fill:#786721;stroke-width:0.188235"
     d="m 84.188829,110.26628 c 0.581306,-0.47857 1.056919,-0.92395 1.056919,-0.98974 0,-0.16732 2.096435,-1.5316 3.665931,-2.38565 1.499626,-0.81603 1.41397,-1.04194 -0.170311,-0.44918 -1.230588,0.46042 -3.492579,2.1108 -4.995072,3.64447 -1.248271,1.27417 -1.006128,1.37271 0.442533,0.1801 z"
     id="path119" />
  <path
     style="fill:#786721;stroke-width:0.188235"
     d="m 33.292807,111.96922 c 0.465882,-0.14928 2.023157,-0.56824 3.46061,-0.93104 2.924822,-0.7382 4.69185,-1.5623 5.225201,-2.43689 0.273474,-0.44845 0.348227,-0.95121 0.348779,-2.34575 5.09e-4,-1.30422 0.105458,-2.08509 0.395687,-2.94431 0.383827,-1.13631 0.385502,-1.18931 0.0593,-1.87672 l -0.335678,-0.70739 -3.721205,0.10969 c -3.563873,0.10505 -3.726087,0.0943 -3.836695,-0.25419 -0.156834,-0.49414 0.04373,-1.05402 0.434691,-1.213451 0.177235,-0.07228 1.868128,-0.176818 3.75754,-0.232316 l 3.435294,-0.100906 -0.0012,-1.055662 C 42.514491,97.399672 42.387434,96.682 42.232778,96.38546 41.841395,95.635017 41.87293,95.429943 42.51629,94.54181 c 0.310589,-0.428754 0.564706,-0.840724 0.564706,-0.915488 0,-0.07476 -0.317647,-0.187288 -0.705882,-0.250053 -0.388235,-0.06277 -1.027922,-0.333747 -1.421525,-0.602183 C 40.559985,92.505651 39.942636,92.2381 39.581701,92.179529 38.859737,92.06237 38.47605,91.566807 38.659585,90.98854 c 0.238616,-0.751813 1.711095,-0.700315 3.322405,0.116197 1.090703,0.552702 1.831558,0.571444 3.253273,0.0823 1.270072,-0.436969 1.94081,-0.822406 3.910117,-2.246935 1.497586,-1.083302 1.708804,-1.333127 1.127113,-1.333127 -0.185853,0 -1.160694,-0.213847 -2.166313,-0.475215 -4.334372,-1.126536 -7.216667,-2.512846 -9.845478,-4.735422 -0.528809,-0.447091 -1.047433,-0.812892 -1.152497,-0.812892 -0.371079,0 -3.729545,4.033795 -4.427209,5.317445 -1.170445,2.153533 0.990106,5.808679 4.505314,7.621933 0.809136,0.417378 2.021745,0.952245 2.694686,1.188595 1.567433,0.550512 1.725264,0.682499 1.656671,1.385405 -0.08116,0.831749 -0.688493,0.836159 -2.800919,0.02034 -3.200169,-1.235906 -5.257089,-2.689654 -6.55439,-4.632378 l -0.77195,-1.156004 v 0.832671 c 0,1.094562 0.655661,3.652826 1.362513,5.31626 0.847274,1.993891 0.881071,2.525907 0.197525,3.109367 -0.482918,0.41222 -0.995332,1.39993 -0.995332,1.91857 0,0.0881 0.215971,0.16015 0.479936,0.16015 0.634492,0 1.590652,0.5054 1.590652,0.84078 0,0.14653 0.06617,0.30731 0.147041,0.35729 0.301535,0.18636 3.020775,-0.41967 4.448862,-0.9915 1.75216,-0.7016 2.180568,-0.64592 2.180568,0.28339 0,0.59946 -0.0731,0.68421 -0.894118,1.03661 -2.095851,0.89958 -5.574701,1.66795 -6.385974,1.41047 -0.195855,-0.0622 -0.506275,-0.36725 -0.689823,-0.67798 -0.183547,-0.31072 -0.46759,-0.56494 -0.631205,-0.56494 -0.463774,0 -0.224089,2.14391 0.389534,3.48424 0.271666,0.59339 0.493939,1.26038 0.493939,1.48219 0,0.22182 -0.303061,0.85332 -0.673468,1.40334 -0.647528,0.96153 -0.735048,1.55006 -0.226558,1.52352 0.132661,-0.007 0.622379,-0.13472 1.088261,-0.28399 z m 1.050689,-2.64121 c -0.189883,-0.0729 -0.297748,-0.34372 -0.297748,-0.74768 0,-0.60369 0.0464,-0.64635 0.988235,-0.90869 0.54353,-0.1514 1.62353,-0.45527 2.4,-0.67527 2.20374,-0.6244 2.176393,-0.6214 2.521484,-0.27631 0.45978,0.45978 0.302721,1.07274 -0.356778,1.39241 -0.51388,0.24909 -4.214109,1.27508 -4.737546,1.31361 -0.120944,0.009 -0.353885,-0.0352 -0.517647,-0.0981 z m 1.45519,-18.172729 c -0.803082,-0.242933 -1.564703,-0.863039 -1.564703,-1.273969 0,-0.183498 0.172109,-0.48939 0.382464,-0.679758 0.371759,-0.336438 0.404687,-0.335328 1.176535,0.03966 0.43674,0.212185 1.090514,0.45016 1.452831,0.528834 0.733124,0.159192 0.933974,0.369094 0.938229,0.980512 0.0053,0.766978 -0.759061,0.896671 -2.385356,0.404716 z m 5.355312,-1.104546 c -1.831279,-0.209826 -3.486741,-0.75528 -4.228356,-1.39319 -0.391747,-0.336967 -0.464162,-0.523656 -0.361611,-0.932251 0.18472,-0.735985 0.576284,-0.795545 1.681865,-0.255826 1.366028,0.666863 2.202114,0.859142 4.364558,1.003742 2.033597,0.135985 2.352941,0.262978 2.352941,0.935697 0,0.845178 -0.823584,0.98394 -3.809397,0.641828 z"
     id="path121" />
  <path
     style="fill:#786721;stroke-width:0.188235"
     d="m 59.384024,43.845582 c 0.814218,-0.488083 1.988112,-2.022616 2.349835,-3.071743 0.247341,-0.717378 0.113227,-1.009949 -0.19713,-0.430042 -0.231523,0.432605 -0.932099,0.523238 -1.288628,0.166709 -0.393407,-0.393407 -0.246499,-1.031468 0.421601,-1.831132 0.991722,-1.187014 1.026068,-1.493077 0.243413,-2.169102 -0.36542,-0.315636 -0.812493,-0.870354 -0.993493,-1.232707 -0.181001,-0.362353 -0.643114,-1.016687 -1.026917,-1.454075 -0.519735,-0.592297 -0.808288,-1.192788 -1.13066,-2.352941 -0.404504,-1.455732 -0.92677,-2.791693 -1.656898,-4.238365 -0.264122,-0.523328 -0.272885,-0.697321 -0.06162,-1.223529 0.496223,-1.235985 0.497308,-1.231766 -0.379039,-1.473614 -1.065146,-0.293951 -2.682999,-0.299355 -3.689325,-0.01232 -0.670554,0.19126 -0.8,0.305328 -0.8,0.70496 0,0.416637 0.03445,0.442327 0.273117,0.203661 0.150214,-0.150214 0.580164,-0.330719 0.955445,-0.401122 0.870106,-0.163233 1.256936,0.136022 1.18105,0.913668 -0.05115,0.524199 -0.13914,0.597353 -0.90373,0.751388 -0.465882,0.09386 -0.869302,0.186688 -0.896488,0.206292 -0.02719,0.0196 0.239231,0.833078 0.592037,1.80772 0.737092,2.03625 0.991947,3.527366 1.236679,7.235634 0.204408,3.097251 0.6224,4.589337 1.77637,6.341012 1.319348,2.002714 2.491662,2.460457 3.994384,1.559651 z"
     id="path123" />
  <path
     style="fill:#786721;stroke-width:0.188235"
     d="m 42.986925,58.779361 c 1.255662,-0.475965 1.928128,-0.598271 4.047058,-0.736065 2.233703,-0.145257 4.467917,-0.44149 4.641893,-0.615466 0.03236,-0.03236 -0.06809,-0.722229 -0.223219,-1.533037 -0.243617,-1.273271 -0.388744,-1.592176 -1.064807,-2.339829 -0.43051,-0.476099 -0.803405,-0.893673 -0.828655,-0.927944 -0.02525,-0.03427 -0.212297,0.02674 -0.41566,0.135575 -0.363824,0.194712 -0.364326,0.221219 -0.03132,1.653719 0.186135,0.800709 0.472326,1.553745 0.635981,1.673412 0.375677,0.274702 0.385995,1.091873 0.01765,1.397575 -0.383203,0.31803 -1.158177,0.09225 -1.506128,-0.438785 -0.156704,-0.23916 -0.445109,-1.063698 -0.640901,-1.832306 -0.233361,-0.91609 -0.379189,-1.242798 -0.423347,-0.948452 -0.03705,0.24696 -0.241919,0.564293 -0.455266,0.705187 -0.342668,0.226297 -0.462172,0.201375 -1.024805,-0.213723 -0.530556,-0.391431 -1.50494,-0.650221 -1.50494,-0.399703 0,0.03861 0.17293,0.461128 0.38429,0.938941 0.47472,1.073184 0.279081,1.626164 -0.575322,1.626164 -0.450634,0 -0.621933,-0.131972 -0.916235,-0.705882 -0.199088,-0.388236 -0.575931,-0.905548 -0.837429,-1.149584 -0.841837,-0.785618 -0.972951,-0.514529 -0.972951,2.011648 0,1.258657 0.04235,2.28417 0.09412,2.278918 0.05176,-0.0053 0.771764,-0.266416 1.6,-0.580363 z"
     id="path125" />
  <path
     style="fill:#786721;stroke-width:0.188235"
     d=""
     id="path127" />
  <path
     style="fill:#786721;stroke-width:0.188235"
     d="m 51.247695,51.452161 c 0.0475,-0.147792 0.139159,-0.586361 0.203681,-0.974596 0.150784,-0.907278 -0.175009,-0.930887 -0.598245,-0.04335 -0.294204,0.616952 -0.29447,0.683997 -0.0039,0.974596 0.259956,0.259956 0.326489,0.267195 0.398435,0.04335 z"
     id="path131" />
  <path
     style="fill:#ffdd55;stroke-width:0.188235"
     d="m 63.786925,86.761271 c -1.087059,-0.147247 -2.611765,-0.416201 -3.388236,-0.597675 -0.92737,-0.216742 -2.283675,-0.33939 -3.952941,-0.357457 -3.090626,-0.03345 -5.519799,-0.533032 -10.222481,-2.102346 -3.427224,-1.143685 -3.791473,-1.393645 -3.245381,-2.227086 0.165039,-0.251881 0.408963,-0.457965 0.542055,-0.457965 0.133092,0 0.95702,0.261276 1.830955,0.580614 1.707101,0.623781 7.444323,2.138544 8.836029,2.332923 0.8001,0.11175 0.732271,0.05468 -1.22353,-1.029416 -1.138823,-0.631248 -2.832941,-1.608278 -3.764706,-2.171177 -1.737475,-1.049647 -7.247059,-3.397062 -7.247059,-3.087684 0,0.338458 1.577094,1.306863 2.614728,1.605558 1.432309,0.412307 1.610805,0.518293 1.682074,0.998767 0.09818,0.661898 -0.323177,1.011643 -1.088992,0.903909 -1.813955,-0.255188 -4.057837,-1.520807 -4.736924,-2.671774 l -0.375096,-0.63574 -1.109973,0.692892 c -0.610485,0.381091 -1.113801,0.741457 -1.118483,0.800814 -0.02001,0.253755 2.162929,2.299478 3.218931,3.016596 4.347307,2.9522 10.89886,4.435939 20.301971,4.597817 l 4.423529,0.07615 z"
     id="path133" />
  <path
     style="fill:#ffdd55;stroke-width:0.188235"
     d="m 58.467124,89.836569 -0.609611,-1.206765 -2.404256,-0.224973 -2.404255,-0.224974 -1.219274,0.877125 c -0.670601,0.482419 -1.219274,0.937236 -1.219274,1.010704 0,0.276327 3.38944,0.781784 5.880199,0.876895 l 2.586082,0.09875 z"
     id="path135" />
  <path
     style="fill:#ffdd55;stroke-width:0.188235"
     d=""
     id="path137" />
  <path
     style="fill:#ffdd55;stroke-width:0.0332756"
     d="m 72.828547,63.84366 c 0.0183,-0.0057 0.07418,-0.01935 0.124178,-0.03037 0.109625,-0.02416 0.19194,-0.167483 0.19194,-0.334204 v -0.118789 l -0.324437,0.02563 c -0.178441,0.01409 -0.803606,0.02457 -1.389257,0.02327 -0.905898,-0.002 -1.149247,-0.01355 -1.630505,-0.07733 -1.067199,-0.141453 -1.824021,-0.318992 -2.996844,-0.703011 -1.449726,-0.474686 -2.6209,-0.703122 -4.373705,-0.853085 -1.125914,-0.09633 -5.475866,-0.0722 -7.715276,0.04281 l -0.378003,0.01941 0.01343,0.210897 c 0.01988,0.312153 0.06477,0.348661 0.423299,0.344241 0.157302,-0.0019 0.443231,-0.01369 0.635398,-0.02612 0.435267,-0.02814 3.357435,0.0132 4.342468,0.06143 2.83973,0.139048 4.057009,0.265857 5.910375,0.615711 0.427913,0.08078 1.175706,0.222103 1.661764,0.314062 1.662326,0.314502 2.646754,0.424954 4.04105,0.453405 0.457539,0.0093 0.966656,0.02269 1.13137,0.02968 0.164715,0.007 0.314455,0.0081 0.332757,0.0024 z"
     id="path141" />
  <path
     style="fill:#ffdd55;stroke-width:0.188235"
     d="m 68.082386,30.977043 c 0,-0.06213 -0.338824,-0.674735 -0.752941,-1.361351 -0.414118,-0.686616 -0.752941,-1.404073 -0.752941,-1.594348 0,-0.468661 -0.650805,-0.685421 -2.704275,-0.900701 -0.94559,-0.09913 -2.185137,-0.260819 -2.754549,-0.359302 -1.496647,-0.258855 -3.2,-0.435757 -3.2,-0.332337 0,0.04897 0.248906,0.669182 0.553124,1.378251 0.426047,0.993027 0.631464,1.275309 0.894117,1.228682 0.187547,-0.03329 1.285487,-0.435647 2.439868,-0.894118 1.15438,-0.458471 2.236196,-0.833583 2.404035,-0.833583 0.427784,0 0.804676,0.878146 0.551599,1.285206 -0.341843,0.549833 -1.288188,1.07609 -3.101515,1.724734 -0.969029,0.346631 -1.64793,0.668218 -1.508668,0.714638 0.29024,0.09675 2.524334,-0.715092 3.818712,-1.387667 1.104006,-0.573657 2.156691,-0.609009 2.325199,-0.07809 0.06572,0.207059 0.06558,0.5463 -3.01e-4,0.753869 -0.07451,0.234751 -0.02594,0.407078 0.128491,0.455922 0.543263,0.171822 1.660045,0.306501 1.660045,0.200193 z"
     id="path143" />
  <path
     style="fill:#cccccc;stroke-width:0.0665512"
     d="m 61.444523,17.042358 c 7.643494,-1.446023 13.591781,-2.789129 19.462454,-4.394564 1.209983,-0.33089 3.442814,-0.899061 4.961846,-1.262602 4.671773,-1.118066 6.095969,-1.5090124 8.367303,-2.2968495 1.382692,-0.4796018 2.382508,-0.773925 4.610186,-1.3571351 1.984198,-0.5194672 3.145518,-0.8524173 4.181998,-1.1989814 0.85526,-0.2859713 2.02927,-0.7587687 2.3733,-0.9557789 0.1962,-0.1123532 0.18813,-0.1136985 -0.46586,-0.077732 -1.71529,0.094333 -6.713119,1.0855605 -9.715812,1.9269509 -1.212731,0.3398218 -2.565854,0.6004474 -4.18694,0.8064481 -1.494097,0.1898635 -2.412952,0.3949939 -4.578984,1.0222381 -1.81216,0.5247694 -2.289035,0.6233625 -4.380471,0.9056545 -4.352841,0.587527 -8.935779,1.393743 -14.233107,2.503844 -1.844582,0.386548 -7.248622,1.567964 -7.776851,1.700154 -0.140101,0.03506 -0.149655,0.07235 -0.148422,0.579305 0.0013,0.540066 0.06201,1.100216 0.20474,1.889495 0.05691,0.3147 0.101732,0.414577 0.184146,0.410324 0.05991,-0.0031 0.573124,-0.09344 1.140474,-0.200771 z"
     id="path145" />
  <path
     style="fill:#ffcc00;stroke-width:0.0665512"
     d="m 49.748144,17.970014 c 0.208648,-0.0762 0.21475,-0.131828 0.139359,-1.270311 -0.05285,-0.798067 -0.117128,-0.823645 -0.619205,-0.246394 l -0.350068,0.402481 0.02587,0.457797 c 0.03795,0.671539 0.26195,0.854417 0.804046,0.656427 z"
     id="path147" />
  <path
     style="fill:#ffcc00;stroke-width:0.188235"
     d="M 36.073974,78.506946 C 36.246419,78.12847 36.181892,78.013278 35.520395,77.51871 33.93792,76.335567 32.418971,74.027721 31.509542,71.424736 30.733592,69.203796 29.362795,63.377349 29.069536,61.053714 28.871548,59.484965 28.781903,56.320871 28.744196,49.57065 l -0.05205,-9.317647 0.432323,-0.941177 c 0.655889,-1.427887 1.321326,-2.295488 2.326583,-3.033415 1.037818,-0.761828 1.135893,-1.013948 0.394035,-1.01294 -0.708002,9.62e-4 -1.608465,0.585485 -2.071386,1.344611 -0.514993,0.844516 -1.267211,3.295504 -1.580189,5.148803 -0.320244,1.896349 -0.322794,12.760405 -0.0037,15.905883 0.12077,1.190588 0.348088,3.498731 0.505152,5.129208 0.18043,1.873039 0.451979,3.501681 0.737552,4.42353 0.248589,0.802464 0.631018,2.136673 0.849841,2.964909 1.047652,3.965317 2.864788,7.373071 4.416489,8.282426 0.986939,0.578385 1.128826,0.582729 1.375152,0.0421 z"
     id="path149" />
  <path
     style="fill:#ffcc00;stroke-width:0.188235"
     d=""
     id="path151" />
  <path
     style="fill:#ffcc00;stroke-width:0.188235"
     d="m 43.084645,48.629474 c 0.02569,-1.002917 -2.104756,-6.985781 -2.387056,-6.703482 -0.08792,0.08792 1.623592,5.270841 2.089313,6.327011 0.15978,0.362353 0.293765,0.531765 0.297743,0.376471 z"
     id="path153" />
  <path
     style="fill:#ffcc00;stroke-width:0.188235"
     d=""
     id="path155" />
  <path
     style="fill:#ffcc00;stroke-width:0.188235"
     d="m 34.054858,50.692092 c 0.01115,-1.623125 -2.462863,-10.66076 -2.852432,-10.419993 -0.07862,0.04859 -0.06797,0.28556 0.02367,0.526594 0.09164,0.241035 0.42877,1.666408 0.749174,3.167496 0.520043,2.436388 2.074519,7.463944 2.07959,6.725903 z"
     id="path157" />
  <path
     style="fill:#ffcc00;stroke-width:0.0665512"
     d="m 43.926821,71.619422 c 0.395658,-0.205152 0.987875,-1.198892 1.234282,-2.071125 0.287596,-1.018036 0.342802,-1.527034 0.339255,-3.127907 -0.0036,-1.6066 -0.08372,-2.47345 -0.36924,-3.993074 -0.128002,-0.681263 -0.456835,-2.143067 -0.491019,-2.182791 -0.03572,-0.04151 -0.363272,0.06957 -0.335871,0.11391 0.01583,0.02561 0.0821,0.763627 0.147268,1.640043 0.147279,1.980584 0.165158,5.480909 0.03278,6.418449 -0.147693,1.046042 -0.338291,1.914905 -0.575248,2.622332 -0.123418,0.368458 -0.218949,0.675158 -0.212291,0.681555 0.0067,0.0064 0.110194,-0.03923 0.23008,-0.101392 z"
     id="path159" />
  <path
     style="fill:#ffcc00;stroke-width:0.0665512"
     d="m 40.83435,73.186198 c 0.09951,-0.13047 0.179173,-0.320871 0.179173,-0.428263 0,-0.106347 -0.14742,-0.494814 -0.327599,-0.863262 -0.409767,-0.83793 -0.643782,-1.56571 -1.068558,-3.323193 -0.184211,-0.762163 -0.604292,-2.499756 -0.933513,-3.861317 -0.329222,-1.361561 -0.598584,-2.522048 -0.598584,-2.57886 0,-0.07588 -0.06959,-0.103294 -0.262241,-0.103294 h -0.26224 l 0.164927,0.482496 c 0.49549,1.449561 1.032314,3.54787 1.486119,5.808862 0.332245,1.65534 0.650749,2.859435 1.090845,4.123909 0.382542,1.099107 0.32322,1.016215 0.531671,0.742922 z"
     id="path161" />
  <path
     style="fill:#2b1100;stroke-width:0.0665512"
     d="m 42.302131,70.81282 c 0.389369,-1.050459 0.607846,-2.217148 0.710376,-3.793469 0.07576,-1.164734 0.06128,-1.722896 -0.117118,-4.51536 l -0.112022,-1.753483 -0.202772,0.03549 c -0.111525,0.01952 -0.562149,0.09839 -1.001387,0.175273 -0.439238,0.07688 -0.993277,0.135096 -1.231198,0.129365 -0.349014,-0.0084 -0.625955,0.04895 -0.850201,0.176094 -0.02867,0.01625 0.560822,2.741315 0.84852,3.922465 0.142649,0.585651 0.452363,1.708703 0.688254,2.495671 0.235892,0.786968 0.494531,1.730332 0.574755,2.096364 0.174674,0.796977 0.392987,1.497402 0.46672,1.497402 0.02938,0 0.131111,-0.209614 0.226073,-0.465809 z"
     id="path163" />
  <path
     style="fill:#2b1100;stroke-width:0.0665512"
     d="m 38.347683,77.071505 c 0.420807,-0.279168 0.853873,-0.712851 1.110898,-1.11248 0.20983,-0.326248 0.216265,-0.354048 0.123237,-0.53241 -0.05398,-0.103503 -0.09834,-0.290579 -0.09856,-0.415724 -2.25e-4,-0.125145 -0.133333,-0.634262 -0.295794,-1.131371 -0.362609,-1.109532 -1.379588,-4.620029 -1.566968,-5.409 -0.0755,-0.317873 -0.242974,-1.156263 -0.372177,-1.863088 -0.312614,-1.71021 -0.411526,-2.089784 -1.002566,-3.84736 C 35.6791,61.075018 35.480764,60.543573 35.241626,60.069489 34.990317,59.571277 34.90437,59.286562 34.82364,58.684832 34.72672,57.96239 34.634885,57.661348 34.408454,57.323747 33.916444,56.590179 33.491129,55.396231 32.835749,52.908836 32.579938,51.937941 32.261411,50.844837 32.127913,50.479716 31.191978,47.9199 31.118821,47.659683 30.53285,44.806123 c -0.205019,-0.998402 -0.400985,-1.88187 -0.43548,-1.963261 -0.103135,-0.243347 0.07612,13.296648 0.197604,14.925868 0.181601,2.435462 0.428012,4.102554 0.860925,5.824569 0.147048,0.584916 0.465322,1.915558 0.707275,2.956982 0.800688,3.446341 1.223071,4.786392 1.98997,6.313382 0.767668,1.528517 2.067815,3.005217 3.456594,3.925978 0.397028,0.263229 0.726457,0.47847 0.732064,0.478314 0.0056,-1.33e-4 0.143256,-0.08856 0.305885,-0.19645 z"
     id="path165" />
  <path
     style="fill:#2b1100;stroke-width:0.376471"
     d="m 41.948565,52.391912 c -0.0055,-0.921238 -1.89717,-6.916329 -3.013279,-9.54974 -1.096239,-2.586529 -3.186465,-5.534095 -4.138763,-5.836342 -0.396659,-0.125895 -1.04915,-0.05339 -1.44998,0.161133 -0.832091,0.445321 -0.702355,1.456498 0.703987,5.486974 0.433491,1.242353 1.112037,3.853558 1.50788,5.802679 0.395843,1.94912 0.85298,3.670778 1.015859,3.825907 0.16288,0.155128 1.439674,0.401306 2.837321,0.547061 2.325102,0.242476 2.54082,0.205261 2.536975,-0.437672 z"
     id="path167" />
</svg>
