<svg xmlns="http://www.w3.org/2000/svg" xmlns:xlink="http://www.w3.org/1999/xlink" viewBox="0 0 24 30" version="1.1" x="0px" y="0px"><title>170 - Ninja (Outline)</title><desc>Created with Sketch.</desc><g stroke="none" stroke-width="1" fill="none" fill-rule="evenodd"><g fill="#000000"><path d="M17.2857,13 L6.7147,13 C4.67372958,13 2.9997,11.3264601 2.9997,9.286 L2.9997,8.714 C2.9997,6.67353988 4.67372958,5 6.7147,5 L17.2857,5 C19.3264153,5 20.9997,6.67328475 20.9997,8.714 L20.9997,9.286 C20.9997,11.3267153 19.3264153,13 17.2857,13 Z M17.2857,15 C20.4309847,15 22.9997,12.4312847 22.9997,9.286 L22.9997,8.714 C22.9997,5.56871525 20.4309847,3 17.2857,3 L6.7147,3 C3.56929105,3 0.9997,5.56883938 0.9997,8.714 L0.9997,9.286 C0.9997,12.4311606 3.56929105,15 6.7147,15 L17.2857,15 Z"/><path d="M5.4452998,8.83205029 L8.4452998,10.8320503 C8.90482849,11.1384028 9.52569784,11.0142289 9.83205029,10.5547002 C10.1384028,10.0951715 10.0142289,9.47430216 9.5547002,9.16794971 L6.5547002,7.16794971 C6.09517151,6.86159725 5.47430216,6.98577112 5.16794971,7.4452998 C4.86159725,7.90482849 4.98577112,8.52569784 5.4452998,8.83205029 Z"/><path d="M17.4452998,7.16794971 L14.4452998,9.16794971 C13.9857711,9.47430216 13.8615972,10.0951715 14.1679497,10.5547002 C14.4743022,11.0142289 15.0951715,11.1384028 15.5547002,10.8320503 L18.5547002,8.83205029 C19.0142289,8.52569784 19.1384028,7.90482849 18.8320503,7.4452998 C18.5256978,6.98577112 17.9048285,6.86159725 17.4452998,7.16794971 Z"/><path d="M24,12 C24,5.37271525 18.6272847,0 12,0 C5.37271525,0 0,5.37271525 0,12 C0,18.6272847 5.37271525,24 12,24 C18.6272847,24 24,18.6272847 24,12 Z M22,12 C22,17.5227153 17.5227153,22 12,22 C6.47728475,22 2,17.5227153 2,12 C2,6.47728475 6.47728475,2 12,2 C17.5227153,2 22,6.47728475 22,12 Z"/></g></g><text x="0" y="39" fill="#000000" font-size="5px" font-weight="bold" font-family="'Helvetica Neue', Helvetica, Arial-Unicode, Arial, Sans-serif">Created by Ben Davis</text><text x="0" y="44" fill="#000000" font-size="5px" font-weight="bold" font-family="'Helvetica Neue', Helvetica, Arial-Unicode, Arial, Sans-serif">from the Noun Project</text></svg>