<svg xmlns="http://www.w3.org/2000/svg" xmlns:xlink="http://www.w3.org/1999/xlink" version="1.1" x="0px" y="0px" viewBox="0 0 64 80" style="enable-background:new 0 0 64 64;" xml:space="preserve"><g><path d="M30,41h-4V9c0-0.289-0.125-0.562-0.341-0.752l-8-7c-0.295-0.258-0.715-0.32-1.072-0.158C16.229,1.251,16,1.607,16,2v39h-4   c-0.552,0-1,0.447-1,1v4c0,0.553,0.448,1,1,1h4v15c0,0.553,0.448,1,1,1h8c0.552,0,1-0.447,1-1V47h4c0.552,0,1-0.447,1-1v-4   C31,41.447,30.552,41,30,41z M24,9.454V37h-6V4.204L24,9.454z M18,39h6v2h-6V39z M18,49.414L19.586,51L18,52.586V49.414z    M18,55.414l3-3l3,3V57h-6V55.414z M22.414,51L24,49.414v3.172L22.414,51z M21,49.586L18.414,47h5.172L21,49.586z M18,61v-2h6v2H18   z M29,45h-4h-8h-4v-2h16V45z"/><path d="M52,41h-4V2c0-0.393-0.229-0.749-0.587-0.911c-0.357-0.162-0.776-0.1-1.072,0.158l-8,7C38.125,8.438,38,8.711,38,9v32h-4   c-0.552,0-1,0.447-1,1v4c0,0.553,0.448,1,1,1h4v15c0,0.553,0.448,1,1,1h8c0.552,0,1-0.447,1-1V47h4c0.552,0,1-0.447,1-1v-4   C53,41.447,52.552,41,52,41z M46,4.204V37h-6V9.454L46,4.204z M40,39h6v2h-6V39z M40,49.414L41.586,51L40,52.586V49.414z    M40,55.414l3-3l3,3V57h-6V55.414z M44.414,51L46,49.414v3.172L44.414,51z M43,49.586L40.414,47h5.172L43,49.586z M40,61v-2h6v2H40   z M51,45h-4h-8h-4v-2h16V45z"/></g><text x="0" y="79" fill="#000000" font-size="5px" font-weight="bold" font-family="'Helvetica Neue', Helvetica, Arial-Unicode, Arial, Sans-serif">Created by Template</text><text x="0" y="84" fill="#000000" font-size="5px" font-weight="bold" font-family="'Helvetica Neue', Helvetica, Arial-Unicode, Arial, Sans-serif">from the Noun Project</text></svg>