<svg xmlns="http://www.w3.org/2000/svg" xmlns:xlink="http://www.w3.org/1999/xlink" version="1.1" x="0px" y="0px" viewBox="0 0 64 80" style="enable-background:new 0 0 64 64;" xml:space="preserve"><g><path d="M20.945,1.674C20.806,1.271,20.427,1,20,1s-0.806,0.271-0.945,0.674l-10,29c-0.112,0.324-0.05,0.684,0.165,0.951   l3.916,4.895l1.41,3.289C15.51,42.062,16,44.447,16,46.899v0.219c0,1.184-0.118,2.371-0.35,3.53l-0.591,2.954   C14.393,54.569,14,55.739,14,57c0,3.309,2.691,6,6,6s6-2.691,6-6c0-1.261-0.393-2.431-1.06-3.397l-0.591-2.954   c-0.232-1.159-0.35-2.347-0.35-3.53v-0.219c0-2.452,0.49-4.837,1.455-7.091l1.41-3.289l3.916-4.895   c0.214-0.268,0.276-0.627,0.165-0.951L20.945,1.674z M14.48,35l-2.4-3H13c3.01,0,5.635-1.673,7-4.136C21.365,30.327,23.99,32,27,32   h0.92l-2.4,3H14.48z M11.403,30L19,7.967V24c0,3.309-2.691,6-6,6H11.403z M27,30c-3.309,0-6-2.691-6-6V7.967L28.597,30H27z    M15.516,37h8.967l-0.857,2h-7.253L15.516,37z M22,46.899V47h-4v-0.101c0-0.638-0.036-1.271-0.095-1.899h4.191   C22.036,45.629,22,46.262,22,46.899z M17.611,51.041c0.135-0.673,0.231-1.356,0.295-2.041h4.186   c0.065,0.685,0.161,1.368,0.295,2.041l0.101,0.507C21.73,51.2,20.889,51,20,51s-1.73,0.2-2.49,0.548L17.611,51.041z M22.387,43   h-4.775c-0.134-0.674-0.301-1.341-0.505-2h5.785C22.688,41.659,22.521,42.326,22.387,43z M20,61c-2.206,0-4-1.794-4-4s1.794-4,4-4   s4,1.794,4,4S22.206,61,20,61z"/><path d="M54.781,32.375l-3.916-4.895l-1.41-3.289C48.49,21.938,48,19.553,48,17.101v-0.219c0-1.184,0.118-2.371,0.35-3.53   l0.591-2.954C49.607,9.431,50,8.261,50,7c0-3.309-2.691-6-6-6s-6,2.691-6,6c0,1.261,0.393,2.431,1.06,3.397l0.591,2.954   c0.232,1.159,0.35,2.347,0.35,3.53v0.219c0,2.452-0.49,4.837-1.455,7.091l-1.41,3.289l-3.916,4.895   c-0.214,0.268-0.276,0.627-0.165,0.951l10,29C43.194,62.729,43.573,63,44,63s0.806-0.271,0.945-0.674l10-29   C55.057,33.002,54.995,32.643,54.781,32.375z M43,56.033L35.403,34H37c3.309,0,6,2.691,6,6V56.033z M51,32   c-3.01,0-5.635,1.673-7,4.136C42.635,33.673,40.01,32,37,32h-0.92l2.4-3H49.52l2.4,3H51z M52.597,34L45,56.033V40   c0-3.309,2.691-6,6-6H52.597z M48.484,27h-8.967l0.857-2h7.253L48.484,27z M42,17.101V17h4v0.101c0,0.638,0.036,1.271,0.095,1.899   h-4.191C41.964,18.371,42,17.738,42,17.101z M46.389,12.959c-0.135,0.673-0.231,1.356-0.295,2.041h-4.186   c-0.065-0.685-0.161-1.368-0.295-2.041l-0.101-0.507C42.27,12.8,43.111,13,44,13s1.73-0.2,2.49-0.548L46.389,12.959z M41.613,21   h4.775c0.134,0.674,0.301,1.341,0.505,2h-5.785C41.312,22.341,41.479,21.674,41.613,21z M44,3c2.206,0,4,1.794,4,4s-1.794,4-4,4   s-4-1.794-4-4S41.794,3,44,3z"/></g><text x="0" y="79" fill="#000000" font-size="5px" font-weight="bold" font-family="'Helvetica Neue', Helvetica, Arial-Unicode, Arial, Sans-serif">Created by Template</text><text x="0" y="84" fill="#000000" font-size="5px" font-weight="bold" font-family="'Helvetica Neue', Helvetica, Arial-Unicode, Arial, Sans-serif">from the Noun Project</text></svg>