<svg xmlns="http://www.w3.org/2000/svg" xmlns:xlink="http://www.w3.org/1999/xlink" version="1.1" x="0px" y="0px" viewBox="0 0 100 125" enable-background="new 0 0 100 100" xml:space="preserve"><g><path d="M72.8,37H54.6c-0.7,0-1.3,0.5-1.5,1.1c-0.2,0.7,0.1,1.4,0.6,1.8l13.7,9.1c0.3,0.2,0.6,0.3,0.9,0.3c0.1,0,0.3,0,0.4-0.1   c0.4-0.1,0.8-0.4,1-0.8l4.6-9.1c0.3-0.5,0.2-1.1-0.1-1.6C73.9,37.3,73.4,37,72.8,37z M67.6,45.4l-7.8-5.2h10.3L67.6,45.4z"/><path d="M45.4,37H27.2c-0.6,0-1.1,0.3-1.4,0.8c-0.3,0.5-0.3,1.1-0.1,1.6l4.6,9.1c0.2,0.4,0.6,0.7,1,0.8c0.1,0,0.3,0.1,0.4,0.1   c0.3,0,0.6-0.1,0.9-0.3l13.7-9.1c0.6-0.4,0.9-1.1,0.6-1.8C46.8,37.4,46.1,37,45.4,37z M32.4,45.4l-2.6-5.2h10.3L32.4,45.4z"/><path d="M60.3,69.4c-0.3-0.3-0.7-0.5-1.1-0.5H40.9c-0.4,0-0.8,0.2-1.1,0.5L35.2,74c-0.6,0.6-0.6,1.6,0,2.3c0.3,0.3,0.7,0.5,1.1,0.5   c0.4,0,0.8-0.2,1.1-0.5l4.1-4.1h16.9l4.1,4.1c0.6,0.6,1.6,0.6,2.3,0c0.6-0.6,0.6-1.6,0-2.3L60.3,69.4z"/><path d="M83.6,20.3c0,0,0-0.1,0-0.1c0-0.1,0-0.2-0.1-0.3c0-0.1-0.1-0.2-0.1-0.3c0-0.1-0.1-0.2-0.2-0.2c-0.1-0.1-0.1-0.2-0.2-0.3   c0,0,0-0.1-0.1-0.1L64.7,5.3c0,0,0,0-0.1,0c-0.2-0.1-0.3-0.2-0.5-0.2c0,0,0,0,0,0c-0.1,0-0.2,0-0.4,0H36.3c-0.1,0-0.2,0-0.4,0   c0,0,0,0,0,0c-0.2,0-0.4,0.1-0.5,0.2c0,0,0,0-0.1,0L17.1,19c0,0,0,0.1-0.1,0.1c-0.1,0.1-0.2,0.2-0.2,0.2c-0.1,0.1-0.1,0.2-0.2,0.2   c0,0.1-0.1,0.2-0.1,0.3c0,0.1-0.1,0.2-0.1,0.3c0,0,0,0.1,0,0.1v36.5c0,0,0,0,0,0.1c0,0,0,0.1,0,0.1c0,0.2,0.1,0.3,0.1,0.4   c0,0,0,0.1,0,0.1l9,17.9v4.2c0,0.3,0.1,0.5,0.2,0.7l4.6,9.1c0.3,0.5,0.8,0.9,1.4,0.9h8.5l4.1,4.1c0.3,0.3,0.7,0.5,1.1,0.5h9.1   c0.4,0,0.8-0.2,1.1-0.5l4.1-4.1h8.5c0.6,0,1.2-0.3,1.4-0.9l4.6-9.1c0.1-0.2,0.2-0.5,0.2-0.7v-4.2l9-17.9c0,0,0-0.1,0-0.1   c0.1-0.1,0.1-0.3,0.1-0.4c0,0,0-0.1,0-0.1c0,0,0,0,0-0.1V20.3z M72.5,59.8h-8.1l-4.1-4.1c-0.3-0.3-0.7-0.5-1.1-0.5H40.9   c-0.4,0-0.8,0.2-1.1,0.5l-4.1,4.1h-8.1l-7.9-4V21.9h7.5c0.5,0,1-0.3,1.3-0.7l8.7-13h25.7l8.7,13c0.3,0.4,0.8,0.7,1.3,0.7h7.5v33.9   L72.5,59.8z M22.9,18.7l6.9-5.2l-3.4,5.2H22.9z M70.3,13.5l6.9,5.2h-3.4L70.3,13.5z M21.6,60.5l3.9,2v5.9L21.6,60.5z M53.9,91.8   h-7.8l-3-3l3-3h7.8l3,3L53.9,91.8z M67.3,87.2h-7.5l-4.1-4.1c-0.3-0.3-0.7-0.5-1.1-0.5h-9.1c-0.4,0-0.8,0.2-1.1,0.5l-4.1,4.1h-7.5   l-4-7.9V63h7.5c0.4,0,0.8-0.2,1.1-0.5l4.1-4.1h16.9l4.1,4.1c0.3,0.3,0.7,0.5,1.1,0.5h7.5v16.3L67.3,87.2z M74.4,62.4l3.9-2   l-3.9,7.8V62.4z"/></g><text x="0" y="115" fill="#000000" font-size="5px" font-weight="bold" font-family="'Helvetica Neue', Helvetica, Arial-Unicode, Arial, Sans-serif">Created by Alessandro Bertoni</text><text x="0" y="120" fill="#000000" font-size="5px" font-weight="bold" font-family="'Helvetica Neue', Helvetica, Arial-Unicode, Arial, Sans-serif">from the Noun Project</text></svg>