<svg xmlns="http://www.w3.org/2000/svg" xmlns:xlink="http://www.w3.org/1999/xlink" version="1.1" x="0px" y="0px" viewBox="0 0 64 80" style="enable-background:new 0 0 64 64;" xml:space="preserve"><path d="M56,0H28c-0.552,0-1,0.448-1,1v40c0,0.552-0.449,1-1,1H14c-3.86,0-7,3.141-7,7v8v2c0,2.757,2.243,5,5,5h23  c0.768,0,1.469-0.29,2-0.766C37.531,63.71,38.232,64,39,64h15c1.654,0,3-1.346,3-3v-4V1C57,0.448,56.552,0,56,0z M55,2v4H29V2H55z   M14,44h12c1.654,0,3-1.346,3-3V28h5c0.552,0,1-0.448,1-1s-0.448-1-1-1h-5v-6h5c0.552,0,1-0.448,1-1s-0.448-1-1-1h-5V8h26v48H9v-7  C9,46.243,11.243,44,14,44z M55,61c0,0.552-0.449,1-1,1H39c-0.551,0-1-0.448-1-1c0-0.553-0.448-1-1-1s-1,0.447-1,1  c0,0.552-0.449,1-1,1H12c-1.654,0-3-1.346-3-3v-1h46V61z"/><text x="0" y="79" fill="#000000" font-size="5px" font-weight="bold" font-family="'Helvetica Neue', Helvetica, Arial-Unicode, Arial, Sans-serif">Created by Berkah Icon</text><text x="0" y="84" fill="#000000" font-size="5px" font-weight="bold" font-family="'Helvetica Neue', Helvetica, Arial-Unicode, Arial, Sans-serif">from the Noun Project</text></svg>