<svg xmlns="http://www.w3.org/2000/svg" data-name="Layer 1" viewBox="0 0 512 640" x="0px" y="0px"><title>Rock</title><g data-name="Group"><path data-name="Compound Path" d="M418.149,141.762c-.016-.041-.04-.078-.057-.119a9.9,9.9,0,0,0-.545-1.144c-.037-.064-.078-.124-.116-.188a9.962,9.962,0,0,0-.615-.916c-.056-.076-.112-.153-.171-.227a9.842,9.842,0,0,0-.862-.955c-.023-.023-.05-.043-.073-.066a9.866,9.866,0,0,0-.914-.762c-.076-.056-.15-.112-.228-.166a10.031,10.031,0,0,0-1.068-.66.3.3,0,0,1-.03-.018,10.25,10.25,0,0,0-.95-.435c-.072-.028-.144-.047-.215-.073-.111-.041-.222-.076-.334-.113a10.017,10.017,0,0,0-1.026-.282c-.076-.016-.15-.037-.226-.052a9.86,9.86,0,0,0-1.315-.163c-.022,0-.044-.007-.066-.008l-107.1-5.389L238.1,72.7a10,10,0,0,0-11.314-1.4c-.486.255-48.285,25.278-72.024,31.291L42.452,105.858a10,10,0,0,0-9.692,9.411L20.492,324.754a10,10,0,0,0,3.387,8.1L111.572,409.8c.014.013.031.022.045.034s.038.038.059.056a10.077,10.077,0,0,0,.964.718c.069.045.137.089.208.133a9.91,9.91,0,0,0,2.419,1.106c.049.015.1.032.148.046a10.023,10.023,0,0,0,1.275.275c.031,0,.06.015.09.019L327.6,441.729l.07.009.076.011c.014,0,.028,0,.042,0a9.9,9.9,0,0,0,1.347.1c.309,0,.62-.018.93-.047l.031,0c.285-.028.571-.068.856-.121l.046-.007,106.711-20.243a10.034,10.034,0,0,0,1.033-.254c.1-.031.2-.072.3-.106.19-.064.382-.123.571-.2.033-.013.062-.03.094-.044.138-.057.27-.124.4-.188.187-.088.374-.175.554-.273.115-.063.226-.134.338-.2.191-.115.381-.232.562-.358.1-.068.191-.14.287-.211.185-.14.367-.283.542-.433.086-.076.171-.155.256-.233.17-.158.334-.32.493-.489.081-.086.16-.174.239-.263q.224-.258.43-.531c.073-.1.147-.193.218-.293.133-.19.256-.385.375-.583.045-.074.1-.143.141-.219l45.67-80.193a10,10,0,0,0,.625-8.588ZM335.6,420.44,297.915,317.715,364.7,262.664l57.308,141.385ZM150.1,195.226,242.92,243.38l-59.71,67.479-69.192-20.384Zm43.9,133.612,61.281-69.254L314,419.627,137.609,394.909ZM360.5,240.2l-69.885,57.61-21.017-57.3,35.3-90.333,89.5,4.5ZM156.4,122.552a10.007,10.007,0,0,0,2.023-.266c20.763-4.937,56.979-22.733,71.472-30.094l56.466,50.472-32.724,83.745L149.705,172.488,74.157,124.944ZM51.673,134.425l80.811,50.856-40.991,108.2a10,10,0,0,0,6.526,13.135l70.849,20.873-51.724,60.6-76.4-67.035Zm385.7,254.3L379.621,246.241l29.148-73.535,61.706,157.9Z"/></g><text x="0" y="527" fill="#000000" font-size="5px" font-weight="bold" font-family="'Helvetica Neue', Helvetica, Arial-Unicode, Arial, Sans-serif">Created by Kiran Shastry</text><text x="0" y="532" fill="#000000" font-size="5px" font-weight="bold" font-family="'Helvetica Neue', Helvetica, Arial-Unicode, Arial, Sans-serif">from the Noun Project</text></svg>