<svg xmlns:dc="http://purl.org/dc/elements/1.1/" xmlns:cc="http://creativecommons.org/ns#" xmlns:rdf="http://www.w3.org/1999/02/22-rdf-syntax-ns#" xmlns:svg="http://www.w3.org/2000/svg" xmlns="http://www.w3.org/2000/svg" xmlns:sodipodi="http://sodipodi.sourceforge.net/DTD/sodipodi-0.dtd" xmlns:inkscape="http://www.inkscape.org/namespaces/inkscape" version="1.1" x="0px" y="0px" viewBox="0 0 100 125"><g transform="translate(0,-952.36218)"><path style="text-indent:0;text-transform:none;direction:ltr;block-progression:tb;baseline-shift:baseline;color:#000000;enable-background:accumulate;" d="M 31.999178,957.40491 C 27.065521,957.40491 23,961.46887 23,966.40064 l 0,34.98336 a 3.0000263,2.9988763 0 0 0 0,0.3436 c 0.0268,6.4305 0.799578,11.8112 2.156053,16.0549 1.120233,3.5047 2.609619,6.3121 4.843308,8.1211 l 0,18.46 a 3.0000263,2.9988763 0 1 0 5.999452,0 l 0,-19.9905 a 3.0000263,2.9988763 0 0 0 -1.656098,-2.6862 c -0.783956,-0.3918 -2.380721,-2.2154 -3.499681,-5.716 -1.105364,-3.4582 -1.826235,-8.3577 -1.843582,-14.3682 a 3.0000263,2.9988763 0 0 0 0,-0.2187 c 0,-1.8594 1.217939,-2.99855 2.468525,-2.99855 l 19.060761,0 c 1.250585,0 2.468524,1.13915 2.468524,2.99855 0,1.8594 -1.217939,2.9986 -2.468524,2.9986 l -11.530198,0 a 3.0000263,2.9988763 0 0 0 0,5.9972 c 0.673827,0 1.544766,0.4096 2.437277,1.8116 0.892512,1.402 1.562358,3.6512 1.562358,6.1846 a 3.0000263,2.9988763 0 1 0 5.999452,0 c 0,-2.9787 -0.744765,-5.6633 -1.906076,-7.9962 l 3.437187,0 5.468251,0 c 2.648641,0 4.891826,-1.284 6.436912,-2.9361 1.545086,-1.6522 2.562266,-3.717 2.562266,-6.0597 l 0,-3.21719 a 3.0000263,2.9988763 0 0 0 0,-0.21865 l 0,-12.55654 0,-12.99383 c 0,-1.35197 1.428847,-2.99858 2.999727,-2.99858 1.570878,0 2.999726,1.64661 2.999726,2.99858 l 0,31.98481 c 0,5.6406 -0.745413,9.8403 -1.812335,12.6502 -1.066921,2.8101 -2.361524,4.1237 -3.437186,4.6229 a 3.0000263,2.9988763 0 0 0 -1.74984,2.7174 l 0,19.9905 a 3.0000263,2.9988763 0 1 0 5.999452,0 l 0,-18.3663 c 2.054641,-1.5336 3.683665,-3.8685 4.812061,-6.8405 1.43285,-3.7737 2.187301,-8.6252 2.187301,-14.7742 l 0,-31.98481 c 0,-4.81824 -3.922664,-8.99573 -8.999179,-8.99573 -5.076516,0 -8.999179,4.17749 -8.999179,8.99573 l 0,5.46615 c -0.957012,-0.30236 -1.962245,-0.46852 -2.999726,-0.46852 -1.589668,0 -3.120316,0.40944 -4.468343,1.09323 -1.61622,-2.44673 -4.407084,-4.09181 -7.530562,-4.09181 -1.050412,0 -2.058878,0.19341 -2.999727,0.531 l 0,-8.5272 c 0,-4.93177 -4.06552,-8.99573 -8.999179,-8.99573 z m 0,5.99715 c 1.713737,0 2.999727,1.2855 2.999727,2.99858 l 0,25.98766 -3.530928,0 c -0.863476,0 -1.692534,0.15397 -2.468525,0.40606 l 0,-26.39372 c 0,-1.71308 1.285991,-2.99858 2.999726,-2.99858 z m 11.998906,16.99193 c 1.713736,0 2.999726,1.2855 2.999726,2.99858 l 0,1.99905 0,6.99668 -5.999453,0 0,-8.99573 c 0,-1.71308 1.285991,-2.99858 2.999727,-2.99858 z m 11.998905,2.99858 c 1.951758,0 2.999726,1.24769 2.999726,1.99905 l 0,12.55654 a 3.0000263,2.9988763 0 0 0 0,0.31235 l 0,3.12349 c 0,-3.92324 -2.468509,-7.44259 -5.999453,-8.58964 l 0,-0.18741 a 3.0000263,2.9988763 0 0 0 0,-0.21865 l 0,-6.99668 c 0,-0.75136 1.047967,-1.99905 2.999727,-1.99905 z" fill="#000000" fill-opacity="1" stroke="none" marker="none" visibility="visible" display="inline" overflow="visible"/></g><text x="0" y="115" fill="#000000" font-size="5px" font-weight="bold" font-family="'Helvetica Neue', Helvetica, Arial-Unicode, Arial, Sans-serif">Created by johartcamp</text><text x="0" y="120" fill="#000000" font-size="5px" font-weight="bold" font-family="'Helvetica Neue', Helvetica, Arial-Unicode, Arial, Sans-serif">from the Noun Project</text></svg>