<svg xmlns="http://www.w3.org/2000/svg" xmlns:xlink="http://www.w3.org/1999/xlink" version="1.1" x="0px" y="0px" viewBox="0 0 64 80" style="enable-background:new 0 0 64 64;" xml:space="preserve"><g><path d="M55,37h-1.58l-0.439-2.196c-0.066-0.331-0.295-0.606-0.609-0.732l-4.28-1.712l-0.111-0.556   c-0.055-0.276-0.225-0.516-0.466-0.661l-5-3l-0.008,0.013C42.356,28.064,42.187,28,42,28h-4v-1.882l4.447-2.224   c0.269-0.135,0.463-0.384,0.529-0.678l2-9C44.992,14.146,45,14.073,45,14c0-7.168-5.832-13-13-13S19,6.832,19,14   c0,0.073,0.008,0.146,0.024,0.217l2,9c0.065,0.294,0.26,0.543,0.529,0.678L26,26.118V28h-4c-0.187,0-0.356,0.064-0.507,0.155   l-0.008-0.013l-5,3c-0.241,0.145-0.411,0.385-0.466,0.661l-0.111,0.556l-4.28,1.712c-0.313,0.126-0.543,0.401-0.609,0.732L10.58,37   H9c-3.309,0-6,2.691-6,6c0,3.252,2.748,6,6,6c3.104,0,5.665-2.37,5.969-5.395l7.277-4.043L22.97,43.9L20.307,51H20   c-0.431,0-0.812,0.275-0.949,0.684L17.279,57H15c-1.654,0-3,1.346-3,3v2c0,0.552,0.448,1,1,1h14c0.308,0,0.599-0.142,0.788-0.385   s0.257-0.559,0.182-0.858l-0.93-3.717l1.857-5.57L31.5,49h1l2.602,3.47l1.857,5.57l-0.93,3.717   c-0.075,0.299-0.007,0.615,0.182,0.858S36.692,63,37,63h14c0.552,0,1-0.448,1-1v-2c0-1.654-1.346-3-3-3h-2.279l-1.772-5.316   C44.812,51.275,44.431,51,44,51h-0.307l-2.663-7.1l0.723-4.337l7.277,4.043C49.335,46.63,51.896,49,55,49c3.252,0,6-2.748,6-6   C61,39.691,58.309,37,55,37z M28,27h8v1.18l-4,0.8l-4-0.8V27z M21,13.893C21.059,7.876,25.971,3,32,3s10.941,4.876,11,10.893   l-1.873,8.426L35.764,25h-7.528l-5.363-2.682L21,13.893z M26.901,30l4.902,0.98C31.869,30.994,31.934,31,32,31   s0.131-0.006,0.196-0.02L37.099,30h4.054l0.796,4.774l-1.781,2.671l0.004,0.003c-0.077,0.116-0.135,0.246-0.158,0.387L39.486,41   H24.514l-0.527-3.165c-0.023-0.141-0.081-0.271-0.158-0.387l0.004-0.003l-1.781-2.671L22.847,30H26.901z M13.514,42.126   C13.197,42.302,13,42.637,13,43c0,2.206-1.794,4-4,4c-2.168,0-4-1.832-4-4c0-2.206,1.794-4,4-4h1.18l-0.161,0.804l1.961,0.393   l0.894-4.469l2.565-1.026l-0.42,2.102l1.961,0.393l0.914-4.566l2.764-1.658l-0.644,3.864c-0.042,0.251,0.013,0.508,0.154,0.719   l1.398,2.098L13.514,42.126z M25.03,58.243L25.719,61H14v-1c0-0.551,0.449-1,1-1h3c0.431,0,0.812-0.275,0.949-0.684L20.721,53   h5.892l-1.562,4.684C24.991,57.864,24.984,58.058,25.03,58.243z M22.443,51l2.081-5.549l4.996,2.855L27.5,51H22.443z M31.265,47   l-6.357-3.633L24.847,43h14.306l-0.061,0.367L32.735,47H31.265z M45.051,58.316C45.188,58.725,45.569,59,46,59h3   c0.551,0,1,0.449,1,1v1H38.281l0.689-2.757c0.046-0.185,0.039-0.378-0.021-0.559L37.387,53h5.892L45.051,58.316z M36.5,51   l-2.02-2.694l4.996-2.855L41.557,51H36.5z M55,47c-2.206,0-4-1.794-4-4c0-0.363-0.197-0.698-0.514-0.874l-8.052-4.474l1.398-2.098   c0.141-0.211,0.196-0.468,0.154-0.719l-0.644-3.864l2.764,1.658l0.914,4.566l1.961-0.393l-0.42-2.102l2.565,1.026l0.894,4.469   l1.961-0.393L53.82,39H55c2.206,0,4,1.794,4,4C59,45.168,57.168,47,55,47z"/><path d="M31,17c0-0.431-0.275-0.812-0.684-0.949l-6-2c-0.305-0.101-0.64-0.051-0.901,0.138C23.154,14.377,23,14.679,23,15v2   c0,2.206,1.794,4,4,4S31,19.206,31,17z M27,19c-1.103,0-2-0.897-2-2v-0.613l3.881,1.294C28.602,18.45,27.864,19,27,19z"/><path d="M37,21c2.206,0,4-1.794,4-4v-2c0-0.321-0.154-0.623-0.416-0.811c-0.261-0.189-0.598-0.238-0.901-0.138l-6,2   C33.275,16.188,33,16.569,33,17C33,19.206,34.794,21,37,21z M39,16.387V17c0,1.103-0.897,2-2,2c-0.864,0-1.602-0.55-1.881-1.319   L39,16.387z"/></g><text x="0" y="79" fill="#000000" font-size="5px" font-weight="bold" font-family="'Helvetica Neue', Helvetica, Arial-Unicode, Arial, Sans-serif">Created by Template</text><text x="0" y="84" fill="#000000" font-size="5px" font-weight="bold" font-family="'Helvetica Neue', Helvetica, Arial-Unicode, Arial, Sans-serif">from the Noun Project</text></svg>