<?xml version="1.0" encoding="UTF-8" standalone="no"?>
<svg
   xmlns:dc="http://purl.org/dc/elements/1.1/"
   xmlns:cc="http://creativecommons.org/ns#"
   xmlns:rdf="http://www.w3.org/1999/02/22-rdf-syntax-ns#"
   xmlns:svg="http://www.w3.org/2000/svg"
   xmlns="http://www.w3.org/2000/svg"
   xmlns:sodipodi="http://sodipodi.sourceforge.net/DTD/sodipodi-0.dtd"
   xmlns:inkscape="http://www.inkscape.org/namespaces/inkscape"
   data-name="Layer 1"
   viewBox="0 0 48 60"
   x="0px"
   y="0px"
   version="1.1"
   id="svg10"
   sodipodi:docname="noun_Scroll_3367147.svg"
   inkscape:version="1.0.1 (3bc2e813f5, 2020-09-07)">
  <metadata
     id="metadata16">
    <rdf:RDF>
      <cc:Work
         rdf:about="">
        <dc:format>image/svg+xml</dc:format>
        <dc:type
           rdf:resource="http://purl.org/dc/dcmitype/StillImage" />
      </cc:Work>
    </rdf:RDF>
  </metadata>
  <defs
     id="defs14" />
  <sodipodi:namedview
     pagecolor="#ffffff"
     bordercolor="#666666"
     borderopacity="1"
     objecttolerance="10"
     gridtolerance="10"
     guidetolerance="10"
     inkscape:pageopacity="0"
     inkscape:pageshadow="2"
     inkscape:window-width="1920"
     inkscape:window-height="1017"
     id="namedview12"
     showgrid="false"
     inkscape:zoom="14.166667"
     inkscape:cx="24"
     inkscape:cy="38.470588"
     inkscape:window-x="-8"
     inkscape:window-y="144"
     inkscape:window-maximized="1"
     inkscape:current-layer="svg10" />
  <title
     id="title2">expand-scroll</title>
  <path
     d="M41.8,6.79a5.72,5.72,0,0,0-.26-.88,5.51,5.51,0,0,0-.68-1.19l-.26-.3A4.34,4.34,0,0,0,37.41,3H10.59A4.37,4.37,0,0,0,7.41,4.42,4.85,4.85,0,0,0,6.12,7.74a4.59,4.59,0,0,0,4.19,4.71V43.09a1,1,0,0,0,1,1h.36a1,1,0,0,0,.25-.05l.09,0a68,68,0,0,0,12.7.92A103.92,103.92,0,0,0,39,44.09a1,1,0,0,0,.79-.68,12.66,12.66,0,0,0,.66-3.89c0-1.83-.5-3.08-1.45-3.61a1.86,1.86,0,0,0-1.27-.18V12.44a4.34,4.34,0,0,0,2.91-1.39l.28-.33a5,5,0,0,0,.92-2.05,5.55,5.55,0,0,0,.08-.93A5.8,5.8,0,0,0,41.8,6.79ZM13.35,35.33A3.48,3.48,0,0,0,13.06,38a5.8,5.8,0,0,1,.13,1.39,3.77,3.77,0,0,1-.88,2.07v-29H35.69V35.59l-.38-.14a10.79,10.79,0,0,0-1.91-.56c-1.51-.29-2.71-.52-4,.08a6.06,6.06,0,0,0-1,.64,4.41,4.41,0,0,1-.17-.77,1,1,0,0,0-1-.86H21.12l-.2,0a4.32,4.32,0,0,0-2.2,1.14c0-.12-.06-.24-.09-.38a1,1,0,0,0-.88-.77C15.53,33.77,14.09,34.21,13.35,35.33ZM38,37.71h0a3.14,3.14,0,0,1,.37,1.81A10.88,10.88,0,0,1,38,42.2a107.68,107.68,0,0,1-13.32.8,80.78,80.78,0,0,1-10.57-.61,5.44,5.44,0,0,0,1-2.83A7.66,7.66,0,0,0,15,37.69c-.11-.64-.17-1,0-1.26s.5-.53,1.85-.49c.28,1,.71,1.81,1.62,1.84A1.48,1.48,0,0,0,19.77,37a2.19,2.19,0,0,1,.33-.41A2.26,2.26,0,0,1,21.23,36h5.14a2.3,2.3,0,0,0,1.41,1.77,1.89,1.89,0,0,0,1.74-.52,4.21,4.21,0,0,1,.7-.44c.69-.32,1.4-.21,2.85.07a7.94,7.94,0,0,1,1.53.46,6,6,0,0,0,2.09.46A6.09,6.09,0,0,0,38,37.71ZM39.83,8.3a2.63,2.63,0,0,1-.15.52,3.23,3.23,0,0,1-.37.66l-.18.21a2.36,2.36,0,0,1-1.72.78H10.52a2.62,2.62,0,0,1-2.4-2.72,2.87,2.87,0,0,1,.75-2A2.36,2.36,0,0,1,10.59,5H37.41a2.36,2.36,0,0,1,1.72.78l.16.19a2.81,2.81,0,0,1,.38.67,2.59,2.59,0,0,1,.16.52,3.48,3.48,0,0,1,.05.58A3.15,3.15,0,0,1,39.83,8.3Z"
     id="path4" />
  <path
     style="fill:#000000;stroke-width:0.0705882"
     d="m 20.823529,44.891824 c -2.393707,-0.08231 -5.039744,-0.325682 -7.411764,-0.681713 -0.679412,-0.101976 -1.463639,-0.179141 -1.742727,-0.171475 -0.618623,0.01699 -0.954242,-0.108111 -1.149581,-0.428506 -0.141739,-0.232479 -0.14246,-0.311757 -0.142723,-15.698109 L 10.376471,12.447572 9.8140247,12.326708 C 8.4657812,12.036985 7.2375767,11.089784 6.6445079,9.8823529 5.3966383,7.3418092 6.6295315,4.2204618 9.2606189,3.2590775 L 9.7764706,3.0705882 23.770182,3.0519149 c 12.10236,-0.01615 14.06111,-0.00462 14.492375,0.085301 1.303143,0.2717133 2.455817,1.1927999 3.052551,2.439255 0.428201,0.8944247 0.571596,1.5742519 0.526551,2.496353 -0.08059,1.6497235 -1.030865,3.1341861 -2.467561,3.8546641 -0.472741,0.237072 -0.725128,0.314743 -1.521157,0.468128 l -0.158823,0.0306 v 11.674292 11.674291 l 0.272266,-0.03652 c 0.412377,-0.05531 0.996589,0.144965 1.36256,0.467105 0.581734,0.512063 0.940533,1.397234 1.038892,2.562984 0.140532,1.665584 -0.321808,4.361862 -0.851364,4.964993 -0.254572,0.289942 -0.411408,0.324491 -2.528237,0.556952 -3.684209,0.404584 -5.693803,0.523951 -10.164706,0.603763 -3.94783,0.07048 -3.884074,0.0705 -6,-0.0023 z m 6.952942,-1.905155 c 2.459747,-0.07435 4.902451,-0.214389 6.77647,-0.388495 1.91008,-0.177457 3.349371,-0.340577 3.426683,-0.388358 0.153379,-0.09479 0.3552,-1.370436 0.390568,-2.46864 0.03255,-1.010628 0.02291,-1.129129 -0.126301,-1.552941 l -0.161538,-0.458823 -0.776471,0.02366 c -1.004756,0.03062 -1.530543,-0.0604 -2.784741,-0.482044 -1.242718,-0.417785 -2.431295,-0.658217 -3.285847,-0.664681 -0.720803,-0.0055 -1.121426,0.137338 -1.759471,0.627116 -0.482641,0.370486 -0.862484,0.527991 -1.275823,0.529031 -0.683476,0.0017 -1.433021,-0.623463 -1.695717,-1.414368 L 26.388654,36 H 23.69054 20.992425 l -0.360609,0.179699 c -0.198335,0.09884 -0.482514,0.32367 -0.631507,0.499633 -0.148993,0.175964 -0.401315,0.455468 -0.560715,0.621122 -0.791499,0.82255 -1.901141,0.426857 -2.370792,-0.845413 l -0.181005,-0.490335 -0.501438,-0.02071 c -0.633932,-0.02619 -1.033797,0.08082 -1.301187,0.348211 -0.209053,0.209053 -0.209942,0.213415 -0.16797,0.823688 0.02321,0.337436 0.07814,0.867638 0.122063,1.178227 0.185202,1.309496 -0.151074,2.85419 -0.847221,3.89173 l -0.148378,0.221143 0.301697,0.0434 c 0.165933,0.02387 0.921108,0.105395 1.678166,0.181163 3.811925,0.381508 7.346465,0.488303 11.752942,0.355113 z M 12.637875,41.069797 c 0.549352,-0.849953 0.698971,-1.875488 0.449157,-3.078655 -0.150433,-0.724522 -0.105151,-1.671022 0.10607,-2.217139 0.299462,-0.774265 1.044196,-1.379198 2.018663,-1.639723 0.572405,-0.153033 1.937146,-0.218839 2.466922,-0.118951 0.509642,0.09609 0.765439,0.315378 0.9237,0.791858 l 0.112043,0.337329 0.478312,-0.348988 c 0.263072,-0.191943 0.682031,-0.436224 0.93102,-0.542846 l 0.452709,-0.193858 3.458823,-0.01882 c 3.376829,-0.01837 3.464376,-0.0154 3.693038,0.125412 0.26471,0.163013 0.466595,0.565692 0.538512,1.074116 0.05682,0.401723 0.111501,0.446602 0.332402,0.272841 0.332665,-0.261674 1.090669,-0.636781 1.50382,-0.744182 0.986698,-0.256498 2.989515,-0.01893 4.714581,0.559231 l 0.9,0.301637 V 24.026293 12.423529 H 24 12.282353 v 14.541177 c 0,7.997647 0.01657,14.541176 0.03683,14.541176 0.02026,0 0.163669,-0.196238 0.318689,-0.436085 z m 25.7039,-30.775238 C 38.894404,10.035497 39.322196,9.6179056 39.604276,9.0621651 39.816708,8.643639 39.845893,8.5165496 39.870551,7.9026422 39.893261,7.3372225 39.871356,7.1325992 39.748812,6.7654059 39.482133,5.9663262 38.820074,5.2865148 38.093459,5.0656653 37.86128,4.9950961 34.90357,4.9764706 23.929412,4.9764706 H 10.058824 L 9.6187544,5.179731 C 9.0866209,5.4255145 8.6070485,5.9134869 8.3421216,6.4787248 8.1685563,6.8490371 8.1529412,6.9551832 8.1529412,7.7647059 c 0,0.8288833 0.011913,0.9049637 0.196591,1.2554756 0.3783582,0.71811 0.8548406,1.1259305 1.5918588,1.3624715 0.381451,0.122423 1.032681,0.127651 14.199785,0.114004 l 13.8,-0.0143 z"
     id="path841" />
  <path
     style="fill:#000000;stroke-width:0.0705882"
     d="m 20.788235,44.889925 c -2.396325,-0.08413 -4.880905,-0.310536 -7.336825,-0.668563 -0.657607,-0.09587 -1.444804,-0.174303 -1.749326,-0.174303 -0.665866,0 -0.989033,-0.119396 -1.182627,-0.436929 -0.141739,-0.232479 -0.14246,-0.311757 -0.142723,-15.698109 L 10.376471,12.447572 9.8140247,12.326708 C 8.4657812,12.036985 7.2375767,11.089784 6.6445079,9.8823529 5.3966349,7.3418024 6.6296197,4.2202926 9.2606973,3.2590264 L 9.7764706,3.0705882 23.770182,3.0519149 c 12.10236,-0.01615 14.06111,-0.00462 14.492375,0.085301 1.303143,0.2717133 2.455817,1.1927999 3.052551,2.439255 0.807098,1.6858632 0.713133,3.3946801 -0.267806,4.8702231 -0.69354,1.043233 -1.768796,1.718286 -3.088478,1.938968 l -0.264706,0.04426 v 11.672437 11.672438 l 0.272266,-0.03652 c 0.412377,-0.05531 0.996589,0.144965 1.36256,0.467105 0.581734,0.512063 0.940533,1.397234 1.038892,2.562984 0.140461,1.664746 -0.31884,4.358481 -0.84541,4.958211 -0.261382,0.297698 -0.407395,0.330179 -2.534191,0.563734 -3.684209,0.404584 -5.693803,0.523951 -10.164706,0.603763 -3.971966,0.07091 -3.895771,0.07096 -6.035294,-0.0042 z m 6.952941,-1.901646 c 2.375334,-0.07264 3.948161,-0.156934 5.929412,-0.31779 1.737084,-0.141031 4.22176,-0.406734 4.309269,-0.460817 0.15317,-0.09466 0.35499,-1.370984 0.390335,-2.468496 0.03255,-1.010628 0.02291,-1.129129 -0.126301,-1.552941 l -0.161538,-0.458823 -0.847059,0.02379 c -1.00128,0.02812 -1.581003,-0.07544 -2.733493,-0.488287 -1.046541,-0.374895 -2.382931,-0.645879 -3.231213,-0.655203 -0.766983,-0.0084 -1.091783,0.102683 -1.747631,0.597852 -0.51813,0.391193 -0.905985,0.553883 -1.322957,0.554932 -0.683476,0.0017 -1.433021,-0.623463 -1.695717,-1.414368 L 26.388654,36 H 23.69054 20.992425 l -0.367803,0.183284 c -0.211228,0.10526 -0.480062,0.320888 -0.631506,0.506523 -0.145038,0.177782 -0.394122,0.455674 -0.553522,0.617537 -0.799901,0.812265 -1.902673,0.415816 -2.370792,-0.852303 l -0.181005,-0.490335 -0.501438,-0.02071 c -0.632513,-0.02613 -1.033726,0.08075 -1.299016,0.346041 -0.201862,0.201861 -0.207011,0.224073 -0.174608,0.753099 0.01836,0.299807 0.07452,0.885838 0.124784,1.302291 0.156604,1.297417 -0.08164,2.527032 -0.694827,3.586161 l -0.27714,0.478689 0.290753,0.04176 c 0.159915,0.02297 0.910166,0.103754 1.667224,0.179522 3.790455,0.379359 7.391978,0.489001 11.717647,0.356723 z M 12.845534,40.692155 c 0.113042,-0.234021 0.238264,-0.56755 0.278272,-0.741177 0.107764,-0.467667 0.09134,-1.342793 -0.03677,-1.959836 -0.150433,-0.724522 -0.105151,-1.671022 0.10607,-2.217139 0.299462,-0.774265 1.044196,-1.379198 2.018663,-1.639723 0.572405,-0.153033 1.937146,-0.218839 2.466922,-0.118951 0.509642,0.09609 0.765439,0.315378 0.9237,0.791858 l 0.112043,0.337329 0.478312,-0.348988 c 0.263072,-0.191943 0.682031,-0.436224 0.93102,-0.542846 l 0.452709,-0.193858 3.458823,-0.01882 c 3.373548,-0.01836 3.464581,-0.01527 3.692339,0.124988 0.24541,0.151132 0.501094,0.611682 0.509295,0.917362 0.0026,0.09706 0.04301,0.26529 0.08979,0.373846 l 0.08505,0.197376 0.247059,-0.187258 c 0.375159,-0.284351 1.171073,-0.650292 1.615079,-0.742571 0.970127,-0.201625 3.04214,0.08059 4.640618,0.632072 L 35.717647,35.6329 V 24.028215 12.423529 H 24 12.282353 l 0.0025,14.558824 0.0025,14.558823 0.176287,-0.211764 c 0.09696,-0.116471 0.268775,-0.403236 0.381817,-0.637257 z M 38.415431,10.250347 c 0.541842,-0.2667565 0.945089,-0.6831501 1.236768,-1.2770896 0.178456,-0.3633837 0.19486,-0.4651245 0.19486,-1.2085515 0,-0.7654778 -0.01278,-0.8387348 -0.224075,-1.2847562 C 39.36995,5.94583 38.914012,5.4505584 38.459662,5.2162698 38.190842,5.0776507 37.991004,5.050743 36.842435,4.9985137 36.121657,4.9657376 29.80048,4.9473695 22.795376,4.9576957 L 10.058824,4.9764706 9.658225,5.164264 C 9.0973566,5.4271891 8.6543216,5.860936 8.3823482,6.4133926 c -0.2217915,0.4505226 -0.229407,0.4953319 -0.229407,1.349829 0,0.872667 0.00306,0.8894762 0.241915,1.3300205 0.3797974,0.7004905 1.0426195,1.2029779 1.7791488,1.3487799 0.169591,0.03357 6.487258,0.05638 14.03926,0.05069 l 13.730911,-0.01036 z"
     id="path843" />
</svg>
