<svg xmlns="http://www.w3.org/2000/svg" xmlns:xlink="http://www.w3.org/1999/xlink" xml:space="preserve" version="1.1" x="0px" y="0px" viewBox="0 0 100 125"><path d="M94.952,57.018C94.952,57.016,94.952,57.014,94.951,57.011C94.909,56.799,94.83,56.598,94.735,56.404C94.711,56.355,94.686,56.309,94.659,56.262C94.55,56.072,94.425,55.89,94.267,55.732L74.267,35.732C74.109,35.574,73.928,35.449,73.738,35.34C73.69,35.313,73.643,35.287,73.594,35.263C73.401,35.169,73.201,35.09,72.989,35.048C72.984,35.047,72.98,35.047,72.975,35.047C72.82,35.017,72.661,35,72.5,35L54.73,35L50.232,24.779L51.941,20.895C53.762,23.378,56.691,25,60,25C65.514,25,70,20.514,70,15S65.514,5,60,5C55.958,5,52.477,7.415,50.902,10.874C50.884,10.909,50.861,10.939,50.845,10.975L47.5,18.573L44.156,10.975C44.14,10.939,44.116,10.909,44.098,10.873C42.523,7.415,39.042,5,35,5C29.486,5,25,9.486,25,15S29.486,25,35,25C38.309,25,41.238,23.378,43.059,20.895L44.768,24.779L40.27,35L7.5,35C6.119,35,5,36.119,5,37.5L5,92.5C5,93.881,6.119,95,7.5,95L92.5,95C93.881,95,95,93.881,95,92.5L95,57.5C95,57.337,94.983,57.176,94.952,57.018ZM10,90L10,40L51.468,40L55.212,48.507C55.624,49.443,56.54,50,57.501,50C57.837,50,58.179,49.932,58.507,49.788C59.771,49.232,60.344,47.757,59.788,46.493L56.93,40L70,40L70,57.5C70,58.881,71.119,60,72.5,60L90,60L90,90L10,90ZM45.733,35L47.5,30.985L49.267,35L45.733,35ZM75,55L75,43.536L86.464,55L75,55ZM65,15C65,17.757,62.757,20,60,20S55,17.757,55,15S57.243,10,60,10S65,12.243,65,15ZM35,20C32.243,20,30,17.757,30,15S32.243,10,35,10S40,12.243,40,15S37.757,20,35,20Z"/><path d="M47.5,75C46.119,75,45,76.119,45,77.5L45,82.5C45,83.881,46.119,85,47.5,85S50,83.881,50,82.5L50,77.5C50,76.119,48.881,75,47.5,75Z"/><path d="M47.5,60C46.119,60,45,61.119,45,62.5L45,67.5C45,68.881,46.119,70,47.5,70S50,68.881,50,67.5L50,62.5C50,61.119,48.881,60,47.5,60Z"/><path d="M47.5,45C46.119,45,45,46.119,45,47.5L45,52.5C45,53.881,46.119,55,47.5,55S50,53.881,50,52.5L50,47.5C50,46.119,48.881,45,47.5,45Z"/><text x="0" y="115" fill="#000000" font-size="5px" font-weight="bold" font-family="'Helvetica Neue', Helvetica, Arial-Unicode, Arial, Sans-serif">Created by Arthur Shlain</text><text x="0" y="120" fill="#000000" font-size="5px" font-weight="bold" font-family="'Helvetica Neue', Helvetica, Arial-Unicode, Arial, Sans-serif">from the Noun Project</text></svg>