<svg xmlns:dc="http://purl.org/dc/elements/1.1/" xmlns:cc="http://creativecommons.org/ns#" xmlns:rdf="http://www.w3.org/1999/02/22-rdf-syntax-ns#" xmlns:svg="http://www.w3.org/2000/svg" xmlns="http://www.w3.org/2000/svg" xmlns:sodipodi="http://sodipodi.sourceforge.net/DTD/sodipodi-0.dtd" xmlns:inkscape="http://www.inkscape.org/namespaces/inkscape" viewBox="0 0 16 20" version="1.1" x="0px" y="0px"><g transform="translate(0,-1036.3622)"><g transform="translate(628,-140.49998)"><g transform="translate(-599.5,50.350676)"><path style="color:#000000;font-style:normal;font-variant:normal;font-weight:normal;font-stretch:normal;font-size:medium;line-height:normal;font-family:sans-serif;text-indent:0;text-align:start;text-decoration:none;text-decoration-line:none;text-decoration-style:solid;text-decoration-color:#000000;letter-spacing:normal;word-spacing:normal;text-transform:none;direction:ltr;block-progression:tb;writing-mode:lr-tb;baseline-shift:baseline;text-anchor:start;white-space:normal;clip-rule:nonzero;display:inline;overflow:visible;visibility:visible;opacity:1;isolation:auto;mix-blend-mode:normal;color-interpolation:sRGB;color-interpolation-filters:linearRGB;solid-color:#000000;solid-opacity:1;fill:#000000;fill-opacity:1;fill-rule:nonzero;stroke:none;stroke-width:1;stroke-linecap:round;stroke-linejoin:round;stroke-miterlimit:4;stroke-dasharray:none;stroke-dashoffset:0;stroke-opacity:1;color-rendering:auto;image-rendering:auto;shape-rendering:auto;text-rendering:auto;enable-background:accumulate" d="M 2.6601562,1 C 2.418665,1.0132848 2.2212943,1.1974975 2.1914062,1.4375 1.8023174,4.5169 1.9678096,7.0252219 2.8535156,9.2324219 3.7392206,11.439722 5.3358955,13.31405 7.7109375,15.15625 c 0.1804328,0.140073 0.4328484,0.140073 0.6132813,0 2.3769182,-1.8437 3.9482802,-3.7281 4.8203122,-5.9375 0.872032,-2.2095 1.035511,-4.7125375 0.697266,-7.7734375 -0.04069,-0.3616342 -0.441727,-0.56007497 -0.753906,-0.3730469 -1.872084,1.1293 -3.5885665,1.0948403 -4.7363285,0.056641 -0.1903066,-0.17168911 -0.4796153,-0.17168911 -0.6699219,0 C 6.5338816,2.1675059 4.8193316,2.2019656 2.9472656,1.0722656 2.861051,1.0197483 2.7609599,0.99455534 2.6601562,1 Z M 8.015625,2.0742188 c 1.320271,0.9716 3.091681,0.8887249 4.849609,0.078125 0.234202,2.6578999 0.0837,4.8392187 -0.65039,6.6992187 C 11.464735,10.752062 10.089312,12.401019 8.015625,14.074219 5.93862,12.400619 4.541732,10.754575 3.78125,8.859375 3.035785,7.001575 2.8878164,4.8219906 3.1621094,2.1503906 c 1.75923,0.813 3.5318786,0.8954283 4.8535156,-0.076172 z M 6.5,6.0761759 c -0.4494023,9.14e-5 -0.6705869,0.5468399 -0.3476562,0.859375 l 1.140625,1.140625 -1.140625,1.140625 C 5.6615172,9.6880553 6.3881206,10.414659 6.859375,9.9238321 L 8,8.7832071 9.140625,9.9238321 C 9.6118794,10.414659 10.338483,9.6880553 9.8476562,9.2168009 l -1.140625,-1.140625 1.140625,-1.140625 C 10.176504,6.6177448 9.9414674,6.0617435 9.484375,6.0761759 9.3546148,6.079788 9.2313445,6.1337187 9.140625,6.2265665 L 8,7.3671915 6.859375,6.2265665 C 6.7648393,6.1299158 6.6351965,6.0756631 6.5,6.0761759 Z" transform="translate(-28.5,1126.5115)"/></g></g></g><text x="0" y="31" fill="#000000" font-size="5px" font-weight="bold" font-family="'Helvetica Neue', Helvetica, Arial-Unicode, Arial, Sans-serif">Created by Chameleon Design</text><text x="0" y="36" fill="#000000" font-size="5px" font-weight="bold" font-family="'Helvetica Neue', Helvetica, Arial-Unicode, Arial, Sans-serif">from the Noun Project</text></svg>