<svg xmlns="http://www.w3.org/2000/svg" xmlns:xlink="http://www.w3.org/1999/xlink" version="1.1" x="0px" y="0px" viewBox="0 0 100 125" style="enable-background:new 0 0 100 100;" xml:space="preserve"><path d="M89.9,12.8C86.5,9.4,82,7.5,77.2,7.5c-4.8,0-9.3,1.9-12.7,5.3c-0.4,0.4-0.6,0.9-0.6,1.4c0,0.5,0.2,1,0.6,1.4l1,1  c-2,0.2-3.7,1.5-4.7,3.3c-2,4.1-6.2,6.6-10.7,6.6s-8.7-2.5-10.7-6.6c-0.9-1.9-2.7-3.1-4.7-3.3l1-1c0.8-0.8,0.8-2,0-2.8  c-3.4-3.4-7.9-5.3-12.7-5.3c-4.8,0-9.3,1.9-12.7,5.3c-7,7-7,18.4,0,25.5c0.4,0.4,0.9,0.6,1.4,0.6c0.5,0,1-0.2,1.4-0.6l7.1-7.1v49.4  c0,1.8,0.8,3.5,2.2,4.7l8.5,6.8c0,0,0,0,0,0c0.2,0.1,0.3,0.2,0.5,0.3c0,0,0.1,0,0.1,0c0.1,0,0.2,0.1,0.3,0.1c0,0,0.1,0,0.1,0  c0.1,0,0.1,0,0.2,0h36c0.1,0,0.2,0,0.3,0c0.1,0,0.2,0,0.3-0.1c0,0,0.1,0,0.1,0c0.2-0.1,0.4-0.2,0.5-0.3c0,0,0,0,0,0l8.5-6.8  c1.4-1.1,2.2-2.9,2.2-4.7V31.2l7.1,7.1c0.4,0.4,0.9,0.6,1.4,0.6c0.5,0,1-0.2,1.4-0.6C96.9,31.2,96.9,19.8,89.9,12.8z M11.6,33.9  C7.5,28.4,8,20.6,12.9,15.6c2.7-2.6,6.2-4.1,9.9-4.1c3.1,0,6,1,8.4,2.8L11.6,33.9z M30,86.3l-5.2-4.2c-0.5-0.4-0.8-1-0.8-1.6V56.7  l6,4.8V86.3z M48,88.5H34v-6h14V88.5z M48,78.5H34v-6h14V78.5z M48,68.5H34v-6h14V68.5z M48,58.5H32.7l-8.7-7v-11h24V58.5z M66,88.5  H52v-6h14V88.5z M66,78.5H52v-6h14V78.5z M66,68.5H52v-6h14V68.5z M76,80.6c0,0.6-0.3,1.2-0.8,1.6L70,86.3V61.5l6-4.8V80.6z   M76,51.5l-8.7,7H52v-18h24V51.5z M76,36.5H24v-9.3l6.7-6.7h3.2c0.8,0,1.5,0.4,1.8,1.2c2.7,5.5,8.2,8.8,14.3,8.8s11.6-3.4,14.3-8.8  c0.3-0.7,1-1.2,1.8-1.2h3.2l6.7,6.7V36.5z M88.4,33.9L68.8,14.3c2.4-1.8,5.3-2.8,8.4-2.8c3.7,0,7.2,1.5,9.9,4.1  C92,20.6,92.5,28.4,88.4,33.9z"/><text x="0" y="115" fill="#000000" font-size="5px" font-weight="bold" font-family="'Helvetica Neue', Helvetica, Arial-Unicode, Arial, Sans-serif">Created by IconMark</text><text x="0" y="120" fill="#000000" font-size="5px" font-weight="bold" font-family="'Helvetica Neue', Helvetica, Arial-Unicode, Arial, Sans-serif">from the Noun Project</text></svg>