<svg xmlns="http://www.w3.org/2000/svg" data-name="Layer 1" viewBox="0 0 100 125" x="0px" y="0px"><title>ALL</title><path d="M20.4,69.46a1,1,0,0,1-.82-.44A35.8,35.8,0,0,1,13.7,49.3c0-8.29,6-18.25,17.79-29.61A157.09,157.09,0,0,1,49.1,5.17a1,1,0,0,1,1.11,0c1.45,1,35.4,24.53,35.4,44.13a35.86,35.86,0,0,1-5.52,19.15,1,1,0,0,1-1.66-1A33.9,33.9,0,0,0,83.65,49.3c0-17.27-29.55-39-34-42.13-4.44,3.16-34,24.86-34,42.13a33.85,33.85,0,0,0,5.57,18.65,1,1,0,0,1-.82,1.52Z"/><path d="M44.08,95a1,1,0,0,1-.29,0L9.69,84.52A1,1,0,0,1,9.18,83L19.6,67.92A1,1,0,1,1,21.21,69L11.54,83,43.11,92.7V67.2a1,1,0,0,1,2,0V94a1,1,0,0,1-1,1Z"/><path d="M55.92,95a1,1,0,0,1-1-1V66.81a1,1,0,1,1,2,0V92.7L88.46,83l-10-14.55a1,1,0,1,1,1.61-1.11L90.83,83a1,1,0,0,1-.52,1.49L56.2,95A1,1,0,0,1,55.92,95Z"/><path d="M44.08,68.18a1,1,0,0,1-.49-.13A114.91,114.91,0,0,1,27.75,56.74,7,7,0,0,1,25.85,51a10.48,10.48,0,0,1,9-9,7,7,0,0,1,5.78,1.9A106,106,0,0,1,49.4,55.61l9.24-11.67.08-.08A7,7,0,0,1,64.49,42a10.48,10.48,0,0,1,9,9,7,7,0,0,1-1.9,5.78A113.47,113.47,0,0,1,56.42,67.65a1,1,0,0,1-1-1.68A113.44,113.44,0,0,0,70.21,55.35a5.06,5.06,0,0,0,1.34-4.2,8.12,8.12,0,0,0-2.41-4.84c-2.77-2.77-6.8-3.26-9-1.11l-10,12.69a1,1,0,0,1-.82.37,1,1,0,0,1-.78-.45,107.66,107.66,0,0,0-9.24-12.58,5.05,5.05,0,0,0-4.2-1.34,8.53,8.53,0,0,0-7.26,7.26,5.06,5.06,0,0,0,1.34,4.2,114.79,114.79,0,0,0,15.44,11,1,1,0,0,1-.5,1.82Z"/><path d="M55.92,82.78H44.08a1,1,0,0,1,0-2H55.92a1,1,0,1,1,0,2Z"/><text x="0" y="115" fill="#000000" font-size="5px" font-weight="bold" font-family="'Helvetica Neue', Helvetica, Arial-Unicode, Arial, Sans-serif">Created by KΛPKLΛM</text><text x="0" y="120" fill="#000000" font-size="5px" font-weight="bold" font-family="'Helvetica Neue', Helvetica, Arial-Unicode, Arial, Sans-serif">from the Noun Project</text></svg>