<svg xmlns="http://www.w3.org/2000/svg" xmlns:xlink="http://www.w3.org/1999/xlink" version="1.1" x="0px" y="0px" viewBox="0 0 100 125" enable-background="new 0 0 100 100" xml:space="preserve"><path d="M60.92,4.951c-5.291,0-9.902,3.663-11.392,8.532c-1.393-4.925-5.78-8.535-10.972-8.535c-6.271,0-11.375,5.325-11.375,11.871  S32.24,28.69,38.458,28.69c2.284,0,4.473-0.714,6.33-2.042c0,0,0.538,10.773,0.54,10.849l1.442,53.47  c0.027,1.468,0.277,3.437,2.121,3.968c0.991,0.285,1.945,0.042,2.578-0.719c0.742-0.892,0.65-1.739,0.766-3.052  c0-0.002,2.518-55.754,2.518-55.754c0-0.003,0.002-0.028,0.002-0.031l0.557-8.519c1.814,1.248,3.98,1.913,6.264,1.913  c6.201,0,11.244-5.346,11.244-11.913C72.818,10.407,67.369,4.951,60.92,4.951z M50.282,91.02c-0.001,0.097-0.01,0.221-0.025,0.357  l-3.626-66.81c-0.021-0.387-0.27-0.726-0.631-0.862c-0.112-0.042-0.229-0.062-0.344-0.062c-0.259,0-0.513,0.103-0.7,0.295  c-1.755,1.805-4.062,2.799-6.498,2.799c-5.141,0-9.325-4.449-9.325-9.918c0-5.468,4.206-9.918,9.402-9.918  c5.23,0,9.466,4.45,9.466,9.929v14.763c0,0.303,0.163,0.589,0.403,0.773l4.368,3.352L50.282,91.02z M61.574,26.816  c-2.449,0-4.73-0.934-6.424-2.629c-0.271-0.271-0.674-0.358-1.035-0.224c-0.357,0.134-0.605,0.468-0.631,0.85l-0.541,8.325  l-1.838-1.426L51.25,16.83c0-5.288,4.51-9.926,9.809-9.926s9.879,4.651,9.879,9.954C70.938,22.349,66.699,26.816,61.574,26.816z"/><circle cx="50" cy="42.5" r="1.5"/><text x="0" y="115" fill="#000000" font-size="5px" font-weight="bold" font-family="'Helvetica Neue', Helvetica, Arial-Unicode, Arial, Sans-serif">Created by Agniraj Chatterji</text><text x="0" y="120" fill="#000000" font-size="5px" font-weight="bold" font-family="'Helvetica Neue', Helvetica, Arial-Unicode, Arial, Sans-serif">from the Noun Project</text></svg>