<?xml version="1.0" encoding="UTF-8" standalone="no"?>
<svg
   xmlns:dc="http://purl.org/dc/elements/1.1/"
   xmlns:cc="http://creativecommons.org/ns#"
   xmlns:rdf="http://www.w3.org/1999/02/22-rdf-syntax-ns#"
   xmlns:svg="http://www.w3.org/2000/svg"
   xmlns="http://www.w3.org/2000/svg"
   xmlns:sodipodi="http://sodipodi.sourceforge.net/DTD/sodipodi-0.dtd"
   xmlns:inkscape="http://www.inkscape.org/namespaces/inkscape"
   version="1.1"
   x="0px"
   y="0px"
   viewBox="0 0 100 125"
   style="enable-background:new 0 0 100 100;"
   xml:space="preserve"
   id="svg8"
   sodipodi:docname="closed-nav-scroll.svg"
   inkscape:version="1.0.1 (3bc2e813f5, 2020-09-07)"><metadata
     id="metadata14"><rdf:RDF><cc:Work
         rdf:about=""><dc:format>image/svg+xml</dc:format><dc:type
           rdf:resource="http://purl.org/dc/dcmitype/StillImage" /></cc:Work></rdf:RDF></metadata><defs
     id="defs12" /><sodipodi:namedview
     pagecolor="#ffffff"
     bordercolor="#666666"
     borderopacity="1"
     objecttolerance="10"
     gridtolerance="10"
     guidetolerance="10"
     inkscape:pageopacity="0"
     inkscape:pageshadow="2"
     inkscape:window-width="1920"
     inkscape:window-height="1017"
     id="namedview10"
     showgrid="false"
     inkscape:zoom="54.4"
     inkscape:cx="27.356618"
     inkscape:cy="35.28132"
     inkscape:window-x="-8"
     inkscape:window-y="144"
     inkscape:window-maximized="1"
     inkscape:current-layer="svg8" /><path
     id="path2"
     d="m 16.900391,10.099609 c -0.6,0 -1,0.4 -1,1 v 5.701172 h -2.5 c -1.8,0 -3.201172,1.399219 -3.201172,3.199219 0,1.8 1.401172,3.199219 3.201172,3.199219 h 2.5 V 29 c 0,0.6 0.4,1 1,1 h 4.798828 c 0.6,0 1,-0.4 1,-1 v -0.900391 h 1.601562 v 0.0078 h 0.0332 0.109375 0.119141 0.1875 0.07031 0.144532 0.0918 c 0.02481,-0.0052 0.03788,-0.01953 0.06836,-0.01953 h 0.04102 0.08398 0.07813 0.107422 0.0625 0.07813 0.05078 0.130859 0.05273 0.07422 0.05273 0.0957 0.04883 0.0918 0.0918 0.0957 0.09375 0.128906 0.199219 c 0.01829,0 0.02477,0.0098 0.04102,0.01172 h 47.27539 V 72 H 26.199219 V 28.511719 h -0.06836 -0.101562 -0.28125 -0.0098 -0.09766 -0.07422 -0.09375 -0.05273 -0.0957 -0.08789 -0.193359 -0.109375 -0.101563 -0.117187 -0.07031 -0.132812 -0.05859 -0.07422 -0.02539 -0.05273 V 72 h -1.601562 v -0.900391 c 0,-0.5 -0.5,-0.90039 -1,-0.90039 h -4.798828 c -0.6,0 -1,0.4 -1,1 v 5.701172 h -2.5 c -1.8,0 -3.201172,1.399218 -3.201172,3.199218 0,1.8 1.401172,3.201172 3.201172,3.201172 h 2.5 V 89 c 0,0.6 0.4,1 1,1 h 4.798828 c 0.6,0 1,-0.4 1,-1 v -0.900391 h 55 V 89 c 0,0.6 0.4,1 1,1 H 83.5 c 0.6,0 1,-0.4 1,-1 V 83.300781 H 87 c 1.8,0 3.199219,-1.401172 3.199219,-3.201172 0,-1.8 -1.399219,-3.199218 -3.199219,-3.199218 h -2.5 v -5.701172 c 0,-0.6 -0.4,-1 -1,-1 h -4.800781 c -0.6,0 -1,0.4 -1,1 V 72 h -1.59961 V 28.099609 h 1.59961 V 29 c 0,0.6 0.4,1 1,1 H 83.5 c 0.6,0 1,-0.4 1,-1 V 23.300781 H 87 c 1.8,0 3.199219,-1.401172 3.199219,-3.201172 0,-1.8 -1.399219,-3.199218 -3.199219,-3.199218 h -2.5 v -5.701172 c 0,-0.6 -0.4,-1 -1,-1 h -4.800781 c -0.6,0 -1,0.4 -1,1 V 12 h -55 v -0.900391 c 0,-0.6 -0.4,-1 -1,-1 z m 1,2 h 2.798828 V 28 h -2.798828 z m 61.798828,0 H 82.5 V 28 h -2.800781 z m -57,1.900391 h 55 v 12.099609 h -55 z M 84.5,18.699219 H 87 v 0.101562 c 0.7,0 1.199219,0.599219 1.199219,1.199219 0,0.6 -0.599219,1.199219 -1.199219,1.199219 h -2.5 z m -71.099609,0.201172 h 2.5 v 2.5 h -2.5 v -0.09961 c -0.7,0 -1.201172,-0.601172 -1.201172,-1.201172 0,-0.6 0.601172,-1.199218 1.201172,-1.199218 z m 10.90039,9.263671 v 0.01563 h 0.002 c -2.34e-4,-0.0059 -0.0011,-0.01038 -0.002,-0.01563 z m -6.40039,44.035157 h 2.798828 V 88 h -2.798828 z m 61.798828,0 H 82.5 V 88 h -2.800781 z m -57,1.800781 h 55 v 12.099609 h -55 z M 84.5,78.800781 H 87 v 0.09961 c 0.7,0 1.199219,0.599218 1.199219,1.199218 0,0.6 -0.599219,1.201172 -1.199219,1.201172 h -2.5 z m -71.099609,0.09961 h 2.5 v 2.5 h -2.5 v -0.09961 c -0.7,0 -1.201172,-0.601172 -1.201172,-1.201172 0,-0.6 0.601172,-1.199218 1.201172,-1.199218 z" /></svg>
