<?xml version="1.0" encoding="UTF-8" standalone="no"?>
<svg
   xmlns:dc="http://purl.org/dc/elements/1.1/"
   xmlns:cc="http://creativecommons.org/ns#"
   xmlns:rdf="http://www.w3.org/1999/02/22-rdf-syntax-ns#"
   xmlns:svg="http://www.w3.org/2000/svg"
   xmlns="http://www.w3.org/2000/svg"
   xmlns:sodipodi="http://sodipodi.sourceforge.net/DTD/sodipodi-0.dtd"
   xmlns:inkscape="http://www.inkscape.org/namespaces/inkscape"
   version="1.1"
   x="0px"
   y="0px"
   viewBox="0 0 52 65"
   enable-background="new 0 0 52 52"
   xml:space="preserve"
   id="svg24"
   sodipodi:docname="noun_win_986988.svg"
   inkscape:version="1.0.1 (3bc2e813f5, 2020-09-07)"><metadata
     id="metadata30"><rdf:RDF><cc:Work
         rdf:about=""><dc:format>image/svg+xml</dc:format><dc:type
           rdf:resource="http://purl.org/dc/dcmitype/StillImage" /></cc:Work></rdf:RDF></metadata><defs
     id="defs28" /><sodipodi:namedview
     pagecolor="#ffffff"
     bordercolor="#666666"
     borderopacity="1"
     objecttolerance="10"
     gridtolerance="10"
     guidetolerance="10"
     inkscape:pageopacity="0"
     inkscape:pageshadow="2"
     inkscape:window-width="1600"
     inkscape:window-height="837"
     id="namedview26"
     showgrid="false"
     inkscape:zoom="6.5384615"
     inkscape:cx="33.247488"
     inkscape:cy="51.277475"
     inkscape:window-x="3832"
     inkscape:window-y="450"
     inkscape:window-maximized="1"
     inkscape:current-layer="svg24" /><g
     id="g18"><rect
       x="3"
       y="41.0000038"
       fill="none"
       stroke="#000000"
       stroke-width="2"
       stroke-miterlimit="10"
       width="15"
       height="8"
       id="rect2" /><rect
       x="18"
       y="30.0000038"
       fill="none"
       stroke="#000000"
       stroke-width="2"
       stroke-miterlimit="10"
       width="16"
       height="19"
       id="rect4" /><rect
       x="34"
       y="36.0000038"
       fill="none"
       stroke="#000000"
       stroke-width="2"
       stroke-miterlimit="10"
       width="15"
       height="13"
       id="rect6" /><path
       fill="none"
       stroke="#000000"
       stroke-width="2"
       stroke-miterlimit="10"
       d="M21.0000591,2.9999957v10   c0,2.7614136,2.2385254,5.000001,5,5.000001c2.7613525,0,5-2.2385874,5-5.000001v-10H21.0000591z"
       id="path8" /><path
       fill="none"
       stroke="#000000"
       stroke-width="2"
       stroke-miterlimit="10"
       d="M31.0000591,5.0000043H35   c0,0,0,8.3446617-3.9999409,7.9999909"
       id="path10" /><path
       fill="none"
       stroke="#000000"
       stroke-width="2"
       stroke-miterlimit="10"
       d="M20.9999714,5.0000043h-3.9999428   c0,0,0,8.3446617,3.9999428,7.9999909"
       id="path12" /><line
       fill="none"
       stroke="#000000"
       stroke-width="2"
       stroke-miterlimit="10"
       x1="26.0000591"
       y1="17.9999962"
       x2="26.0000591"
       y2="26.0000038"
       id="line14" /><line
       fill="none"
       stroke="#000000"
       stroke-width="2"
       stroke-miterlimit="10"
       x1="20.9999714"
       y1="26.0000038"
       x2="31.0000591"
       y2="26.0000038"
       id="line16" /></g><path
     style="fill:#ffcc00;stroke-width:0.0270364"
     d="m 25.596913,16.966495 c -1.391056,-0.172444 -2.533165,-0.959233 -3.146416,-2.16754 -0.248612,-0.489848 -0.377166,-0.959745 -0.422696,-1.545067 -0.01452,-0.186629 -0.02577,-2.246956 -0.02612,-4.7821526 l -6.14e-4,-4.4542528 h 3.987874 3.987875 v 4.6746168 c 0,4.5074676 -0.0019,4.6856176 -0.0526,4.9822816 -0.28235,1.651569 -1.598466,2.967724 -3.251393,3.251491 -0.307787,0.05284 -0.821041,0.07222 -1.075912,0.04062 z"
     id="path32" /><path
     style="fill:#ffcc00;stroke-width:0.0135182"
     d="M 19.875426,11.683952 C 19.443112,11.336173 19.040048,10.663842 18.743997,9.796666 18.421138,8.8509687 18.204489,7.736753 18.081836,6.3912071 18.066925,6.2276366 18.0547,6.0740359 18.054667,6.0498721 l -5.8e-5,-0.043934 h 0.966552 0.966553 v 2.8793804 c 0,1.5836585 -0.0027,2.8793805 -0.006,2.8793805 -0.0033,0 -0.05113,-0.03634 -0.106331,-0.08075 z"
     id="path34" /><path
     style="fill:#ffcc00;stroke-width:0.00955882"
     d="m 32.006591,8.8907576 v -2.882924 h 0.971629 0.971628 l -0.0065,0.1027573 c -0.0036,0.056517 -0.01513,0.1973897 -0.02568,0.3130515 -0.204557,2.2422183 -0.71994,4.0011076 -1.435457,4.8988966 -0.138965,0.174366 -0.328076,0.35772 -0.445882,0.432309 l -0.02974,0.01883 z"
     id="path36" /><path
     style="fill:#0000ff;stroke-width:0.0270364"
     d="m 4.0193197,45.012103 v -2.987526 h 6.4887443 6.488745 v 2.987526 2.987526 H 10.508064 4.0193197 Z"
     id="path38" /><path
     style="fill:#ff0000;stroke-width:0.0270364"
     d="m 35.019476,42.498913 v -5.474878 h 6.488745 6.488745 v 5.474878 5.474878 h -6.488745 -6.488745 z"
     id="path42" /><path
     style="fill:#b3b3b3;stroke-width:0.0382353"
     d="m 19.032589,39.49431 v -8.488235 h 6.977941 6.977941 v 8.488235 8.488235 H 26.01053 19.032589 Z"
     id="path44" /></svg>
