<?xml version="1.0" encoding="UTF-8" standalone="no"?>
<svg
   xmlns:dc="http://purl.org/dc/elements/1.1/"
   xmlns:cc="http://creativecommons.org/ns#"
   xmlns:rdf="http://www.w3.org/1999/02/22-rdf-syntax-ns#"
   xmlns:svg="http://www.w3.org/2000/svg"
   xmlns="http://www.w3.org/2000/svg"
   xmlns:sodipodi="http://sodipodi.sourceforge.net/DTD/sodipodi-0.dtd"
   xmlns:inkscape="http://www.inkscape.org/namespaces/inkscape"
   viewBox="0 0 48 60"
   x="0px"
   y="0px"
   version="1.1"
   id="svg16"
   sodipodi:docname="noun_Ninja_3105283.svg"
   inkscape:version="1.0.1 (3bc2e813f5, 2020-09-07)">
  <metadata
     id="metadata22">
    <rdf:RDF>
      <cc:Work
         rdf:about="">
        <dc:format>image/svg+xml</dc:format>
        <dc:type
           rdf:resource="http://purl.org/dc/dcmitype/StillImage" />
      </cc:Work>
    </rdf:RDF>
  </metadata>
  <defs
     id="defs20" />
  <sodipodi:namedview
     pagecolor="#ffffff"
     bordercolor="#666666"
     borderopacity="1"
     objecttolerance="10"
     gridtolerance="10"
     guidetolerance="10"
     inkscape:pageopacity="0"
     inkscape:pageshadow="2"
     inkscape:window-width="1600"
     inkscape:window-height="837"
     id="namedview18"
     showgrid="false"
     inkscape:zoom="4"
     inkscape:cx="-118.12675"
     inkscape:cy="-34.733812"
     inkscape:window-x="3832"
     inkscape:window-y="450"
     inkscape:window-maximized="1"
     inkscape:current-layer="svg16" />
  <title
     id="title2">4-ninja</title>
  <g
     data-name="4-ninja"
     id="g10">
    <path
       d="M43.919,35.606l-1.44141-3.3628C41.33984,29.58691,37.80469,28,35.044,28H28V25.38745a10.50766,10.50766,0,0,0,6.96124-9.12237C34.98492,16.17938,35,15.5,35,15.5V13.28076l2.75781.68945A1.0003,1.0003,0,0,0,39,13c0-4.182-4.40155-8.78693-4.50616-8.84766A16.37538,16.37538,0,0,0,24.5,0h-1A10.5061,10.5061,0,0,0,13.03888,9.7323C13.01471,9.81866,13,10.5,13,10.5v5s.01508.67938.03876.76508A10.50766,10.50766,0,0,0,20,25.38745V28H15.61816l-1.72363-3.44727a1.00012,1.00012,0,0,0-1.78906.89454L13.38184,28h-.42579a8.77579,8.77579,0,0,0-2.18945.29688l-.87207-1.74415a1.00012,1.00012,0,0,0-1.78906.89454l.78082,1.56164a6.82783,6.82783,0,0,0-3.36383,3.23377L4.08105,35.606A.99517.99517,0,0,0,4,36V47a.99974.99974,0,0,0,1,1h8a.99974.99974,0,0,0,1-1V41a1,1,0,0,0-2,0v1H6V36.20508l1.36035-3.17432c.71478-1.66748,3.19385-2.849,5.1745-3.00049l13.67609,17.5835a.99966.99966,0,1,0,1.57812-1.22754L15.04419,30h3.46716L32.21094,47.61377a.99966.99966,0,1,0,1.57812-1.22754l-5.52264-7.10052,7.19873-9.25544c1.98065.15149,4.45972,1.333,5.1745,3.00049L42,36.20508V42H36V41a1,1,0,0,0-2,0v6a.99974.99974,0,0,0,1,1h8a.99974.99974,0,0,0,1-1V36A.99517.99517,0,0,0,43.919,35.606ZM12,44v2H6V44ZM30,13a7.04763,7.04763,0,0,0-4.89453,2.55273c-.60187.84538.55829,1.38575.61474,1.40229C25.1767,16.98242,24.60773,17,24,17s-1.17651-.01764-1.72-.045c.05639-.01648,1.14712-.48646.61456-1.40223C21.476,13.11349,18.14746,13,18,13a1,1,0,0,0,0,2c.02344,0,2.40137.03955,3.10547,1.44727a.98624.98624,0,0,0,.49408.45886A18.40553,18.40553,0,0,1,15,15.41357V11.46729A27.77874,27.77874,0,0,0,24,13a27.77874,27.77874,0,0,0,9-1.53271v3.9458a18.402,18.402,0,0,1-6.59955,1.4931.98637.98637,0,0,0,.49408-.45892c.69238-1.38575,3.0625-1.44678,3.1084-1.44727A1,1,0,0,0,30,13ZM15.88208,6.753a28.26276,28.26276,0,0,0,5.34937,1.09546,2.951,2.951,0,0,0,.45239,3.03467,26.01207,26.01207,0,0,1-6.59888-1.519A8.4188,8.4188,0,0,1,15.88208,6.753ZM25,9a1,1,0,1,1-1-1A1.001,1.001,0,0,1,25,9Zm10,2.21924V10a1.0002,1.0002,0,0,0-1.42188-.90674,24.91,24.91,0,0,1-7.262,1.78986A2.951,2.951,0,0,0,26.769,7.84949a27.39237,27.39237,0,0,0,7.00653-1.67127,10.21869,10.21869,0,0,1,3.11414,5.51319ZM23.5,2h1a13.85585,13.85585,0,0,1,7.48315,2.69519A25.96557,25.96557,0,0,1,24,6a25.74227,25.74227,0,0,1-6.976-.99225A8.4802,8.4802,0,0,1,23.5,2ZM15.30066,17.70618A25.41662,25.41662,0,0,0,24,19a25.41662,25.41662,0,0,0,8.69934-1.29382A8.50788,8.50788,0,0,1,24.5,24h-1A8.50788,8.50788,0,0,1,15.30066,17.70618ZM26,26v2.6665l-2,2.667-2-2.667V26Zm-.73352,9.42865L29.48865,30h3.4671L27,37.65741ZM36,44h6v2H36Z"
       id="path4" />
    <path
       d="M5.10547,26.44727a1.08652,1.08652,0,0,0,1.3418.44726l8-4a1.00012,1.00012,0,0,0-.89454-1.78906l-8,4A.99988.99988,0,0,0,5.10547,26.44727Z"
       id="path6" />
    <path
       d="M6.10547,23.44727a1.06869,1.06869,0,0,0,1.3418.44726,1,1,0,0,0,.44726-1.3418L6.3418,19.44727,8.55273,18.3418l1.55274,3.10547a1.00012,1.00012,0,1,0,1.78906-.89454l-2-4a.99941.99941,0,0,0-1.3418-.44726l-4,2a1,1,0,0,0-.44726,1.3418Z"
       id="path8" />
  </g>
  <path
     style="fill:none;stroke:#000000;stroke-width:1px;stroke-linecap:butt;stroke-linejoin:miter;stroke-opacity:1"
     d="M 13.270588,47.576471 35.011765,47.435294"
     id="path24" />
  <path
     style="fill:none;stroke:#000000;stroke-width:1px;stroke-linecap:butt;stroke-linejoin:miter;stroke-opacity:1"
     d="M 8.9647059,27.247059 6.9882353,23.082353"
     id="path26" />
  <path
     style="fill:#999999;stroke:#000000;stroke-width:1px;stroke-linecap:butt;stroke-linejoin:miter;stroke-opacity:1"
     d="M 13.552941,25.058824 11.011765,20.823529"
     id="path28" />
  <path
     style="fill:#333333;stroke-width:0.0998268"
     d="M 8.9892674,47.953035 4.6344159,47.917883 4.3747006,47.658168 C 4.2318572,47.515324 4.0892633,47.25749 4.0578252,47.085203 4.0263871,46.912917 4.0140656,44.278779 4.030444,41.231565 l 0.029779,-5.54039 0.8151484,-1.83044 C 6.152751,30.992341 6.6613124,30.368521 8.7567074,29.099753 8.9103058,29.006753 8.8875099,28.919961 8.514746,28.178571 8.2061627,27.564829 8.1028275,27.240888 8.1016813,26.883673 8.0990917,26.076791 8.0416967,26.058956 7.0161135,26.546338 6.191733,26.938104 6.085939,26.964968 5.7735204,26.86186 5.3127723,26.709799 5.0910039,26.440635 5.0790514,26.018971 5.0656732,25.54701 5.2915086,25.320343 6.2564134,24.837269 6.6956515,24.617367 7.0698982,24.424055 7.0880728,24.407688 7.1767843,24.327796 6.872587,23.961949 6.5680382,23.782261 6.279356,23.611934 6.0654876,23.262366 5.2050079,21.554394 3.9949076,19.152456 3.9608393,19.05469 4.1759666,18.601343 4.318392,18.301204 4.58271,18.139927 6.5231875,17.169159 c 1.2357971,-0.618236 2.3094181,-1.093958 2.4688707,-1.093958 0.5234518,0 0.780938,0.34663 1.8616208,2.506124 0.825653,1.649876 1.043612,2.17268 1.046126,2.509268 0.0017,0.233844 0.06481,0.506459 0.140134,0.605812 0.129694,0.171056 0.179726,0.159139 0.942965,-0.224611 0.443302,-0.222888 0.918597,-0.405251 1.056212,-0.405251 0.377155,0 0.862509,0.482389 0.873392,0.868057 0.01364,0.483534 -0.254633,0.793292 -1.021549,1.179506 -0.383119,0.192935 -0.69658,0.390108 -0.69658,0.438161 0,0.04805 0.154317,0.311709 0.342927,0.585899 0.18861,0.274192 0.727925,1.267518 1.198477,2.207392 l 0.85555,1.708864 h 2.245549 2.245549 v -1.352855 -1.352856 l -0.324438,-0.111779 c -0.17844,-0.06148 -0.661352,-0.288219 -1.073138,-0.503867 -2.833284,-1.483764 -4.833937,-4.193545 -5.434831,-7.361201 -0.122944,-0.64811 -0.155198,-1.574391 -0.154161,-4.427279 0.0011,-3.1315175 0.02592,-3.7262803 0.187719,-4.506137 1.123395,-5.4145099 6.129155,-8.952532 11.79471,-8.33638397 3.494787,0.38006984 6.837351,1.81193027 9.123145,3.90809947 1.647388,1.5107246 3.452452,4.211415 4.193044,6.2735265 0.57147,1.591203 0.697967,2.787964 0.342459,3.239919 -0.37651,0.478656 -0.564897,0.488202 -2.084108,0.105619 -0.762611,-0.192048 -1.456233,-0.349178 -1.541384,-0.349178 -0.132338,0 -0.154904,0.199307 -0.155407,1.372619 -10e-4,2.377057 -0.360635,4.017316 -1.247375,5.689455 -1.062294,2.003181 -2.640255,3.52139 -4.71669,4.538084 l -1.023225,0.501006 v 1.330692 1.330692 l 4.217684,0.03541 c 3.983158,0.03345 4.262091,0.04768 5.016299,0.256015 1.593983,0.440306 3.205659,1.365092 4.155614,2.384507 0.669094,0.718016 0.863277,1.067266 1.76834,3.180465 l 0.814357,1.901416 v 5.767973 5.767973 l -0.291801,0.291801 -0.291801,0.291802 h -8.127091 c -4.469901,0 -11.222898,0.01535 -15.006662,0.03411 -3.783764,0.01876 -8.839254,0.01829 -11.2344226,-0.001 z m 14.2738386,-0.920665 2.531802,-0.06076 -6.602237,-8.485281 -6.602237,-8.485282 -0.371859,0.02907 c -1.73155,0.135348 -4.133163,1.477171 -4.7269067,2.641005 -0.1103784,0.21636 -0.5120793,1.117179 -0.8926685,2.001821 l -0.6919804,1.608441 v 2.874401 2.8744 h 3.0946321 3.0946315 v -0.693222 c 0,-0.587318 0.03651,-0.735663 0.238973,-0.971043 0.295384,-0.343404 0.921106,-0.387979 1.251319,-0.08914 0.375982,0.34026 0.418882,0.769781 0.387,3.874784 l -0.0305,2.969905 3.394113,-0.01417 c 1.866761,-0.0078 4.533423,-0.04151 5.925913,-0.07493 z m 8.482427,-0.09354 c -0.0183,-0.04548 -2.993064,-3.886318 -6.610584,-8.535195 L 18.55764,29.951132 h -1.789081 c -1.404547,0 -1.773027,0.02682 -1.714391,0.124784 0.04108,0.06863 2.905645,3.763471 6.365703,8.210757 3.460058,4.447286 6.358393,8.231971 6.440746,8.410411 l 0.149731,0.324438 h 1.88423 c 1.036327,0 1.869257,-0.03721 1.850955,-0.08269 z m 2.449536,-6.434703 c 0.105654,-0.216718 0.572973,-0.470485 0.866413,-0.470485 0.118026,0 0.367329,0.152735 0.554005,0.339411 0.317429,0.317429 0.339411,0.382082 0.339411,0.998268 v 0.658858 h 3.044719 3.044718 V 39.088335 36.14649 l -0.737294,-1.703234 c -0.405512,-0.936778 -0.861978,-1.883152 -1.014367,-2.103051 -0.735606,-1.061479 -2.905022,-2.177949 -4.48258,-2.306919 l -0.394371,-0.03224 -3.573718,4.592035 c -1.965544,2.525619 -3.573617,4.636957 -3.573494,4.691861 10e-5,0.0549 1.242208,1.694561 2.76019,3.64368 1.517983,1.949119 2.80938,3.67132 2.869771,3.827113 0.08493,0.219094 0.121109,-0.436687 0.159716,-2.894979 0.02745,-1.748031 0.08905,-3.258513 0.136881,-3.356627 z M 12.096283,44.975071 V 43.92689 H 9.0016515 5.9070194 v 1.048181 1.048182 h 3.0946321 3.0946315 z m 29.948052,0 V 43.92689 h -3.044718 -3.044719 v 1.048181 1.048182 h 3.044719 3.044718 z M 30.019296,33.881729 c 1.617274,-2.079471 2.940565,-3.814548 2.940647,-3.855727 8.3e-5,-0.04118 -0.797217,-0.07246 -1.771776,-0.06951 l -1.771927,0.0054 -2.04645,2.647224 c -1.125548,1.455974 -2.0603,2.707878 -2.077228,2.78201 -0.03132,0.137166 1.667401,2.390337 1.74422,2.313519 0.02311,-0.02311 1.36524,-1.743402 2.982514,-3.822873 z m -4.946847,-3.864372 0.999592,-1.331351 v -1.363974 -1.363974 h -2.04645 -2.04645 v 1.398641 1.39864 l 0.971934,1.296685 c 0.534563,0.713176 1.005649,1.296684 1.046858,1.296684 0.04121,0 0.524741,-0.599108 1.074516,-1.331351 z m -13.275646,-1.87127 c 0.301976,-0.04978 0.784888,-0.09077 1.073138,-0.09109 0.28825,-2.99e-4 0.524091,-0.04614 0.524091,-0.10183 0,-0.05569 -0.291993,-0.683957 -0.648874,-1.396151 -0.356881,-0.712193 -0.648875,-1.424247 -0.648875,-1.582341 0,-0.158094 0.09563,-0.40901 0.2125,-0.557593 0.159848,-0.203214 0.184123,-0.298525 0.09797,-0.384674 -0.08615,-0.08615 -0.557587,0.105912 -1.902719,0.775159 -1.579301,0.785754 -1.7769193,0.910748 -1.6916906,1.07 0.053076,0.09917 0.1813187,0.180315 0.2849839,0.180315 0.3453254,0 0.748338,0.467202 1.2001217,1.39127 0.417949,0.854862 0.463764,0.910665 0.698788,0.851141 0.138333,-0.03504 0.498586,-0.104429 0.800562,-0.154209 z m 14.824286,-4.375533 c 2.614621,-0.692485 4.727584,-2.512689 5.720783,-4.928147 0.473164,-1.150734 0.484196,-1.211526 0.205322,-1.131436 -2.981903,0.856383 -4.811902,1.151155 -7.623162,1.227917 -3.180974,0.08686 -6.016157,-0.225692 -8.385454,-0.924409 -0.494143,-0.145725 -0.984086,-0.289379 -1.088763,-0.31923 -0.169058,-0.04821 -0.182734,-0.01627 -0.122404,0.28589 0.03735,0.187092 0.268248,0.752103 0.5131,1.255581 1.203723,2.475168 3.411164,4.145893 6.188543,4.683862 1.053146,0.203991 3.565246,0.121917 4.592035,-0.150028 z M 9.6522882,23.138087 c 1.7324658,-0.864349 1.9049568,-1.030586 1.2459208,-1.200751 -0.192083,-0.0496 -0.409678,-0.140104 -0.483545,-0.201128 -0.07387,-0.06102 -0.5122074,-0.865772 -0.9740894,-1.788328 L 8.6007892,18.270503 7.4785147,18.831409 c -0.617251,0.308498 -1.1361794,0.573418 -1.1531743,0.58871 -0.016995,0.01529 0.3311512,0.750843 0.773658,1.634556 0.7891351,1.575949 0.9304839,2.0541 0.7101679,2.402334 -0.083096,0.131342 0.025663,0.504513 0.1470381,0.504513 0.025093,0 0.7883307,-0.370546 1.6960838,-0.823435 z m 15.7525228,-6.145241 0.380954,-0.06912 -0.285833,-0.168379 c -0.749549,-0.441546 -0.648243,-0.970545 0.361584,-1.888116 1.319048,-1.198541 3.812838,-2.109843 4.608435,-1.684052 0.287167,0.153687 0.516459,0.664005 0.444845,0.990059 -0.108245,0.492838 -0.452125,0.711206 -1.282288,0.814271 -1.223483,0.151896 -2.265473,0.614237 -2.610873,1.158468 -0.09725,0.153239 -0.293963,0.404493 -0.437132,0.558344 l -0.260307,0.279728 0.697494,-0.06401 c 1.926258,-0.17677 3.753884,-0.579734 5.264572,-1.160759 l 0.773658,-0.297557 v -2.027662 -2.027663 l -1.303118,0.385222 c -4.016609,1.187372 -8.005113,1.446385 -12.086299,0.784882 -1.201224,-0.194701 -3.395185,-0.727677 -4.256992,-1.034143 l -0.426277,-0.151589 0.02697,2.060165 0.02697,2.060166 0.798615,0.290259 c 1.57346,0.57188 3.397789,0.970746 5.137578,1.123267 l 0.745198,0.06533 -0.269003,-0.282683 C 21.305612,16.551803 20.992735,16.217879 20.758279,15.965226 20.254183,15.422 19.482131,15.095807 18.49179,15.007629 c -1.053453,-0.0938 -1.404165,-0.359366 -1.404165,-1.063268 0,-0.506416 0.451004,-0.863965 1.089786,-0.863965 0.64583,0 1.889944,0.33023 2.645572,0.702225 1.104583,0.543785 2.154426,1.659479 2.154426,2.289563 0,0.132417 -0.147398,0.368025 -0.349464,0.558597 l -0.349464,0.329587 0.274594,0.04159 c 0.464452,0.07035 2.448695,0.06401 2.851736,-0.0091 z M 36.75818,10.927945 C 36.340974,9.4072199 35.498665,7.9104692 34.388461,6.7170517 l -0.57984,-0.6233013 -0.998268,0.3552837 c -1.287907,0.458366 -3.41714,0.9812646 -4.855399,1.1923928 -0.623817,0.091573 -1.150504,0.1824034 -1.170418,0.2018462 -0.01991,0.019443 0.01864,0.2639762 0.08568,0.5434075 0.156764,0.653463 0.06356,1.2591637 -0.300133,1.9505624 l -0.287719,0.546963 0.319106,-4e-4 c 1.193896,-0.0015 4.303264,-0.721645 6.247429,-1.4469323 1.107581,-0.4131922 1.402688,-0.4312247 1.77773,-0.108627 0.259253,0.2229999 0.28268,0.3040184 0.314922,1.0891033 l 0.03483,0.848182 0.963437,0.242774 c 0.52989,0.133526 0.978418,0.231154 0.996727,0.21695 0.01831,-0.0142 -0.06195,-0.372992 -0.178363,-0.797309 z m -15.07852,-0.08108 c 0,-0.02054 -0.123043,-0.256377 -0.27343,-0.524091 -0.230001,-0.4094423 -0.273602,-0.6056624 -0.274523,-1.2354515 -5.99e-4,-0.4117857 0.03264,-0.8689993 0.07387,-1.0160299 0.07372,-0.262885 0.06542,-0.2684419 -0.499134,-0.3342967 C 19.75695,7.6262386 17.635509,7.1982672 16.717989,6.9323802 16.043119,6.7368107 15.839975,6.7102455 15.778608,6.8095376 c -0.146392,0.2368673 -0.671138,1.926871 -0.704359,2.2684685 -0.03295,0.3388127 -0.03047,0.3409612 0.665714,0.5776287 1.116354,0.3795012 2.806286,0.8109712 3.993074,1.0195012 1.015207,0.178382 1.946623,0.260551 1.946623,0.171729 z m 2.741814,-0.90315 c 1.036109,-0.432914 0.710586,-1.9544878 -0.41814,-1.9544878 -0.90959,0 -1.361361,0.9836146 -0.772951,1.6829006 0.219065,0.2603437 0.344461,0.3251722 0.773458,0.3998682 0.04294,0.0075 0.230877,-0.05025 0.417633,-0.128281 z m 2.223984,-4.0613892 c 0.617356,-0.056906 1.628102,-0.2062966 2.246104,-0.3319788 1.267461,-0.2577618 3.170089,-0.7698998 3.170089,-0.8533052 0,-0.08291 -1.559893,-1.0383532 -2.278898,-1.3958383 -0.893009,-0.4439989 -2.506459,-0.9630082 -3.560972,-1.1454819 -1.333265,-0.230709 -3.667654,-0.2087881 -4.723595,0.044356 -0.928745,0.2226516 -2.055575,0.7114877 -2.780852,1.206377 -0.517398,0.3530431 -1.729535,1.4709498 -1.729535,1.5950822 0,0.041412 0.482912,0.1902682 1.073138,0.3307904 2.806568,0.6681936 5.458802,0.8381184 8.584521,0.5499986 z"
     id="path70" />
  <path
     style="fill:#000000;stroke-width:0.0078125"
     d="m 6.0011684,44.999683 v -0.996094 h 2.9960937 2.9960939 v 0.996094 0.996093 H 8.9972621 6.0011684 Z"
     id="path76" />
  <path
     style="fill:#000000;stroke-width:0.03125"
     d="m 13.997871,43.883554 -0.0084,-3.184105 -0.08421,-0.159613 c -0.192976,-0.365773 -0.545037,-0.5608 -0.971868,-0.53837 -0.389669,0.02048 -0.694699,0.227482 -0.860521,0.583984 -0.07823,0.168181 -0.08265,0.205583 -0.09382,0.793686 l -0.01173,0.617188 H 8.9862184 6.0051041 V 39.118896 36.241468 L 6.696558,34.626709 c 0.8019709,-1.872852 0.8064459,-1.882258 1.0513021,-2.209745 0.7753557,-1.037013 2.3275489,-1.918549 3.9603689,-2.249208 0.20625,-0.04177 0.474405,-0.08515 0.5959,-0.0964 l 0.2209,-0.02046 6.571727,8.449273 6.571727,8.449274 -0.558252,0.01933 c -0.307039,0.01063 -1.992627,0.02826 -3.745752,0.03918 -1.753125,0.01091 -4.125911,0.02881 -5.272858,0.03977 l -2.085358,0.01993 z"
     id="path78" />
  <path
     style="fill:#000000;stroke-width:0.03125"
     d="m 27.995452,46.832675 c -0.01073,-0.0783 -0.04459,-0.195685 -0.07524,-0.260865 -0.03065,-0.06518 -2.92722,-3.810782 -6.436818,-8.32356 l -6.381089,-8.205051 1.692606,-0.0081 1.692606,-0.0081 0.0671,0.07059 c 0.137559,0.144711 13.0805,16.81037 13.066331,16.824539 -0.0081,0.0081 -0.822781,0.02333 -1.810367,0.03382 l -1.79561,0.01906 z"
     id="path80" />
  <path
     style="fill:#000000;stroke-width:0.03125"
     d="m 36.026434,44.987711 v -0.984375 h 2.984375 2.984375 v 0.984375 0.984375 h -2.984375 -2.984375 z"
     id="path82" />
  <path
     style="fill:#000000;stroke-width:0.0220971"
     d="m 33.889079,46.525044 c -0.02522,-0.05165 -1.295019,-1.699818 -2.821769,-3.662592 -1.526749,-1.962774 -2.773428,-3.576124 -2.770397,-3.585223 0.003,-0.0091 1.61639,-2.089911 3.58524,-4.624026 l 3.579728,-4.607484 0.165728,0.01339 c 0.413343,0.03338 1.012662,0.163559 1.530594,0.332459 1.49652,0.488022 2.732213,1.355607 3.296572,2.314536 0.07117,0.120929 0.40606,0.871321 0.828143,1.855637 l 0.708652,1.652605 v 2.893163 2.893162 H 38.997415 36.00326 v -0.583245 c 0,-0.518465 -0.0048,-0.598948 -0.04367,-0.724618 -0.152245,-0.492913 -0.662577,-0.787154 -1.176111,-0.678107 -0.365794,0.07767 -0.684214,0.3892 -0.767623,0.751003 -0.0144,0.06247 -0.02255,1.048988 -0.0229,2.772844 -5.07e-4,2.509972 -0.0086,3.080414 -0.04364,3.080414 -0.0079,0 -0.03502,-0.04226 -0.06025,-0.09391 z"
     id="path84" />
  <path
     style="fill:#000000;stroke-width:0.03125"
     d=""
     id="path86" />
  <path
     style="fill:#000000;stroke-width:0.03125"
     d="M 26.22024,36.626168 C 25.791661,36.075637 25.410817,35.576065 25.37392,35.51601 l -0.06709,-0.109192 2.098336,-2.699451 2.098336,-2.69945 1.695313,-5.81e-4 c 0.932422,-3.19e-4 1.695018,0.01 1.694659,0.02286 -4.92e-4,0.01769 -3.023966,3.915077 -5.782613,7.454041 l -0.111392,0.1429 z"
     id="path88" />
  <path
     style="fill:#000000;stroke-width:0.03125"
     d="m 23.00635,29.979295 -0.987219,-1.315523 v -1.328508 -1.328508 h 1.984375 1.984375 v 1.322879 1.32288 l -0.970516,1.294308 c -0.533784,0.711869 -0.982504,1.306388 -0.997156,1.321152 -0.01476,0.01487 -0.467009,-0.559972 -1.013859,-1.28868 z"
     id="path90" />
  <path
     style="fill:#000000;stroke-width:0.0441942"
     d="m 22.641223,23.93326 c -2.926152,-0.308457 -5.519846,-2.149107 -6.781734,-4.81275 -0.215694,-0.455296 -0.492162,-1.187357 -0.492162,-1.303198 0,-0.04597 0.05997,-0.04015 0.276213,0.0268 2.134662,0.66093 4.109433,1.016631 6.37501,1.148285 1.148356,0.06673 4.033939,0.02704 4.971844,-0.06839 1.863733,-0.189627 3.665047,-0.545018 5.148367,-1.015749 0.265866,-0.08437 0.491092,-0.145704 0.500503,-0.136293 0.0094,0.0094 -0.03761,0.182442 -0.104488,0.384515 -1.051364,3.176666 -3.893232,5.438348 -7.261588,5.779087 -0.527227,0.05333 -2.117336,0.05194 -2.631965,-0.0023 z"
     id="path92" />
  <path
     style="fill:#000000;stroke-width:0.0441942"
     d="m 35.910223,11.422213 -0.86918,-0.221221 -0.0151,-0.735872 C 35.009399,9.6590475 34.970815,9.5180189 34.695276,9.2565052 34.341149,8.9204018 33.975287,8.9159447 33.147443,9.2376489 31.075181,10.042941 28.89852,10.575442 26.620625,10.834377 l -0.259283,0.02947 0.114887,-0.150625 c 0.153469,-0.201208 0.400689,-0.7493409 0.473695,-1.0502691 0.11114,-0.458118 0.0554,-1.2877533 -0.116655,-1.736106 -0.01757,-0.045783 0.08747,-0.072311 0.453832,-0.1146233 1.786946,-0.2063771 3.894477,-0.6963665 5.71261,-1.3281499 l 0.772307,-0.2683693 0.325172,0.3204593 c 0.891234,0.8783189 1.706265,2.0999525 2.189278,3.2814688 0.301105,0.7365435 0.619744,1.8406985 0.528084,1.8299285 -0.01933,-0.0023 -0.426279,-0.10368 -0.904329,-0.225352 z"
     id="path108" />
  <path
     style="fill:#000000;stroke-width:0.0441942"
     d="M 20.979987,10.785228 C 19.136131,10.539347 17.161721,10.076483 15.62173,9.529084 15.154258,9.3629185 15.10474,9.3351789 15.122936,9.2496641 c 0.01111,-0.052217 0.05284,-0.2639829 0.09273,-0.4705907 0.08591,-0.4449422 0.350385,-1.2706766 0.542518,-1.6937996 0.108743,-0.2394761 0.153193,-0.2967979 0.215572,-0.2779915 1.550584,0.4674839 3.579338,0.8892842 4.922857,1.0235163 l 0.292276,0.029202 -0.08561,0.2717114 c -0.250941,0.7964996 -0.08535,1.844184 0.407928,2.580857 0.113667,0.169753 0.154748,0.164135 -0.531223,0.07266 z"
     id="path110" />
  <path
     style="fill:#000000;stroke-width:0.0441942"
     d="M 23.697928,9.9254277 C 23.336026,9.819199 23.039831,9.4027041 23.039831,9.0000443 c 0,-0.8623826 1.026386,-1.2901375 1.635729,-0.6817038 0.223315,0.2229814 0.297654,0.4340269 0.27299,0.7750045 -0.04356,0.6021403 -0.652871,1.00754 -1.250622,0.8320827 z"
     id="path112" />
  <path
     style="fill:#000000;stroke-width:0.0441942"
     d="M 22.880336,5.9504472 C 21.69349,5.8875353 20.414773,5.7350021 19.322705,5.5260709 18.564196,5.3809551 17.090899,5.0196044 17.090899,4.9786828 c 0,-0.017768 0.233999,-0.2595339 0.519998,-0.5372576 0.790382,-0.767513 1.588879,-1.3057652 2.546985,-1.716875 1.183676,-0.5078986 2.232989,-0.7059241 3.745286,-0.7068073 2.597503,-0.00152 5.322085,0.8433031 7.549182,2.3408001 0.216089,0.1452976 0.403646,0.2815822 0.416793,0.3028547 0.03794,0.061387 -1.315475,0.4553768 -2.359681,0.6869228 -2.188043,0.4851848 -4.637694,0.7076877 -6.629126,0.6021267 z"
     id="path114" />
  <path
     style="fill:#000000;stroke-width:0.0441942"
     d=""
     id="path116" />
  <path
     style="fill:#000000;stroke-width:0.0441942"
     d="m 7.8837245,23.73133 c -0.055334,-0.105608 -0.052262,-0.134129 0.029339,-0.272433 0.066698,-0.113045 0.091785,-0.2341 0.093538,-0.451354 l 0.0024,-0.296878 -0.8082291,-1.623981 c -0.4445261,-0.89319 -0.8024988,-1.62915 -0.7954952,-1.635468 0.007,-0.0063 0.4900311,-0.250255 1.0733942,-0.542083 l 1.0606602,-0.530598 0.8396893,1.663667 c 0.9422941,1.866957 0.9332381,1.854846 1.4687181,1.964006 0.289286,0.05897 0.395925,0.122653 0.344563,0.205759 -0.0264,0.04271 -3.1680941,1.63732 -3.2258444,1.63732 -0.011509,0 -0.048736,-0.05308 -0.082728,-0.117957 z"
     id="path118" />
  <path
     style="fill:#000000;stroke-width:0.0441942"
     d="M 10.339897,27.365942 C 10.090563,26.869164 9.8344976,26.400833 9.7708616,26.325206 9.6262697,26.153368 9.3717609,26.021202 9.1186395,25.986508 c -0.1451617,-0.0199 -0.2061058,-0.0524 -0.2407327,-0.128401 -0.033778,-0.07414 -0.032041,-0.113352 0.0064,-0.144464 0.085466,-0.06917 3.1795012,-1.607941 3.3076142,-1.644991 0.204478,-0.05913 0.227343,0.03872 0.05586,0.239056 -0.192026,0.224339 -0.30235,0.579936 -0.259336,0.835887 0.01721,0.102408 0.327154,0.777846 0.688763,1.500973 0.653073,1.305984 0.656656,1.314781 0.535793,1.315432 -0.639128,0.0034 -2.075616,0.178719 -2.36562,0.288647 -0.03411,0.01293 -0.221979,-0.313853 -0.507486,-0.882705 z"
     id="path120" />
  <path
     style="fill:#deaa87;stroke-width:0.0441942"
     d="m 23.128217,16.968429 -0.74649,-0.01563 0.209098,-0.148663 c 0.373837,-0.265788 0.520751,-0.58354 0.448317,-0.969643 -0.04449,-0.237176 -0.442022,-0.809269 -0.826091,-1.188849 -0.352938,-0.348812 -0.863635,-0.709962 -1.346462,-0.952177 -0.603373,-0.302689 -1.563716,-0.575474 -2.374617,-0.67451 -0.519709,-0.06347 -0.77709,-0.03463 -1.033882,0.115861 -0.615246,0.360558 -0.626477,1.320639 -0.02014,1.721892 0.141309,0.09351 0.268106,0.123053 0.761972,0.177509 0.981661,0.108244 1.679715,0.324848 2.205054,0.684221 0.300197,0.205358 0.430094,0.343618 0.642746,0.684125 0.09108,0.145841 0.217508,0.309197 0.280952,0.363013 l 0.115354,0.09785 -0.15468,0.0016 c -0.488217,0.0049 -1.938467,-0.187762 -2.828427,-0.375748 -0.967667,-0.204399 -2.466048,-0.669601 -3.187561,-0.989642 l -0.204455,-0.09069 -0.03281,-1.924918 c -0.01805,-1.058704 -0.02221,-1.935513 -0.0093,-1.948464 0.01295,-0.01295 0.268875,0.05604 0.568721,0.153314 4.892909,1.587315 10.23201,1.744197 15.261835,0.448449 0.557007,-0.143492 1.785625,-0.507288 2.030259,-0.601162 0.06318,-0.02425 0.06878,0.160738 0.05838,1.926791 l -0.01151,1.953612 -0.375651,0.152283 c -1.08743,0.44083 -2.55194,0.855156 -3.725297,1.053928 -0.653916,0.110777 -1.796549,0.243873 -2.093649,0.243873 h -0.164606 l 0.135514,-0.143631 c 0.07453,-0.079 0.204463,-0.253011 0.288733,-0.386699 0.454911,-0.721671 1.357621,-1.142082 2.789157,-1.298967 0.700256,-0.07674 0.905438,-0.179695 1.099864,-0.551869 0.292577,-0.560057 0.04159,-1.236636 -0.534097,-1.43975 -0.251451,-0.08872 -0.377849,-0.08609 -1.00329,0.02083 -0.946259,0.161771 -1.944975,0.558479 -2.736445,1.086965 -0.742714,0.495931 -1.542661,1.283058 -1.657458,1.630896 -0.118695,0.35965 0.05406,0.745549 0.457992,1.02307 l 0.214748,0.147542 -0.656689,3.97e-4 c -0.36118,2.21e-4 -0.756127,0.0068 -0.877661,0.01453 -0.121534,0.0078 -0.556891,0.0071 -0.967459,-0.0015 z"
     id="path122" />
  <path
     style="fill:none;stroke:#000000;stroke-width:1px;stroke-linecap:butt;stroke-linejoin:miter;stroke-opacity:1"
     d="m 22.000219,16.967801 c 8.5e-5,-0.02394 2.69e-4,-0.04788 3.54e-4,-0.07182"
     id="path130" />
  <path
     style="fill:#000000;stroke:#000000;stroke-width:1px;stroke-linecap:butt;stroke-linejoin:miter;stroke-opacity:1"
     d="m 26.135153,16.9899 c 8.5e-5,-0.02394 2.69e-4,-0.04788 3.54e-4,-0.07182"
     id="path130-9" />
  <path
     style="fill:#000000;stroke-width:0.0625"
     d="m 21.045352,16.233273 c -0.819618,-0.822706 -1.439257,-1.144679 -2.355678,-1.224044 -1.12184,-0.09715 -1.494511,-0.328354 -1.53986,-0.955304 -0.02302,-0.318223 -0.0069,-0.382736 0.138584,-0.555668 0.250078,-0.297201 0.630265,-0.417472 1.155926,-0.365675 0.915951,0.09026 2.165287,0.516473 2.893898,0.987268 0.573094,0.370308 1.266864,1.089036 1.461414,1.513988 0.197493,0.431382 0.172016,0.570714 -0.172746,0.944737 -0.244613,0.265374 -0.271317,0.277555 -0.60843,0.277555 h -0.352587 z"
     id="path147" />
  <path
     style="fill:#000000;stroke-width:0.0625"
     d="m 25.636968,16.80992 c -0.271931,-0.177786 -0.510573,-0.417368 -0.571127,-0.573379 -0.143611,-0.370001 0.617926,-1.3004 1.563483,-1.910168 1.580227,-1.019053 3.411428,-1.498773 3.92243,-1.027561 0.470245,0.43363 0.425228,1.128329 -0.09195,1.419002 -0.130739,0.07348 -0.552915,0.188334 -0.950861,0.258685 -1.444499,0.255368 -2.012282,0.545472 -2.679972,1.369309 l -0.464251,0.572822 -0.285749,-0.0033 c -0.157162,-0.0018 -0.356061,-0.04925 -0.441999,-0.105432 z"
     id="path149" />
</svg>
