<svg xmlns="http://www.w3.org/2000/svg" xmlns:xlink="http://www.w3.org/1999/xlink" version="1.1" x="0px" y="0px" viewBox="0 0 100 125" enable-background="new 0 0 100 100" xml:space="preserve"><g><g><path d="M50,5C28.6,5,11.2,22.4,11.3,43.8c0,11.6,5.1,22.4,14,29.8l0,19.6c0,1,0.8,1.9,1.9,1.9l46.6,0c1,0,1.9-0.8,1.9-1.9l0-20.3    c8.3-7.4,13.1-17.9,13.1-29C88.7,22.4,71.3,5,50,5z M72.5,70.5c-0.4,0.4-0.7,0.9-0.7,1.5l0,19.3l-6.6,0l0-10.4    c0-1-0.8-1.9-1.9-1.9c-1,0-1.9,0.8-1.9,1.9l0,10.4l-9.5,0l0-10.4c0-1-0.8-1.9-1.9-1.9c-1,0-1.9,0.8-1.9,1.9l0,10.4l-8.8,0l0-10.4    c0-1-0.8-1.9-1.9-1.9c-1,0-1.9,0.8-1.9,1.9l0,10.4l-6.5,0l0-18.6c0-0.6-0.3-1.1-0.7-1.5c-8.4-6.7-13.3-16.7-13.3-27.4    c0-19.3,15.7-35,34.9-35c19.3,0,35,15.7,35,34.9C85,54,80.4,63.8,72.5,70.5z"/></g><g><path d="M36.9,57.3c-5.3,0-9.6-4.3-9.6-9.6s4.3-9.6,9.6-9.6s9.6,4.3,9.6,9.6S42.2,57.3,36.9,57.3z M36.9,42.8    c-2.7,0-4.8,2.2-4.8,4.8c0,2.7,2.2,4.8,4.8,4.8c2.7,0,4.8-2.2,4.8-4.8C41.7,45,39.6,42.8,36.9,42.8z"/></g><g><path d="M64.5,57.3c-5.3,0-9.6-4.3-9.6-9.6s4.3-9.6,9.6-9.6s9.6,4.3,9.6,9.6S69.8,57.3,64.5,57.3z M64.5,42.8    c-2.7,0-4.8,2.2-4.8,4.8c0,2.7,2.2,4.8,4.8,4.8s4.8-2.2,4.8-4.8C69.3,45,67.2,42.8,64.5,42.8z"/></g><g><polygon points="43.2,69.2 56.9,69.2 50,57.4   "/></g></g><text x="0" y="115" fill="#000000" font-size="5px" font-weight="bold" font-family="'Helvetica Neue', Helvetica, Arial-Unicode, Arial, Sans-serif">Created by Lance Weisser</text><text x="0" y="120" fill="#000000" font-size="5px" font-weight="bold" font-family="'Helvetica Neue', Helvetica, Arial-Unicode, Arial, Sans-serif">from the Noun Project</text></svg>