<svg xmlns="http://www.w3.org/2000/svg" xmlns:xlink="http://www.w3.org/1999/xlink" version="1.1" x="0px" y="0px" viewBox="0 0 52 65" enable-background="new 0 0 52 52" xml:space="preserve"><g><rect x="3" y="41.0000038" fill="none" stroke="#000000" stroke-width="2" stroke-miterlimit="10" width="15" height="8"/><rect x="18" y="30.0000038" fill="none" stroke="#000000" stroke-width="2" stroke-miterlimit="10" width="16" height="19"/><rect x="34" y="36.0000038" fill="none" stroke="#000000" stroke-width="2" stroke-miterlimit="10" width="15" height="13"/><path fill="none" stroke="#000000" stroke-width="2" stroke-miterlimit="10" d="M21.0000591,2.9999957v10   c0,2.7614136,2.2385254,5.000001,5,5.000001c2.7613525,0,5-2.2385874,5-5.000001v-10H21.0000591z"/><path fill="none" stroke="#000000" stroke-width="2" stroke-miterlimit="10" d="M31.0000591,5.0000043H35   c0,0,0,8.3446617-3.9999409,7.9999909"/><path fill="none" stroke="#000000" stroke-width="2" stroke-miterlimit="10" d="M20.9999714,5.0000043h-3.9999428   c0,0,0,8.3446617,3.9999428,7.9999909"/><line fill="none" stroke="#000000" stroke-width="2" stroke-miterlimit="10" x1="26.0000591" y1="17.9999962" x2="26.0000591" y2="26.0000038"/><line fill="none" stroke="#000000" stroke-width="2" stroke-miterlimit="10" x1="20.9999714" y1="26.0000038" x2="31.0000591" y2="26.0000038"/></g><text x="0" y="67" fill="#000000" font-size="5px" font-weight="bold" font-family="'Helvetica Neue', Helvetica, Arial-Unicode, Arial, Sans-serif">Created by DinosoftLab</text><text x="0" y="72" fill="#000000" font-size="5px" font-weight="bold" font-family="'Helvetica Neue', Helvetica, Arial-Unicode, Arial, Sans-serif">from the Noun Project</text></svg>