<svg xmlns="http://www.w3.org/2000/svg" xmlns:xlink="http://www.w3.org/1999/xlink" version="1.1" x="0px" y="0px" viewBox="0 0 512 640" enable-background="new 0 0 512 512" xml:space="preserve"><path d="M117.747,258.933l19.457-16.406c1.824-1.539,2.134-4.21,0.729-6.14c-25.639-35.213-47.497-79.124-55.94-96.891  c-2.046-4.306-7.324-5.936-11.453-3.551l-9.548,5.514c-3.385,1.955-4.943,6.044-3.643,9.73  c16.194,45.882,39.601,85.251,53.688,106.781C112.526,260.246,115.667,260.687,117.747,258.933z"/><path d="M112.082,281.194c-2.259,1.991-2.523,5.429-0.566,7.733l5.514,6.494c1.98,2.332,5.476,2.617,7.809,0.637l8.851-7.514  c9.408,13.284,21.049,26.93,31.036,37.922c2.115,2.33,5.711,2.484,8.037,0.366l20.652-18.81c2.414-2.199,2.474-5.989,0.142-8.276  c-17.536-17.208-27.4-30.102-31.253-35.497l9.536-8.096c2.332-1.98,2.617-5.476,0.638-7.808l-5.514-6.494  c-1.646-1.938-4.33-2.439-6.532-1.424l-11.732,9.893l-27.204,22.937L112.082,281.194z"/><path d="M320.361,371.162l50.906-52.118l-15.272-12.958c-3.642-3.09-9.037-2.896-12.446,0.448l-16.142,15.829l-28.146,27.6  l12.571,12.631L320.361,371.162z"/><path d="M381.43,327.772l-51.637,52.865L415.756,467h18.355c14.76,0,24.906-14.836,19.545-28.588  c-1.973-5.059-4.088-10.486-6.242-16.019C433.251,386.031,410.608,353.609,381.43,327.772z"/><path d="M132.154,422.394c-2.154,5.532-4.27,10.96-6.241,16.019C120.552,452.164,130.697,467,145.457,467h34.451h159.646  l-78.356-79.711l-60.611-61.659C170.223,351.807,146.712,385.02,132.154,422.394z"/><path d="M284.122,353.703l-35.371-34.686l-12.731-12.483c-3.409-3.344-8.805-3.538-12.445-0.448l-12.787,10.85l59.956,60.992  L358.302,467h38.593l-95.035-95.478l-12.144-12.2L284.122,353.703z"/><path d="M248.751,278.73c7.752,5.434,16.106,10.867,25.091,16.176c8.78,5.188,19.693,5.188,28.474,0  c8.984-5.309,17.339-10.742,25.092-16.176c34.32-24.053,56.646-48.092,67.558-61.224c5.355-6.445,7.7-14.832,6.639-23.145  c-10.034-78.63-60.575-125.402-82.413-142.229C313.214,47.528,305.912,45,298.366,45h-10.287h-10.288  c-7.545,0-14.847,2.528-20.824,7.134c-21.838,16.826-72.379,63.599-82.413,142.229c-1.061,8.313,1.283,16.699,6.639,23.145  C192.104,230.638,214.43,254.678,248.751,278.73z M288.079,104.449c0,0,10.333,5.919,25.889,17.797h-51.778  C277.746,110.368,288.079,104.449,288.079,104.449z M245.666,135.615h84.825c8.493,7.262,17.746,15.801,27.262,25.615l-12.897,45.04  c-8.779-6.791-29.083-21.2-50.436-27.269c-4.137-1.176-8.545-1.176-12.683,0c-21.353,6.069-41.656,20.478-50.436,27.269  l-12.896-45.04C227.92,151.416,237.173,142.877,245.666,135.615z"/><path d="M312.594,167.99c3.69-1.966,9.168-4.112,15.196-3.875c2.59,0.103,4.057-2.869,2.344-4.813  c-4.391-4.984-14.029-9.049-24.12-2.698c-3.209,2.019-4.049,6.348-1.833,9.424C306.104,168.698,309.689,169.538,312.594,167.99z"/><path d="M248.367,164.115c6.029-0.237,11.506,1.909,15.196,3.875c2.905,1.547,6.49,0.708,8.413-1.962  c2.217-3.076,1.377-7.405-1.832-9.424c-10.092-6.351-19.73-2.286-24.12,2.698C244.311,161.247,245.777,164.218,248.367,164.115z"/><text x="0" y="527" fill="#000000" font-size="5px" font-weight="bold" font-family="'Helvetica Neue', Helvetica, Arial-Unicode, Arial, Sans-serif">Created by Chanut is Industries</text><text x="0" y="532" fill="#000000" font-size="5px" font-weight="bold" font-family="'Helvetica Neue', Helvetica, Arial-Unicode, Arial, Sans-serif">from the Noun Project</text></svg>