<?xml version="1.0" encoding="UTF-8" standalone="no"?>
<svg
   xmlns:dc="http://purl.org/dc/elements/1.1/"
   xmlns:cc="http://creativecommons.org/ns#"
   xmlns:rdf="http://www.w3.org/1999/02/22-rdf-syntax-ns#"
   xmlns:svg="http://www.w3.org/2000/svg"
   xmlns="http://www.w3.org/2000/svg"
   xmlns:sodipodi="http://sodipodi.sourceforge.net/DTD/sodipodi-0.dtd"
   xmlns:inkscape="http://www.inkscape.org/namespaces/inkscape"
   version="1.1"
   x="0px"
   y="0px"
   viewBox="0 0 90 112.5"
   enable-background="new 0 0 90 90"
   xml:space="preserve"
   id="svg10"
   sodipodi:docname="noun_Grave_200196.svg"
   inkscape:version="1.0.1 (3bc2e813f5, 2020-09-07)"><metadata
     id="metadata16"><rdf:RDF><cc:Work
         rdf:about=""><dc:format>image/svg+xml</dc:format><dc:type
           rdf:resource="http://purl.org/dc/dcmitype/StillImage" /></cc:Work></rdf:RDF></metadata><defs
     id="defs14" /><sodipodi:namedview
     pagecolor="#ffffff"
     bordercolor="#666666"
     borderopacity="1"
     objecttolerance="10"
     gridtolerance="10"
     guidetolerance="10"
     inkscape:pageopacity="0"
     inkscape:pageshadow="2"
     inkscape:window-width="1600"
     inkscape:window-height="837"
     id="namedview12"
     showgrid="false"
     inkscape:zoom="5.3425846"
     inkscape:cx="89.359262"
     inkscape:cy="15.477401"
     inkscape:window-x="3832"
     inkscape:window-y="450"
     inkscape:window-maximized="1"
     inkscape:current-layer="svg10" /><path
     d="M80.964,69.614V37.675c0-19.893-16.186-36.08-36.078-36.08c-19.898,0-36.08,16.188-36.08,36.08v31.951  c-3.23,0.205-5.787,2.893-5.787,6.176v6.41c0,3.42,2.771,6.193,6.191,6.193h5.787h59.775h6.018c3.42,0,6.191-2.773,6.191-6.193  v-6.41C86.981,72.44,84.304,69.704,80.964,69.614z M44.886,7.786c16.504,0,29.887,13.382,29.887,29.889v35.031H14.997V37.675  C14.997,21.168,28.378,7.786,44.886,7.786z M80.79,82.212H9.21v-6.41h71.58V82.212z"
     id="path4" /><path
     style="fill:#808080;stroke-width:0.0467938"
     d="m 9.2331008,78.995732 v -3.18198 H 45.006985 80.780869 v 3.18198 3.181981 H 45.006985 9.2331008 Z"
     id="path24" /><path
     style="fill:#808080;stroke-width:0.0661765"
     d="m 15.065141,53.960452 c 0.02421,-20.575856 -0.006,-19.009249 0.413001,-21.424632 0.688044,-3.966436 2.21037,-7.805943 4.445322,-11.211689 C 24.550615,14.273017 31.974603,9.4706651 40.2321,8.1870939 c 2.267924,-0.352533 5.18814,-0.4452391 7.406896,-0.2351416 9.717461,0.9201614 18.268429,6.4287447 23.163563,14.9221027 2.014635,3.495515 3.252074,7.310048 3.781533,11.656965 0.107115,0.879429 0.117159,2.325962 0.135828,19.561785 l 0.02016,18.612132 H 44.891582 15.043085 Z"
     id="path26" /><text
     xml:space="preserve"
     style="font-style:normal;font-weight:normal;font-size:16.9498px;line-height:1.25;font-family:sans-serif;fill:#000000;fill-opacity:1;stroke:none;stroke-width:0.423745"
     x="30.287088"
     y="50.520081"
     id="text30"
     transform="scale(1.0071187,0.99293162)"><tspan
       sodipodi:role="line"
       id="tspan28"
       x="30.287088"
       y="50.520081"
       style="stroke-width:0.423745">RIP</tspan></text><text
     xml:space="preserve"
     style="font-style:normal;font-weight:normal;font-size:9.21687px;line-height:1.25;font-family:sans-serif;fill:#000000;fill-opacity:1;stroke:none;stroke-width:0.230422"
     x="20.479954"
     y="28.808573"
     id="text34"
     transform="scale(0.93598725,1.0683906)"><tspan
       sodipodi:role="line"
       id="tspan32"
       x="20.479954"
       y="28.808573"
       style="stroke-width:0.230422">GAME OVER</tspan></text></svg>
