<svg xmlns="http://www.w3.org/2000/svg" xmlns:xlink="http://www.w3.org/1999/xlink" version="1.1" x="0px" y="0px" viewBox="0 0 90 112.5" enable-background="new 0 0 90 90" xml:space="preserve"><polygon points="31.954,32.726 40.97,32.726 40.97,22.628 48.796,22.628 48.796,32.726 57.813,32.726 57.813,40.554 48.796,40.554   48.796,64.247 40.97,64.247 40.97,40.554 31.954,40.554 "/><path d="M80.964,69.614V37.675c0-19.893-16.186-36.08-36.078-36.08c-19.898,0-36.08,16.188-36.08,36.08v31.951  c-3.23,0.205-5.787,2.893-5.787,6.176v6.41c0,3.42,2.771,6.193,6.191,6.193h5.787h59.775h6.018c3.42,0,6.191-2.773,6.191-6.193  v-6.41C86.981,72.44,84.304,69.704,80.964,69.614z M44.886,7.786c16.504,0,29.887,13.382,29.887,29.889v35.031H14.997V37.675  C14.997,21.168,28.378,7.786,44.886,7.786z M80.79,82.212H9.21v-6.41h71.58V82.212z"/><text x="0" y="105" fill="#000000" font-size="5px" font-weight="bold" font-family="'Helvetica Neue', Helvetica, Arial-Unicode, Arial, Sans-serif">Created by Yazmin Alanis</text><text x="0" y="110" fill="#000000" font-size="5px" font-weight="bold" font-family="'Helvetica Neue', Helvetica, Arial-Unicode, Arial, Sans-serif">from the Noun Project</text></svg>