<svg xmlns="http://www.w3.org/2000/svg" xmlns:xlink="http://www.w3.org/1999/xlink" version="1.1" x="0px" y="0px" viewBox="0 0 100 125" style="enable-background:new 0 0 100 100;" xml:space="preserve"><path d="M21.7,70.2h-4.8c-0.6,0-1,0.4-1,1v5.7h-2.5c-1.8,0-3.2,1.4-3.2,3.2s1.4,3.2,3.2,3.2h2.5V89c0,0.6,0.4,1,1,1h4.8  c0.6,0,1-0.4,1-1v-0.9h55V89c0,0.6,0.4,1,1,1h4.8c0.6,0,1-0.4,1-1v-5.7H87c1.8,0,3.2-1.4,3.2-3.2s-1.4-3.2-3.2-3.2h-2.5v-5.7  c0-0.6-0.4-1-1-1h-4.8c-0.6,0-1,0.4-1,1V72h-1.6V28.1h1.6V29c0,0.6,0.4,1,1,1h4.8c0.6,0,1-0.4,1-1v-5.7H87c1.8,0,3.2-1.4,3.2-3.2  c0-1.8-1.4-3.2-3.2-3.2h-2.5v-5.7c0-0.6-0.4-1-1-1h-4.8c-0.6,0-1,0.4-1,1V12h-55v-0.9c0-0.6-0.4-1-1-1h-4.8c-0.6,0-1,0.4-1,1v5.7  h-2.5c-1.8,0-3.2,1.4-3.2,3.2c0,1.8,1.4,3.2,3.2,3.2h2.5V29c0,0.6,0.4,1,1,1h4.8c0.6,0,1-0.4,1-1v-0.9h1.6V72h-1.6v-0.9  C22.7,70.6,22.2,70.2,21.7,70.2z M13.4,81.3c-0.7,0-1.2-0.6-1.2-1.2s0.6-1.2,1.2-1.2h2.5v2.5H13.4z M20.7,88h-2.8V72.2h2.8V88z   M87,78.9c0.7,0,1.2,0.6,1.2,1.2s-0.6,1.2-1.2,1.2h-2.5v-2.5H87z M79.7,72.2h2.8V88h-2.8V72.2z M87,18.8c0.7,0,1.2,0.6,1.2,1.2  s-0.6,1.2-1.2,1.2h-2.5v-2.5H87z M79.7,12.1h2.8V28h-2.8V12.1z M13.4,21.3c-0.7,0-1.2-0.6-1.2-1.2s0.6-1.2,1.2-1.2h2.5v2.5H13.4z   M20.7,28h-2.8V12.1h2.8V28z M22.7,14h55v12.1h-55V14z M26.2,28.1h47.9V72H26.2V28.1z M77.7,74v12.1h-55V74H77.7z"/><text x="0" y="115" fill="#000000" font-size="5px" font-weight="bold" font-family="'Helvetica Neue', Helvetica, Arial-Unicode, Arial, Sans-serif">Created by Made</text><text x="0" y="120" fill="#000000" font-size="5px" font-weight="bold" font-family="'Helvetica Neue', Helvetica, Arial-Unicode, Arial, Sans-serif">from the Noun Project</text></svg>