<svg xmlns="http://www.w3.org/2000/svg" xmlns:xlink="http://www.w3.org/1999/xlink" version="1.1" x="0px" y="0px" viewBox="0 0 64 80" style="enable-background:new 0 0 64 64;" xml:space="preserve"><g><path d="M53,16v-5h2.184c0.414,1.161,1.514,2,2.816,2h2c1.654,0,3-1.346,3-3V4c0-1.654-1.346-3-3-3h-2   c-1.302,0-2.402,0.839-2.816,2H8.816C8.402,1.839,7.302,1,6,1H4C2.346,1,1,2.346,1,4v6c0,1.654,1.346,3,3,3h2   c1.302,0,2.402-0.839,2.816-2H11v5c0,0.459,0.312,0.859,0.758,0.97l2.286,0.572l-2.751,2.751C11.105,20.48,11,20.735,11,21v6.219   L7.758,28.03c-0.375,0.094-0.662,0.394-0.738,0.772C6.943,29.18,7.092,29.568,7.4,29.8l3.6,2.7V42c0,0.379,0.214,0.725,0.553,0.895   l2.553,1.276L11.4,46.2C11.148,46.389,11,46.685,11,47v6H8.816C8.402,51.839,7.302,51,6,51H4c-1.654,0-3,1.346-3,3v6   c0,1.654,1.346,3,3,3h2c1.302,0,2.402-0.839,2.816-2h46.369c0.414,1.161,1.514,2,2.816,2h2c1.654,0,3-1.346,3-3v-6   c0-1.654-1.346-3-3-3h-2c-1.302,0-2.402,0.839-2.816,2H53v-6c0-0.315-0.148-0.611-0.4-0.8l-2.705-2.029l2.553-1.276   C52.786,42.725,53,42.379,53,42v-9.5l3.6-2.7c0.309-0.231,0.457-0.62,0.381-0.998c-0.076-0.378-0.363-0.679-0.738-0.772L53,27.219   V21c0-0.265-0.105-0.52-0.293-0.707l-2.751-2.751l2.286-0.572C52.688,16.859,53,16.459,53,16z M9,9V5h46v4H9z M57,4   c0-0.551,0.448-1,1-1h2c0.552,0,1,0.449,1,1v6c0,0.551-0.448,1-1,1h-2c-0.552,0-1-0.449-1-1V4z M7,10c0,0.551-0.448,1-1,1H4   c-0.552,0-1-0.449-1-1V4c0-0.551,0.448-1,1-1h2c0.552,0,1,0.449,1,1V10z M55,55v4H9v-4H55z M7,60c0,0.551-0.448,1-1,1H4   c-0.552,0-1-0.449-1-1v-6c0-0.551,0.448-1,1-1h2c0.552,0,1,0.449,1,1V60z M57,54c0-0.551,0.448-1,1-1h2c0.552,0,1,0.449,1,1v6   c0,0.551-0.448,1-1,1h-2c-0.552,0-1-0.449-1-1V54z M47.758,16.03c-0.35,0.087-0.625,0.356-0.722,0.703   c-0.096,0.347,0.002,0.719,0.257,0.974L51,21.414V28c0,0.459,0.312,0.859,0.758,0.97l1.961,0.49L51.4,31.2   C51.148,31.389,51,31.685,51,32v9.382l-3.447,1.724c-0.31,0.155-0.518,0.459-0.549,0.805s0.119,0.682,0.396,0.89l3.6,2.7V53H13   v-5.5l3.6-2.7c0.277-0.208,0.428-0.544,0.396-0.89s-0.239-0.649-0.549-0.805L13,41.382V32c0-0.315-0.148-0.611-0.4-0.8l-2.318-1.74   l1.961-0.49C12.688,28.859,13,28.459,13,28v-6.586l3.707-3.707c0.255-0.255,0.353-0.627,0.257-0.974   c-0.097-0.347-0.372-0.616-0.722-0.703L13,15.219V11h38v4.219L47.758,16.03z"/><rect x="15" y="13" width="34" height="2"/><rect x="19" y="17" width="26" height="2"/><rect x="15" y="21" width="34" height="2"/><rect x="15" y="25" width="34" height="2"/><rect x="15" y="29" width="34" height="2"/><rect x="15" y="33" width="34" height="2"/><rect x="15" y="37" width="34" height="2"/><rect x="18" y="41" width="27" height="2"/><rect x="18" y="45" width="27" height="2"/><rect x="15" y="49" width="34" height="2"/></g><text x="0" y="79" fill="#000000" font-size="5px" font-weight="bold" font-family="'Helvetica Neue', Helvetica, Arial-Unicode, Arial, Sans-serif">Created by Template</text><text x="0" y="84" fill="#000000" font-size="5px" font-weight="bold" font-family="'Helvetica Neue', Helvetica, Arial-Unicode, Arial, Sans-serif">from the Noun Project</text></svg>