<?xml version="1.0" encoding="UTF-8" standalone="no"?>
<svg
   xmlns:dc="http://purl.org/dc/elements/1.1/"
   xmlns:cc="http://creativecommons.org/ns#"
   xmlns:rdf="http://www.w3.org/1999/02/22-rdf-syntax-ns#"
   xmlns:svg="http://www.w3.org/2000/svg"
   xmlns="http://www.w3.org/2000/svg"
   xmlns:sodipodi="http://sodipodi.sourceforge.net/DTD/sodipodi-0.dtd"
   xmlns:inkscape="http://www.inkscape.org/namespaces/inkscape"
   version="1.1"
   x="0px"
   y="0px"
   viewBox="0 0 64 80"
   style="enable-background:new 0 0 64 64;"
   xml:space="preserve"
   id="svg30"
   sodipodi:docname="scroll-icon.svg"
   inkscape:version="1.0.1 (3bc2e813f5, 2020-09-07)"><metadata
     id="metadata36"><rdf:RDF><cc:Work
         rdf:about=""><dc:format>image/svg+xml</dc:format><dc:type
           rdf:resource="http://purl.org/dc/dcmitype/StillImage" /></cc:Work></rdf:RDF></metadata><defs
     id="defs34" /><sodipodi:namedview
     pagecolor="#ffffff"
     bordercolor="#666666"
     borderopacity="1"
     objecttolerance="10"
     gridtolerance="10"
     guidetolerance="10"
     inkscape:pageopacity="0"
     inkscape:pageshadow="2"
     inkscape:window-width="1920"
     inkscape:window-height="1017"
     id="namedview32"
     showgrid="false"
     inkscape:zoom="11.313709"
     inkscape:cx="13.031185"
     inkscape:cy="36.027889"
     inkscape:window-x="-8"
     inkscape:window-y="144"
     inkscape:window-maximized="1"
     inkscape:current-layer="svg30"
     inkscape:document-rotation="0" /><g
     id="g24"><path
       d="M53,16v-5h2.184c0.414,1.161,1.514,2,2.816,2h2c1.654,0,3-1.346,3-3V4c0-1.654-1.346-3-3-3h-2   c-1.302,0-2.402,0.839-2.816,2H8.816C8.402,1.839,7.302,1,6,1H4C2.346,1,1,2.346,1,4v6c0,1.654,1.346,3,3,3h2   c1.302,0,2.402-0.839,2.816-2H11v5c0,0.459,0.312,0.859,0.758,0.97l2.286,0.572l-2.751,2.751C11.105,20.48,11,20.735,11,21v6.219   L7.758,28.03c-0.375,0.094-0.662,0.394-0.738,0.772C6.943,29.18,7.092,29.568,7.4,29.8l3.6,2.7V42c0,0.379,0.214,0.725,0.553,0.895   l2.553,1.276L11.4,46.2C11.148,46.389,11,46.685,11,47v6H8.816C8.402,51.839,7.302,51,6,51H4c-1.654,0-3,1.346-3,3v6   c0,1.654,1.346,3,3,3h2c1.302,0,2.402-0.839,2.816-2h46.369c0.414,1.161,1.514,2,2.816,2h2c1.654,0,3-1.346,3-3v-6   c0-1.654-1.346-3-3-3h-2c-1.302,0-2.402,0.839-2.816,2H53v-6c0-0.315-0.148-0.611-0.4-0.8l-2.705-2.029l2.553-1.276   C52.786,42.725,53,42.379,53,42v-9.5l3.6-2.7c0.309-0.231,0.457-0.62,0.381-0.998c-0.076-0.378-0.363-0.679-0.738-0.772L53,27.219   V21c0-0.265-0.105-0.52-0.293-0.707l-2.751-2.751l2.286-0.572C52.688,16.859,53,16.459,53,16z M9,9V5h46v4H9z M57,4   c0-0.551,0.448-1,1-1h2c0.552,0,1,0.449,1,1v6c0,0.551-0.448,1-1,1h-2c-0.552,0-1-0.449-1-1V4z M7,10c0,0.551-0.448,1-1,1H4   c-0.552,0-1-0.449-1-1V4c0-0.551,0.448-1,1-1h2c0.552,0,1,0.449,1,1V10z M55,55v4H9v-4H55z M7,60c0,0.551-0.448,1-1,1H4   c-0.552,0-1-0.449-1-1v-6c0-0.551,0.448-1,1-1h2c0.552,0,1,0.449,1,1V60z M57,54c0-0.551,0.448-1,1-1h2c0.552,0,1,0.449,1,1v6   c0,0.551-0.448,1-1,1h-2c-0.552,0-1-0.449-1-1V54z M47.758,16.03c-0.35,0.087-0.625,0.356-0.722,0.703   c-0.096,0.347,0.002,0.719,0.257,0.974L51,21.414V28c0,0.459,0.312,0.859,0.758,0.97l1.961,0.49L51.4,31.2   C51.148,31.389,51,31.685,51,32v9.382l-3.447,1.724c-0.31,0.155-0.518,0.459-0.549,0.805s0.119,0.682,0.396,0.89l3.6,2.7V53H13   v-5.5l3.6-2.7c0.277-0.208,0.428-0.544,0.396-0.89s-0.239-0.649-0.549-0.805L13,41.382V32c0-0.315-0.148-0.611-0.4-0.8l-2.318-1.74   l1.961-0.49C12.688,28.859,13,28.459,13,28v-6.586l3.707-3.707c0.255-0.255,0.353-0.627,0.257-0.974   c-0.097-0.347-0.372-0.616-0.722-0.703L13,15.219V11h38v4.219L47.758,16.03z"
       id="path2" /><rect
       x="15"
       y="13"
       width="34"
       height="2"
       id="rect4" /><rect
       x="19"
       y="17"
       width="26"
       height="2"
       id="rect6" /><rect
       x="15"
       y="21"
       width="34"
       height="2"
       id="rect8" /><rect
       x="15"
       y="25"
       width="34"
       height="2"
       id="rect10" /><rect
       x="15"
       y="29"
       width="34"
       height="2"
       id="rect12" /><rect
       x="15"
       y="33"
       width="34"
       height="2"
       id="rect14" /><rect
       x="15"
       y="37"
       width="34"
       height="2"
       id="rect16" /><rect
       x="18"
       y="41"
       width="27"
       height="2"
       id="rect18" /><rect
       x="18"
       y="45"
       width="27"
       height="2"
       id="rect20" /><rect
       x="15"
       y="49"
       width="34"
       height="2"
       id="rect22" /></g><path
     style="fill:#e9c6af;stroke-width:0.0941176"
     d="m 13.085945,50.235294 0.0036,-2.752941 1.839206,-1.364706 c 1.011564,-0.750588 1.899359,-1.479073 1.972879,-1.618855 0.182155,-0.346332 0.167269,-0.725705 -0.04173,-1.063498 -0.135036,-0.218252 -0.583664,-0.48489 -1.976119,-1.17449 l -1.801422,-0.892139 -5.27e-4,-4.660802 c -3.3e-4,-2.945146 -0.03666,-4.790928 -0.0987,-5.014303 -0.08376,-0.301607 -0.266748,-0.479768 -1.246534,-1.213648 -0.631599,-0.473081 -1.18303,-0.89079 -1.2254,-0.928243 -0.04237,-0.03745 0.387446,-0.183329 0.955148,-0.324169 0.836304,-0.207476 1.083117,-0.30921 1.300567,-0.536084 l 0.268383,-0.280014 0.02675,-3.499818 0.02675,-3.499819 1.933017,-1.937066 c 1.751077,-1.754744 1.937776,-1.972551 1.983587,-2.314094 0.05978,-0.445673 -0.153697,-0.931406 -0.473351,-1.07705 -0.116511,-0.05309 -0.929768,-0.276225 -1.807238,-0.495865 l -1.595399,-0.399344 -0.02533,-2.088291 -0.02533,-2.08829 H 32 50.921248 l -0.02533,2.08829 -0.02533,2.088291 -1.595399,0.399344 c -0.87747,0.21964 -1.690727,0.442779 -1.807238,0.495865 -0.319654,0.145644 -0.533128,0.631377 -0.473351,1.07705 0.04581,0.341543 0.23251,0.55935 1.983587,2.314094 l 1.933017,1.937066 0.02675,3.499819 0.02675,3.499818 0.268381,0.280014 c 0.217449,0.226874 0.464264,0.328608 1.300567,0.536084 0.567702,0.14084 0.997519,0.286716 0.955148,0.324169 -0.04237,0.03745 -0.593801,0.455162 -1.225401,0.928243 -0.979785,0.73388 -1.162774,0.912041 -1.246533,1.213648 -0.06203,0.223375 -0.09836,2.069157 -0.0987,5.014303 l -5.64e-4,4.660802 -1.801423,0.892139 c -1.891874,0.936932 -2.150377,1.142366 -2.151167,1.70954 -7.53e-4,0.522107 0.18451,0.711746 2.057608,2.106512 l 1.887547,1.405497 0.0037,2.752941 0.0037,2.752941 H 32 13.082353 Z M 49.035294,49.976471 V 48.941176 H 32 14.964706 v 1.035295 1.035294 H 32 49.035294 Z M 45.082353,46.023529 V 44.988235 H 31.529412 17.976471 v 1.035294 1.035295 h 13.552941 13.552941 z m 0,-4.047058 V 40.941176 H 31.529412 17.976471 v 1.035295 1.035294 h 13.552941 13.552941 z m 3.952941,-3.952942 V 36.988235 H 32 14.964706 v 1.035294 1.035295 H 32 49.035294 Z m 0,-4.047058 V 32.941176 H 32 14.964706 v 1.035295 1.035294 H 32 49.035294 Z m 0,-3.952942 V 28.988235 H 32 14.964706 v 1.035294 1.035295 H 32 49.035294 Z m 0,-4.047058 V 24.941176 H 32 14.964706 v 1.035295 1.035294 H 32 49.035294 Z m 0,-3.952942 V 20.988235 H 32 14.964706 v 1.035294 1.035295 H 32 49.035294 Z M 45.082353,17.976471 V 16.941176 H 32 18.917647 v 1.035295 1.035294 H 32 45.082353 Z m 3.952941,-3.952942 V 12.988235 H 32 14.964706 v 1.035294 1.035295 H 32 49.035294 Z"
     id="path865" /><path
     style="fill:#2b1100;stroke-width:0.0441942"
     d="M 9.0162657,6.9939106 V 5.0272699 H 31.997236 54.978206 V 6.9939106 8.9605514 H 31.997236 9.0162657 Z"
     id="path873" /><path
     style="fill:#2b1100;stroke-width:0.00390625"
     d="m 28.103419,8.9809854 v -0.017578 h 4.236329 4.236328 v 0.017578 0.017578 h -4.236328 -4.236329 z"
     id="path875" /><path
     style="fill:#2b1100;stroke-width:0.00390625"
     d="m 28.103419,5.0141885 v -0.011719 h 4.236329 4.236328 v 0.011719 0.011719 h -4.236328 -4.236329 z"
     id="path877" /><path
     style="fill:#2b1100;stroke-width:0.0220971"
     d="m 13.778144,8.9819991 c 2.628172,-0.00309 6.928818,-0.00309 9.55699,0 2.628172,0.00309 0.47785,0.00562 -4.778495,0.00562 -5.256344,0 -7.406667,-0.00253 -4.778495,-0.00562 z"
     id="path879" /><path
     style="fill:#2b1100;stroke-width:0.00390625"
     d="m 22.752133,8.9934073 c 0,-0.00519 0.09766,-0.00594 0.852539,-0.0066 0.468896,-4.097e-4 0.794531,-0.00192 0.723632,-0.00336 -0.0709,-0.00144 -0.454541,-0.00286 -0.852539,-0.00316 -0.720848,-5.397e-4 -0.723632,-5.719e-4 -0.723632,-0.00835 0,-0.0078 0.0026,-0.00781 2.673828,-0.00781 h 2.673828 v 0.017578 0.017578 h -2.673828 c -2.374132,0 -2.673828,-6.567e-4 -2.673828,-0.00586 z"
     id="path881" /><path
     style="fill:#2b1100;stroke-width:0.00390625"
     d="m 22.752133,5.0148916 v -0.011719 h 2.673828 2.673828 v 0.011719 0.011719 h -2.673828 -2.673828 z"
     id="path883" /><path
     style="fill:#2b1100;stroke-width:0.00390625"
     d="m 18.884061,5.0154539 v -0.011719 h 1.933594 1.933593 v 0.011719 0.011719 h -1.933593 -1.933594 z"
     id="path885" /><path
     style="fill:#2b1100;stroke-width:0.00390625"
     d="m 21.754441,8.9812777 c 0.0458,-6.254e-4 0.119627,-6.246e-4 0.164063,1.7e-6 0.04443,6.263e-4 0.007,0.00114 -0.08327,0.00114 -0.09023,-10e-7 -0.126591,-5.134e-4 -0.08079,-0.00114 z"
     id="path887" /><path
     style="fill:#2b1100;stroke-width:0.00390625"
     d="m 19.840116,8.977368 c -0.952799,-9.89e-4 -0.956055,-0.00102 -0.956055,-0.0088 0,-0.00779 0.0031,-0.0078 2.360351,-0.00688 1.298194,5.09e-4 2.16875,0.00186 1.934571,0.00301 -0.23418,0.00115 -0.426221,0.00249 -0.426758,0.00298 -0.0032,0.00295 1.2e-5,0.0084 0.0059,0.00992 0.0068,0.00177 -1.069826,0.00168 -2.917968,-2.369e-4 z"
     id="path889" /><path
     style="fill:#2b1100;stroke-width:0.00390625"
     d="m 17.980103,8.9933731 c 0,-0.0052 0.268216,-0.00583 2.391602,-0.00558 1.315381,1.51e-4 2.388086,0.00172 2.383789,0.0035 -0.006,0.00246 -0.0032,0.00361 0.01172,0.00488 0.01074,9.119e-4 -1.061963,0.00197 -2.383789,0.00236 -2.133994,6.251e-4 -2.403321,4.74e-5 -2.403322,-0.00516 z"
     id="path897" /><path
     style="fill:#2b1100"
     d="m 36.576604,8.9770998 c 0,-0.014717 0.986389,-0.016573 8.811213,-0.016573 7.824824,0 8.811214,0.00186 8.811214,0.016573 0,0.014717 -0.98639,0.016573 -8.811214,0.016573 -7.824824,0 -8.811213,-0.00186 -8.811213,-0.016573 z"
     id="path899" /><path
     style="fill:#2b1100;stroke-width:0.00390625"
     d="m 36.579408,8.9890585 c 0,-0.00873 0.0013,-0.00986 0.0088,-0.00775 0.02654,0.00747 0.947056,0.011 3.56543,0.013666 l 2.892578,0.00294 -3.233399,6.79e-4 -3.233398,6.79e-4 z"
     id="path901" /><path
     style="fill:#2b1100;stroke-width:0.00390625"
     d=""
     id="path903" /><path
     style="fill:#2b1100;stroke-width:0.00390625"
     d="m 37.591127,8.9874129 c -0.781032,-0.00251 -1.039347,-0.00576 -0.972657,-0.012248 0.06985,-0.00679 1.477287,-0.010764 3.862305,-0.010898 l 2.563477,-1.438e-4 v 0.013672 0.013672 l -2.321289,-7.249e-4 c -1.276709,-3.987e-4 -2.686035,-0.0019 -3.131836,-0.00333 z"
     id="path905" /><path
     style="fill:#2b1100;stroke-width:0.00390625"
     d="M 34.571595,6.9953735 V 5.0305297 h 4.236329 4.236328 v 1.9648438 1.9648437 h -4.236328 -4.236329 z"
     id="path907" /><path
     style="fill:#2b1100;stroke-width:0.00390625"
     d="m 36.580155,8.9927325 c 0.0013,-0.00654 0.0057,-0.00703 0.05308,-0.00594 0.0284,6.527e-4 0.05165,-2.969e-4 0.05165,-0.00211 0,-0.00181 -0.004,-0.00333 -0.0088,-0.00337 -0.05279,-4.343e-4 -0.08562,-0.00277 -0.07715,-0.00548 0.0088,-0.00282 0.0084,-0.00317 -0.0045,-0.00352 -0.0088,-2.382e-4 -0.01509,-0.00264 -0.01648,-0.00625 -0.002,-0.00519 -0.117193,-0.00586 -1.004324,-0.00586 H 34.571595 V 6.9953735 5.0305297 h 4.236329 4.236328 v 1.9648409 1.9648408 l -2.62793,9.824e-4 -2.62793,9.824e-4 2.62793,9.735e-4 2.62793,9.738e-4 v 0.01424 0.01424 l -2.958008,-0.00253 c -1.626904,-0.00139 -3.043262,-0.0032 -3.147461,-0.00401 -0.165681,-0.0013 -0.173523,-0.00112 -0.0625,0.00143 0.06982,0.0016 0.362353,0.00315 0.650065,0.00345 0.287712,2.969e-4 0.52238,0.00118 0.521484,0.00197 -8.95e-4,7.914e-4 -0.33181,0.00268 -0.735368,0.00419 -0.708844,0.00266 -0.733691,0.00251 -0.732309,-0.00437 z m 0.16044,-0.00792 c -0.0048,-9.274e-4 -0.01359,-9.512e-4 -0.01953,-5.47e-5 -0.0059,8.98e-4 -0.002,0.00166 0.0087,0.00169 0.01074,3.91e-5 0.0156,-7.054e-4 0.0108,-0.00163 z m 0.757758,-0.019711 c -0.110107,-5.765e-4 -0.290283,-5.765e-4 -0.40039,0 -0.110108,5.766e-4 -0.02002,0.00105 0.200195,0.00105 0.220215,0 0.310303,-4.719e-4 0.200195,-0.00105 z"
     id="path909" /><path
     style="fill:#2b1100;stroke-width:0.00390625"
     d="M 36.579408,5.0149047 V 5.003186 h 3.232422 3.232422 V 5.014905 5.026624 H 39.81183 36.579408 Z"
     id="path911" /><path
     style="fill:#2b1100;stroke-width:0.00390625"
     d="m 45.439885,5.0134332 v -0.011719 h 4.236328 4.236329 v 0.011719 0.011719 h -4.236329 -4.236328 z"
     id="path913" /><path
     style="fill:#2b1100;stroke-width:0.00390625"
     d="m 43.045773,5.0128095 v -0.011719 h 1.195312 1.195313 v 0.011719 0.011719 h -1.195313 -1.195312 z"
     id="path915" /><path
     style="fill:#2b1100;stroke-width:0.00552427"
     d="m 52.291717,8.9924267 c 1.002655,-0.00198 1.842275,-0.00558 1.865823,-0.00799 0.02355,-0.00241 0.04281,-0.00643 0.04281,-0.00892 0,-0.0025 -0.02921,-0.00533 -0.06491,-0.00629 -0.0357,-9.623e-4 0.139556,-0.00228 0.389461,-0.00294 l 0.454371,-0.00119 V 6.9956963 5.0262935 H 54.44618 c -0.52941,0 -0.533092,-7.64e-5 -0.533092,-0.011049 0,-0.010973 0.0037,-0.011049 0.541378,-0.011049 h 0.541379 v 1.9970242 1.9970242 l -2.26357,-0.00111 -2.263571,-0.00111 z"
     id="path917" /><path
     style="fill:#2b1100;stroke-width:0.00390625"
     d="m 48.21775,8.9942783 c 0.419482,-5.48e-4 1.105908,-5.48e-4 1.525391,0 0.419482,5.479e-4 0.07627,9.962e-4 -0.762696,9.962e-4 -0.838965,0 -1.182177,-4.483e-4 -0.762695,-9.962e-4 z"
     id="path919" /><path
     style="fill:#2b1100;stroke-width:0.00390625"
     d="m 43.523414,8.9815829 v -0.019531 l 4.133789,8e-6 c 2.273584,4.4e-6 4.179932,0.00117 4.236328,0.00258 l 0.102539,0.00257 v 0.011092 0.011092 l -0.708008,7e-7 c -0.389404,3e-7 -1.279296,0.00132 -1.977539,0.00293 l -1.269531,0.00293 1.978516,0.00196 c 1.497905,0.00148 0.949212,0.00219 -2.258789,0.00293 l -4.237305,9.709e-4 z"
     id="path923" /><path
     style="fill:#2b1100;stroke-width:0.00390625"
     d="m 43.523414,8.9816769 v -0.019619 l 2.577148,-9.825e-4 2.577149,-9.825e-4 -2.577149,-9.736e-4 -2.577148,-9.736e-4 V 7.8350985 6.7120517 h 4.236328 4.236328 v 1.1230468 1.1230469 l -0.864258,8.336e-4 -0.864257,8.337e-4 0.863281,0.00239 c 0.474805,0.00131 0.863721,0.0027 0.864258,0.00307 5.37e-4,3.762e-4 9.76e-4,0.00596 9.76e-4,0.012403 v 0.011719 l -0.807617,8.255e-4 c -0.444189,4.54e-4 -0.779492,0.00177 -0.745117,0.00293 0.07605,0.00256 -0.668986,0.00903 -0.828125,0.00719 -0.102628,-0.00119 -0.09795,-0.00139 0.0498,-0.00222 0.120363,-6.748e-4 0.163086,-0.0021 0.163086,-0.00543 0,-0.00335 -0.01846,-0.00387 -0.07129,-0.002 -0.03921,0.00139 -1.104882,0.00342 -2.368164,0.00452 -1.263281,0.0011 -2.649755,0.00292 -3.081054,0.00404 l -0.78418,0.00204 z"
     id="path925" /><path
     style="fill:#2b1100;stroke-width:0.00390625"
     d="M 43.523414,6.9405673 V 5.0011142 h 0.955078 0.955078 v 0.00977 c 0,0.00537 0.0018,0.00977 0.0039,0.00977 0.0021,0 0.0039,-0.00352 0.0039,-0.00781 0,-0.00781 0.0026,-0.00781 3.277344,-0.00781 h 3.277343 v 1.9375 1.9375 h -4.236328 -4.236328 z"
     id="path927" /><path
     style="fill:#2b1100;stroke-width:0.00390625"
     d="m 49.81618,8.9957955 c 0.0086,-0.00159 -0.03285,-0.00313 -0.09277,-0.00344 L 49.615008,8.9918056 V 6.997665 5.0035244 h 2.148437 2.148438 v 0.00977 0.00977 h -0.958985 c -0.527441,0 -0.958984,0.00132 -0.958984,0.00293 -10e-7,0.00383 1.939851,-7.14e-5 1.943685,-0.00391 0.0016,-0.00161 -0.0026,-0.00293 -0.0094,-0.00293 -0.01787,0 -0.0152,-0.00628 0.0042,-0.00996 l 0.0166,-0.00315 -0.01758,-0.00263 c -0.0097,-0.00144 0.225879,-0.00289 0.523437,-0.00321 l 0.541016,-5.867e-4 -9.84e-4,1.9980469 -9.84e-4,1.9980469 -1.250969,-6.613e-4 -1.250969,-6.61e-4 0.8125,-0.00283 c 0.446875,-0.00156 0.827441,-0.00389 0.845703,-0.00519 0.03648,-0.0026 0.05078,-0.00552 0.05078,-0.010371 0,-0.00175 -0.004,-0.00394 -0.0088,-0.00487 -0.0048,-9.309e-4 0.170947,-0.00193 0.390625,-0.00222 l 0.399414,-5.321e-4 V 6.9957119 c 0,-1.3125 -0.0013,-1.9726563 -0.0039,-1.9726563 -0.0026,0 -0.0039,0.6588542 -0.0039,1.96875 v 1.96875 l -2.149414,7.102e-4 -2.149414,7.101e-4 1.548828,0.00263 c 1.487613,0.00252 1.849666,0.00453 1.921875,0.010629 0.03222,0.00272 0.0313,0.00288 -0.03125,0.00525 -0.08485,0.00322 -0.908819,0.00694 -2.697266,0.012202 -0.803516,0.00236 -1.496094,0.00468 -1.539062,0.00514 -0.04297,4.668e-4 -0.07109,-4.477e-4 -0.0625,-0.00203 z"
     id="path929" /><path
     style="fill:#2b1100;stroke-width:0.00390625"
     d="m 49.81032,8.9960396 c 0.0062,-0.00218 -0.0281,-0.0036 -0.09277,-0.00384 l -0.102542,-3.94e-4 V 6.997665 5.0035244 h 2.148437 2.148438 v 0.00977 c 0,0.00853 0.0016,0.00969 0.01269,0.00918 0.01182,-5.448e-4 0.01195,-6.98e-4 0.002,-0.00221 -0.01807,-0.00274 -0.01206,-0.00744 0.01563,-0.012227 0.01899,-0.00328 0.169906,-0.00483 0.539063,-0.00551 l 0.512696,-9.503e-4 -1e-6,1.9970703 v 1.9970703 l -1.250977,-6.613e-4 -1.250976,-6.61e-4 0.8125,-0.00283 c 0.446875,-0.00156 0.827441,-0.00389 0.845703,-0.00519 0.03648,-0.0026 0.05078,-0.00552 0.05078,-0.010371 0,-0.00175 -0.004,-0.00394 -0.0088,-0.00487 -0.0048,-9.309e-4 0.170947,-0.00193 0.390625,-0.00222 L 54.98223,8.9683823 V 6.997014 c 0,-1.0842448 -0.001,-1.9703314 -0.0023,-1.9690814 -0.004,0.00395 -0.0047,0.2960757 -0.0051,2.1367246 l -4.39e-4,1.7958984 -1.993164,6.981e-4 -1.993164,6.984e-4 1.380859,0.00265 c 1.342126,0.00258 1.71469,0.00481 1.779297,0.010665 0.02953,0.00268 0.0277,0.00296 -0.0332,0.00524 -0.08782,0.00328 -0.952513,0.00703 -2.666016,0.011548 -0.790625,0.00209 -1.484961,0.00461 -1.542969,0.00562 -0.06349,0.0011 -0.101582,4.477e-4 -0.0957,-0.00163 z M 53.874773,5.025366 c 0.0043,-6.855e-4 -0.416699,-0.00109 -0.935547,-8.95e-4 -0.518847,1.933e-4 -0.89414,0.00127 -0.833984,0.0024 0.112899,0.00211 1.755617,7.172e-4 1.769531,-0.0015 z m 1.124985,1.9762053 c 0,-1.1 4.47e-4,-1.5494166 9.92e-4,-0.9987036 5.45e-4,0.550713 5.45e-4,1.450713 0,2 -5.45e-4,0.549287 -9.92e-4,0.098704 -9.92e-4,-1.0012964 z"
     id="path931" /><path
     style="fill:#2b1100;stroke-width:0.00390625"
     d="m 49.806414,8.9960513 c 0.0042,-0.00294 -0.02241,-0.00414 -0.09277,-0.00419 l -0.09863,-5.98e-5 V 6.997665 5.0035244 h 2.148437 2.148438 v 0.00977 c 0,0.00818 0.0017,0.00968 0.01074,0.00923 0.0092,-4.561e-4 0.0095,-7.734e-4 0.002,-0.00222 -0.01582,-0.00305 -0.0093,-0.00763 0.01758,-0.012268 0.01899,-0.00328 0.169841,-0.00483 0.53879,-0.00551 l 0.512423,-9.503e-4 0.0012,0.625 c 6.87e-4,0.34375 6.87e-4,1.2424316 10e-7,1.9970703 l -0.0012,1.3720703 -1.250705,-6.617e-4 -1.250704,-6.618e-4 0.808594,-0.00282 c 0.444726,-0.00155 0.825292,-0.0039 0.845703,-0.00523 0.04011,-0.0026 0.05469,-0.00536 0.05469,-0.010343 0,-0.00175 -0.004,-0.00394 -0.0088,-0.00487 -0.0048,-9.309e-4 0.171051,-0.00193 0.390856,-0.00222 0.2653,-3.516e-4 0.398833,-0.00185 0.39723,-0.00444 -0.0016,-0.0026 -0.609001,-0.00368 -1.811754,-0.00322 l -1.80934,6.851e-4 1.175782,0.0027 c 1.144721,0.00263 1.581273,0.00562 1.623748,0.011136 0.06198,0.00805 -0.209569,0.0097 -2.686248,0.016387 -0.790625,0.00213 -1.490235,0.00481 -1.554688,0.00595 -0.08284,0.00147 -0.11547,8.664e-4 -0.111328,-0.00205 z m 5.175781,-3.532471 c 0,-0.234411 -9.42e-4,-0.4252592 -0.0021,-0.4241073 -0.0034,0.0034 -0.0044,0.854326 -10e-4,0.8522264 0.0017,-0.00105 0.0031,-0.1937081 0.0031,-0.4281191 z M 53.40114,5.0240324 c -0.239013,-5.559e-4 -0.630126,-5.559e-4 -0.86914,0 -0.239014,5.559e-4 -0.04346,0.00101 0.43457,0.00101 0.478027,0 0.673584,-4.548e-4 0.43457,-0.00101 z"
     id="path933" /><path
     style="fill:#2b1100;stroke-width:0.00390625"
     d="m 49.804182,8.9961625 c 0.002,-0.00316 -0.02366,-0.00436 -0.09324,-0.00436 h -0.09593 v -1.703125 -1.703125 h 2.681595 2.681595 l 0.0011,0.1533203 0.0011,0.1533204 9.3e-4,-0.1533204 c 8.09e-4,-0.1332672 0.0017,-0.1533203 0.0068,-0.1533203 0.0052,0 0.0059,0.1920573 0.0059,1.7050782 v 1.7050781 l -1.250977,-6.577e-4 -1.250976,-6.576e-4 0.808594,-0.00285 c 0.751891,-0.00265 0.861057,-0.00388 0.889648,-0.010054 0.013,-0.00281 0.01399,-0.00805 0.002,-0.010371 -0.0048,-9.311e-4 0.170068,-0.00193 0.388672,-0.00222 0.262015,-3.508e-4 0.397461,-0.00186 0.397461,-0.00444 0,-0.00259 -0.167717,-0.00361 -0.49707,-0.00304 -0.273389,4.762e-4 -0.456641,0.00184 -0.407227,0.00304 l 0.08984,0.00217 -0.113281,0.0016 -0.113282,0.0016 0.11784,0.0022 c 0.258681,0.00483 0.08947,0.010711 -0.39909,0.013877 -0.167578,0.00109 -0.791601,0.00286 -1.386718,0.00394 -1.277862,0.00232 -2.009127,0.00499 -2.274924,0.00828 -0.141442,0.00175 -0.192173,0.00123 -0.190199,-0.00197 z m 4.070591,-0.031701 c -0.0064,-0.00164 -0.510937,-0.00276 -1.121093,-0.00248 -1.105671,4.982e-4 -1.10678,5.066e-4 -0.332032,0.00248 1.241768,0.00317 1.465568,0.00317 1.453125,0 z"
     id="path935" /><path
     style="fill:#2b1100;stroke-width:0.00390625"
     d="m 43.255774,8.9944274 c -0.148242,-0.00142 -1.187549,-0.00283 -2.30957,-0.00314 l -2.04004,-5.603e-4 v -0.013668 -0.013668 l 2.07129,-9.839e-4 2.071289,-9.839e-4 -2.071289,-9.729e-4 -2.07129,-9.729e-4 v -1.609375 -1.609375 h 4.236329 4.236328 V 7.3696338 8.99854 l -1.926758,-7.705e-4 c -1.059717,-4.238e-4 -2.048047,-0.00193 -2.196289,-0.00335 z"
     id="path939" /><path
     style="fill:#2b1100;stroke-width:0.00390625"
     d="m 43.102715,8.9956178 c 0.04472,-6.272e-4 0.116794,-6.263e-4 0.160156,1.8e-6 0.04336,6.282e-4 0.0068,0.00114 -0.08132,0.00114 -0.08809,-1e-6 -0.123564,-5.15e-4 -0.07884,-0.00114 z"
     id="path943" /><path
     style="fill:#2b1100;stroke-width:0.00390625"
     d="m 40.440344,8.9995204 c 0.565576,-5.451e-4 1.491065,-5.451e-4 2.056641,0 0.565576,5.452e-4 0.102832,9.913e-4 -1.028321,9.913e-4 -1.131152,0 -1.593896,-4.461e-4 -1.02832,-9.913e-4 z"
     id="path947" /><path
     style="fill:#2b1100;stroke-width:0.00390625"
     d="m 42.815344,8.999843 c 0.05065,-8.856e-4 0.08301,-0.00294 0.08301,-0.00528 0,-0.0025 -0.694437,-0.00383 -1.996094,-0.00383 H 38.906164 V 8.9770636 8.963396 l 1.809571,-9.85e-4 1.80957,-9.849e-4 -1.80957,-9.724e-4 -1.809571,-9.724e-4 v -1.609375 -1.609375 h 4.236329 4.236328 v 1.6289063 1.6289062 l -1.729492,1.4e-6 c -0.951221,8e-7 -1.99668,6.197e-4 -2.323243,0.00138 -0.326562,7.557e-4 -0.556396,7.207e-4 -0.510742,-7.77e-5 z m 0.567383,-0.00542 c -0.222277,-0.00423 -0.339844,-0.00416 -0.339844,2.16e-4 0,0.00257 0.08186,0.00365 0.239258,0.00317 0.230816,-7.148e-4 0.234365,-8.341e-4 0.100586,-0.00338 z M 42.903235,8.960462 c -0.06284,-6.033e-4 -0.165674,-6.033e-4 -0.228516,0 -0.06284,6.033e-4 -0.01143,0.0011 0.114258,0.0011 0.125684,0 0.1771,-4.936e-4 0.114258,-0.0011 z"
     id="path951" /><path
     style="fill:#2b1100;stroke-width:0.00390625"
     d="m 42.671037,8.9995303 c 0.02644,-6.768e-4 0.06863,-6.747e-4 0.09375,4.7e-6 0.02512,6.793e-4 0.0035,0.00123 -0.04808,0.00123 -0.05156,-2.5e-6 -0.07212,-5.584e-4 -0.04567,-0.00124 z"
     id="path953" /><path
     style="fill:#2b1100;stroke-width:0.00390625"
     d="M 39.128182,6.5161638 V 5.0239802 l 1.958007,-9.804e-4 1.958008,-9.804e-4 0.0012,-0.00879 0.0012,-0.00879 h 1.193088 c 1.178391,0 1.193087,9.34e-5 1.193087,0.00758 0,0.00417 0.0018,0.00867 0.0039,0.01 0.0022,0.00137 0.0039,-0.00191 0.0039,-0.00758 v -0.01 h 1.080078 1.080078 v 1.501955 1.5019531 H 43.36451 39.128182 Z"
     id="path955" /><path
     style="fill:#2b1100;stroke-width:0.00390625"
     d="m 23.930956,8.9922829 c 0,-0.00254 0.06313,-0.00407 0.180664,-0.00436 0.09937,-2.512e-4 0.19209,-0.00174 0.206055,-0.00331 0.01396,-0.00157 -0.06733,-0.00312 -0.180664,-0.00345 L 23.930956,8.9805641 V 7.2325173 5.4844704 h 4.236328 4.236328 v 1.7382777 1.7382778 l -2.151367,9.8e-4 -2.151367,9.801e-4 -0.0012,0.016602 -0.0012,0.016602 h -2.083759 c -1.386569,0 -2.08376,-0.00131 -2.08376,-0.00391 z"
     id="path957" /><path
     style="fill:#2b1100;stroke-width:0.00390625"
     d="m 23.930956,8.9922829 c 0,-0.00254 0.06379,-0.00407 0.182617,-0.00437 0.100439,-2.543e-4 0.187891,-0.0018 0.194336,-0.00344 0.0064,-0.00164 -0.07573,-0.00319 -0.182617,-0.00344 L 23.930956,8.9805641 V 7.2325173 5.4844704 h 4.236328 4.236328 v 1.7382772 1.7382772 l -1.866211,9.847e-4 -1.866211,9.846e-4 1.866211,9.725e-4 1.866211,9.725e-4 v 0.015625 0.015625 h -2.148437 -2.148438 v -0.015394 c 0,-0.00847 -0.0018,-0.016481 -0.0039,-0.017809 -0.0024,-0.00147 -0.0039,0.00452 -0.0039,0.015394 v 0.017809 H 26.01494 c -1.386719,0 -2.083984,-0.00131 -2.083984,-0.00391 z"
     id="path959" /><path
     style="fill:#2b1100;stroke-width:0.00390625"
     d="m 23.930956,6.8086891 v -1.78125 h 2.08789 2.087891 v -0.013672 -0.013672 h 2.148438 2.148437 V 6.795017 8.5899388 h -4.236328 -4.236328 z"
     id="path961" /><path
     style="fill:#2b1100;stroke-width:0.00390625"
     d="M 23.930956,6.7969704 V 5.0040016 h 2.083984 2.083985 v 0.00954 c 0,0.00524 0.0018,0.010621 0.0039,0.011949 0.0023,0.00144 0.0039,-0.00321 0.0039,-0.011488 v -0.013902 h 2.148438 2.148437 v 1.7949219 1.7949218 h -4.236328 -4.236328 z"
     id="path963" /><path
     style="fill:#2b1100;stroke-width:0.00390625"
     d="M 23.930956,6.7950173 V 5.0000954 h 2.083984 2.083985 v 0.013672 c 0,0.00752 0.0018,0.013672 0.0039,0.013672 0.0021,0 0.0039,-0.00615 0.0039,-0.013672 v -0.013672 h 2.148438 2.148437 v 1.7949219 1.7949218 h -4.236328 -4.236328 z"
     id="path965" /><path
     style="fill:#2b1100;stroke-width:0.00390625"
     d="m 36.580606,8.9906533 c 0.0011,-0.00568 0.0079,-0.00649 0.054,-0.00644 0.029,3.91e-5 0.04307,-5.375e-4 0.03125,-0.00127 -0.04122,-0.00256 -0.06259,-0.00593 -0.06037,-0.00952 0.0012,-0.00199 -0.0028,-0.00362 -0.0089,-0.00362 -0.0061,0 -0.01337,-0.0022 -0.01605,-0.00488 -0.0039,-0.0039 -0.778071,-0.00467 -3.850391,-0.00383 l -3.845505,0.00105 v -1.981195 -1.981195 l 2.639648,0.0026 c 1.451807,0.00143 3.182373,0.0026 3.845703,0.0026 l 1.206055,3e-7 v 0.011719 0.011719 h 0.390625 0.390625 v 1.9667521 1.9667522 l -0.155273,0.00107 -0.155274,0.00107 0.155274,9.305e-4 0.155273,9.304e-4 v 0.00977 0.00977 l -0.27832,7.934e-4 -0.278321,7.933e-4 0.276044,0.00214 c 0.151824,0.00117 0.277361,0.00345 0.278972,0.00507 0.0016,0.00161 -0.172397,0.00293 -0.386682,0.00293 -0.361259,0 -0.389518,-4.73e-4 -0.388347,-0.0065 z m 0.158536,-0.0079 c -0.0037,-9.777e-4 -0.01077,-0.00101 -0.01563,-7.81e-5 -0.0049,9.344e-4 -0.0018,0.00173 0.0068,0.00178 0.0086,4.3e-5 0.01257,-7.211e-4 0.0088,-0.0017 z"
     id="path967" /><path
     style="fill:#2b1100;stroke-width:0.00390625"
     d="m 36.630306,8.980301 c -0.02401,-0.00263 -0.03697,-0.00538 -0.03125,-0.00664 0.009,-0.00199 0.0089,-0.00219 -0.0021,-0.00268 -0.0066,-2.93e-4 -0.01411,-0.00273 -0.0168,-0.00541 -0.0039,-0.00389 -0.561375,-0.0051 -2.755664,-0.00594 -1.51293,-5.805e-4 -2.796045,-0.00102 -2.851367,-9.765e-4 l -0.100586,7.85e-5 V 6.9808674 5.0030006 l 1.149087,-0.0026 c 0.631998,-0.00143 2.538345,-0.0026 4.236328,-0.0026 h 3.087241 v 1.9804579 1.9804577 l -0.688477,9.984e-4 -0.688476,9.985e-4 0.688476,9.656e-4 0.688477,9.656e-4 v 0.01175 0.01175 L 38.008236,8.985465 c -0.976352,-4.933e-4 -1.347976,-0.00189 -1.37793,-0.00516 z m 0.797852,-0.016682 c -0.06499,-6.015e-4 -0.171338,-6.015e-4 -0.236328,0 -0.06499,6.012e-4 -0.01182,0.00109 0.118164,0.00109 0.12998,0 0.183154,-4.918e-4 0.118164,-0.00109 z M 36.579525,5.0153748 v -0.013672 l -2.088867,9.729e-4 -2.088868,9.73e-4 2.086915,9.838e-4 2.086914,9.838e-4 v 0.011715 c 0,0.00644 8.78e-4,0.011715 0.002,0.011715 0.0011,0 0.002,-0.00615 0.002,-0.013672 z m 2.108398,0.010742 c -0.244384,-5.554e-4 -0.644287,-5.554e-4 -0.888672,0 -0.244384,5.555e-4 -0.04443,0.00101 0.444336,0.00101 0.48877,0 0.688721,-4.545e-4 0.444336,-0.00101 z"
     id="path969" /><path
     style="fill:#2b1100;stroke-width:0.00390625"
     d="M 31.171293,8.9813034 V 8.9656784 L 33.871488,8.965 C 36.45741,8.9643502 36.516799,8.9641824 35.274808,8.96103 34.561527,8.95922 33.346439,8.9588 32.574613,8.9600984 l -1.40332,0.00236 v -1.2483899 -1.24839 h 4.236328 4.236328 v 1.2622484 1.2622484 l -1.400361,-0.0018 c -0.770198,-9.911e-4 -1.399536,-9.766e-4 -1.398527,3.13e-5 10e-4,0.00101 0.440888,0.00303 0.97751,0.00449 l 0.975675,0.00266 -1.108168,6.894e-4 c -0.609492,3.793e-4 -1.109034,-7.129e-4 -1.110094,-0.00243 -0.0025,-0.00409 0.0031,-0.01311 0.0077,-0.012253 0.002,3.68e-4 0.0097,2.211e-4 0.01722,-3.257e-4 0.0099,-7.184e-4 0.01121,-0.00147 0.0048,-0.0027 -0.0049,-9.353e-4 -0.0078,-0.00333 -0.0066,-0.00533 0.0012,-0.00199 -0.0021,-0.00363 -0.0074,-0.00363 -0.0053,0 -0.01246,-0.00107 -0.01586,-0.00237 -0.005,-0.00192 -0.0062,6.477e-4 -0.0062,0.013672 v 0.016044 h -2.701171 -2.701172 z m 5.495117,0.00121 c -0.0038,-9.825e-4 -0.0099,-9.825e-4 -0.01367,0 -0.0038,9.825e-4 -6.84e-4,0.00179 0.0068,0.00179 0.0075,0 0.0106,-8.039e-4 0.0068,-0.00179 z m 0.07023,3.328e-4 c -0.0013,-0.0013 -0.0047,-0.00144 -0.0075,-3.082e-4 -0.0031,0.00125 -0.0022,0.00217 0.0024,0.00236 0.0041,1.695e-4 0.0064,-7.537e-4 0.0051,-0.00205 z m 0.646821,-0.020094 c -0.03907,-6.366e-4 -0.104107,-6.376e-4 -0.144531,-2.2e-6 -0.04042,6.354e-4 -0.0085,0.00116 0.07103,0.00116 0.07949,1.2e-6 0.112566,-5.187e-4 0.0735,-0.00116 z"
     id="path971" /><path
     style="fill:#2b1100;stroke-width:0.00390625"
     d=""
     id="path973" /><path
     style="fill:#2b1100;stroke-width:0.00390625"
     d=""
     id="path975" /><path
     style="fill:#2b1100;stroke-width:0.00390625"
     d="m 31.171293,8.9813042 v -0.015626 l 2.444336,-6.726e-4 c 2.19069,-6.028e-4 2.343201,-0.00102 1.469726,-0.004 -0.536035,-0.00183 -1.635986,-0.00227 -2.444336,-9.888e-4 l -1.469726,0.00234 V 7.7140171 6.4656784 h 4.236328 4.236328 v 1.2622285 1.2622285 l -1.380765,-0.00172 c -0.759421,-9.447e-4 -1.379969,-9.218e-4 -1.378997,5.08e-5 9.73e-4,9.726e-4 0.432034,0.00296 0.957914,0.00442 0.614149,0.0017 -0.407868,0.0029 -2.857332,0.00335 l -3.813476,6.932e-4 z m 5.493164,0.00132 c -0.0027,-0.00108 -0.0071,-0.00108 -0.0098,0 -0.0027,0.00108 -4.88e-4,0.00197 0.0049,0.00197 0.0054,0 0.0076,-8.866e-4 0.0049,-0.00197 z m -0.0718,-0.00734 c 0.0042,0.00134 0.0088,6.054e-4 0.01018,-0.00163 0.0015,-0.0024 -0.0015,-0.00407 -0.0072,-0.00407 -0.0053,0 -0.01236,-0.00103 -0.01564,-0.00229 -0.0042,-0.00162 -0.0058,2.35e-5 -0.0054,0.00566 4.42e-4,0.00587 0.0019,0.00689 0.0055,0.00392 0.0027,-0.00222 0.0083,-0.00293 0.01253,-0.0016 z m 0.759517,-0.012513 c -0.02191,-6.95e-4 -0.05882,-6.977e-4 -0.08203,-3.9e-6 -0.02321,6.918e-4 -0.0053,0.00126 0.03983,0.00126 0.04512,3.2e-6 0.06411,-5.629e-4 0.0422,-0.00126 z"
     id="path977" /><path
     style="fill:#2b1100;stroke-width:0.00390625"
     d="m 31.171293,8.9813042 v -0.015626 l 2.206054,-6.871e-4 c 1.766025,-5.5e-4 2.07204,-0.00132 1.53418,-0.00389 -0.369531,-0.00176 -1.362256,-0.00213 -2.206055,-8.163e-4 l -1.534179,0.00238 V 7.7141751 6.4656784 h 4.236328 4.236328 v 1.2617188 1.2617187 l -1.166992,9.615e-4 c -1.128369,9.296e-4 -1.142364,0.00103 -0.422852,0.00294 0.409278,0.00109 -0.971924,0.00241 -3.069336,0.00295 l -3.813476,9.655e-4 z m 6.004883,0.00489 c -0.03706,-6.42e-4 -0.09771,-6.42e-4 -0.134766,0 -0.03706,6.42e-4 -0.0067,0.00117 0.06738,0.00117 0.07412,0 0.104443,-5.253e-4 0.06738,-0.00117 z m -0.513754,-0.00334 c -0.0013,-0.0013 -0.0047,-0.00144 -0.0075,-3.082e-4 -0.0031,0.00125 -0.0022,0.00217 0.0024,0.00236 0.0041,1.696e-4 0.0064,-7.536e-4 0.0051,-0.00205 z m -0.07818,-0.010742 c -0.0021,-0.00638 -0.01061,-0.00762 -0.01061,-0.00155 0,0.00304 0.0027,0.00553 0.006,0.00553 0.0033,0 0.0054,-0.00179 0.0046,-0.00399 z m 0.01674,0.00138 c 0,-0.00215 -0.0017,-0.00391 -0.0037,-0.00391 -0.002,0 -0.0048,0.00176 -0.0061,0.00391 -0.0013,0.00215 3.24e-4,0.00391 0.0037,0.00391 0.0033,0 0.0061,-0.00176 0.0061,-0.00391 z m 0.719727,-0.010569 c -0.0048,-9.311e-4 -0.01274,-9.311e-4 -0.01758,0 -0.0048,9.31e-4 -8.79e-4,0.00169 0.0088,0.00169 0.0097,0 0.01362,-7.618e-4 0.0088,-0.00169 z"
     id="path979" /><path
     style="fill:#2b1100;stroke-width:0.00390625"
     d="m 31.171293,8.9813042 v -0.015626 h 1.990885 c 1.094987,0 1.989987,-8.987e-4 1.988889,-0.002 -0.0011,-0.0011 -0.896997,-0.00199 -1.990886,-0.00198 l -1.988888,1.93e-5 V 7.7137006 6.4656784 h 4.236328 4.236328 v 1.2617188 1.2617187 l -1.024414,9.58e-4 c -0.930958,8.705e-4 -0.969534,0.00114 -0.422852,0.00294 0.33086,0.00109 -1.114502,0.00242 -3.211914,0.00295 l -3.813476,9.621e-4 z m 5.408036,-0.00754 c 0.0012,-0.002 4.61e-4,-0.00474 -0.0017,-0.00609 -0.0022,-0.00135 -0.004,2.867e-4 -0.004,0.00364 0,0.00686 0.0023,0.00787 0.0057,0.00245 z m 0.01774,-2.699e-4 c 0,-0.00215 -0.0018,-0.00391 -0.0039,-0.00391 -0.0021,0 -0.0039,0.00176 -0.0039,0.00391 0,0.00215 0.0018,0.00391 0.0039,0.00391 0.0021,0 0.0039,-0.00176 0.0039,-0.00391 z m 0.719727,-0.0104 c -0.0027,-0.00108 -0.0071,-0.00108 -0.0098,0 -0.0027,0.00108 -4.88e-4,0.00197 0.0049,0.00197 0.0054,0 0.0076,-8.867e-4 0.0049,-0.00197 z"
     id="path981" /><path
     style="fill:#2b1100;stroke-width:0.00390625"
     d="m 10.96774,5.0277198 c 1.072608,-5.414e-4 2.827783,-5.414e-4 3.900391,0 1.072607,5.414e-4 0.195019,9.843e-4 -1.950195,9.843e-4 -2.145215,0 -3.0228032,-4.429e-4 -1.950196,-9.843e-4 z"
     id="path983" /><path
     style="fill:#2b1100;stroke-width:0.00390625"
     d="M 9.0038731,6.8060401 V 5.0033057 h 3.9062499 3.90625 v 0.011719 0.011719 H 12.915982 9.0155918 v 1.7910156 c 0,1.5894098 -6.596e-4,1.7910157 -0.00586,1.7910157 -0.0052,0 -0.00586,-0.202908 -0.00586,-1.8027344 z"
     id="path985" /><path
     style="fill:#2b1100;stroke-width:0.00390625"
     d="m 9.0187082,6.8187354 c -7.683e-4,-1.7411377 -8.593e-4,-1.7613865 -0.00333,-0.7412109 -0.0014,0.5768554 -0.00315,1.3784179 -0.0039,1.78125 l -0.00136,0.7324218 -0.00254,-0.9042968 c -0.0014,-0.4973633 -0.0028,-1.3055176 -0.00312,-1.7958985 L 9.0038731,4.9993995 h 3.9062499 3.90625 v 0.013668 0.013668 l -2.155273,9.836e-4 -2.155274,9.836e-4 2.155274,9.73e-4 2.155273,9.731e-4 V 6.819712 8.6087745 H 12.917936 9.0194981 Z"
     id="path987" /><path
     style="fill:#2b1100;stroke-width:0.00390625"
     d="m 9.0033934,8.7952987 c 8.105e-4,-0.1144047 0.0028,-0.2027352 0.00442,-0.1962899 l 0.00295,0.011719 0.00138,-0.011719 c 7.6e-4,-0.00645 0.00231,0.072656 0.00345,0.1757813 0.00114,0.103125 0.00248,-0.520459 0.00299,-1.3857422 l 9.197e-4,-1.5732422 h 3.8984379 3.898437 V 7.397837 8.9798682 l -1.973633,5.227e-4 c -1.085498,2.875e-4 -2.021972,0.00172 -2.081054,0.00318 -0.05908,0.00146 0.829052,0.00298 1.973632,0.00338 2.078207,7.299e-4 2.081055,7.416e-4 2.081055,0.00854 0,0.00781 -0.0026,0.00781 -3.907227,0.00781 l -3.9072261,9e-7 z"
     id="path989" /><path
     style="fill:#2b1100;stroke-width:0.00390625"
     d="m 9.0044203,8.8895235 c 3.011e-4,-0.063103 0.00173,-0.1516475 0.00318,-0.1967647 l 0.00263,-0.082031 10e-4,0.080078 c 5.512e-4,0.044043 0.00251,0.083594 0.00436,0.087891 0.00188,0.00438 0.00348,-0.6455329 0.00363,-1.477539 L 9.0194949,5.8158062 H 12.917933 16.81637 V 7.397837 8.9798682 l -1.725586,2.746e-4 c -0.965967,1.535e-4 -1.722147,0.00175 -1.717773,0.00363 0.0043,0.00185 0.549366,0.00348 1.211266,0.00363 1.389457,3.168e-4 2.220165,0.00377 2.202796,0.00916 -0.0072,0.00223 -1.515984,0.00442 -3.897461,0.00566 l -3.8857421,0.00203 z m 3.8295307,0.09283 c 0.0064,-6.795e-4 -0.0085,-0.00149 -0.0332,-0.0018 -0.02471,-3.11e-4 -0.04291,7.261e-4 -0.04044,0.0023 0.0041,0.00266 0.0464,0.00237 0.07365,-5.038e-4 z m 0.350586,-0.00151 c -0.05425,-6.126e-4 -0.143017,-6.126e-4 -0.197266,0 -0.05425,6.126e-4 -0.0099,0.00111 0.09863,0.00111 0.108496,0 0.152881,-5.012e-4 0.09863,-0.00111 z"
     id="path991" /><path
     style="fill:#2b1100;stroke-width:0.00390625"
     d="m 13.004297,6.9839792 v -1.984375 h 1.904297 1.904297 l 6.25e-4,0.014648 c 6.15e-4,0.014422 6.49e-4,0.014452 0.0022,0.00195 l 0.0016,-0.012695 h 1.032956 1.032955 v 0.011719 0.011719 h 1.296875 1.296875 V 6.9937421 8.960539 h -2.332031 c -1.552083,0 -2.332031,0.00131 -2.332031,0.00391 0,0.0026 -0.63737,0.00391 -1.904297,0.00391 h -1.904297 z m 2.59082,-1.9560546 c -0.43667,-5.476e-4 -1.151221,-5.476e-4 -1.58789,0 -0.43667,5.475e-4 -0.07939,9.954e-4 0.793945,9.954e-4 0.87334,0 1.230615,-4.479e-4 0.793945,-9.954e-4 z"
     id="path993" /><path
     style="fill:#2b1100;stroke-width:0.00390625"
     d="m 13.004297,6.9839792 v -1.984375 h 1.904297 c 1.789675,0 1.904297,3.997e-4 1.904297,0.00664 0,0.00516 0.001,0.0056 0.0047,0.00195 0.0036,-0.00362 0.238889,-0.00469 1.035156,-0.00469 h 1.030469 l 5.85e-4,0.012695 c 5.45e-4,0.011816 6.98e-4,0.011951 0.0022,0.00195 l 0.0016,-0.010742 h 1.294663 1.294662 v 1.9765625 1.9765625 h -2.329848 c -1.549018,0 -2.330656,0.00131 -2.332261,0.00391 -0.0016,0.0026 -0.641317,0.00391 -1.906481,0.00391 H 13.00427 Z m 1.229492,-1.9560335 c -0.0188,-7.161e-4 -0.04956,-7.161e-4 -0.06836,0 -0.0188,7.161e-4 -0.0034,0.0013 0.03418,0.0013 0.0376,0 0.05298,-5.859e-4 0.03418,-0.0013 z m 1.134766,-2.06e-5 c -0.129444,-5.71e-4 -0.34126,-5.71e-4 -0.470703,0 -0.129444,5.71e-4 -0.02354,0.00104 0.235351,0.00104 0.258887,0 0.364795,-4.671e-4 0.235352,-0.00104 z"
     id="path995" /><path
     style="fill:#2b1100;stroke-width:0.00390625"
     d="m 13.004297,8.9931531 v -0.00904 l 0.102539,-0.00111 0.102539,-0.00111 -0.102539,-9.088e-4 -0.102539,-9.089e-4 V 7.2652292 5.5503854 h 4.236328 4.236328 V 7.2554177 8.96045 l -1.294596,0.00102 c -0.712029,5.623e-4 -1.296011,0.00244 -1.297739,0.00416 -0.0017,0.00173 -5.56e-4,0.00478 0.0026,0.00678 0.0035,0.00222 0.402961,0.00366 1.0243,0.00369 0.560205,3.12e-5 1.018555,0.00153 1.018555,0.00332 0,0.00354 -1.742868,0.010307 -2.480469,0.00963 -0.250293,-2.309e-4 -0.447607,3.91e-4 -0.438476,0.00138 0.0091,9.91e-4 0.0166,0.00346 0.0166,0.00548 0,0.00229 0.649398,0.00405 1.723633,0.00466 0.947998,5.395e-4 -0.182275,0.00112 -2.511719,0.0013 l -4.235351,3.2e-4 z m 3.8125,0.00241 c 0,-0.0026 -0.0073,-0.00311 -0.02051,-0.00142 -0.02771,0.00354 -0.02828,0.00546 -0.0016,0.00546 0.01264,0 0.02214,-0.00173 0.02214,-0.00404 z m 1.172851,-0.00245 c -0.0027,-0.00108 -0.0071,-0.00108 -0.0098,0 -0.0027,0.00108 -4.89e-4,0.00197 0.0049,0.00197 0.0054,0 0.0076,-8.867e-4 0.0049,-0.00197 z m -0.647461,-0.00601 c 0.143946,-4.343e-4 -0.09863,-0.00193 -0.539062,-0.00333 -1.160078,-0.00369 -3.429535,-0.00419 -3.426107,-7.63e-4 0.0033,0.00327 2.633647,0.00823 3.285482,0.00619 0.229883,-7.189e-4 0.535742,-0.00166 0.679687,-0.0021 z m -0.526709,-0.019722 c -0.0011,-0.00269 -0.002,-4.883e-4 -0.002,0.00488 0,0.00537 8.87e-4,0.00757 0.002,0.00488 0.0011,-0.00269 0.0011,-0.00708 0,-0.00977 z m 1.599952,-0.00586 c -0.08433,-5.878e-4 -0.222315,-5.878e-4 -0.306641,0 -0.08433,5.877e-4 -0.01533,0.00107 0.15332,0.00107 0.168653,0 0.237647,-4.808e-4 0.153321,-0.00107 z"
     id="path997" /><path
     style="fill:#2b1100;stroke-width:0.00390625"
     d="m 13.004297,8.9943929 v -0.010264 l 0.08691,-0.00113 0.08691,-0.00113 -0.08691,-8.979e-4 -0.08691,-8.98e-4 V 7.2652292 5.5503854 h 4.236328 4.236328 v 1.7050721 1.7050721 l -1.245117,9.887e-4 -1.245117,9.887e-4 1.245117,9.705e-4 c 1.103735,8.602e-4 1.245117,0.00164 1.245117,0.00683 0,0.00518 -0.08256,0.00597 -0.71582,0.00681 -0.677778,9.009e-4 -0.692258,0.00106 -0.272461,0.00295 0.442119,0.002 0.441354,0.00201 -0.273438,0.00361 l -0.716797,0.0016 0.84375,0.00314 c 0.464063,0.00173 0.909668,0.00363 0.990235,0.00423 0.08057,6e-4 -0.902049,0.00226 -2.183589,0.0037 -1.28154,0.00143 -2.330808,0.00187 -2.331706,9.765e-4 -8.98e-4,-8.977e-4 -8.79e-4,-0.00239 4.3e-5,-0.00331 9.21e-4,-9.211e-4 0.125579,-0.00312 0.277018,-0.00488 0.264621,-0.00308 0.249256,-0.0033 -0.394579,-0.00557 -0.904681,-0.00319 -3.337301,-0.00274 -3.242187,6.017e-4 0.04189,0.00147 0.622852,0.00291 1.291016,0.00319 1.298236,5.571e-4 2.064481,0.004 2.039062,0.00915 -0.0086,0.00174 -0.86333,0.00429 -1.899414,0.00565 l -1.883789,0.00249 z m 4.985351,-0.00128 c -0.0027,-0.00108 -0.0071,-0.00108 -0.0098,0 -0.0027,0.00108 -4.89e-4,0.00197 0.0049,0.00197 0.0054,0 0.0076,-8.867e-4 0.0049,-0.00197 z m 0.140838,-0.00423 c -0.02191,-6.95e-4 -0.05882,-6.976e-4 -0.08203,-3.9e-6 -0.02321,6.918e-4 -0.0053,0.00126 0.03983,0.00126 0.04512,3.2e-6 0.06411,-5.628e-4 0.04221,-0.00126 z m 0.607209,-1.56e-5 c -0.09399,-5.828e-4 -0.247802,-5.828e-4 -0.341797,0 -0.09399,5.829e-4 -0.01709,0.00106 0.170899,0.00106 0.187988,0 0.264892,-4.769e-4 0.170898,-0.00106 z m -5.544922,-0.00747 c -0.0027,-0.00108 -0.0071,-0.00108 -0.0098,0 -0.0027,0.00108 -4.89e-4,0.00197 0.0049,0.00197 0.0054,0 0.0076,-8.866e-4 0.0049,-0.00197 z m 5.821289,-0.00905 c -0.06875,-0.00112 -0.119726,-0.00309 -0.113281,-0.00438 0.01129,-0.00226 0.01118,-0.00237 -0.0029,-0.00293 -0.01374,-5.49e-4 -0.01806,0.00251 -0.01205,0.00853 0.0014,0.00143 0.059,0.0022 0.12793,0.00171 l 0.125325,-8.94e-4 z m -0.831054,-0.010807 c -0.02095,-7.024e-4 -0.05523,-7.024e-4 -0.07617,0 -0.02095,7.024e-4 -0.0038,0.00128 0.03809,0.00128 0.04189,0 0.05903,-5.747e-4 0.03809,-0.00128 z m 0.215085,-7.8e-6 c -0.03156,-6.558e-4 -0.08429,-6.573e-4 -0.117188,-3.2e-6 -0.0329,6.541e-4 -0.0071,0.00119 0.05738,0.00119 0.06445,1.8e-6 0.09137,-5.334e-4 0.05981,-0.00119 z"
     id="path999" /><path
     style="fill:#2b1100;stroke-width:0.00390625"
     d="m 21.500638,8.9996265 c 0.833594,-0.00108 1.464649,-0.00281 1.402344,-0.00384 l -0.113281,-0.00188 0.09863,-0.00111 c 0.06125,-6.916e-4 0.09863,-0.00257 0.09863,-0.00495 0,-0.00242 -0.04659,-0.00413 -0.125977,-0.00462 -0.08448,-5.225e-4 -0.111179,-0.00155 -0.08106,-0.00313 0.04011,-0.0021 0.04169,-0.00243 0.01477,-0.00313 -0.02422,-6.259e-4 -0.02973,-0.00187 -0.02802,-0.00632 0.0016,-0.0042 -0.0029,-0.00613 -0.01868,-0.00798 -0.01144,-0.00134 -0.823245,-0.00192 -1.804007,-0.00129 l -1.783203,0.00115 1.793945,9.723e-4 c 1.591582,8.626e-4 1.793945,0.00163 1.793945,0.00683 0,0.00519 -0.141372,0.00597 -1.245117,0.00681 -0.714149,5.445e-4 -1.071876,0.00181 -0.838867,0.00296 0.390615,0.00193 0.379114,0.00207 -0.298828,0.00374 l -0.705078,0.00173 0.613281,0.00256 c 0.337305,0.00141 1.033398,0.00313 1.546875,0.00383 0.513477,7.005e-4 -0.383008,0.00246 -1.992188,0.00392 -1.609179,0.00145 -2.926513,0.00202 -2.927408,0.00125 -8.96e-4,-7.698e-4 -8.65e-4,-0.00216 6.8e-5,-0.0031 9.33e-4,-9.33e-4 0.07989,-0.00328 0.175456,-0.00522 l 0.173759,-0.00353 -0.174804,-6.346e-4 -0.174805,-6.347e-4 V 7.6617359 6.3394703 h 4.236328 4.236328 v 1.328125 1.328125 l -1.143554,9.667e-4 -1.143555,9.667e-4 1.144531,0.00197 c 0.655256,0.00113 -0.0077,0.00197 -1.550781,0.00197 -2.031258,-1.9e-6 -2.321902,-4.874e-4 -1.179688,-0.00197 z m -3.510823,-0.00627 c -0.0013,-0.0013 -0.0047,-0.00144 -0.0075,-3.082e-4 -0.0031,0.00125 -0.0022,0.00217 0.0024,0.00236 0.0041,1.695e-4 0.0064,-7.537e-4 0.0051,-0.00205 z m 0.125081,-0.00444 c -0.0145,-7.516e-4 -0.03823,-7.516e-4 -0.05273,0 -0.0145,7.516e-4 -0.0026,0.00137 0.02637,0.00137 0.029,0 0.04087,-6.149e-4 0.02637,-0.00137 z m 0.544922,-3.13e-5 c -0.05425,-6.126e-4 -0.143017,-6.126e-4 -0.197265,0 -0.05425,6.126e-4 -0.0099,0.00111 0.09863,0.00111 0.108496,0 0.152881,-5.012e-4 0.09863,-0.00111 z m 5.639649,-0.00488 c 0,-0.00259 -0.189909,-0.00397 -0.561524,-0.0041 -0.675955,-2.339e-4 -0.664913,-2.98e-4 -0.679087,0.00394 -0.0065,0.00196 0.253701,0.00354 0.614634,0.00373 0.414938,2.225e-4 0.625977,-9.813e-4 0.625977,-0.00357 z m -5.304688,-0.011621 c -0.05693,-0.00113 -0.09912,-0.00313 -0.09375,-0.00445 0.0081,-0.00199 0.0073,-0.00249 -0.0049,-0.00293 -0.01375,-4.991e-4 -0.01806,0.00257 -0.01204,0.00858 0.0014,0.00143 0.05021,0.00221 0.108398,0.00173 l 0.105795,-8.787e-4 z m -0.82308,-0.010798 c -0.01334,-7.604e-4 -0.03619,-7.66e-4 -0.05078,-1.17e-5 -0.01459,7.536e-4 -0.0037,0.00138 0.02425,0.00138 0.02793,7.8e-6 0.03987,-6.098e-4 0.02653,-0.00137 z m 0.203166,-1.95e-5 c -0.01976,-7.075e-4 -0.05316,-7.106e-4 -0.07422,-7.8e-6 -0.02106,7.037e-4 -0.0049,0.00128 0.03593,0.00129 0.04082,3.8e-6 0.05805,-5.72e-4 0.03829,-0.00128 z"
     id="path1001" /><path
     style="fill:#2b1100;stroke-width:0.00390625"
     d="m 16.901029,8.9963683 c 0,-0.00324 0.01665,-0.00471 0.05762,-0.00509 0.03169,-2.953e-4 0.100684,-0.00172 0.153321,-0.00317 0.09557,-0.00263 0.09548,-0.00264 -0.05762,-0.00337 L 16.90103,8.9840068 V 7.6617359 6.3394703 h 4.236328 4.236328 v 1.3278636 1.3278637 l -1.229492,0.00124 c -1.212974,0.00122 -1.370095,6.671e-4 -1.338867,-0.00472 0.0086,-0.00148 -0.03535,-0.00256 -0.09766,-0.0024 -0.112465,2.977e-4 -0.112704,3.156e-4 -0.0332,0.0025 0.04404,0.00121 -0.856984,0.00258 -2.002281,0.00305 -1.145297,4.698e-4 -2.462338,0.00202 -2.926758,0.00346 -0.641917,0.00198 -0.844399,0.00151 -0.844399,-0.00195 z m 1.088786,-0.00301 c -0.0013,-0.0013 -0.0047,-0.00144 -0.0075,-3.082e-4 -0.0031,0.00125 -0.0022,0.00217 0.0024,0.00236 0.0041,1.695e-4 0.0064,-7.537e-4 0.0051,-0.00205 z m 0.115316,-0.00441 c -0.0091,-8.224e-4 -0.02407,-8.224e-4 -0.0332,0 -0.0091,8.224e-4 -0.0017,0.0015 0.0166,0.0015 0.01826,0 0.02573,-6.729e-4 0.0166,-0.0015 z m 0.480468,-3.13e-5 c -0.01343,-7.628e-4 -0.0354,-7.628e-4 -0.04883,0 -0.01343,7.628e-4 -0.0024,0.00139 0.02441,0.00139 0.02686,0 0.03784,-6.241e-4 0.02441,-0.00139 z m 3.581055,-0.00101 c 0,-0.00237 -0.01693,-0.00391 -0.04297,-0.00391 -0.02604,0 -0.04297,-0.00154 -0.04297,-0.00391 0,-0.00259 -0.247102,-0.00359 -0.735352,-0.00298 -0.414862,5.245e-4 -0.634906,0.00182 -0.504883,0.00298 0.167696,0.00149 0.06024,0.00256 -0.394531,0.00393 l -0.625,0.00188 0.464844,0.002 c 0.933928,0.00402 1.880859,0.00402 1.880859,0 z m 0.818513,-2.488e-4 c 0.0018,-0.00292 -0.02053,-0.00334 -0.07496,-0.00143 -0.04264,0.0015 -0.07827,0.00337 -0.07916,0.00416 -8.95e-4,7.888e-4 0.03284,0.00143 0.07496,0.00143 0.04991,0 0.07749,-0.00145 0.07916,-0.00416 z m 1.296721,-0.00366 c 0.0016,-0.0026 -0.203161,-0.00391 -0.611328,-0.00391 -0.408166,0 -0.612933,0.00131 -0.611328,0.00391 0.0016,0.00258 0.209599,0.00391 0.611328,0.00391 0.401729,0 0.609736,-0.00133 0.611328,-0.00391 z m -1.421875,-0.00407 c -0.03223,-0.00151 -0.06705,-0.00296 -0.07738,-0.00324 -0.01269,-3.406e-4 -0.01791,-0.00191 -0.0161,-0.00485 0.0028,-0.00458 -0.0047,-0.011121 -0.01296,-0.011222 -0.0027,-3.13e-5 -0.0049,0.00346 -0.0049,0.00775 0,0.00748 -0.0029,0.00785 -0.06738,0.00863 l -0.06738,8.214e-4 0.06055,0.00216 c 0.0333,0.00119 0.101855,0.00228 0.152343,0.00242 0.08629,2.426e-4 0.08828,9.38e-5 0.0332,-0.00248 z m -3.882812,-0.00754 c -0.04727,-0.00114 -0.08242,-0.00318 -0.07813,-0.00454 0.0059,-0.00186 0.0047,-0.00259 -0.0049,-0.00293 -0.01253,-4.472e-4 -0.0173,0.00485 -0.0078,0.00868 0.0027,0.00108 0.04355,0.00172 0.09082,0.00142 l 0.08594,-5.529e-4 z m -0.815326,-0.010767 c -0.008,-8.394e-4 -0.02206,-8.51e-4 -0.03125,-2.74e-5 -0.0092,8.252e-4 -0.0026,0.00151 0.01455,0.00153 0.01719,1.56e-5 0.0247,-6.61e-4 0.0167,-0.0015 z m 0.195209,-4.73e-5 c -0.01235,-7.752e-4 -0.03257,-7.752e-4 -0.04492,0 -0.01235,7.752e-4 -0.0022,0.00141 0.02246,0.00141 0.02471,0 0.03481,-6.343e-4 0.02246,-0.00141 z m 3.551098,-4.3e-5 c -0.355929,-5.498e-4 -0.939523,-5.498e-4 -1.296875,0 -0.357352,5.498e-4 -0.06614,9.997e-4 0.647144,9.997e-4 0.713281,0 1.00566,-4.498e-4 0.649731,-9.997e-4 z"
     id="path1003" /><path
     style="fill:#2b1100;stroke-width:0.00390625"
     d="m 16.901029,8.9963683 c 0,-0.00312 0.01077,-0.00456 0.03418,-0.00457 0.0553,-3.13e-5 0.229348,-0.00483 0.23112,-0.00638 8.95e-4,-7.796e-4 -0.05843,-0.00142 -0.131836,-0.00142 H 16.901029 V 7.6617359 6.3394703 h 4.236328 4.236328 v 1.3278636 1.3278637 l -1.229492,0.00124 c -1.240065,0.00125 -1.362623,8.18e-4 -1.344726,-0.00472 0.0054,-0.00166 -0.0333,-0.00282 -0.08594,-0.00258 l -0.0957,4.47e-4 0.06836,0.00223 c 0.0376,0.00123 -0.868702,0.00261 -2.013999,0.00307 -1.145297,4.6e-4 -2.462338,0.00201 -2.926758,0.00344 -0.641917,0.00198 -0.844399,0.00151 -0.844399,-0.00195 z m 1.198242,-0.00735 c -0.0059,-8.95e-4 -0.01558,-8.95e-4 -0.02148,0 -0.0059,8.95e-4 -0.0011,0.00163 0.01074,0.00163 0.01182,0 0.01665,-7.323e-4 0.01074,-0.00163 z m 3.086914,-0.003 c 0,-0.00518 0.04148,-0.006 0.350586,-0.0069 0.192823,-5.602e-4 0.107129,-0.00104 -0.190429,-0.00108 -0.297559,-3.13e-5 -0.48125,8.922e-4 -0.408204,0.00205 0.07305,0.00116 -0.118554,0.00294 -0.425781,0.00396 l -0.558594,0.00185 0.396485,0.00198 c 0.891078,0.00445 0.835937,0.00457 0.835937,-0.00186 z m 0.980469,0.00189 c 0,-0.00215 -0.0069,-0.00391 -0.01539,-0.00391 -0.0085,0 -0.01648,0.00176 -0.01781,0.00391 -0.0015,0.00239 0.0045,0.00391 0.01539,0.00391 0.0098,0 0.01781,-0.00176 0.01781,-0.00391 z m 0.817981,6.119e-4 c 0.0011,-0.00181 -0.03086,-0.00445 -0.07106,-0.00587 -0.107015,-0.00377 -0.149362,-0.00706 -0.146685,-0.011386 0.0025,-0.0041 -0.0055,-0.010546 -0.01332,-0.010641 -0.0027,-3.13e-5 -0.0049,0.00346 -0.0049,0.00775 0,0.00749 -0.0028,0.00784 -0.06738,0.00847 -0.06538,6.356e-4 -0.06616,7.377e-4 -0.02637,0.00343 0.02256,0.00152 0.08145,0.00328 0.13086,0.00391 0.05657,7.149e-4 0.08116,0.0021 0.06641,0.00373 -0.01513,0.00167 0.0038,0.00283 0.05348,0.00325 0.0423,3.613e-4 0.07783,-8.258e-4 0.07895,-0.00264 z m 1.275769,-0.00457 c 0,-0.00252 -0.207633,-0.00386 -0.59984,-0.00386 -0.401358,0 -0.599036,0.0013 -0.597411,0.00393 0.0033,0.00539 1.197251,0.00531 1.197251,-7.3e-5 z m -2.324219,-0.00386 c 0,-0.00215 -0.0019,-0.00391 -0.0041,-0.00391 -0.0023,0 -0.0031,0.00176 -0.0017,0.00391 0.0013,0.00215 0.0032,0.00391 0.0041,0.00391 9.47e-4,0 0.0017,-0.00176 0.0017,-0.00391 z m -2.980468,-0.00685 c -0.04282,-7.967e-4 -0.06249,-0.00245 -0.05859,-0.00493 0.0047,-0.00302 0.0042,-0.00374 -0.0027,-0.00379 -0.01079,-7.54e-5 -0.01533,0.00656 -0.0061,0.00896 0.0038,9.875e-4 0.03501,0.00161 0.06938,0.00138 l 0.0625,-4.196e-4 z m -0.803711,-0.011531 c -0.0048,-9.311e-4 -0.01274,-9.311e-4 -0.01758,0 -0.0048,9.311e-4 -8.79e-4,0.00169 0.0088,0.00169 0.0097,0 0.01362,-7.618e-4 0.0088,-0.00169 z m 0.193359,-4.1e-5 c -0.0059,-8.95e-4 -0.01558,-8.95e-4 -0.02148,0 -0.0059,8.95e-4 -0.0011,0.00163 0.01074,0.00163 0.01182,0 0.01665,-7.323e-4 0.01074,-0.00163 z"
     id="path1005" /><path
     style="fill:#2b1100;stroke-width:0.00390625"
     d="m 16.901029,8.9963683 c 0,-0.00308 0.0098,-0.00456 0.03027,-0.00457 0.05029,-2.73e-5 0.213751,-0.00487 0.215494,-0.00638 8.96e-4,-7.778e-4 -0.05404,-0.00141 -0.12207,-0.00141 H 16.901029 V 7.6617359 6.3394703 h 4.236328 4.236328 v 1.3278636 1.3278637 l -1.229492,0.00124 c -1.298165,0.00131 -1.357803,0.0011 -1.34854,-0.00476 0.0036,-0.00231 -0.02649,-0.00336 -0.08212,-0.00288 l -0.08789,7.695e-4 0.06445,0.00225 c 0.03545,0.00124 -0.869972,0.00262 -2.012047,0.00308 -1.142074,4.561e-4 -2.459115,0.002 -2.926757,0.00343 -0.646381,0.00198 -0.850259,0.00151 -0.850259,-0.00195 z m 1.194336,-0.00725 c -0.0038,-9.825e-4 -0.0099,-9.825e-4 -0.01367,0 -0.0038,9.825e-4 -6.83e-4,0.00179 0.0068,0.00179 0.0075,0 0.0106,-8.039e-4 0.0068,-0.00179 z m 2.765625,0 c -0.0038,-9.825e-4 -0.0099,-9.825e-4 -0.01367,0 -0.0038,9.825e-4 -6.83e-4,0.00179 0.0068,0.00179 0.0075,0 0.0106,-8.039e-4 0.0068,-0.00179 z m 0.09382,-9.85e-5 c -0.0059,-8.913e-4 -0.01642,-9.092e-4 -0.02344,-3.98e-5 -0.007,8.693e-4 -0.0022,0.0016 0.01067,0.00162 0.01289,2.35e-5 0.01863,-6.894e-4 0.01276,-0.00158 z m 0.220633,-3.51e-5 c -0.007,-8.665e-4 -0.01841,-8.665e-4 -0.02539,0 -0.007,8.665e-4 -0.0013,0.00158 0.0127,0.00158 0.01396,0 0.01968,-7.09e-4 0.0127,-0.00158 z m 0.989258,-0.00108 c 0.0015,-0.00239 -0.0045,-0.00391 -0.0154,-0.00391 -0.0098,0 -0.01781,0.00176 -0.01781,0.00391 0,0.00215 0.0069,0.00391 0.01539,0.00391 0.0085,0 0.01648,-0.00176 0.01781,-0.00391 z m 0.812127,6.045e-4 c 0.0011,-0.00182 -0.02998,-0.00448 -0.06911,-0.00591 -0.0892,-0.00327 -0.144142,-0.00698 -0.141562,-0.00956 0.0031,-0.00307 -0.006,-0.012473 -0.01209,-0.012473 -0.003,0 -0.0054,0.00352 -0.0054,0.00781 0,0.00746 -0.0028,0.00784 -0.06152,0.00843 -0.05794,5.828e-4 -0.05947,7.864e-4 -0.02637,0.00349 0.01934,0.00158 0.07559,0.00331 0.125,0.00384 0.05132,5.529e-4 0.08314,0.00217 0.07422,0.00377 -0.0096,0.00171 0.0097,0.00301 0.04958,0.00335 0.03586,3.051e-4 0.06612,-9.314e-4 0.06724,-0.00275 z m -2.650994,-0.00353 c -0.04673,-6.232e-4 -0.123194,-6.232e-4 -0.169922,0 -0.04673,6.231e-4 -0.0085,0.00113 0.08496,0.00113 0.09346,0 0.131689,-5.099e-4 0.08496,-0.00113 z m 3.901335,-0.00103 c -0.0016,-0.00251 -0.204156,-0.00369 -0.581253,-0.00339 -0.318379,2.543e-4 -0.573598,0.00181 -0.567153,0.00346 0.01808,0.00462 1.151262,0.00456 1.148406,-6.37e-5 z m -2.601531,-0.00546 c 0.0043,-6.788e-4 -0.107324,-0.00114 -0.248046,-0.00102 -0.140723,1.188e-4 -0.239161,0.0012 -0.21875,0.0024 0.03708,0.00218 0.452025,9.544e-4 0.466796,-0.00138 z m 0.310547,0.00161 c 0,-0.00215 -0.0018,-0.00391 -0.0039,-0.00391 -0.0021,0 -0.0039,0.00176 -0.0039,0.00391 0,0.00215 0.0018,0.00391 0.0039,0.00391 0.0021,0 0.0039,-0.00176 0.0039,-0.00391 z m -0.911132,-0.00291 c -0.0188,-7.16e-4 -0.04956,-7.16e-4 -0.06836,0 -0.0188,7.161e-4 -0.0034,0.0013 0.03418,0.0013 0.0376,0 0.05298,-5.859e-4 0.03418,-0.0013 z m -2.129677,-0.00457 c -0.0012,-0.00196 0,-0.00446 0.0027,-0.00555 0.0027,-0.00109 0.0011,-0.00212 -0.0037,-0.00229 -0.01072,-3.859e-4 -0.01542,0.00629 -0.0061,0.00871 0.0038,9.875e-4 0.0074,0.002 0.0081,0.00225 6.64e-4,2.492e-4 2.14e-4,-0.00115 -0.001,-0.00312 z m 0.06927,6.977e-4 c -0.0112,-7.863e-4 -0.03054,-7.935e-4 -0.04297,-1.56e-5 -0.01243,7.775e-4 -0.0033,0.00142 0.02037,0.00143 0.02363,7.8e-6 0.0338,-6.273e-4 0.0226,-0.00141 z m -0.816549,-0.011431 c -0.0027,-0.00108 -0.0071,-0.00108 -0.0098,0 -0.0027,0.00108 -4.88e-4,0.00197 0.0049,0.00197 0.0054,0 0.0076,-8.866e-4 0.0049,-0.00197 z m 0.195313,0 c -0.0027,-0.00108 -0.0071,-0.00108 -0.0098,0 -0.0027,0.00108 -4.88e-4,0.00197 0.0049,0.00197 0.0054,0 0.0076,-8.866e-4 0.0049,-0.00197 z"
     id="path1007" /><path
     style="fill:#2b1100;stroke-width:0.00390625"
     d="M 18.057732,6.6840132 V 5.0062788 h 0.41185 0.411849 l 0.0016,0.010742 c 0.0015,0.010012 0.0017,0.00988 0.0022,-0.00194 l 5.86e-4,-0.012677 -0.415039,-0.00101 c -0.228272,-5.567e-4 0.906835,-0.00101 2.52246,-0.00101 1.615625,2.9e-6 2.671631,4.561e-4 2.34668,0.00101 l -0.59082,0.001 v 0.013659 0.013659 l 0.592773,-9.638e-4 0.592774,-9.639e-4 -0.590821,-10e-4 -0.59082,-0.001 v -0.0091 -0.0091 l 0.885415,-0.0026 c 0.486978,-0.00143 1.33688,-0.0026 1.888672,-0.0026 h 1.003257 v 1.679676 1.6796875 H 22.29406 18.057732 Z"
     id="path1009" /><path
     style="fill:#2b1100;stroke-width:0.00390625"
     d="M 18.057732,6.5277632 V 5.0062788 h 0.411837 0.411838 l 0.0017,0.00879 c 0.0015,0.00754 0.0018,0.00726 0.0022,-0.00195 l 5.32e-4,-0.010742 h 1.93164 1.931641 v 0.013672 0.013672 l 0.512695,-9.619e-4 0.512695,-9.619e-4 -0.510742,-0.00101 -0.510742,-0.00101 v -0.00975 -0.00975 l 0.477539,-9.091e-4 c 0.282695,-5.382e-4 0.413787,-0.00176 0.321289,-0.003 -0.128273,-0.00171 -0.108339,-0.00211 0.111328,-0.00221 0.147168,-6.46e-5 0.245606,8.447e-4 0.21875,0.00202 -0.02686,0.00118 0.558057,0.00164 1.299805,0.00102 l 1.348633,-0.00111 v 1.5235845 1.5235752 h -4.23631 -4.236328 z m 5.833007,-1.5009573 c -0.01987,-7.089e-4 -0.05239,-7.089e-4 -0.07227,0 -0.01987,7.09e-4 -0.0036,0.00129 0.03613,0.00129 0.03975,0 0.056,-5.8e-4 0.03613,-0.00129 z"
     id="path1013" /><path
     style="fill:#2b1100;stroke-width:0.0220971"
     d="M 9.0203155,57.005806 V 55.017068 H 26.27814 43.535965 v 1.988738 1.988738 H 26.27814 9.0203155 Z"
     id="path1017" /><path
     style="fill:#2b1100;stroke-width:0.00390625"
     d="m 18.979533,55.914206 v -0.914062 h 4.236328 4.236328 v 0.914062 0.914063 h -4.236328 -4.236328 z"
     id="path1019" /><path
     style="fill:#2b1100;stroke-width:0.00390625"
     d="M 15.143372,56.251886 V 55.01555 l 1.919922,9.84e-4 c 1.826267,9.37e-4 1.919922,6.51e-4 1.919921,-0.0059 0,-0.0065 0.11291,-0.0068 2.316407,-0.0068 h 2.316406 v 1.242187 1.242188 H 19.3797 15.143372 Z"
     id="path1021" /><path
     style="fill:#2b1100;stroke-width:0.00390625"
     d="m 15.143372,56.244081 v -1.24414 h 1.917968 c 1.68679,0 1.917969,6.93e-4 1.917969,0.0058 0,0.0048 -0.01001,0.006 -0.05762,0.0069 l -0.05762,0.0012 0.05774,8.64e-4 c 0.04827,7.22e-4 0.05811,-9.7e-5 0.05999,-0.005 0.002,-0.0052 0.263184,-0.0059 2.318237,-0.0059 h 2.315988 v 1.242187 1.242188 H 19.3797 15.143372 Z m 1.956054,-1.227539 c -0.306689,-5.51e-4 -0.808545,-5.51e-4 -1.115234,0 -0.306689,5.52e-4 -0.05576,10e-4 0.557617,10e-4 0.613379,0 0.864307,-4.52e-4 0.557617,-10e-4 z m 1.609375,2e-6 c -0.07251,-5.95e-4 -0.191162,-5.95e-4 -0.263671,0 -0.07251,5.95e-4 -0.01318,0.0011 0.131835,0.0011 0.14502,0 0.204346,-4.87e-4 0.131836,-0.0011 z"
     id="path1023" /><path
     style="fill:#2b1100;stroke-width:0.00390625"
     d="m 15.143372,56.244081 v -1.24414 l 1.069336,10e-7 c 1.333987,1e-6 2.755014,0.0042 2.744924,0.0082 -0.0042,0.0016 -0.0059,0.0032 -0.0037,0.0036 0.01636,0.0025 0.02656,0.0015 0.0282,-0.0028 0.0016,-0.0041 0.432329,-0.005 2.317919,-0.005 h 2.315988 v 1.242187 1.242188 H 19.3797 15.143372 Z m 1.764956,-1.227538 c -0.175465,-5.63e-4 -0.463746,-5.63e-4 -0.640625,0 -0.176878,5.62e-4 -0.03332,0.001 0.319028,0.001 0.352344,0 0.497063,-4.6e-4 0.321597,-0.001 z m 1.743833,4e-6 c -0.04351,-6.29e-4 -0.114697,-6.29e-4 -0.158203,0 -0.04351,6.29e-4 -0.0079,0.0011 0.0791,0.0011 0.08701,0 0.122608,-5.14e-4 0.0791,-0.0011 z m 0.224528,-0.0033 c -0.0013,-0.0013 -0.0047,-0.0014 -0.0075,-3.09e-4 -0.0031,0.0012 -0.0022,0.0022 0.0024,0.0024 0.0041,1.7e-4 0.0064,-7.53e-4 0.0051,-0.0021 z"
     id="path1025" /><path
     style="fill:#2b1100;stroke-width:0.00390625"
     d="m 9.0031677,57.000598 v -1.998047 h 3.0683593 c 2.724827,0 3.068359,6.56e-4 3.068359,0.0059 0,0.0052 -0.342664,0.0059 -3.060546,0.0059 H 9.0187927 v 1.990232 1.990232 l 3.1728513,9.81e-4 3.172852,9.81e-4 -3.180664,9.75e-4 -3.1806643,9.74e-4 z m 0.019531,0.0039 V 55.01817 h 3.0605473 c 3.057942,0 3.060547,-6e-6 3.060547,-0.0078 0,-0.0076 0.0026,-0.0078 0.109375,-0.0078 h 0.109375 v 1.994141 1.99414 H 12.192621 9.0226989 Z"
     id="path1027" /><path
     style="fill:#2b1100;stroke-width:0.00390625"
     d="m 9.0031677,56.217395 v -1.214844 l 2.0537113,5.72e-4 c 1.129541,3.14e-4 2.504589,0.0017 3.055664,0.0031 l 1.001953,0.0025 -0.701172,0.0014 c -0.385645,7.72e-4 -0.688867,0.0027 -0.673828,0.0042 0.03411,0.0035 1.347383,0.0047 1.380286,0.0013 0.01639,-0.0017 0.02401,-0.0042 0.02401,-0.0078 0,-0.0043 0.01986,-0.0053 0.109375,-0.0053 h 0.109375 v 1.214844 1.214844 H 12.192627 9.0227114 L 9.0217224,56.22225 9.0207333,55.012289 9.019763,56.22225 c -9.68e-4,1.207033 -9.892e-4,1.209961 -0.00878,1.209961 -0.0078,0 -0.00781,-0.0026 -0.00781,-1.214844 z"
     id="path1029" /><path
     style="fill:#2b1100;stroke-width:0.00390625"
     d="m 27.454768,55.008792 c 0,-0.0078 0.0026,-0.0078 2.894531,-0.0078 2.891927,0 2.894532,7e-6 2.894532,0.0078 0,0.0078 -0.0026,0.0078 -2.894532,0.0078 -2.891927,0 -2.894531,-7e-6 -2.894531,-0.0078 z"
     id="path1031" /><path
     style="fill:#2b1100;stroke-width:0.00390625"
     d="M 24.771174,56.405277 V 55.00098 h 1.339844 1.339844 v 0.0091 c 0,0.0084 0.0012,0.0089 0.01465,0.0066 0.0081,-0.0014 0.01431,-0.0044 0.01389,-0.0066 -0.0015,-0.008 2.977264,-0.01203 4.847573,-0.0066 0.491528,0.0014 0.892229,0.0041 0.890446,0.0058 -0.0018,0.0018 -0.214099,0.0037 -0.471812,0.0042 l -0.468571,10e-4 0.483398,9.61e-4 0.483399,9.61e-4 v 1.396484 1.396484 h -4.236328 -4.236329 z m 3.424504,-1.391602 c -0.124238,-5.72e-4 -0.326386,-5.72e-4 -0.449219,10e-7 -0.122832,5.72e-4 -0.02118,0.001 0.225887,0.001 0.247071,0 0.34757,-4.68e-4 0.223332,-0.001 z m 0.492489,4e-6 c -0.04888,-6.2e-4 -0.128858,-6.2e-4 -0.177735,0 -0.04888,6.2e-4 -0.0089,0.0011 0.08887,0.0011 0.09775,0 0.137745,-5.07e-4 0.08887,-0.0011 z m 3.5,0 c -0.04888,-6.2e-4 -0.128858,-6.2e-4 -0.177735,0 -0.04888,6.2e-4 -0.0089,0.0011 0.08887,0.0011 0.09775,0 0.137745,-5.07e-4 0.08887,-0.0011 z"
     id="path1033" /><path
     style="fill:#2b1100;stroke-width:0.0110485"
     d="m 43.538521,57.001165 v -1.988723 l -4.179112,-0.0028 c -2.298511,-0.0015 0.27939,-0.004 5.72867,-0.0055 l 9.907781,-0.0027 v 1.994263 1.994262 h -5.728669 -5.72867 z"
     id="path1035" /><path
     style="fill:#2b1100;stroke-width:0.015625"
     d="m 22.321111,56.999979 v -1.988402 l 16.335938,-0.0014 16.335937,-0.0014 v 1.989769 1.98977 H 38.657049 22.321111 Z"
     id="path1037" /><path
     style="fill:#2b1100;stroke-width:0.00390625"
     d="m 32.248512,56.068171 v -1.061853 l 0.727211,-0.0026 c 0.399966,-0.0014 2.306753,-0.0023 4.237305,-0.0019 3.181776,5.92e-4 3.366502,9.48e-4 1.974937,0.0038 -0.844336,0.0017 -1.783887,0.0036 -2.087891,0.0042 -0.304003,5.99e-4 0.386377,0.0015 1.53418,0.0021 l 2.086914,9.63e-4 v 1.058594 1.058593 H 36.48484 32.248512 Z m 1.125,-1.059121 c -0.08272,-0.0012 -0.153027,-8.87e-4 -0.15625,6.87e-4 -0.0032,0.0016 0.06445,0.0026 0.150391,0.0022 l 0.15625,-6.87e-4 z"
     id="path1039" /><path
     style="fill:#2b1100;stroke-width:0.00390625"
     d="m 17.578269,58.143089 v -0.857422 h 4.236328 4.236328 v 0.857422 0.857422 h -4.236328 -4.236328 z"
     id="path1043" /><path
     style="fill:#2b1100;stroke-width:0.00390625"
     d="m 13.472522,58.995561 -1.842773,-9.82e-4 v -1.332028 -1.332027 h 4.236328 4.236328 v 1.333982 1.333982 l -2.393555,-9.72e-4 c -1.316455,-5.34e-4 -3.222802,-0.0014 -4.236328,-0.002 z"
     id="path1045" /><path
     style="fill:#2b1100;stroke-width:0.00390625"
     d="m 13.910999,58.998493 2.283203,-0.002 -2.282227,-9.72e-4 -2.282226,-9.71e-4 v -1.332031 -1.332032 h 4.236328 4.236328 v 1.334593 1.334592 l -1.678711,-0.0016 c -0.923291,-8.72e-4 -1.491504,-6.94e-4 -1.262695,3.95e-4 0.228808,0.0011 -0.922559,0.002 -2.558594,0.002 l -2.974609,-2.2e-5 z"
     id="path1047" /><path
     style="fill:#2b1100;stroke-width:0.00390625"
     d="m 10.093159,56.27813 v -1.275391 h 1.579429 c 1.435483,0 3.521191,0.0043 3.374505,0.0069 -0.0712,0.0013 -0.07885,0.0087 -0.009,0.0087 0.06645,0 0.105828,-0.0038 0.105828,-0.01034 0,-0.0044 0.275161,-0.0053 1.710938,-0.0053 1.500682,0 1.710937,7.04e-4 1.710937,0.0057 0,0.0046 -0.0083,0.006 -0.04199,0.007 l -0.04199,0.0013 0.04199,8.29e-4 0.04199,8.3e-4 v 1.267578 1.267578 H 14.329468 10.09314 Z m 4.849609,-1.263672 c -0.0016,-0.0026 -0.20603,-0.0039 -0.600816,-0.0038 -0.387779,3.9e-5 -0.59634,0.0014 -0.592543,0.0038 0.0082,0.0053 1.196633,0.0053 1.193359,0 z m 1.81963,9.78e-4 c -0.09491,-5.83e-4 -0.251351,-5.83e-4 -0.347656,-1e-6 -0.0963,5.82e-4 -0.01865,0.0011 0.172557,0.0011 0.191211,0 0.270006,-4.76e-4 0.175099,-0.0011 z"
     id="path1049" /><path
     style="fill:#2b1100;stroke-width:0.00390625"
     d="m 10.093159,56.27813 v -1.275391 h 1.579429 c 1.435201,0 3.521047,0.0043 3.374672,0.0069 -0.07611,0.0014 -0.08085,0.0087 -0.0056,0.0087 0.04138,0 0.05571,-0.0013 0.06152,-0.0057 0.0088,-0.0066 0.015,-0.0078 0.01149,-0.0021 -0.0014,0.0023 0.0033,0.0039 0.01161,0.0039 0.0089,0 0.01485,-0.0022 0.01627,-0.0059 0.002,-0.0052 0.195909,-0.0059 1.712767,-0.0059 1.494986,0 1.71052,7.17e-4 1.71052,0.0057 0,0.0043 -0.0067,0.006 -0.02832,0.007 l -0.02832,0.0013 0.02832,7.76e-4 0.02832,7.76e-4 v 1.267578 1.267578 h -4.236328 -4.236328 z m 4.847656,-1.263733 c 0,-0.0053 -1.163542,-0.0052 -1.171875,1.33e-4 -0.0037,0.0024 0.209155,0.0037 0.583008,0.0038 0.396044,4e-5 0.588867,-0.0012 0.588867,-0.0039 z m 1.684783,0.0011 c -0.02191,-6.95e-4 -0.05882,-6.98e-4 -0.08203,-6e-6 -0.02321,6.92e-4 -0.0053,0.0013 0.03983,0.0013 0.04512,3e-6 0.06411,-5.63e-4 0.0422,-0.0013 z"
     id="path1051" /><path
     style="fill:#2b1100;stroke-width:0.00390625"
     d="m 10.093159,56.27754 v -1.275979 l 2.504883,0.0023 c 1.377685,0.0013 2.505658,0.0024 2.506605,0.0025 9.48e-4,1.16e-4 -0.0017,0.003 -0.0059,0.0064 -0.0042,0.0034 -0.0051,0.0049 -0.0021,0.0033 0.003,-0.0016 0.01404,-0.0025 0.02451,-0.0022 0.01387,4.91e-4 0.01965,-9.35e-4 0.02131,-0.0053 0.002,-0.0053 0.186321,-0.0059 1.712796,-0.0059 1.491695,0 1.71052,7.25e-4 1.71052,0.0057 0,0.0041 -0.0061,0.006 -0.02246,0.0071 l -0.02246,0.0014 0.02246,7.38e-4 0.02246,7.39e-4 v 1.267578 1.267578 h -4.236328 -4.236328 z m 4.841797,-1.263082 c 0.003,-0.0048 -1.113422,-0.005 -1.136719,-2.24e-4 -0.0086,0.0018 0.243109,0.0034 0.55934,0.0037 0.379582,2.96e-4 0.575785,-8.78e-4 0.577379,-0.0035 z"
     id="path1053" /><path
     style="fill:#2b1100;stroke-width:0.00390625"
     d="m 10.093159,56.27813 v -1.275391 h 1.579429 c 1.779945,0 3.434823,0.0038 3.428179,0.0079 -0.0024,0.0015 0.0055,0.003 0.01755,0.0032 0.01624,3.75e-4 0.02256,-10e-4 0.02422,-0.0053 0.002,-0.0052 0.197926,-0.0058 1.712762,-0.0058 1.485981,0 1.71052,7.38e-4 1.71052,0.0056 0,0.0036 -0.0052,0.0062 -0.01465,0.0072 l -0.01465,0.0015 0.01465,6.56e-4 0.01465,6.57e-4 v 1.267578 1.267578 h -4.236328 -4.236328 z m 4.298828,-1.263672 c 0.0045,-0.0019 -0.113205,-0.0035 -0.274184,-0.0036 -0.184082,-1.79e-4 -0.282834,0.0011 -0.28441,0.0036 -0.003,0.0049 0.547188,0.0049 0.558594,0 z m 0.527344,0 c 0.0016,-0.0026 -0.07556,-0.0039 -0.228516,-0.0039 -0.152959,0 -0.230115,0.0013 -0.228516,0.0039 0.0033,0.0054 0.453711,0.0054 0.457032,0 z"
     id="path1055" /><path
     style="fill:#d4aa00;stroke-width:0.0883883"
     d="M 3.5526454,60.818418 C 3.0545158,60.541184 3.0431822,60.456055 3.0446043,57.002414 c 0.0014,-3.401844 0.00485,-3.429583 0.4690909,-3.774471 0.2236432,-0.166145 0.3698129,-0.185297 1.4142135,-0.185297 1.3895578,0 1.602654,0.04916 1.8301145,0.422217 0.1644526,0.269716 0.1737222,0.460182 0.174035,3.575961 l 3.304e-4,3.291072 -0.2576959,0.288657 -0.2576958,0.288656 -1.3111973,0.02194 C 4.06523,60.948551 3.744663,60.925285 3.5526454,60.818418 Z"
     id="path1057" /><path
     style="fill:#d4aa00;stroke-width:0.0883883"
     d="M 57.557926,60.818418 C 57.059052,60.54077 57.048582,60.461104 57.048582,56.942904 v -3.223782 l 0.227423,-0.270277 c 0.317423,-0.377236 0.772901,-0.476812 1.982285,-0.433367 1.102105,0.03959 1.384918,0.140515 1.577368,0.562897 0.07121,0.156283 0.102011,1.209752 0.102011,3.488705 v 3.264816 l -0.257696,0.288657 -0.257696,0.288656 -1.311197,0.02194 c -1.04057,0.01741 -1.361137,-0.0059 -1.553154,-0.112726 z"
     id="path1059" /><path
     style="fill:#d4aa00;stroke-width:0.0883883"
     d="m 57.346046,10.622023 -0.303576,-0.303576 0.02515,-3.37187 0.02515,-3.3718699 0.288656,-0.2578357 0.288657,-0.2578356 h 1.33327 1.333269 l 0.300521,0.3005204 0.30052,0.3005203 v 3.3322407 3.3322408 l -0.30052,0.30052 -0.300521,0.300521 h -1.343503 -1.343503 z"
     id="path1061" /><path
     style="fill:#d4aa00;stroke-width:0.0883883;fill-opacity:1"
     d="M 3.3761521,10.667684 3.0874955,10.409769 V 6.9923172 3.574865 L 3.3761521,3.3169504 3.6648087,3.0590358 h 1.3332696 1.3332695 l 0.3005204,0.3005204 0.3005204,0.3005203 v 3.3322407 3.3322408 l -0.3005204,0.30052 -0.3005204,0.300521 H 4.9980783 3.6648087 Z"
     id="path1063" /></svg>
