<?xml version="1.0" encoding="UTF-8" standalone="no"?>
<svg
   xmlns:dc="http://purl.org/dc/elements/1.1/"
   xmlns:cc="http://creativecommons.org/ns#"
   xmlns:rdf="http://www.w3.org/1999/02/22-rdf-syntax-ns#"
   xmlns:svg="http://www.w3.org/2000/svg"
   xmlns="http://www.w3.org/2000/svg"
   xmlns:sodipodi="http://sodipodi.sourceforge.net/DTD/sodipodi-0.dtd"
   xmlns:inkscape="http://www.inkscape.org/namespaces/inkscape"
   viewBox="0 0 128 160"
   x="0px"
   y="0px"
   version="1.1"
   id="svg140"
   sodipodi:docname="noun_Knight_3571728.svg"
   inkscape:version="1.0.1 (3bc2e813f5, 2020-09-07)">
  <metadata
     id="metadata146">
    <rdf:RDF>
      <cc:Work
         rdf:about="">
        <dc:format>image/svg+xml</dc:format>
        <dc:type
           rdf:resource="http://purl.org/dc/dcmitype/StillImage" />
      </cc:Work>
    </rdf:RDF>
  </metadata>
  <defs
     id="defs144" />
  <sodipodi:namedview
     pagecolor="#ffffff"
     bordercolor="#666666"
     borderopacity="1"
     objecttolerance="10"
     gridtolerance="10"
     guidetolerance="10"
     inkscape:pageopacity="0"
     inkscape:pageshadow="2"
     inkscape:window-width="1920"
     inkscape:window-height="1017"
     id="namedview142"
     showgrid="false"
     inkscape:zoom="2.65625"
     inkscape:cx="1.5076493"
     inkscape:cy="167.5603"
     inkscape:window-x="-8"
     inkscape:window-y="144"
     inkscape:window-maximized="1"
     inkscape:current-layer="svg140"
     inkscape:document-rotation="0" />
  <g
     id="g134">
    <path
       d="M71.812,48.618a.555.555,0,0,1-.105-.046c-1.127-.538-.314-1.377.623-.951.963.446.655,1.213-.243,1.062A1.717,1.717,0,0,1,71.812,48.618Z"
       id="path2" />
    <path
       d="M70.914,48.959a.78.78,0,0,1,.931.524.758.758,0,0,1-.525.931c-.118.013-.216.065-.327.078a.769.769,0,0,1-.931-.524.75.75,0,0,1,.524-.924C70.7,49.024,70.8,48.978,70.914,48.959Z"
       id="path4" />
    <path
       d="M65.526,75.647c3.291.354-1.861,2.458-.825.335A.739.739,0,0,1,65.526,75.647Z"
       id="path6" />
    <path
       d="M108.044,120.118a.629.629,0,0,1,.17.715c-.485,1.4-2.261,2.254-3.677,2.353-2.313.17-4.647.065-6.96.085-1.7.013-3.369.59-5.04.524-1.8-.072-5.631.944-6.758-.976-1.068-1.836.275-4.72.583-6.568,0-.013.007-.026.007-.039-.033-.04-.065-.072-.1-.118a1.843,1.843,0,0,1-.269-.951,1.124,1.124,0,0,1,.157-.589,1.5,1.5,0,0,1-.177-.171,2.188,2.188,0,0,1-.55-1.783,3.806,3.806,0,0,1,.157-1.651,3.376,3.376,0,0,1-1.435-1.232c-1.042-1.777.419-4.143-.577-6.194a2.363,2.363,0,0,1-.361-1.894c.053-.512.558-.911.689-1.41a.858.858,0,0,1-.053-.557.7.7,0,0,0-.039-.111c-.708-1.324.144-2.622.465-3.887a4.122,4.122,0,0,1-.812-1.33,2.527,2.527,0,0,1-.007-1.252,9.224,9.224,0,0,1-1.324-.42,17.525,17.525,0,0,1-2.674-1.422,1.02,1.02,0,0,1-.118.053,31.261,31.261,0,0,1-11.726,1.278c-.111,3.906-3.69,8.461-7.209,9.772-2.1.787-3.238,1.914-5.054,3.126-.97.643-2.11,1.029-3.034,1.724-1.914,1.442-3.441,3.671-5.427,4.955a.9.9,0,0,1-.072.085c-1.095,1.095-2.229.7-3.225-.039a9.208,9.208,0,0,1-2.5.865c-.019.131,0,.289-.006.4a1.734,1.734,0,0,1-.236.878,1.341,1.341,0,0,1-.584.5c.571.269,1.134.551,1.678.859a3.455,3.455,0,0,1,1.455,1.213.635.635,0,0,1,.262.314c.911,2.143-.419,2.412-1.9,2.327a12.776,12.776,0,0,1-3.933-.039c-2.471-.151-4.3-1.292-6.423-2.484-.924-.518-3.271-1.567-3.048-2.983a6.312,6.312,0,0,1,2.923-3.677c2.294-1.186,2.327-3.781,4.588-3.29a3.53,3.53,0,0,1-.6-.472c-1.422-1.422,1.331-2.91,2.281-3.362a6.93,6.93,0,0,1,2.511-.472,2.864,2.864,0,0,1,1.769-1.462c1.508-.6,1.993-1.736,3.33-2.575,1.3-.826,2.884-2.34,4.372-2.747.013-.006.026-.006.039-.013.033-.026.065-.052.1-.078,1.042-.623,2.346-2.072,3.664-2.072.891,0,.76-1.048,1.566-1.206.164-.032.321-.059.478-.085a.663.663,0,0,1,.309-.629.957.957,0,0,0,.013-.164c-.007-.118-.013-.236-.013-.354a5.488,5.488,0,0,0-.053-1.468,2.731,2.731,0,0,1-.046-1.468c-1.055-.085-2.11-.184-3.159-.328a.411.411,0,0,1-.138-.033.649.649,0,0,1-.832-.517c-.38-1.8.138-3.7.052-5.526-.1-2.182-.327-4.365-.327-6.554,0-3.67-.361-8.258,1.986-11.358.013-.02.032-.033.046-.053a10.9,10.9,0,0,1,.209-1.409.209.209,0,0,1,.013-.059,5.547,5.547,0,0,1-.452-3.284c.177-2.2-.754-4.509-.74-6.862-2.347-2.4-.938-6.253-.735-9.255a15.986,15.986,0,0,1,2.806-7.589.78.78,0,0,1,.354-.3,8.291,8.291,0,0,1,2.726-2.8.747.747,0,0,1-.039-.5,3.128,3.128,0,0,1,.734-1.35c.387-.459.36-1.036.649-1.534.216-.367.609-.5.865-.813.236-.282.17-1.009.177-1.389a.737.737,0,0,1-.164-.446,14.835,14.835,0,0,1,.524-5.237,23.673,23.673,0,0,1,1.79-3.742c-1.35-.321-2.7-.643-4.064-.905a110.566,110.566,0,0,1-12.813-2.956c-2.537-.812-5.165-1.009-7.708-1.743-2.026-.584-3.985-1.521-6.043-1.986C27.282,9.01,23.592,8.152,20.1,6.008A.771.771,0,0,1,20.42,4.6c1.239-1.245,5.479-.216,6.816.118,5.2,1.3,10.664,1.665,15.809,3.245,4.365,1.337,9.484,1.92,14.013,2.569,3.71.531,7.453,1.429,11.11,2.281a2.837,2.837,0,0,1,.524-1.921.73.73,0,0,1,.734-.2,1.436,1.436,0,0,1,.826,1.4,6.619,6.619,0,0,1,2.229-.288,2.277,2.277,0,0,1,1.848.852A3.121,3.121,0,0,1,77.776,14.5a1.96,1.96,0,0,1,1.973.734c.184.354.584.531.78.892a2.56,2.56,0,0,1,.1,1.225,2.311,2.311,0,0,1-1.161,2.078,1.727,1.727,0,0,1-1.376.1,3.231,3.231,0,0,0,.636,1.514.58.58,0,0,1-.033.813,2.261,2.261,0,0,1-.275,2.471,2.3,2.3,0,0,1,.059,2.15,13.6,13.6,0,0,0-2.353,7.806c.059,2.556-.151,6.226-1.7,8.645a11.925,11.925,0,0,1,1.534,4.588.821.821,0,0,1,.118.046c.347.183.681.491,1.029.642a2.226,2.226,0,0,1,.9.538c.518.616.721,1.4,1.206,2.038a.659.659,0,0,1,.138.328c.21.137.4.308.577.426.157.118.367.223.55.347a6.785,6.785,0,0,1,1.8.144c1.658-4.686,2.143-9.536,5.06-13.777,2.215-3.231,6.351-5.636,10.159-4.332a.71.71,0,0,1,.112.039,6.7,6.7,0,0,1,1.245.584.7.7,0,0,1,.354.524,4.577,4.577,0,0,1,.721,1.212c2.5,6.266,1.868,13.332,1.651,19.939a57.7,57.7,0,0,1-2.706,15.631c-.977,3.081-2.832,8.292-6.542,8.665a.584.584,0,0,1-.111,0,29.822,29.822,0,0,1,4.739,5.27,3.487,3.487,0,0,1,.459,2.687c.019.026.045.052.065.085,1.127,1.672.315,4.031.19,5.873-.137,1.894-.328,3.6-1.534,5.119.754-.957,1.665,3.428,1.7,3.074a1.865,1.865,0,0,1-.387,1.088.673.673,0,0,1,.223.544,12.733,12.733,0,0,1-.721,4.011c-.328.845-.334.918.125,1.783a5.439,5.439,0,0,1,.76,2.648,1.84,1.84,0,0,1-1.7,1.664,4.953,4.953,0,0,0,.308.656,3.939,3.939,0,0,1,.452.911,12.269,12.269,0,0,1,1.226.708c2.9,1.586,6.357,2.077,9.484,3.12A.724.724,0,0,1,108.044,120.118ZM95.08,121.875c1.966-.328,9.516,1.068,11.358-.918a69,69,0,0,1-7.413-2.222c-1.232-.524-2.392-1.737-3.788-1.147a7.32,7.32,0,0,1-2.661.682c-.97.039-.97-1.468,0-1.508a11.6,11.6,0,0,0,2.7-.852c-.124-.236-.308-.472-.4-.629-.032-.052-.052-.105-.078-.157-.039.039-.079.072-.1.092a2.956,2.956,0,0,1-.761.576,6.518,6.518,0,0,1-1.651.485c-.951.164-1.364-1.291-.407-1.448a3.159,3.159,0,0,0,1.921-.859c.085-.085.17-.17.262-.255a39.511,39.511,0,0,0-4.32-1.573c-.727-.184-1.749-.361-2.746-.656a.657.657,0,0,1-.078.125c-.092.734-.171,1.75.452,1.907a10.777,10.777,0,0,0,3.729.052c.964-.118.951,1.4,0,1.508a23.931,23.931,0,0,1-2.91.079,4.957,4.957,0,0,1-.682-.046c0,.013.007.019.007.032a.733.733,0,0,1,.026.1c.046-.007.085-.033.131.006.184.164.38.328.577.472a4.438,4.438,0,0,0,1.416.682.766.766,0,0,1-.407,1.475,5.966,5.966,0,0,1-1.553-.675c-.3,1.487-.976,5.132.649,5.086A48.153,48.153,0,0,0,95.08,121.875Zm4.561-61.414a90.485,90.485,0,0,0,.538-12.931,28.365,28.365,0,0,0-.623-7.623c-.459-1.58-1.107-5.007-3.618-4.712-.131.006-.262.019-.386.032a.82.82,0,0,1,.013.531,7.059,7.059,0,0,1,3.749,5.978c0,4.345-.118,8.7-.158,13.03a37.263,37.263,0,0,1-.7,8.881c-1.429,5.341-1.94,11.26-6.987,14.485a.806.806,0,0,1,.394.524.735.735,0,0,1,.235.4A.8.8,0,0,1,92.333,79c2.884-.289,5.1-6.732,5.578-9.117.315-1.554,1.088-3.159,1.285-4.713S99.419,62.015,99.641,60.461ZM97.885,49.437a66.127,66.127,0,0,0,.085-7.066c-.616,2.445-.859,5-1.848,7.348-1.036,2.451-1.206,5.368-2.569,7.636a.638.638,0,0,1-.158.183,2.966,2.966,0,0,1-.092.334c-.157.472-.118.964-.249,1.436-.15.55-.517,1.029-.675,1.592a.929.929,0,0,1-.15.3c-.276,1.114-.761,2.15-1.056,3.264-.4,1.5-.531,3.074-.95,4.555-.564,1.979-1.081,3.887-1.757,5.814a.763.763,0,0,1-.177.753,3.624,3.624,0,0,0,1.724,1.731.685.685,0,0,1,.217-.184c4.968-2.838,5.3-8.409,6.619-13.318C98.029,59.413,97.885,53.973,97.885,49.437Zm-.865-9.084a1.28,1.28,0,0,1-.171-.138c-.078-.079-.144-.164-.209-.242-.649,2.313-1.7,4.476-2.124,6.882-.465,2.582-.734,4.922-1.96,7.249a2.074,2.074,0,0,1,.177.386,4.6,4.6,0,0,1,.171.747c.852-2.136,1.153-4.66,2.051-6.757C96.05,45.924,96.089,42.981,97.02,40.353ZM94.765,98.869c.846-1.573,2.248-5.446,1.934-8.035-1.718,3.788-5.5,5.695-9.327,6.849a.756.756,0,0,1-.407-1.455c3.382-1.016,6.7-2.569,8.311-5.919,1.246-2.595.23-3.631-1.265-5.44-1.042-1.252-1.855-2.707-3.29-3.565l-.013-.013c-3.3,3.7-8.868,5.492-13.692,6.4,1.927,1.442,3.946,3.2,6.259,3.782a3.386,3.386,0,0,0,3.1-.413,4.6,4.6,0,0,1,2.182-.518.754.754,0,0,1,0,1.508c-1.383.039-1.776,1.153-2.949,1.232-.21.013-.426.007-.643,0-.006.013-.006.026-.013.039a.83.83,0,0,0,.184.918c.242.334.472.682.714,1.022a.626.626,0,0,1-.144.918,6.1,6.1,0,0,0-.328,3c2.353.059,4.706-.046,7.033.217.957.111.964,1.618,0,1.507-2.3-.256-4.627-.157-6.947-.21a1.177,1.177,0,0,1-.177.361c-.892,1.2-.046,2.209.314,3.415a11.329,11.329,0,0,1-.052,2.975c0,2.969,5.44,3.54,7.8,4.188.282.079,4.025,1.718,2.753-.367-.334-.557-.8-1.088-1.075-1.671a.769.769,0,0,1,0-.76c1.069-1.534,1.075-2.786,1.134-4.582-.046,0-.092.013-.144.013a.663.663,0,0,1-.262-.039,1.143,1.143,0,0,1-.144.039c-.354.027-.617.931-1.01,1.16-.511.3-1.317.073-1.868.02a19.541,19.541,0,0,1-5.027-1.534c-.9-.34-.511-1.8.4-1.455a25.835,25.835,0,0,0,2.805,1.1,18.9,18.9,0,0,0,2.648.465c.616.072.308-.406.7-.793a2,2,0,0,1,1.357-.465.861.861,0,0,1,.268.033.8.8,0,0,1,.138-.033c.354-.013-.177-1.245-.184-1.3-.085-.9-.38-.544-.871-1.042A1.169,1.169,0,0,1,94.765,98.869Zm.675-60.312a.836.836,0,0,1,.42-.846c-1.088-1.068-2.511-1.586-3.9-.032a11.891,11.891,0,0,0-2.53,3.768,41.321,41.321,0,0,0-2.438,6.633c-.3,1.573-1.409,3.494-1.285,5.113a3.433,3.433,0,0,1,2.255.019c.033.02.052.053.078.072a4.965,4.965,0,0,1,2.242-.5,2.917,2.917,0,0,1,1.1.288c1.154-2.386,1.193-4.87,1.822-7.439C93.8,43.224,94.916,40.962,95.44,38.557Zm-4.168,20.9a4.937,4.937,0,0,0,.609-2.385,3.263,3.263,0,0,1-1.258.072,3.812,3.812,0,0,0,0,.4.954.954,0,0,1,.144,1.56,1.974,1.974,0,0,0-.511,1.035.665.665,0,0,1,.347.361c.033,0,.053.013.085.006a.32.32,0,0,0,.19-.092.683.683,0,0,1,.184-.321A3.249,3.249,0,0,1,91.272,59.458Zm.013-4.515a.615.615,0,0,0-.092-.132,1.365,1.365,0,0,0-1.449-.485,5.243,5.243,0,0,0-1.225.394.334.334,0,0,1-.059.039c-.02.465-.1.924-.1,1.232a16.358,16.358,0,0,0,.007,3.448.658.658,0,0,1,.465.282,4.163,4.163,0,0,1,.367-1.193c.033-.046.072-.085.105-.131a.855.855,0,0,1-.072-.158c-.19-.517.118-1.258-.085-1.7a.768.768,0,0,1,.111-.832.668.668,0,0,1,1-.282,1.416,1.416,0,0,0,.76.243A.82.82,0,0,1,91.285,54.943Zm-.8,7.072c-.1,0-.2-.007-.288-.014a1.422,1.422,0,0,1-.249-.039c-.446,1.96-.977,3.9-1.4,5.866-.223,1.042-.512,2.1-.833,3.114-.2.635-.793,1.356-.78,2.005v.013c.138.177.289.348.446.518A27.654,27.654,0,0,0,88.9,68,47.743,47.743,0,0,1,90.485,62.015ZM89.161,38.8c-.006-.045-.019-.085-.026-.131a25.746,25.746,0,0,0-2.792,4.844c-1.311,2.91-1.626,6.122-2.687,9.1.17.007.327.007.485.007a.267.267,0,0,0,.032.006c.053-2.359,1.632-5.191,2.268-7.321A25.711,25.711,0,0,1,89.161,38.8Zm-.583,22.442a2.223,2.223,0,0,1-.538-.223l-.124.02a.714.714,0,0,1-.341.046,14.162,14.162,0,0,1-2.366-.406c-.223,3.329-.76,7.6.721,10.755a3.208,3.208,0,0,0,.341-.9,27.146,27.146,0,0,1,.826-3.113C87.719,65.469,88.145,63.273,88.578,61.241ZM90.406,79.22a17.718,17.718,0,0,1-2.49-1.593c-.669,2.1-3.212,3.021-5.217,3.506-.944.23-1.344-1.225-.4-1.455a8.964,8.964,0,0,0,2.687-.9,3.788,3.788,0,0,0,1.488-1.632c-2.36,1.18-5.112,1.809-7.3,3.231-2.248,1.455-4.588,2.609-6.921,3.887a27.234,27.234,0,0,0,5.211-1.055A43.581,43.581,0,0,0,84,81.232c.878-.394,1.645.9.76,1.3a48.17,48.17,0,0,1-8.743,2.7,15.8,15.8,0,0,1-6.528.334c-2.694.957-5.788,1.121-8.56,1.422-.138.02-.275.033-.413.046a1.185,1.185,0,0,1-.138.171,111.685,111.685,0,0,0,11.982-.4C78.189,86.318,86.821,84.535,90.406,79.22ZM86.874,55.31c.006-.774-.21-1.128-1.075-.512a4.14,4.14,0,0,0-1.173,1.737c-.453.859-1.75.1-1.305-.76.262-.5.439-1.147.761-1.652a2.571,2.571,0,0,0-1.16.118,2.447,2.447,0,0,0-.794.564c-.635.734-1.7-.334-1.061-1.068a2.327,2.327,0,0,1,.38-.348,6.692,6.692,0,0,0-.708-.013c-.2.577-.243,1.213-.4,1.8-.216.807-.419,1.862-1.226,2.281-.865.453-1.625-.845-.766-1.3.472-.249.6-1.606.694-2.058.066-.348.223-.774.289-1.161-.059-.039-.118-.078-.164-.111-.131-.1-.269-.19-.406-.288-.177-.276-.315-.289-.4-.033a11.739,11.739,0,0,1-1.626,1.756,22.945,22.945,0,0,1-.622,3.3,29.948,29.948,0,0,0,6.1.623c1.658,0,3,.937,4.614,1.285A25.938,25.938,0,0,1,86.874,55.31Zm-.5,20.187a.262.262,0,0,1,.045-.02c-1.271-1.606-3.323-2.51-5.059-3.533-1.383-.819-4.484-2.077-5.25-3.611-.046-.1-.118-.229-.2-.387a.854.854,0,0,1-.256-.006c-1.651-.282-3.172-1.259-4.876-1.364-.963-.059-.97-1.566,0-1.507a20.23,20.23,0,0,1,2.779.609,8.732,8.732,0,0,1,1.409.472,10.245,10.245,0,0,0-1.422-2.189c-3.29.308-6.613-.065-9.936.538-2.8.511-6.5,1.455-9.393.773-2.176,3.3-1.461,8.3-1.442,12.021.007,1.894.282,3.768.243,5.656-.026.885-.177,1.848-.21,2.785a.232.232,0,0,0,.066.007c3.27.544,7.046-.1,10.27-.557,1.875-.269,4.2-.262,5.958-1a33.31,33.31,0,0,0,3.834-2.222C77.226,79.462,82.05,77.955,86.376,75.5Zm-2.537-3.959c.2.105.413.216.623.328-1.514-3.4-.97-7.852-.754-11.372a.991.991,0,0,1,.059-.21l-.413-.118c-.813,2.982-1.737,8.717.413,11.267A.505.505,0,0,1,83.839,71.538ZM81.9,59.773c-.138-.039-.275-.072-.419-.105-1.868-.419-3.835-.288-5.749-.642-.183.668-.367,1.33-.524,1.966a2,2,0,0,1-.046.348,3.611,3.611,0,0,1-.039,1.946,5.73,5.73,0,0,1,1.383,2.825c.288,1.724,3.257,3.257,5.007,4.195C80.424,67.074,81.106,62.683,81.9,59.773ZM79.12,17.347c.007-.367.085-.537-.118-.7a2.45,2.45,0,0,1-.5-.577,2.176,2.176,0,0,0-.413-.059c.027.629-.026,1.272-.052,1.908a2.281,2.281,0,0,0,.7.19C79.061,17.976,79.12,17.662,79.12,17.347ZM77.658,51.141c-.1-.19-.209-.387-.3-.6s-.243-.669-.459-.793-.413-.243-.623-.361c.1.629.2,1.219.315,1.73a7.669,7.669,0,0,1,.157,1.043A4.729,4.729,0,0,1,77.658,51.141ZM76.02,22.8c.99.2,1.868-.078.865-1.343a.79.79,0,0,1-.092-.852,8.306,8.306,0,0,1-.288-2.57c-.007-.8.308-1.959,0-2.693a1.781,1.781,0,0,0-1.77-1.2A.73.73,0,0,1,73.49,14.1c-.013-.032-.039-.052-.053-.085a.9.9,0,0,1-.2-.262c-.465-.511-1.1-.472-1.855-.38a4.907,4.907,0,0,0-.524.105,2.6,2.6,0,0,1,.465.826c.466,1.3-.74,2.956-1.756,3.886,0,.013.006.026.006.033.027.478.662.511,1.167.492a.971.971,0,0,1,.452-.177,2.325,2.325,0,0,0,.348-.086,9.268,9.268,0,0,1,1.828-.458c.951-.2,1.357,1.251.407,1.448-.459.1-.931.151-1.377.282-.131.039-.255.079-.38.118-.006.02-.006.039-.013.059a5.42,5.42,0,0,0-.2.858.543.543,0,0,1-.006.059c-.007.046-.007.092-.013.138v.026c.033-.013.059-.032.092-.046a.752.752,0,0,1,.76,1.3c-.249.144-.518.249-.774.374a1.816,1.816,0,0,0-.655.354.9.9,0,0,0-.157.249,10.02,10.02,0,0,1,3.415-.577A8.872,8.872,0,0,1,76.02,22.8Zm.668,3.3a2.784,2.784,0,0,0,.243-1.357.619.619,0,0,1-.066-.131,14.06,14.06,0,0,0-2.4-.479,11.326,11.326,0,0,0-2.937.5,1.832,1.832,0,0,0,.387,1.39,1.129,1.129,0,0,1-.039,1.088,2.473,2.473,0,0,0-.518,1.009,2.009,2.009,0,0,1-.531,1.023c-.406,1.219-.662,2.464-1.108,3.67-.354.944-1.324,1.271-1.651,2.241a2.026,2.026,0,0,1-1,1.344c-1.521.859.039,2.111.727,3,.59.754-.472,1.829-1.068,1.062-.236-.3-.623-.767-.99-1.3.393,3.205,3.73,7.361,6.4,4.084a10.894,10.894,0,0,0,2.32-6.4,40.994,40.994,0,0,1,.6-6.135c.158-.642,1.029-2.786,1.541-4.332a.77.77,0,0,1-1.036.268c-.177-.085-.21-.059-.439-.059a.754.754,0,0,1,0-1.507,2.661,2.661,0,0,1,1.206.269A.723.723,0,0,1,76.688,26.1Zm1.187,64.048c-.787-.564-1.567-1.147-2.393-1.724A.755.755,0,0,1,75.174,88c-.072.013-.157.026-.229.04-1.612.236-3.271.38-4.942.471a.691.691,0,0,1-.052.289,7.488,7.488,0,0,1-1.383,2.3A30.169,30.169,0,0,0,77.875,90.152Zm-4-30.064c.773-3,1.782-6.22,1.094-9.3-.321-1.455-.813-2.877-1.062-4.345a11.168,11.168,0,0,0-.517-2.3c-.066.059-.125.125-.19.177a6.762,6.762,0,0,1-2.845,1.4.634.634,0,0,1-.072.256c-.171.354-.059.681-.374,1.009a6.137,6.137,0,0,1-.793.649c-.662.478-1.4.839-2.051,1.311-.787.57-1.541-.734-.761-1.3.6-.439,1.279-.76,1.882-1.193a4.78,4.78,0,0,0,.412-.3.353.353,0,0,1,.118-.072,1.318,1.318,0,0,1,.059-.354,1.234,1.234,0,0,1-.511.268,6.127,6.127,0,0,1-1.252.348h-.157c-3.474,2.274-7.675-.662-10.454-2.838-.767-.6.308-1.658,1.068-1.069.846.662,1.77,1.016,2.609,1.659.544.406.832,1.147,1.652,1.016a1.379,1.379,0,0,1,.858.131,3.546,3.546,0,0,0,1.776.406.758.758,0,0,1,.9-1.2,2.5,2.5,0,0,0,1.16.373.757.757,0,0,1,.61-.078,3.928,3.928,0,0,1-.308-.341c-1.77-2.163-3.133-4.143-2.491-6.718a3.492,3.492,0,0,0-1.016,1.736,6.1,6.1,0,0,0,.839,3.415c.426.872-.878,1.632-1.3.761-.78-1.606-1.554-3.422-.813-5.172a4.4,4.4,0,0,1,2.936-2.726v-.23a9.638,9.638,0,0,0-4.627,1.973c-.754.6-1.907-.459-1.147-1.068a11.041,11.041,0,0,1,7.085-2.517,1.237,1.237,0,0,1,.223.039c-3.638-4-13.214.826-10.553,6.155.433.865-.865,1.632-1.3.76a6.575,6.575,0,0,1-.518-1.4,16.479,16.479,0,0,0-.891,3.1c-.361,1.96-1.3,7.459.216,8.934a.7.7,0,0,1,.223.563.718.718,0,0,1,.164.452,12.11,12.11,0,0,0,.786,4.792,1.244,1.244,0,0,1,.164.806c-.177,1.055-.793,3.664.524,3.631.905-.02,1.816-.033,2.714-.059,2.628-.079,4.843-1.54,7.544-1.54Zm-1.862,2.274c1.5,0,1.724.354,1.672-.551-4.274-.072-8.659-.53-12.493.807a14.25,14.25,0,0,1-6.344.721c-.04.707.327.5,1.265.5a20.308,20.308,0,0,0,3.323-.236c1.894-.3,3.8-.787,5.695-.951C67.447,62.454,69.688,62.362,72.015,62.362ZM70.429,26.523a1.134,1.134,0,0,1-.118-.19c-.02-.006-.039-.006-.059-.013-1.357-.433-3.716.354-5.086.557-1.147.171-2.8.04-3.893.544a2.717,2.717,0,0,1-.944,2.255c-.505.373-.347,1-.7,1.461-.1.145-.223.282-.334.42a9.578,9.578,0,0,1,3.421-.655c-.17-.112-.334-.217-.511-.315a.752.752,0,0,1,.76-1.3c.433.243.82.557,1.252.813a5.341,5.341,0,0,0,1.521.419c.413.118.7.538,1.127.61a10.8,10.8,0,0,0,1.455.262c.046.007.079.026.118.033.072-.19.144-.38.216-.577a.669.669,0,0,1-.386-.1,21.576,21.576,0,0,0-2.6-.892,5.4,5.4,0,0,1-2.143-1.107c-.649-.721.413-1.8,1.062-1.069a3.152,3.152,0,0,0,1.081.538,6.71,6.71,0,0,0,1.213.5,8.541,8.541,0,0,1,2.143.734.893.893,0,0,1,.085.059c.1-.288.19-.564.282-.839a.775.775,0,0,1,.177-.295.742.742,0,0,1,.184-.282c.216-.223.163-.642.288-.917a3.043,3.043,0,0,1,.328-.571A.432.432,0,0,1,70.429,26.523Zm-.072-4.778a3.727,3.727,0,0,1,.02-1.547,3.053,3.053,0,0,1-1.416-.347,1.806,1.806,0,0,1-.321-.262,5.323,5.323,0,0,1-.846,1.376c-.413.459-1.37.131-1.291-.531.007-.026.013-.052.02-.085a.652.652,0,0,1,.2-.7.006.006,0,0,0,.006-.006,6.075,6.075,0,0,1,.531-.937c-.583-.118-1.166-.23-1.75-.361a14.446,14.446,0,0,0-.694,3.795c0,1.075.183,2.143.229,3.218.125-.013.256-.026.374-.046a17.874,17.874,0,0,1,4.476-.6.672.672,0,0,1-.1-.2,1.85,1.85,0,0,1,.053-2.235A2.179,2.179,0,0,1,70.357,21.745Zm-2.523-4.437a13.059,13.059,0,0,0,.327-2.936C60.3,12.6,52.687,10.963,44.867,9.987c-2.556-.321-4.928-1.488-7.511-1.744A27.2,27.2,0,0,1,31.792,7.1c-.341-.111-7.505-1.783-9.661-1.691,3.69,1.848,7.662,2.281,11.6,3.7,4.181,1.514,8.533,2.215,12.807,3.421C53.473,14.483,60.748,16.01,67.834,17.308ZM62.865,92.866c2.2-.938,4.536-1.947,5.545-4.287-2.1.079-4.188.085-6.22.105-1.684.02-3.382-.02-5.073-.118a.773.773,0,0,1-.1.334c-.157.275.191.951.191,1.259V91.6a3.386,3.386,0,0,1-.053.668,10.42,10.42,0,0,0,3.2-.859c1.4-.681,2.825-1.055,4.234-1.658.884-.38,1.658.918.767,1.3A35.2,35.2,0,0,1,56.7,93.829c-1.344.216-1.167.937-2.156,1.311A20.879,20.879,0,0,0,51.6,96.523a9.917,9.917,0,0,0,1.933,1.1.751.751,0,0,1-.4,1.448c-1.763-.524-2.877-2.045-4.594-.707a34.529,34.529,0,0,0-3.113,2.071c-.531.517-.728,1.291-1.377,1.678-.636.367-1.881.413-2.425,1.048a8,8,0,0,1,.852.715c.721.655-.347,1.717-1.062,1.068a2.74,2.74,0,0,0-2.667-.38c2.72.7,5.158,2.746,7.006,4.752a4.371,4.371,0,0,0-1.815-2.452.757.757,0,0,1,.767-1.3,6.048,6.048,0,0,1,2.634,3.887,2.329,2.329,0,0,1,.341-.308,30.382,30.382,0,0,0,2.9-2.511c1.684-1.546,3.847-2.149,5.492-3.814,1.4-1.422,3.775-1.586,5.394-2.661a12.775,12.775,0,0,0,4.556-7.092q-.483.276-1,.531c-2.347,1.134-4.628,2.773-7.23,3.271-.95.183-1.356-1.272-.4-1.455C59.5,95,60.965,93.672,62.865,92.866Zm1.18-74.857c-.19-.046-.386-.091-.577-.131a23.972,23.972,0,0,0-1.874,3.782,11.8,11.8,0,0,0-.472,4.208,9.8,9.8,0,0,1,2.425-.387,33.208,33.208,0,0,1-.2-4.345A19.2,19.2,0,0,1,64.045,18.009ZM45.562,111.3c-.019-.072-.033-.144-.052-.216a.678.678,0,0,1-.413-.236c-1.94-2.2-4.824-4.87-7.97-5.014a20.192,20.192,0,0,0,2.084,1.291,13.986,13.986,0,0,1,3.264,2C43.052,109.631,44.664,111.683,45.562,111.3Zm-3.27-.275c-.007-.007-.013-.013-.013-.02a24.145,24.145,0,0,0-4.32-2.825c-.1-.065-.2-.124-.308-.183a21.678,21.678,0,0,0,1.75,2.451c.682,1.016,1.128,1.324,2.327.773A3.557,3.557,0,0,1,42.292,111.021Zm-1.416,6.8c.931-.118,1.376-.354.308-.832-2.156-.964-4.175-1.888-6.259-3-.852-.459-.092-1.757.766-1.3.472.256.964.492,1.456.721a2.207,2.207,0,0,1-.361-.426.757.757,0,0,1,1.3-.767c.171.3.551.531.708.892a2.423,2.423,0,0,1,.164.557,1.762,1.762,0,0,1,.42-.151c.026,0,.137-.033.2-.039.007-.21.02-.42.046-.623a2.172,2.172,0,0,1-.708-.544,29.182,29.182,0,0,1-1.881-2.523c-.216-.308-.413-.61-.583-.911a1.363,1.363,0,0,1-.131-.046c-1.895-.964-1.953,1.54-3.336,2.372a11.091,11.091,0,0,0-1.4,1.01c2.176,1.671,3.461,4.312,6.141,5.237A17.988,17.988,0,0,0,40.876,117.824Zm-8.036-1.737c.256.118.5.243.748.367a19.305,19.305,0,0,0-3-3.12.414.414,0,0,1-.1-.085.429.429,0,0,0-.052.053C29.242,114.56,32.119,115.753,32.84,116.087Z"
       id="path8" />
    <path
       d="M93.972,119.633a.754.754,0,0,1,0,1.508,34.725,34.725,0,0,1-4.509-.413c-.951-.118-.964-1.626,0-1.508A34.551,34.551,0,0,0,93.972,119.633Z"
       id="path10" />
    <path
       d="M93.435,107.862c.917.3.524,1.75-.407,1.455-1.579-.512-3.257-.629-4.765-1.39-.871-.432-.105-1.737.761-1.3C90.393,107.318,91.986,107.4,93.435,107.862Z"
       id="path12" />
    <path
       d="M92.524,89.175c.832-.5,1.586.8.76,1.305a4.956,4.956,0,0,1-2.674.917.754.754,0,0,1,0-1.507A3.524,3.524,0,0,0,92.524,89.175Z"
       id="path14" />
    <path
       d="M90.308,87.294c.793-.57,1.547.741.767,1.3-1.992,1.436-4.837,1.508-7.183,1.5a.754.754,0,0,1,0-1.508C85.982,88.592,88.532,88.572,90.308,87.294Z"
       id="path16" />
    <path
       d="M81.3,74.514c.852-.479,1.612.825.767,1.3a2.281,2.281,0,0,1-.957.348.749.749,0,0,1-.754-.747.774.774,0,0,1,.754-.761.688.688,0,0,1-.092.007c.013-.013.092-.033.144-.059A1.47,1.47,0,0,1,81.3,74.514Z"
       id="path18" />
    <path
       d="M79.959,72.541c1.311,0,1.311,1.311,0,1.311C79.3,73.852,79.3,72.541,79.959,72.541Z"
       id="path20" />
    <path
       d="M78.609,74.959a.751.751,0,0,1,1.062,1.062,2.179,2.179,0,0,1-.479.367c-.852.465-1.612-.832-.76-1.3A.482.482,0,0,0,78.609,74.959Z"
       id="path22" />
    <path
       d="M76.97,73.321c.708-.662,1.776.4,1.062,1.061a6.859,6.859,0,0,1-1.049.695,5.01,5.01,0,0,1-1,.485.751.751,0,0,1-.925-.524.767.767,0,0,1,.525-.931,7.412,7.412,0,0,0,.747-.386A3.108,3.108,0,0,0,76.97,73.321Z"
       id="path24" />
    <path
       d="M77.462,76.106a.754.754,0,0,1,0,1.062,6.14,6.14,0,0,1-1.383.937.766.766,0,0,1-1.029-.268.746.746,0,0,1,.269-1.029,4.689,4.689,0,0,0,1.074-.7A.776.776,0,0,1,77.462,76.106Z"
       id="path26" />
    <path
       d="M75.41,71.354a.754.754,0,0,1,1.069,1.062l-.164.164a.754.754,0,0,1-1.069-1.062Z"
       id="path28" />
    <path
       d="M74.139,15.827a.754.754,0,0,1,0,1.507,11.784,11.784,0,0,0-1.514.223.78.78,0,0,1-.931-.524.761.761,0,0,1,.524-.931A14.785,14.785,0,0,1,74.139,15.827Z"
       id="path30" />
    <path
       d="M72.952,72.01c.715-.662,1.783.4,1.069,1.062a1.916,1.916,0,0,1-1.193.55.758.758,0,0,1-.754-.754.771.771,0,0,1,.754-.753C72.848,72.115,72.952,72.01,72.952,72.01Z"
       id="path32" />
    <path
       d="M73.405,69.572a.748.748,0,0,1,.091,1.487.814.814,0,0,1-.786.243.774.774,0,0,1-.524-.931C72.277,69.8,72.893,69.578,73.405,69.572Z"
       id="path34" />
    <path
       d="M72.212,78.754a.753.753,0,0,1,1.271.806,1.372,1.372,0,0,1-.288.328c-.092.072-.138.112-.157.131a.2.2,0,0,1,.032-.052.762.762,0,0,1-1.029.268.751.751,0,0,1-.268-1.029,1.553,1.553,0,0,1,.288-.334C72.146,78.807,72.192,78.767,72.212,78.754Z"
       id="path36" />
    <path
       d="M71.792,74.677c.866-.445,1.632.859.767,1.3-.36.184-.708.393-1.068.577-.865.439-1.626-.859-.76-1.3C71.091,75.064,71.438,74.861,71.792,74.677Z"
       id="path38" />
    <path
       d="M72.094,53.533c1.311,0,1.311,1.311,0,1.311A.659.659,0,1,1,72.094,53.533Z"
       id="path40" />
    <path
       d="M71.727,55.021a.753.753,0,0,1,.406,1.449,4,4,0,0,1-1.186.026.754.754,0,0,1,0-1.508c.177.007.347.027.524.033a1.91,1.91,0,0,0,.2.007C71.779,55.028,71.8,55.028,71.727,55.021Z"
       id="path42" />
    <path
       d="M71.4,56.811h.007c.013,0,.013.006.026.006.059,0,.124,0,.183-.006l.315-.02a.754.754,0,0,1,0,1.507,2.346,2.346,0,0,1-1.285-.183C69.8,57.649,70.547,56.358,71.4,56.811Z"
       id="path44" />
    <path
       d="M71.438,51.305a.754.754,0,0,1,.754.754.77.77,0,0,1-.754.753c-.137.014-.386.145-.576.164.124-.013-.131.053-.118.046-.092.013-.19.026-.289.033A.749.749,0,0,1,69.7,52.3a.772.772,0,0,1,.753-.754h-.026c.026-.013.144-.045.144-.045.046-.007.085-.007.125-.014A2.542,2.542,0,0,1,71.438,51.305Z"
       id="path46" />
    <path
       d="M70.7,69.867a.754.754,0,0,1-.269,1.029,2.943,2.943,0,0,1-.655.222,2.694,2.694,0,0,0-.492.105.767.767,0,0,1-1.035-.268.753.753,0,0,1,.268-1.029,2.954,2.954,0,0,1,.656-.223,2.619,2.619,0,0,0,.491-.105A.768.768,0,0,1,70.7,69.867Z"
       id="path48" />
    <path
       d="M69.348,72.01a.753.753,0,0,1,1.068,1.062l-.249.249a.754.754,0,0,1-1.062-1.069Z"
       id="path50" />
    <path
       d="M68.869,67.179a.747.747,0,0,1,1.114.97.652.652,0,0,1-.517.322C68.823,68.523,68.089,67.73,68.869,67.179Z"
       id="path52" />
    <path
       d="M68.2,74.71c.681-.695,1.75.374,1.068,1.069a.414.414,0,0,0-.131.177c-.465.845-1.77.085-1.3-.767A2.325,2.325,0,0,1,68.2,74.71Z"
       id="path54" />
    <path
       d="M68.974,79.043a.765.765,0,0,1-.269,1.029,1.613,1.613,0,0,1-1.12.183c-.964-.033-.971-1.54,0-1.507.111.006.222.026.334.026h.026A.745.745,0,0,1,68.974,79.043Z"
       id="path56" />
    <path
       d="M67.663,72.567a.772.772,0,0,1-.269,1.036c-.36.255-.766.432-1.147.655a.755.755,0,0,1-.76-1.3c.38-.223.787-.4,1.147-.656A.757.757,0,0,1,67.663,72.567Z"
       id="path58" />
    <path
       d="M67.447,67.835a.74.74,0,0,1,.485.7.749.749,0,0,1-.754.747.984.984,0,0,1-.695-.3C65.808,68.339,66.746,67.343,67.447,67.835Z"
       id="path60" />
    <path
       d="M66.051,77.273c0-.007.1-.138.1-.138a2.68,2.68,0,0,1,.171-.209.746.746,0,0,1,1.061,0,.759.759,0,0,1,0,1.061c.086-.091-.085.131-.078.118a2.62,2.62,0,0,1-.164.21.756.756,0,0,1-1.069,0A.767.767,0,0,1,66.051,77.273Z"
       id="path62" />
    <path
       d="M67.014,55.152a.754.754,0,0,1,0,1.508.263.263,0,0,1-.052.006.726.726,0,0,0-.157.053.75.75,0,0,1-.925-.525.77.77,0,0,1,.525-.93A1.735,1.735,0,0,1,67.014,55.152Z"
       id="path64" />
    <path
       d="M66.85,57.466c1.311,0,1.311,1.311,0,1.311S65.54,57.466,66.85,57.466Z"
       id="path66" />
    <path
       d="M66.523,65.888c1.114-.006.721,1.232-.02,1.639a.92.92,0,0,1-1.167-.19.749.749,0,0,1,0-1.062A1.719,1.719,0,0,1,66.523,65.888Z"
       id="path68" />
    <path
       d="M66.359,52.039a.754.754,0,0,1,0,1.507,23.011,23.011,0,0,1-6.43-.6.756.756,0,0,1,.407-1.455A21.559,21.559,0,0,0,66.359,52.039Z"
       id="path70" />
    <path
       d="M65.69,58.823a.759.759,0,0,1-.524.924,2.564,2.564,0,0,1-1.134.118c-.367-.013-.741-.007-1.114-.007a.759.759,0,0,1-.4-1.383,1.2,1.2,0,0,1,.02-.209.752.752,0,0,1,.177-1.364,2.494,2.494,0,0,0,.557-.085.644.644,0,0,1,.137-.059c-.485-.3-.432-1.914.164-1.914h.656a.984.984,0,0,1,0,1.967H63.98a.735.735,0,0,1,.1,1.278c-.007.1-.02.183-.033.268a1.576,1.576,0,0,0,.721-.059A.749.749,0,0,1,65.69,58.823Z"
       id="path72" />
    <path
       d="M65.127,81.337a.77.77,0,0,1-.269,1.029,1.235,1.235,0,0,1-.708.183.751.751,0,0,1-.026-1.5A.767.767,0,0,1,65.127,81.337Z"
       id="path74" />
    <path
       d="M64.6,70.588c.944-.23,1.344,1.225.4,1.448-.183.046-.373.079-.564.131-.072.026-.15.046-.222.079a.057.057,0,0,0-.027.006.761.761,0,0,1-1.068,0,.753.753,0,0,1,0-1.061A3.1,3.1,0,0,1,64.6,70.588Z"
       id="path76" />
    <path
       d="M64.681,68.484a.78.78,0,0,1,0,1.068,6.567,6.567,0,0,1-.819.655c-.715.656-1.783-.406-1.069-1.068a6.433,6.433,0,0,0,.82-.655A.76.76,0,0,1,64.681,68.484Z"
       id="path78" />
    <path
       d="M64.189,72.252a.057.057,0,0,1,.027-.006.223.223,0,0,1-.059.046C64.163,72.272,64.176,72.265,64.189,72.252Z"
       id="path80" />
    <path
       d="M63.98,47.943a.754.754,0,0,1,0,1.507,12.356,12.356,0,0,1-3.8-.275c-1.016-.328-2.123-1.219-3.159-1.363-.95-.125-.963-1.633,0-1.508,1.147.157,1.979.911,3.067,1.258A12.186,12.186,0,0,0,63.98,47.943Z"
       id="path82" />
    <path
       d="M62.262,67.3a.659.659,0,1,1,1.311,0C63.573,68.608,62.262,68.608,62.262,67.3Z"
       id="path84" />
    <path
       d="M61.594,77.175a.765.765,0,0,1-.524.924,1.235,1.235,0,0,1-1.508-.505.781.781,0,0,1,.269-1.035.8.8,0,0,1,.872.078A.76.76,0,0,1,61.594,77.175Z"
       id="path86" />
    <path
       d="M61.2,55.48a.755.755,0,0,1,.019,1.507.754.754,0,0,1-.734-1.317A1.308,1.308,0,0,1,61.2,55.48Z"
       id="path88" />
    <path
       d="M60.866,59.052a.77.77,0,0,1-.268,1.029.883.883,0,0,1-1.357-.531.806.806,0,0,1,.229-.754,1.5,1.5,0,0,1-1.029-.19.764.764,0,0,1-.268-1.029A.751.751,0,0,1,59.2,57.3h.1l.269-.02a.748.748,0,0,1,.459,1.324.765.765,0,0,1,.3.079A.811.811,0,0,1,60.866,59.052Z"
       id="path90" />
    <path
       d="M59.68,41.31c.38.15.642.373.524.8a.761.761,0,0,1-.93.531c-.407-.157-1.449-.4-1.606-.9C57.321,40.654,59.215,41.126,59.68,41.31Z"
       id="path92" />
    <path
       d="M60.722,39.848a.75.75,0,0,1-.754.754,1.744,1.744,0,0,1-.6-.151.978.978,0,0,0-.216-.092.754.754,0,1,1,0-1.507,1.752,1.752,0,0,1,.557.111c.1.04.2.085.289.131h-.027c.014,0,.033.007.046.007a.048.048,0,0,1,.033.013c-.006,0-.013-.007-.02-.013A.76.76,0,0,1,60.722,39.848Z"
       id="path94" />
    <path
       d="M60.047,39.114a.048.048,0,0,0-.033-.013h.013C60.034,39.107,60.041,39.114,60.047,39.114Z"
       id="path96" />
    <path
       d="M59.955,80.779a.76.76,0,0,1-.524.925,2.888,2.888,0,0,1-.773.19.755.755,0,0,1-.754-.754.771.771,0,0,1,.754-.754h-.027a1.053,1.053,0,0,1,.177-.052,1.525,1.525,0,0,1,.223-.079A.751.751,0,0,1,59.955,80.779Z"
       id="path98" />
    <path
       d="M59.189,74.959a.749.749,0,0,1,0,1.062,1.246,1.246,0,0,1-.859.3.754.754,0,0,1,0-1.508c.013,0,.02.007.026.007A.714.714,0,0,1,59.189,74.959Z"
       id="path100" />
    <path
       d="M58.238,78.073a.762.762,0,0,1-.524.93,6.862,6.862,0,0,1-1.272.105.754.754,0,0,1,0-1.507,4.667,4.667,0,0,0,.865-.053A.774.774,0,0,1,58.238,78.073Z"
       id="path102" />
    <path
       d="M58.055,50.591c.865.439.1,1.736-.761,1.3-.445-.223-.858-.531-1.311-.734a4.6,4.6,0,0,1-1.133-.609c-.741-.636.327-1.7,1.061-1.069a6.956,6.956,0,0,0,.97.459C57.268,50.164,57.655,50.387,58.055,50.591Z"
       id="path104" />
    <path
       d="M57.838,72.115a.754.754,0,0,1,0,1.507,3.241,3.241,0,0,1-.937-.111.752.752,0,0,1,.4-1.449A2.1,2.1,0,0,0,57.838,72.115Z"
       id="path106" />
    <path
       d="M57.753,58.921c.97.039.977,1.547,0,1.507a4.464,4.464,0,0,1-1.016-.19.758.758,0,0,1,.053-1.461h-.426c-.656,0-.656-1.966,0-1.966h.655c.649,0,.655,1.913.02,1.959a.588.588,0,0,1,.1.02A3.557,3.557,0,0,0,57.753,58.921Z"
       id="path108" />
    <path
       d="M57.019,37.148c1.311,0,1.311,1.311,0,1.311C56.364,38.459,56.364,37.148,57.019,37.148Z"
       id="path110" />
    <path
       d="M56.488,69.113a.752.752,0,0,1,.407,1.448c-.276.072-.721.125-.905.2a3.122,3.122,0,0,1-.937.242.754.754,0,1,1,0-1.507,5.577,5.577,0,0,0,.616-.216,2.211,2.211,0,0,1,.38-.053C56.2,69.185,56.344,69.146,56.488,69.113Z"
       id="path112" />
    <path
       d="M56.527,54.91a.754.754,0,0,1,0,1.507.786.786,0,0,0-.373.053.744.744,0,0,1-.924-.525.762.762,0,0,1,.524-.924A1.926,1.926,0,0,1,56.527,54.91Z"
       id="path114" />
    <path
       d="M56.16,100.16c.951-.157,1.364,1.292.407,1.455-2.353.394-5.211.918-7.531.079-.911-.321-.518-1.783.4-1.448C51.474,100.98,54.109,100.508,56.16,100.16Z"
       id="path116" />
    <path
       d="M56.364,82.372a.983.983,0,0,1,0,1.966h-.656c-.655,0-.655-1.966,0-1.966Z"
       id="path118" />
    <path
       d="M56.364,80.406a.659.659,0,1,1,0,1.311h-.656c-.655,0-.655-1.311,0-1.311Z"
       id="path120" />
    <path
       d="M56.2,67.035a.755.755,0,0,1,.754.754.764.764,0,0,1-.754.754c.111-.007-.026.013-.04.026a.774.774,0,0,1-1.068,0,.761.761,0,0,1,0-1.068A1.793,1.793,0,0,1,56.2,67.035Z"
       id="path122" />
    <path
       d="M56.082,74.638c.662.695-.393,1.75-1.069,1.055a1.3,1.3,0,0,1-.386-.858.757.757,0,0,1,.753-.754A.719.719,0,0,1,56.082,74.638Z"
       id="path124" />
    <path
       d="M55.027,44.279a.776.776,0,0,1,.268,1.035.759.759,0,0,1-1,.282.751.751,0,0,1,.027-1.5A1.238,1.238,0,0,1,55.027,44.279Z"
       id="path126" />
    <path
       d="M54.784,46.343a.753.753,0,0,1-.426,1.442c-.02-.006-.177-.052-.242-.078-.007,0-.02-.007-.027-.007a.756.756,0,0,1,.426-1.448c.02.006.19.059.249.085C54.771,46.337,54.777,46.343,54.784,46.343Z"
       id="path128" />
    <path
       d="M54.784,46.343c-.007,0-.013-.006-.02-.006A.026.026,0,0,1,54.784,46.343Z"
       id="path130" />
    <path
       d="M49.154,103.49c1.311.007,1.311,1.514,0,1.507-.655,0-1.147-.039-1.8-.078-.531-.033-.866-.21-1.4-.249-.963-.059-1.048-1.567-.078-1.508.609.04,1.114.223,1.717.276C48.171,103.483,49.154,103.49,49.154,103.49Z"
       id="path132" />
  </g>
  <path
     style="fill:#b3b3b3;stroke-width:0.188235"
     d="m 53.359579,85.707943 c -0.364151,-0.0726 -0.381363,-0.211273 -0.376471,-3.03319 0.0028,-1.626409 -0.03554,-5.28652 -0.08525,-8.133579 -0.09684,-5.546242 -0.03913,-6.090335 0.858443,-8.094118 l 0.463751,-1.035294 2.170303,0.05862 c 1.704472,0.04604 2.727509,-0.04376 4.766321,-0.418345 3.623039,-0.665657 5.461836,-0.843052 9.14921,-0.882656 l 3.2,-0.03437 0.656059,0.910806 c 0.360832,0.500943 0.530243,0.862634 0.37647,0.803756 -0.153773,-0.05888 -1.105404,-0.29778 -2.114735,-0.530894 -1.995667,-0.460919 -2.400147,-0.381789 -2.400147,0.469554 0,0.550012 0.296999,0.781258 1.22353,0.952652 0.414117,0.07661 1.451606,0.380656 2.305528,0.675668 0.853924,0.295012 1.700983,0.539601 1.882353,0.54353 0.181372,0.0039 0.554284,0.33205 0.828693,0.729159 0.571652,0.82726 1.593421,1.505441 5.446588,3.615075 1.510035,0.826753 3.161109,1.868889 3.669054,2.315858 l 0.923537,0.81267 -1.740892,0.874329 c -0.957491,0.480881 -3.273604,1.553758 -5.146918,2.384172 -4.124058,1.828136 -4.866473,2.199476 -7.029212,3.515858 -3.144841,1.914151 -4.204451,2.330793 -6.597555,2.594179 -0.621176,0.06837 -2.761037,0.328966 -4.755245,0.579106 -3.217363,0.403567 -6.573339,0.546778 -7.673411,0.327454 z m 3.786629,-1.580708 c 0.359578,-0.298424 0.335316,-1.102865 -0.04597,-1.52418 -0.353636,-0.390763 -1.378538,-0.461228 -1.721414,-0.118351 -0.296653,0.296653 -0.290356,1.515329 0.0094,1.821481 0.268491,0.274206 1.343849,0.164742 1.757973,-0.17895 z m 7.875641,-1.787742 c 0.599231,-0.599231 0.233982,-1.400661 -0.635967,-1.395436 -0.841483,0.0051 -1.213275,0.510807 -0.931919,1.267705 0.189781,0.510545 1.110096,0.585521 1.567886,0.127731 z m -5.169156,-0.735706 c 0.265258,-0.163939 0.245421,-0.912734 -0.03152,-1.189672 -0.538652,-0.538652 -2.032941,-0.01288 -2.032941,0.715294 0,0.548563 0.683755,0.934739 1.327923,0.749995 0.298192,-0.08552 0.629633,-0.209548 0.736535,-0.275617 z m -2.924962,-0.01723 c 0.649527,-0.649527 0.144832,-1.26628 -0.961653,-1.175171 -0.585983,0.04825 -0.7304,0.139485 -0.780528,0.493095 -0.03383,0.23864 0.04007,0.556287 0.164225,0.705882 0.299211,0.360527 1.207324,0.346827 1.577956,-0.02381 z M 68.718257,80.18161 c 0.470241,-0.251665 0.493276,-1.22939 0.03468,-1.472172 -0.181176,-0.09592 -0.668235,-0.11907 -1.082353,-0.05145 -0.648656,0.105913 -0.761343,0.195904 -0.813601,0.649742 -0.03336,0.289741 0.04054,0.648737 0.164225,0.797771 0.262103,0.315815 1.172835,0.356661 1.697045,0.07611 z m 4.474029,-0.151478 c 0.512249,-0.394047 0.510278,-1.280813 -0.0036,-1.602456 -0.736094,-0.460768 -1.905835,0.75997 -1.483821,1.548511 0.261435,0.488495 0.892717,0.511391 1.487383,0.05394 z M 58.137563,78.790166 c 0.338507,-0.338507 0.143065,-1.179843 -0.302706,-1.30309 -0.180936,-0.05003 -0.710151,-0.03449 -1.176033,0.03451 -0.752439,0.111452 -0.853835,0.184562 -0.90772,0.654497 -0.09618,0.838854 0.277634,1.131103 1.272402,0.994755 0.467428,-0.06407 0.968754,-0.235372 1.114057,-0.380675 z m 9.030923,-0.437227 c 0.644181,-0.5488 0.614692,-1.493889 -0.05183,-1.661175 -0.273851,-0.06873 -0.483204,-0.275037 -0.517647,-0.510108 -0.03945,-0.269247 -0.259572,-0.44671 -0.692551,-0.558333 -0.78441,-0.202224 -1.115373,-0.08563 -1.324594,0.46662 -0.243597,0.642988 0.111084,0.955907 0.95516,0.842692 l 0.705582,-0.09464 -0.295892,0.451588 c -0.269906,0.411929 -0.268813,0.492917 0.01245,0.922177 0.363528,0.554814 0.68038,0.591803 1.209325,0.141177 z m -5.845664,-0.340086 c 0.874776,-0.612716 0.345191,-1.453862 -0.931631,-1.479721 -0.633166,-0.01282 -0.792966,0.05922 -0.92879,0.418716 -0.129696,0.343279 -0.06774,0.53051 0.295866,0.894117 0.53214,0.53214 0.975557,0.579439 1.564555,0.166888 z M 76.857265,77.74532 c 0.911902,-0.578312 1.14701,-1.171635 0.658029,-1.660616 -0.364583,-0.364584 -0.874357,-0.26404 -1.763731,0.347866 -0.857692,0.590107 -1.075424,1.180037 -0.608034,1.647428 0.35143,0.35143 0.756635,0.272297 1.713736,-0.334678 z m -4.75689,-1.419082 c 0.709743,-0.359654 0.934919,-0.577269 0.934919,-0.903529 0,-0.947466 -0.781775,-1.125531 -1.974873,-0.449816 -0.882772,0.49996 -1.018652,0.904168 -0.483759,1.439061 0.479492,0.479492 0.399444,0.483995 1.523713,-0.08572 z m 7.463964,-0.123758 c 1.017897,-0.956265 -0.05302,-1.995027 -1.216572,-1.180044 -0.497322,0.348337 -0.533783,0.773312 -0.106828,1.245093 0.410274,0.453348 0.791539,0.434607 1.3234,-0.06505 z M 59.186555,76.12773 c 0.645285,-0.645286 0.290452,-1.39832 -0.658895,-1.39832 -0.798745,0 -1.215916,0.451356 -0.987774,1.068717 0.250349,0.677455 1.123953,0.852318 1.646669,0.329603 z m 10.140916,-0.305192 c 0.357166,-0.480199 0.360407,-0.532204 0.0616,-0.988235 -0.404743,-0.617717 -0.929321,-0.612329 -1.422472,0.01461 -0.473172,0.601541 -0.483582,0.782887 -0.07111,1.238668 0.41934,0.463364 0.965364,0.362301 1.431975,-0.265043 z m 12.701233,0.119728 c 0.739456,-0.517934 0.442191,-1.589326 -0.440966,-1.589326 -0.486699,0 -1.399503,0.675396 -1.399503,1.035511 0,0.749757 1.091714,1.078264 1.840469,0.553815 z M 56.190395,75.59959 c 0.373115,-0.569446 0.05574,-1.389559 -0.601581,-1.554537 -0.889545,-0.223262 -1.362218,0.913929 -0.689052,1.65777 0.427533,0.472419 0.940326,0.431402 1.290633,-0.103233 z m 20.994403,-0.541846 c 1.067432,-0.636989 1.371076,-1.212069 0.92425,-1.75046 -0.322546,-0.388645 -0.83568,-0.336998 -1.6422,0.165289 -0.386178,0.240505 -0.847853,0.490995 -1.025944,0.556646 -0.425574,0.15688 -0.632059,1.001105 -0.332992,1.361458 0.358516,0.431986 0.955422,0.3363 2.076886,-0.332933 z M 67.04216,73.936768 c 0.632299,-0.355372 0.732292,-0.496972 0.684452,-0.969252 -0.09171,-0.905409 -0.580473,-1.049789 -1.616217,-0.477433 -0.871775,0.481747 -1.148223,0.967294 -0.907659,1.594192 0.151567,0.394979 0.994466,0.327385 1.839424,-0.147507 z M 80.57708,73.78161 c 0.546758,-0.292616 0.478463,-1.086912 -0.10607,-1.233621 -0.700764,-0.17588 -1.035716,0.03053 -1.035716,0.638258 0,0.811968 0.373325,1.006631 1.141786,0.595363 z M 58.060422,73.67197 c 0.472249,-0.181219 0.713949,-0.765656 0.489831,-1.184424 -0.242903,-0.453869 -1.595308,-0.717301 -1.992057,-0.388028 -0.584591,0.485167 -0.267759,1.346283 0.571216,1.552506 0.582265,0.143123 0.608548,0.143686 0.93101,0.01995 z m 15.86899,-0.378265 c 0.70634,-0.445442 0.458458,-1.57606 -0.345542,-1.57606 -0.647177,0 -1.66569,0.715328 -1.675106,1.17647 -0.0015,0.07765 0.170863,0.314922 0.383217,0.527276 0.4098,0.4098 0.838097,0.376401 1.637431,-0.127686 z M 70.4,73.223527 c 0.427017,-0.427017 0.458435,-0.62454 0.181612,-1.141786 -0.386976,-0.723072 -1.687494,-0.212323 -1.687494,0.662725 0,0.857521 0.855321,1.129622 1.505882,0.479061 z m 6.055767,-0.687998 c 0.47532,-0.430158 0.430552,-0.940882 -0.113732,-1.297511 -0.570016,-0.37349 -1.17479,-0.112754 -1.349067,0.581622 -0.225572,0.898751 0.739077,1.370848 1.462799,0.715889 z M 64.583676,72.258285 c 0.613014,-0.203396 1.110442,-0.630337 1.110442,-0.953088 0,-0.08374 -0.170702,-0.32296 -0.379338,-0.531596 -0.407776,-0.407776 -0.931758,-0.372898 -1.926545,0.128236 -0.379873,0.191365 -0.517647,0.401431 -0.517647,0.789269 0,0.290675 0.05647,0.58497 0.12549,0.65399 0.188602,0.188602 0.869793,0.151354 1.587598,-0.08681 z m 5.240837,-1.037308 c 0.795406,-0.159081 1.24974,-0.829273 0.946408,-1.396054 -0.192695,-0.360055 -0.326058,-0.397622 -1.056262,-0.297536 -1.190568,0.163185 -1.573483,0.415325 -1.573483,1.036096 0,0.289691 0.05647,0.583181 0.125491,0.652201 0.158334,0.158335 0.782043,0.160454 1.557846,0.0053 z m 3.932586,-0.180357 c 0.884104,-0.619251 0.193254,-1.846258 -0.833551,-1.480453 -0.662411,0.235988 -0.914887,0.66195 -0.759444,1.281284 0.09781,0.389721 0.239719,0.499723 0.644658,0.499723 0.28558,0 0.712332,-0.135249 0.948337,-0.300554 z M 56.514446,70.759646 c 0.844897,-0.22148 1.195005,-0.744593 0.885452,-1.322997 -0.18217,-0.34039 -0.341559,-0.386324 -1.090731,-0.314338 -0.482561,0.04637 -1.130711,0.205375 -1.440334,0.353347 -0.68194,0.325909 -0.859047,1.063913 -0.345533,1.439834 0.340544,0.249297 0.490339,0.237573 1.991146,-0.155846 z m 7.909083,-0.893048 c 0.770364,-0.711675 0.61385,-1.725424 -0.266391,-1.725424 -0.461893,0 -1.66302,1.094008 -1.66302,1.514708 0,0.436395 0.696393,0.938798 1.103962,0.796439 0.169291,-0.05913 0.540744,-0.322706 0.825449,-0.585723 z m 3.165316,-0.602635 c 0.237863,-0.1273 0.364096,-0.394017 0.364096,-0.769292 0,-0.462202 -0.107633,-0.615061 -0.550895,-0.782373 -0.529635,-0.199916 -0.540583,-0.227881 -0.283685,-0.724667 0.406424,-0.785936 0.180709,-1.10528 -0.78122,-1.10528 -0.663658,0 -0.880553,0.08848 -1.12265,0.457965 -0.39275,0.599411 -0.09149,1.206635 0.674669,1.359866 0.424307,0.08486 0.514197,0.176041 0.390847,0.396453 -0.235207,0.420292 -0.02655,0.993899 0.428407,1.177726 0.522525,0.211126 0.465246,0.211803 0.880431,-0.0104 z M 56.372127,68.673609 c 0.561797,-0.255972 0.808662,-0.977373 0.472903,-1.381938 -0.527835,-0.636002 -2.068559,-0.09346 -2.068559,0.728412 0,0.81569 0.652876,1.083085 1.595656,0.653526 z m 13.649374,-0.435873 c 0.304721,-0.367167 0.09796,-1.15698 -0.332345,-1.269506 -0.580764,-0.151873 -1.171509,0.180254 -1.171509,0.658643 0,0.241454 0.101647,0.540654 0.225882,0.664889 0.31205,0.31205 0.998231,0.283042 1.277972,-0.05403 z m -6.623854,-0.134209 c 0.124235,-0.124235 0.225882,-0.446118 0.225882,-0.715294 0,-0.963177 -0.973119,-1.301914 -1.351897,-0.470588 -0.418285,0.918035 0.464325,1.847572 1.126015,1.185882 z"
     id="path73" />
  <path
     style="fill:#b3b3b3;stroke-width:0.188235"
     d="m 54.660536,61.062441 c -0.06771,-0.269775 -0.06755,-1.156612 3.39e-4,-1.97075 0.101461,-1.216612 0.05553,-1.681875 -0.257908,-2.612292 -0.209744,-0.622622 -0.451806,-1.965223 -0.537914,-2.983559 -0.12749,-1.507737 -0.24074,-1.96538 -0.609927,-2.464733 -0.403463,-0.545713 -0.460294,-0.844702 -0.516304,-2.716278 -0.0386,-1.289873 0.05223,-2.86322 0.234912,-4.068962 0.327059,-2.158688 0.831962,-4.151752 1.051763,-4.151752 0.07733,0 0.245853,0.254118 0.374503,0.564706 0.182342,0.440213 0.351907,0.564706 0.769155,0.564706 0.788245,0 1.036589,-0.576122 0.657138,-1.524463 -1.055938,-2.63905 0.994761,-5.651192 4.614358,-6.777737 1.886186,-0.587048 4.569459,-0.333743 5.258418,0.496401 0.239348,0.288397 0.277401,0.275655 -1.887304,0.631929 -1.346518,0.221613 -3.494812,1.200664 -4.512255,2.056386 -0.601688,0.506051 -0.635545,0.588824 -0.427565,1.045292 0.307211,0.674253 1.036045,0.649733 2.11629,-0.0712 0.465883,-0.31092 1.294943,-0.734086 1.842356,-0.94037 1.073028,-0.404355 1.68694,-0.493366 1.075291,-0.155909 -1.256951,0.693484 -2.347824,2.475552 -2.351102,3.840799 -0.0021,0.881134 0.439043,2.486 0.969827,3.528083 0.300809,0.590573 0.451895,0.70708 0.854368,0.658823 0.825824,-0.09902 0.938869,-0.543512 0.478748,-1.882446 -0.639317,-1.860387 -0.694016,-2.462239 -0.298768,-3.287288 l 0.346927,-0.724183 0.108818,1.135929 c 0.128471,1.341095 0.764018,2.802392 1.832259,4.212871 0.424625,0.560664 0.728826,1.089319 0.676003,1.174789 -0.05282,0.08547 -0.398327,0.0291 -0.767785,-0.125271 -0.369458,-0.154369 -0.782405,-0.280671 -0.917661,-0.280671 -0.399514,0 -0.874035,0.592963 -0.775637,0.969238 0.112283,0.429369 -0.211258,0.448346 -1.126207,0.06606 -0.371671,-0.155294 -0.914387,-0.282353 -1.206035,-0.282353 -0.348481,0 -0.82958,-0.259051 -1.403343,-0.75564 -0.480191,-0.415602 -1.141813,-0.893461 -1.470272,-1.06191 -0.328459,-0.168448 -0.79921,-0.463704 -1.046113,-0.656124 -0.841362,-0.655704 -1.817106,-0.299909 -1.683182,0.613755 0.08208,0.559956 2.998871,2.596048 4.861508,3.393616 1.81023,0.775127 3.874062,0.86421 5.364706,0.231561 0.517647,-0.219696 1.195294,-0.451414 1.505883,-0.514928 0.630366,-0.128907 0.655811,-0.152152 -1.002836,0.91615 -0.917459,0.590918 -1.194863,1.198971 -0.776801,1.702704 0.353396,0.425816 0.838732,0.32647 2.011276,-0.411698 1.447356,-0.911175 2.079669,-1.521772 2.215278,-2.139197 0.08569,-0.390138 0.28198,-0.562 0.829109,-0.725924 0.394262,-0.118124 1.029267,-0.426788 1.411119,-0.685921 0.381854,-0.259132 0.724422,-0.47115 0.761263,-0.47115 0.03684,0 0.165508,0.444706 0.285928,0.988235 0.120419,0.54353 0.520926,2.258824 0.890014,3.811765 0.602703,2.535874 0.659307,2.996122 0.555621,4.517647 -0.101242,1.485636 -0.419143,3.139388 -1.076495,5.6 l -0.188576,0.705882 -4.55745,-0.01485 c -3.237781,-0.01056 -4.410054,-0.06877 -4.048421,-0.201049 0.87877,-0.321428 0.902158,-1.376692 0.03534,-1.594251 -0.247173,-0.06204 -0.576653,-0.06396 -0.732179,-0.0043 -0.323492,0.124136 -0.387141,-0.169425 -0.07814,-0.360397 0.112549,-0.06956 0.15953,-0.29895 0.104403,-0.509756 -0.06828,-0.261094 0.04651,-0.498715 0.360072,-0.745359 0.534641,-0.420548 0.580696,-0.83204 0.1603,-1.432239 -0.24462,-0.349245 -0.444433,-0.417789 -1.082353,-0.371296 l -0.78235,0.05702 -0.0569,0.988235 c -0.0473,0.821613 -0.116574,0.988235 -0.410844,0.988235 -0.194672,0 -0.39509,0.148236 -0.445373,0.329412 -0.07711,0.277839 -0.0496,2.086609 0.03865,2.541177 0.01507,0.07765 0.408585,0.141176 0.874467,0.141176 1.104661,0 1.081509,0.248761 -0.04706,0.505642 -0.491764,0.111934 -1.730861,0.425133 -2.753548,0.695996 -1.404585,0.372011 -2.313102,0.49248 -3.714061,0.49248 -1.841361,0 -1.855511,-0.0035 -1.977737,-0.490498 z m 3.812731,-0.921689 c 0.196882,-0.513065 -0.09859,-1.176839 -0.577345,-1.296999 -0.402927,-0.101129 -0.447505,-0.194347 -0.35767,-0.747942 0.137221,-0.845588 -0.198288,-1.430484 -0.838993,-1.462624 -0.444343,-0.02229 -0.455706,-0.03629 -0.08708,-0.107264 0.826544,-0.159149 0.978549,-1.419305 0.200972,-1.666099 -0.457013,-0.14505 -1.325696,0.05866 -1.514264,0.355097 -0.291595,0.458404 -0.146412,1.075288 0.301051,1.279166 0.398135,0.181402 0.427333,0.268407 0.267122,0.795964 -0.125618,0.413645 -0.109911,0.76263 0.05207,1.157005 0.12757,0.310589 0.21447,0.744586 0.193113,0.964437 -0.06129,0.630882 0.470872,1.012034 1.41299,1.012034 0.573152,0 0.873951,-0.08972 0.948032,-0.282775 z m 2.479191,-0.602703 c 0.04171,-0.431177 -0.04335,-0.666631 -0.29836,-0.825886 -0.226129,-0.141219 -0.328074,-0.372512 -0.278498,-0.631855 0.106345,-0.556308 -0.330086,-0.869284 -1.264127,-0.90653 -1.219467,-0.04863 -1.590809,0.937303 -0.571487,1.517327 0.309934,0.176362 0.564052,0.432108 0.564706,0.568326 0.0032,0.657638 0.399443,0.997355 1.095855,0.939432 0.628436,-0.05227 0.69905,-0.114329 0.751911,-0.660814 z m 6.382484,-0.737417 c 0.505044,-0.135394 0.733917,-0.740034 0.422267,-1.11555 -0.126279,-0.152156 -0.54746,-0.27332 -0.950105,-0.27332 -0.55083,0 -0.775702,0.09797 -0.943186,0.410918 -0.187238,0.349856 -0.157153,0.461739 0.202466,0.752941 0.454569,0.368087 0.623256,0.398009 1.268558,0.225011 z m 5.290933,-1.076104 c 0.0349,-0.304864 -0.06963,-0.678819 -0.243422,-0.870861 -0.280638,-0.3101 -0.28061,-0.345767 3.76e-4,-0.453579 0.214543,-0.08233 0.288778,-0.304529 0.250432,-0.749598 -0.03491,-0.405209 0.06138,-0.748467 0.2679,-0.954984 0.400765,-0.400764 0.403584,-0.563904 0.01643,-0.951051 -0.465255,-0.465255 -1.465733,-0.308179 -1.543779,0.242374 -0.03383,0.238641 0.04007,0.556288 0.164224,0.705882 0.189696,0.22857 0.117931,0.271993 -0.449516,0.271993 -0.807824,0 -1.20639,0.513436 -0.87673,1.129411 0.110814,0.207059 0.296335,0.376471 0.412267,0.376471 0.118834,0 0.07489,0.150166 -0.10074,0.344233 -0.406115,0.448751 -0.397532,1.091607 0.01788,1.339562 0.181177,0.108141 0.710589,0.175879 1.176471,0.15053 0.777589,-0.04231 0.852076,-0.08991 0.908228,-0.580383 z m -11.16737,-0.689116 c 0.41155,-0.15647 0.484854,-0.287845 0.435783,-0.781016 -0.08083,-0.812337 -0.565891,-1.094139 -1.237089,-0.718696 -0.62568,0.349982 -0.785484,1.094075 -0.309687,1.441986 0.403801,0.295266 0.476307,0.299034 1.110993,0.05773 z m 5.835294,-0.37647 c 0.415221,-0.157866 0.485292,-0.2865 0.435783,-0.8 -0.05345,-0.554406 -0.123104,-0.617243 -0.741464,-0.668911 -1.072847,-0.08965 -1.655087,0.704342 -0.998202,1.361227 0.344272,0.344273 0.621409,0.36716 1.303883,0.107684 z M 67.052675,53.16185 c 0.419446,-0.920584 0.07709,-1.101658 -2.319462,-1.226782 -1.179738,-0.06159 -2.755929,-0.222828 -3.502646,-0.3583 -1.101382,-0.199816 -1.412297,-0.200976 -1.647059,-0.0061 -0.359863,0.29866 -0.376038,1.017244 -0.02937,1.304951 0.388456,0.322388 3.349612,0.732546 5.438137,0.753246 1.801716,0.01786 1.84385,0.0083 2.060404,-0.466974 z m 4.967255,-0.47251 c 0.345128,-0.286432 0.33523,-1.006351 -0.01786,-1.299394 -0.293339,-0.24345 -1.387244,-0.129926 -2.022127,0.209852 -0.33637,0.180021 -0.46415,1.097239 -0.191701,1.37604 0.195465,0.20002 1.910812,-0.02019 2.231695,-0.286498 z M 58.122822,51.848148 c 0.872751,-0.6113 0.44979,-1.191747 -1.633276,-2.241421 -1.235019,-0.622335 -1.901311,-0.471129 -1.901311,0.431477 0,0.482052 0.157501,0.623858 1.458824,1.313451 0.802353,0.42518 1.503505,0.776761 1.558116,0.781288 0.05461,0.0045 0.287553,-0.123631 0.517647,-0.284795 z m 13.312154,-1.40097 c 0.415221,-0.157867 0.485291,-0.286501 0.435784,-0.8 -0.05215,-0.540863 -0.131432,-0.618839 -0.683056,-0.671789 -0.732928,-0.07035 -1.164175,0.225344 -1.164175,0.798245 0,0.775613 0.506836,1.017476 1.411447,0.673544 z m -6.907917,-1.16718 c 0.29485,-0.294851 0.289508,-0.994917 -0.0094,-1.233351 -0.129412,-0.103226 -1.04,-0.227998 -2.023529,-0.277272 -1.489868,-0.07464 -2.022885,-0.192689 -3.194579,-0.707506 -1.834096,-0.805861 -2.323785,-0.937093 -2.7036,-0.724538 -0.429131,0.240154 -0.417651,1.262723 0.01583,1.409714 0.181177,0.06144 1.049412,0.432758 1.929412,0.82516 1.986546,0.885824 1.984108,0.885276 4.056471,0.91184 1.101118,0.01411 1.783407,-0.05804 1.929412,-0.204047 z m 8.442855,-0.816423 c 0.181218,-0.472247 -0.493129,-1.054505 -1.146989,-0.990358 -0.680406,0.06675 -0.891512,0.652199 -0.372122,1.031986 0.465099,0.340089 1.382277,0.314955 1.519111,-0.04163 z M 55.305111,47.118386 c 0.04422,-0.456426 -0.03848,-0.650919 -0.346944,-0.816005 -0.58596,-0.313597 -1.283297,-0.07873 -1.423379,0.479398 -0.171116,0.681782 0.22479,1.060554 1.037336,0.992442 0.6067,-0.05086 0.680804,-0.11716 0.732987,-0.655835 z m 0.02944,-1.741308 c 0.264734,-0.494659 0.245926,-0.687356 -0.100941,-1.034223 -0.590439,-0.590439 -1.774789,-0.269229 -1.774789,0.481344 0,0.84351 1.485807,1.281457 1.87573,0.552879 z m 4.602992,-2.761925 c 0.170987,-0.06561 0.297748,-0.333233 0.297748,-0.628609 0,-0.635718 -0.600249,-0.951252 -1.809595,-0.951252 -0.816991,0 -0.848345,0.02052 -0.791143,0.517647 0.0886,0.77 1.440075,1.393345 2.30299,1.062214 z m 0.636572,-2.182214 c 0.416758,-0.416759 0.26104,-1.063916 -0.329476,-1.369284 -1.08684,-0.562026 -1.990181,-0.228708 -1.859092,0.685976 0.105349,0.735074 1.653456,1.21842 2.188568,0.683308 z m -2.716401,-2.193954 c 0.178714,-0.197477 0.26417,-0.484486 0.196647,-0.660449 -0.134356,-0.350127 -0.871927,-0.592927 -1.301002,-0.428276 -0.282992,0.108594 -0.398371,1.071395 -0.157284,1.312483 0.245265,0.245264 0.950348,0.120214 1.261639,-0.223758 z"
     id="path75" />
  <path
     style="fill:#4d4d4d;stroke-width:0.188235"
     d="m 61.176471,24.938459 c 0,-1.487973 0.410191,-3.023035 1.31963,-4.938461 0.503843,-1.061177 1.005986,-1.929412 1.115872,-1.929412 0.262183,0 0.254553,0.121181 -0.10297,1.635378 -0.225413,0.954677 -0.27842,1.838985 -0.207483,3.461381 l 0.09528,2.179112 -1.110163,0.183602 -1.110164,0.183602 z"
     id="path77" />
  <path
     style="fill:#4d4d4d;stroke-width:0.188235"
     d="m 65.025334,23.97186 c -0.152683,-1.425734 -0.03006,-3.321197 0.299447,-4.628784 0.208785,-0.828518 0.260231,-0.884509 0.720616,-0.784278 1.004429,0.218677 1.001588,0.215316 0.690597,0.816705 -0.809892,1.56616 0.448146,2.6987 1.425525,1.283318 0.232346,-0.33647 0.441328,-0.638508 0.464405,-0.671195 0.02308,-0.03269 0.389331,0.03411 0.813899,0.148432 0.71724,0.193132 0.771942,0.254574 0.771942,0.867052 0,0.378365 -0.17163,0.891332 -0.40287,1.204102 -0.425122,0.575008 -0.530079,1.323786 -0.284279,2.02808 0.137166,0.393025 0.09386,0.423529 -0.601255,0.423529 -0.411987,0 -1.412989,0.127045 -2.224449,0.282321 -0.811461,0.155276 -1.489817,0.282335 -1.507459,0.282353 -0.01764,1.8e-5 -0.09239,-0.563218 -0.166119,-1.251635 z"
     id="path79" />
  <path
     style="fill:#ff0000;stroke-width:0.188235"
     d=""
     id="path81" />
  <path
     style="fill:#28170b;stroke-width:0.188235"
     d="m 59.887972,30.753135 c 0.127014,-0.297755 0.374272,-0.710784 0.549462,-0.917843 0.465747,-0.550468 0.927272,-1.525148 0.927272,-1.958275 0,-0.440688 0.938411,-0.768411 2.20509,-0.770087 0.436329,-5.78e-4 1.664564,-0.170205 2.729412,-0.376951 1.763451,-0.342383 3.912557,-0.502653 3.912557,-0.29178 0,0.107932 -0.316392,0.892911 -0.805412,1.998257 l -0.38047,0.859988 -1.75534,-0.603351 c -0.965437,-0.331843 -2.063346,-0.785079 -2.439799,-1.007192 -0.758685,-0.447634 -1.314173,-0.379698 -1.492624,0.182549 -0.299011,0.942103 0.375619,1.435115 3.337742,2.439182 1.005842,0.34095 1.778733,0.700924 1.717535,0.799944 -0.162277,0.26257 -1.469652,0.0068 -2.180423,-0.426553 -0.337136,-0.205554 -0.786979,-0.374052 -0.999651,-0.374439 -0.212672,-3.87e-4 -0.787378,-0.254822 -1.277125,-0.56541 -1.320789,-0.83762 -2.195022,-0.724388 -2.195022,0.284303 0,0.139432 0.12192,0.375432 0.270932,0.524444 0.235752,0.235752 0.156316,0.285755 -0.611765,0.385095 -0.485483,0.06279 -1.076333,0.169362 -1.313,0.236828 -0.410635,0.117057 -0.419748,0.09792 -0.199371,-0.418709 z"
     id="path87" />
  <path
     style="fill:#28170b;stroke-width:0.188235"
     d="m 72.501416,22.423545 c 0.854026,-0.414001 0.65919,-1.717665 -0.25671,-1.717665 -0.389817,0 -0.410698,-0.07869 -0.150099,-0.56562 0.12063,-0.2254 0.49199,-0.398113 1.029229,-0.478677 0.947816,-0.142134 1.286422,-0.437517 1.196496,-1.043765 -0.11635,-0.784383 -0.573151,-0.860029 -2.36709,-0.391992 -2.305963,0.601625 -2.495556,0.479533 -1.453494,-0.936008 0.9228,-1.253536 1.19359,-2.203605 0.871379,-3.057241 -0.164646,-0.436197 -0.160203,-0.600052 0.01936,-0.714099 0.546456,-0.34707 1.515988,-0.03193 1.999523,0.649933 0.221251,0.312 0.399174,0.349109 1.1783,0.245754 0.813884,-0.107966 0.970728,-0.06871 1.386457,0.347021 0.257817,0.257817 0.474757,0.578491 0.482089,0.712608 0.0073,0.134118 0.03387,1.472102 0.05897,2.973297 0.03758,2.247825 0.104784,2.819717 0.380837,3.241027 0.595508,0.908861 0.410523,0.986293 -2.36614,0.990437 -2.289428,0.0034 -2.489754,-0.02201 -2.009107,-0.25501 z m 2.097813,-5.142002 c 0.242801,-0.126353 0.32376,-0.348972 0.282353,-0.776405 l -0.05805,-0.599258 -1.389511,0.01317 c -1.130669,0.01072 -1.437488,0.07878 -1.647059,0.365389 -0.337602,0.461698 -0.325066,0.750559 0.0488,1.124423 0.245304,0.245303 0.517232,0.280788 1.364706,0.178085 0.582098,-0.07054 1.211543,-0.207976 1.398766,-0.305406 z"
     id="path89" />
  <path
     style="fill:#28170b;stroke-width:0.188235"
     d="m 88.584342,59.294115 c -0.144464,-0.363581 -0.205767,-1.645559 -0.154391,-3.228644 0.03964,-1.221583 0.05512,-1.257223 0.633432,-1.458824 0.779849,-0.271857 1.331276,-0.261171 1.734414,0.03361 0.417354,0.305176 0.218643,0.971786 -0.233852,0.784496 -1.230217,-0.509194 -1.550545,-0.13515 -1.51757,1.772055 0.02522,1.458828 -0.239059,2.65848 -0.462033,2.097307 z"
     id="path93" />
  <path
     style="fill:#28170b;stroke-width:0.188235"
     d=""
     id="path95" />
  <path
     style="fill:#28170b;stroke-width:0.0941176"
     d="m 90.508387,60.246086 c -0.217817,-0.240685 -0.14493,-0.517292 0.275765,-1.046537 0.421058,-0.529699 0.455583,-1.055441 0.09727,-1.481267 -0.129412,-0.153798 -0.235294,-0.321368 -0.235294,-0.37238 0,-0.07346 1.115062,-0.229213 1.197671,-0.167293 0.0882,0.06611 -0.233011,1.365321 -0.499838,2.021708 -0.54999,1.352956 -0.553548,1.357409 -0.835578,1.045769 z"
     id="path99" />
  <path
     style="fill:#28170b;stroke-width:0.133102"
     d="m 38.516344,117.52348 c -1.66088,-0.30064 -2.449926,-0.86053 -5.094989,-3.61534 l -1.665294,-1.73439 0.856574,-0.59491 c 0.59398,-0.41252 1.040986,-0.86929 1.45812,-1.48995 0.33085,-0.49227 0.75578,-1.01636 0.944288,-1.16464 0.706612,-0.55582 1.080225,-0.31746 2.379624,1.51821 0.566489,0.80028 1.290196,1.71527 1.608238,2.03331 0.637941,0.63795 0.717839,0.90302 0.304748,1.01104 -0.207599,0.0543 -0.305735,-0.0141 -0.407232,-0.28396 -0.215741,-0.57352 -1.054487,-1.35374 -1.45528,-1.35374 -0.438976,0 -0.792231,0.37561 -0.792231,0.84237 0,0.19555 -0.02835,0.35555 -0.06299,0.35555 -0.03465,0 -0.337324,-0.13328 -0.672621,-0.29618 -0.561801,-0.27295 -0.63779,-0.28038 -0.968553,-0.0947 -0.292595,0.16423 -0.358923,0.29597 -0.358923,0.71286 0,0.47852 0.04525,0.53695 0.703853,0.90904 0.38712,0.21871 1.972149,0.99232 3.522287,1.71913 1.550139,0.72682 2.848865,1.35191 2.886058,1.38911 0.323559,0.32356 -1.679587,0.40984 -3.185676,0.13722 z"
     id="path101" />
  <path
     style="fill:#28170b;stroke-width:0.133102"
     d="m 31.994324,115.57491 c -1.118841,-0.59006 -1.730332,-1.17562 -1.730332,-1.65696 0,-0.51933 0.228298,-0.5205 0.858139,-0.004 0.654998,0.53672 2.15618,2.19683 1.981543,2.19132 -0.06109,-0.002 -0.560303,-0.24041 -1.10935,-0.52997 z"
     id="path103" />
  <path
     style="fill:#28170b;stroke-width:0.133102"
     d="m 87.873343,122.01584 c -0.518636,-0.58223 -0.631781,-1.5665 -0.37307,-3.24541 0.241011,-1.56403 0.18482,-1.47579 0.754704,-1.18524 1.032618,0.52646 1.818422,0.44564 1.981416,-0.20378 0.126212,-0.50287 -0.158786,-0.84712 -1.046537,-1.26413 -0.454654,-0.21357 -0.976384,-0.51124 -1.1594,-0.6615 l -0.332756,-0.27319 1.74697,-0.003 1.74697,-0.003 0.07865,0.39326 c 0.04386,0.21932 0.235373,0.49596 0.432968,0.62543 0.336635,0.22057 0.398294,0.22063 1.235733,0.001 0.484781,-0.12697 1.104137,-0.37806 1.376349,-0.55797 0.480349,-0.31748 0.498974,-0.31956 0.632236,-0.0706 0.07552,0.14111 0.137307,0.28784 0.137307,0.32607 0,0.0989 -2.089767,0.7466 -2.408765,0.7466 -0.345708,0 -0.918796,0.57738 -0.918796,0.92567 0,0.14974 0.121614,0.39387 0.270253,0.54251 0.230126,0.23012 0.373405,0.25727 0.964992,0.1828 0.382108,-0.0481 1.211382,-0.25679 1.842833,-0.46375 1.356766,-0.44469 1.572505,-0.41281 3.237244,0.47842 1.062168,0.56864 4.456806,1.73147 6.828546,2.33912 0.67716,0.17349 1.2312,0.36009 1.2312,0.41466 0,0.20313 -0.87479,0.54093 -1.85251,0.71535 -1.09139,0.1947 -3.67368,0.22183 -6.532948,0.0686 -1.189965,-0.0638 -2.381322,-0.038 -3.527215,0.0762 -0.951682,0.0949 -2.718617,0.21162 -3.926522,0.2595 -2.046243,0.0811 -2.211461,0.0699 -2.419855,-0.16405 z m 6.738137,-1.14538 c 0.273782,-0.39088 0.261695,-0.71451 -0.03787,-1.01408 -0.18993,-0.18993 -0.541836,-0.26497 -1.563954,-0.33349 -0.725384,-0.0486 -1.900833,-0.15701 -2.61211,-0.24084 -1.479819,-0.1744 -1.701575,-0.0942 -1.701575,0.61542 0,0.74581 0.288637,0.85968 2.994805,1.18144 0.219619,0.0261 0.920002,0.0565 1.556406,0.0674 1.056677,0.0182 1.175082,-0.006 1.3643,-0.27587 z"
     id="path105" />
  <path
     style="fill:#28170b;stroke-width:0.133102"
     d="m 91.861581,114.34221 c 0.0845,-0.72382 -0.10372,-0.78622 -2.440342,-0.80903 -2.410319,-0.0235 -2.455602,-0.0465 -2.455602,-1.24366 0,-0.38864 0.02515,-0.70662 0.0559,-0.70662 0.308573,0 3.222384,0.79682 4.384278,1.19894 2.002925,0.69318 2.506215,0.91557 2.413089,1.06625 -0.130393,0.21098 -1.168055,0.76418 -1.602829,0.8545 -0.395739,0.0822 -0.405055,0.0727 -0.35449,-0.36038 z"
     id="path107" />
  <path
     style="fill:#28170b;stroke-width:0.133102"
     d="m 39.856175,110.81731 c -0.622961,-0.6483 -1.935452,-2.41275 -1.852128,-2.48992 0.06886,-0.0638 2.386167,1.36851 3.3165,2.04987 l 0.807289,0.59124 -0.574548,0.23321 c -0.855624,0.3473 -1.032505,0.30724 -1.697113,-0.3844 z"
     id="path109" />
  <path
     style="fill:#786721;stroke-width:0.188235"
     d="m 47.286117,108.97824 c 0,-0.90742 -1.93527,-3.44018 -2.682895,-3.51121 -0.448334,-0.0426 -0.800223,0.0611 -0.937752,0.27641 -0.293783,0.45987 -0.113084,0.88361 0.703,1.6485 0.465882,0.43666 0.847059,0.88204 0.847059,0.98974 0,0.1077 -0.317647,-0.10766 -0.705883,-0.47858 -1.171162,-1.11893 -2.515773,-2.0579 -3.900572,-2.72385 -1.2074,-0.58063 -1.261857,-0.6311 -0.681041,-0.6311 0.347212,0 0.922816,0.18017 1.27912,0.40038 0.531908,0.32874 0.729552,0.36314 1.104571,0.19227 0.60572,-0.27598 0.589208,-0.90437 -0.04105,-1.56222 l -0.497795,-0.51959 0.450736,-0.17852 c 0.247905,-0.0982 0.849714,-0.31943 1.337353,-0.49165 0.620992,-0.21932 1.004925,-0.50456 1.281512,-0.95209 0.70547,-1.14147 4.146335,-3.476812 5.122701,-3.476812 0.292419,0 1.035075,0.254118 1.650347,0.564706 1.307221,0.659883 2.15701,0.730197 2.439761,0.201871 0.305726,-0.571254 0.05221,-0.9088 -1.173066,-1.561863 l -1.14038,-0.607816 1.596034,-0.757272 c 0.877819,-0.4165 1.855021,-0.975617 2.171559,-1.242483 0.39068,-0.329372 1.082033,-0.593816 2.152573,-0.823365 3.243924,-0.695572 7.756359,-2.338497 8.079074,-2.941496 0.288175,-0.538458 -0.08797,-1.114635 -0.727669,-1.114635 -0.285056,0 -1.404427,0.34443 -2.487496,0.7654 -3.125839,1.21496 -3.806038,1.452613 -4.557449,1.592317 l -0.705882,0.13124 v -1.126831 c 0,-0.619758 -0.05294,-1.391538 -0.117648,-1.715067 l -0.117647,-0.588235 h 5.587114 5.587111 l -0.340052,0.585783 c -0.187031,0.322181 -0.669866,0.870131 -1.072968,1.217665 -0.796802,0.686963 -8.166114,4.474695 -9.108585,4.681696 -0.822119,0.180568 -1.092469,0.55804 -0.823099,1.149242 0.117854,0.258664 0.337548,0.517599 0.488207,0.575412 0.531023,0.203773 2.490301,-0.536499 5.350967,-2.021753 1.590722,-0.825901 2.939996,-1.453864 2.998387,-1.395474 0.1663,0.1663 -0.704659,2.146972 -1.507633,3.428555 -0.400533,0.639266 -1.257082,1.657008 -1.903445,2.261648 -1.002302,0.937607 -1.479119,1.215837 -3.240868,1.891097 -1.560342,0.59807 -2.339559,1.02334 -3.185309,1.73845 -0.615805,0.52068 -1.885665,1.40382 -2.821909,1.96253 -0.936245,0.55871 -2.379859,1.62411 -3.208032,2.36756 -2.059147,1.8485 -2.541062,2.18976 -2.541062,1.79944 z m 2.667531,-4.17691 c 0.741232,-0.6708 0.17167,-1.38259 -1.106332,-1.38259 -0.472433,0 -1.408376,-0.10123 -2.079873,-0.22496 -1.127258,-0.2077 -1.240885,-0.19763 -1.48141,0.1313 -0.223602,0.3058 -0.197344,0.93731 0.05034,1.21073 0.162096,0.17894 2.291619,0.54642 3.252567,0.56127 0.702994,0.0109 1.127567,-0.0811 1.364706,-0.29575 z m 5.783054,-2.95145 c 1.43944,-0.26237 1.752517,-0.59839 1.259128,-1.3514 -0.29383,-0.44844 -0.419381,-0.49703 -1.02234,-0.39566 -3.223079,0.54186 -5.28959,0.54117 -6.705695,-0.002 -0.317785,-0.12195 -0.852266,0.43006 -0.852266,0.88021 0,0.4814 0.720981,0.92483 1.823492,1.12152 1.052748,0.1878 3.7659,0.0632 5.497681,-0.25243 z"
     id="path115" />
  <path
     style="fill:#786721;stroke-width:0.188235"
     d=""
     id="path117" />
  <path
     style="fill:#786721;stroke-width:0.188235"
     d="m 43.825389,110.26628 c -0.581306,-0.47857 -1.056919,-0.92395 -1.056919,-0.98974 0,-0.16732 -2.096435,-1.5316 -3.665931,-2.38565 -1.499626,-0.81603 -1.41397,-1.04194 0.170311,-0.44918 1.230588,0.46042 3.492579,2.1108 4.995072,3.64447 1.248271,1.27417 1.006128,1.37271 -0.442533,0.1801 z"
     id="path119" />
  <path
     style="fill:#786721;stroke-width:0.188235"
     d="m 94.721411,111.96922 c -0.465882,-0.14928 -2.023157,-0.56824 -3.46061,-0.93104 -2.924822,-0.7382 -4.69185,-1.5623 -5.225201,-2.43689 -0.273474,-0.44845 -0.348227,-0.95121 -0.348779,-2.34575 -5.09e-4,-1.30422 -0.105458,-2.08509 -0.395687,-2.94431 -0.383827,-1.13631 -0.385502,-1.18931 -0.0593,-1.87672 l 0.335678,-0.70739 3.721205,0.10969 c 3.563873,0.10505 3.726087,0.0943 3.836695,-0.25419 0.156834,-0.49414 -0.04373,-1.05402 -0.434691,-1.213451 -0.177235,-0.07228 -1.868128,-0.176818 -3.75754,-0.232316 l -3.435294,-0.100906 0.0012,-1.055662 c 6.4e-4,-0.580613 0.127697,-1.298285 0.282353,-1.594825 0.391383,-0.750443 0.359848,-0.955517 -0.283512,-1.84365 -0.310589,-0.428754 -0.564706,-0.840724 -0.564706,-0.915488 0,-0.07476 0.317647,-0.187288 0.705882,-0.250053 0.388235,-0.06277 1.027922,-0.333747 1.421525,-0.602183 0.393604,-0.268435 1.010953,-0.535986 1.371888,-0.594557 0.721964,-0.117159 1.105651,-0.612722 0.922116,-1.190989 -0.238616,-0.751813 -1.711095,-0.700315 -3.322405,0.116197 -1.090703,0.552702 -1.831558,0.571444 -3.253273,0.0823 -1.270072,-0.436969 -1.94081,-0.822406 -3.910117,-2.246935 -1.497586,-1.083302 -1.708804,-1.333127 -1.127113,-1.333127 0.185853,0 1.160694,-0.213847 2.166313,-0.475215 4.334372,-1.126536 7.216667,-2.512846 9.845478,-4.735422 0.528809,-0.447091 1.047433,-0.812892 1.152497,-0.812892 0.371079,0 3.729545,4.033795 4.427209,5.317445 1.170445,2.153533 -0.990106,5.808679 -4.505314,7.621933 -0.809136,0.417378 -2.021745,0.952245 -2.694686,1.188595 -1.567433,0.550512 -1.725264,0.682499 -1.656671,1.385405 0.08116,0.831749 0.688493,0.836159 2.800919,0.02034 3.200169,-1.235906 5.257089,-2.689654 6.55439,-4.632378 l 0.77195,-1.156004 v 0.832671 c 0,1.094562 -0.655661,3.652826 -1.362513,5.31626 -0.847274,1.993891 -0.881071,2.525907 -0.197525,3.109367 0.482918,0.41222 0.995332,1.39993 0.995332,1.91857 0,0.0881 -0.215971,0.16015 -0.479936,0.16015 -0.634492,0 -1.590652,0.5054 -1.590652,0.84078 0,0.14653 -0.06617,0.30731 -0.147041,0.35729 -0.301535,0.18636 -3.020775,-0.41967 -4.448862,-0.9915 -1.75216,-0.7016 -2.180568,-0.64592 -2.180568,0.28339 0,0.59946 0.0731,0.68421 0.894118,1.03661 2.095851,0.89958 5.574701,1.66795 6.385974,1.41047 0.195855,-0.0622 0.506275,-0.36725 0.689823,-0.67798 0.183547,-0.31072 0.46759,-0.56494 0.631205,-0.56494 0.463774,0 0.224089,2.14391 -0.389534,3.48424 -0.271666,0.59339 -0.493939,1.26038 -0.493939,1.48219 0,0.22182 0.303061,0.85332 0.673468,1.40334 0.647528,0.96153 0.735048,1.55006 0.226558,1.52352 -0.132661,-0.007 -0.622379,-0.13472 -1.088261,-0.28399 z m -1.050689,-2.64121 c 0.189883,-0.0729 0.297748,-0.34372 0.297748,-0.74768 0,-0.60369 -0.0464,-0.64635 -0.988235,-0.90869 -0.54353,-0.1514 -1.62353,-0.45527 -2.4,-0.67527 -2.20374,-0.6244 -2.176393,-0.6214 -2.521484,-0.27631 -0.45978,0.45978 -0.302721,1.07274 0.356778,1.39241 0.51388,0.24909 4.214109,1.27508 4.737546,1.31361 0.120944,0.009 0.353885,-0.0352 0.517647,-0.0981 z m -1.45519,-18.172729 c 0.803082,-0.242933 1.564703,-0.863039 1.564703,-1.273969 0,-0.183498 -0.172109,-0.48939 -0.382464,-0.679758 -0.371759,-0.336438 -0.404687,-0.335328 -1.176535,0.03966 -0.43674,0.212185 -1.090514,0.45016 -1.452831,0.528834 -0.733124,0.159192 -0.933974,0.369094 -0.938229,0.980512 -0.0053,0.766978 0.759061,0.896671 2.385356,0.404716 z M 86.86022,90.050735 c 1.831279,-0.209826 3.486741,-0.75528 4.228356,-1.39319 0.391747,-0.336967 0.464162,-0.523656 0.361611,-0.932251 -0.18472,-0.735985 -0.576284,-0.795545 -1.681865,-0.255826 -1.366028,0.666863 -2.202114,0.859142 -4.364558,1.003742 -2.033597,0.135985 -2.352941,0.262978 -2.352941,0.935697 0,0.845178 0.823584,0.98394 3.809397,0.641828 z"
     id="path121" />
  <path
     style="fill:#786721;stroke-width:0.188235"
     d="m 68.630194,43.845582 c -0.814218,-0.488083 -1.988112,-2.022616 -2.349835,-3.071743 -0.247341,-0.717378 -0.113227,-1.009949 0.19713,-0.430042 0.231523,0.432605 0.932099,0.523238 1.288628,0.166709 0.393407,-0.393407 0.246499,-1.031468 -0.421601,-1.831132 -0.991722,-1.187014 -1.026068,-1.493077 -0.243413,-2.169102 0.36542,-0.315636 0.812493,-0.870354 0.993493,-1.232707 0.181001,-0.362353 0.643114,-1.016687 1.026917,-1.454075 0.519735,-0.592297 0.808288,-1.192788 1.13066,-2.352941 0.404504,-1.455732 0.92677,-2.791693 1.656898,-4.238365 0.264122,-0.523328 0.272885,-0.697321 0.06162,-1.223529 -0.496223,-1.235985 -0.497308,-1.231766 0.379039,-1.473614 1.065146,-0.293951 2.682999,-0.299355 3.689325,-0.01232 0.670554,0.19126 0.8,0.305328 0.8,0.70496 0,0.416637 -0.03445,0.442327 -0.273117,0.203661 -0.150214,-0.150214 -0.580164,-0.330719 -0.955445,-0.401122 -0.870106,-0.163233 -1.256936,0.136022 -1.18105,0.913668 0.05115,0.524199 0.13914,0.597353 0.90373,0.751388 0.465882,0.09386 0.869302,0.186688 0.896488,0.206292 0.02719,0.0196 -0.239231,0.833078 -0.592037,1.80772 -0.737092,2.03625 -0.991947,3.527366 -1.236679,7.235634 -0.204408,3.097251 -0.6224,4.589337 -1.77637,6.341012 -1.319348,2.002714 -2.491662,2.460457 -3.994384,1.559651 z"
     id="path123" />
  <path
     style="fill:#786721;stroke-width:0.188235"
     d="m 85.027293,58.779361 c -1.255662,-0.475965 -1.928128,-0.598271 -4.047058,-0.736065 -2.233703,-0.145257 -4.467917,-0.44149 -4.641893,-0.615466 -0.03236,-0.03236 0.06809,-0.722229 0.223219,-1.533037 0.243617,-1.273271 0.388744,-1.592176 1.064807,-2.339829 0.43051,-0.476099 0.803405,-0.893673 0.828655,-0.927944 0.02525,-0.03427 0.212297,0.02674 0.41566,0.135575 0.363824,0.194712 0.364326,0.221219 0.03132,1.653719 -0.186135,0.800709 -0.472326,1.553745 -0.635981,1.673412 -0.375677,0.274702 -0.385995,1.091873 -0.01765,1.397575 0.383203,0.31803 1.158177,0.09225 1.506128,-0.438785 0.156704,-0.23916 0.445109,-1.063698 0.640901,-1.832306 0.233361,-0.91609 0.379189,-1.242798 0.423347,-0.948452 0.03705,0.24696 0.241919,0.564293 0.455266,0.705187 0.342668,0.226297 0.462172,0.201375 1.024805,-0.213723 0.530556,-0.391431 1.50494,-0.650221 1.50494,-0.399703 0,0.03861 -0.17293,0.461128 -0.38429,0.938941 -0.47472,1.073184 -0.279081,1.626164 0.575322,1.626164 0.450634,0 0.621933,-0.131972 0.916235,-0.705882 0.199088,-0.388236 0.575931,-0.905548 0.837429,-1.149584 0.841837,-0.785618 0.972951,-0.514529 0.972951,2.011648 0,1.258657 -0.04235,2.28417 -0.09412,2.278918 -0.05176,-0.0053 -0.771764,-0.266416 -1.6,-0.580363 z"
     id="path125" />
  <path
     style="fill:#786721;stroke-width:0.188235"
     d=""
     id="path127" />
  <path
     style="fill:#786721;stroke-width:0.188235"
     d="m 76.766523,51.452161 c -0.0475,-0.147792 -0.139159,-0.586361 -0.203681,-0.974596 -0.150784,-0.907278 0.175009,-0.930887 0.598245,-0.04335 0.294204,0.616952 0.29447,0.683997 0.0039,0.974596 -0.259956,0.259956 -0.326489,0.267195 -0.398435,0.04335 z"
     id="path131" />
  <path
     style="fill:#ffdd55;stroke-width:0.188235"
     d="m 64.227293,86.761271 c 1.087059,-0.147247 2.611765,-0.416201 3.388236,-0.597675 0.92737,-0.216742 2.283675,-0.33939 3.952941,-0.357457 3.090626,-0.03345 5.519799,-0.533032 10.222481,-2.102346 3.427224,-1.143685 3.791473,-1.393645 3.245381,-2.227086 -0.165039,-0.251881 -0.408963,-0.457965 -0.542055,-0.457965 -0.133092,0 -0.95702,0.261276 -1.830955,0.580614 -1.707101,0.623781 -7.444323,2.138544 -8.836029,2.332923 -0.8001,0.11175 -0.732271,0.05468 1.22353,-1.029416 1.138823,-0.631248 2.832941,-1.608278 3.764706,-2.171177 1.737475,-1.049647 7.247059,-3.397062 7.247059,-3.087684 0,0.338458 -1.577094,1.306863 -2.614728,1.605558 -1.432309,0.412307 -1.610805,0.518293 -1.682074,0.998767 -0.09818,0.661898 0.323177,1.011643 1.088992,0.903909 1.813955,-0.255188 4.057837,-1.520807 4.736924,-2.671774 l 0.375096,-0.63574 1.109973,0.692892 c 0.610485,0.381091 1.113801,0.741457 1.118483,0.800814 0.02001,0.253755 -2.162929,2.299478 -3.218931,3.016596 -4.347307,2.9522 -10.89886,4.435939 -20.301971,4.597817 l -4.423529,0.07615 z"
     id="path133" />
  <path
     style="fill:#ffdd55;stroke-width:0.188235"
     d="m 69.547094,89.836569 0.609611,-1.206765 2.404256,-0.224973 2.404255,-0.224974 1.219274,0.877125 c 0.670601,0.482419 1.219274,0.937236 1.219274,1.010704 0,0.276327 -3.38944,0.781784 -5.880199,0.876895 l -2.586082,0.09875 z"
     id="path135" />
  <path
     style="fill:#ffdd55;stroke-width:0.188235"
     d=""
     id="path137" />
  <path
     style="fill:#ffdd55;stroke-width:0.0332756"
     d="m 55.185671,63.84366 c -0.0183,-0.0057 -0.07418,-0.01935 -0.124178,-0.03037 -0.109625,-0.02416 -0.19194,-0.167483 -0.19194,-0.334204 v -0.118789 l 0.324437,0.02563 c 0.178441,0.01409 0.803606,0.02457 1.389257,0.02327 0.905898,-0.002 1.149247,-0.01355 1.630505,-0.07733 1.067199,-0.141453 1.824021,-0.318992 2.996844,-0.703011 1.449726,-0.474686 2.6209,-0.703122 4.373705,-0.853085 1.125914,-0.09633 5.475866,-0.0722 7.715276,0.04281 l 0.378003,0.01941 -0.01343,0.210897 c -0.01988,0.312153 -0.06477,0.348661 -0.423299,0.344241 -0.157302,-0.0019 -0.443231,-0.01369 -0.635398,-0.02612 -0.435267,-0.02814 -3.357435,0.0132 -4.342468,0.06143 -2.83973,0.139048 -4.057009,0.265857 -5.910375,0.615711 -0.427913,0.08078 -1.175706,0.222103 -1.661764,0.314062 -1.662326,0.314502 -2.646754,0.424954 -4.04105,0.453405 -0.457539,0.0093 -0.966656,0.02269 -1.13137,0.02968 -0.164715,0.007 -0.314455,0.0081 -0.332757,0.0024 z"
     id="path141" />
  <path
     style="fill:#ffdd55;stroke-width:0.188235"
     d="m 59.931832,30.977043 c 0,-0.06213 0.338824,-0.674735 0.752941,-1.361351 0.414118,-0.686616 0.752941,-1.404073 0.752941,-1.594348 0,-0.468661 0.650805,-0.685421 2.704275,-0.900701 0.94559,-0.09913 2.185137,-0.260819 2.754549,-0.359302 1.496647,-0.258855 3.2,-0.435757 3.2,-0.332337 0,0.04897 -0.248906,0.669182 -0.553124,1.378251 -0.426047,0.993027 -0.631464,1.275309 -0.894117,1.228682 -0.187547,-0.03329 -1.285487,-0.435647 -2.439868,-0.894118 -1.15438,-0.458471 -2.236196,-0.833583 -2.404035,-0.833583 -0.427784,0 -0.804676,0.878146 -0.551599,1.285206 0.341843,0.549833 1.288188,1.07609 3.101515,1.724734 0.969029,0.346631 1.64793,0.668218 1.508668,0.714638 -0.29024,0.09675 -2.524334,-0.715092 -3.818712,-1.387667 -1.104006,-0.573657 -2.156691,-0.609009 -2.325199,-0.07809 -0.06572,0.207059 -0.06558,0.5463 3.01e-4,0.753869 0.07451,0.234751 0.02594,0.407078 -0.128491,0.455922 -0.543263,0.171822 -1.660045,0.306501 -1.660045,0.200193 z"
     id="path143" />
  <path
     style="fill:#cccccc;stroke-width:0.0665512"
     d="M 66.569695,17.042358 C 58.926201,15.596335 52.977914,14.253229 47.107241,12.647794 45.897258,12.316904 43.664427,11.748733 42.145395,11.385192 37.473622,10.267126 36.049426,9.8761796 33.778092,9.0883425 32.3954,8.6087407 31.395584,8.3144175 29.167906,7.7312074 27.183706,7.2117402 26.02239,6.8787901 24.985911,6.532226 24.130648,6.2462547 22.956642,5.7734573 22.61261,5.5764471 22.416412,5.4640939 22.424475,5.4627486 23.078469,5.4987154 c 1.715285,0.094333 6.713118,1.0855605 9.715811,1.9269509 1.212731,0.3398218 2.565854,0.6004474 4.18694,0.8064481 1.494097,0.1898635 2.412952,0.3949939 4.578984,1.0222381 1.81216,0.5247694 2.289035,0.6233625 4.380471,0.9056545 4.352841,0.587527 8.935779,1.393743 14.233107,2.503844 1.844582,0.386548 7.248622,1.567964 7.776851,1.700154 0.140101,0.03506 0.149655,0.07235 0.148422,0.579305 -0.0013,0.540066 -0.06201,1.100216 -0.20474,1.889495 -0.05691,0.3147 -0.101732,0.414577 -0.184146,0.410324 -0.05991,-0.0031 -0.573124,-0.09344 -1.140474,-0.200771 z"
     id="path145" />
  <path
     style="fill:#ffcc00;stroke-width:0.0665512"
     d="m 78.266074,17.970014 c -0.208648,-0.0762 -0.21475,-0.131828 -0.139359,-1.270311 0.05285,-0.798067 0.117128,-0.823645 0.619205,-0.246394 l 0.350068,0.402481 -0.02587,0.457797 c -0.03795,0.671539 -0.26195,0.854417 -0.804046,0.656427 z"
     id="path147" />
  <path
     style="fill:#ffcc00;stroke-width:0.188235"
     d="m 91.940244,78.506946 c -0.172445,-0.378476 -0.107918,-0.493668 0.553579,-0.988236 1.582475,-1.183143 3.101424,-3.490989 4.010853,-6.093974 0.77595,-2.22094 2.146747,-8.047387 2.440006,-10.371022 0.197988,-1.568749 0.287633,-4.732843 0.32534,-11.483064 l 0.05205,-9.317647 -0.432323,-0.941177 c -0.655889,-1.427887 -1.321326,-2.295488 -2.326583,-3.033415 -1.037818,-0.761828 -1.135893,-1.013948 -0.394035,-1.01294 0.708002,9.62e-4 1.608465,0.585485 2.071386,1.344611 0.514993,0.844516 1.267211,3.295504 1.580189,5.148803 0.320244,1.896349 0.322794,12.760405 0.0037,15.905883 -0.12077,1.190588 -0.348088,3.498731 -0.505152,5.129208 -0.18043,1.873039 -0.451979,3.501681 -0.737552,4.42353 -0.248589,0.802464 -0.631018,2.136673 -0.849841,2.964909 -1.047652,3.965317 -2.864788,7.373071 -4.416489,8.282426 -0.986939,0.578385 -1.128826,0.582729 -1.375152,0.0421 z"
     id="path149" />
  <path
     style="fill:#ffcc00;stroke-width:0.188235"
     d=""
     id="path151" />
  <path
     style="fill:#ffcc00;stroke-width:0.188235"
     d="m 84.929573,48.629474 c -0.02569,-1.002917 2.104756,-6.985781 2.387056,-6.703482 0.08792,0.08792 -1.623592,5.270841 -2.089313,6.327011 -0.15978,0.362353 -0.293765,0.531765 -0.297743,0.376471 z"
     id="path153" />
  <path
     style="fill:#ffcc00;stroke-width:0.188235"
     d=""
     id="path155" />
  <path
     style="fill:#ffcc00;stroke-width:0.188235"
     d="m 93.95936,50.692092 c -0.01115,-1.623125 2.462863,-10.66076 2.852432,-10.419993 0.07862,0.04859 0.06797,0.28556 -0.02367,0.526594 -0.09164,0.241035 -0.42877,1.666408 -0.749174,3.167496 -0.520043,2.436388 -2.074519,7.463944 -2.07959,6.725903 z"
     id="path157" />
  <path
     style="fill:#ffcc00;stroke-width:0.0665512"
     d="M 84.087397,71.619422 C 83.691739,71.41427 83.099522,70.42053 82.853115,69.548297 82.565519,68.530261 82.510313,68.021263 82.51386,66.42039 c 0.0036,-1.6066 0.08372,-2.47345 0.36924,-3.993074 0.128002,-0.681263 0.456835,-2.143067 0.491019,-2.182791 0.03572,-0.04151 0.363272,0.06957 0.335871,0.11391 -0.01583,0.02561 -0.0821,0.763627 -0.147268,1.640043 -0.147279,1.980584 -0.165158,5.480909 -0.03278,6.418449 0.147693,1.046042 0.338291,1.914905 0.575248,2.622332 0.123418,0.368458 0.218949,0.675158 0.212291,0.681555 -0.0067,0.0064 -0.110194,-0.03923 -0.23008,-0.101392 z"
     id="path159" />
  <path
     style="fill:#ffcc00;stroke-width:0.0665512"
     d="m 87.179868,73.186198 c -0.09951,-0.13047 -0.179173,-0.320871 -0.179173,-0.428263 0,-0.106347 0.14742,-0.494814 0.327599,-0.863262 0.409767,-0.83793 0.643782,-1.56571 1.068558,-3.323193 0.184211,-0.762163 0.604292,-2.499756 0.933513,-3.861317 0.329222,-1.361561 0.598584,-2.522048 0.598584,-2.57886 0,-0.07588 0.06959,-0.103294 0.262241,-0.103294 h 0.26224 l -0.164927,0.482496 c -0.49549,1.449561 -1.032314,3.54787 -1.486119,5.808862 -0.332245,1.65534 -0.650749,2.859435 -1.090845,4.123909 -0.382542,1.099107 -0.32322,1.016215 -0.531671,0.742922 z"
     id="path161" />
  <path
     style="fill:#2b1100;stroke-width:0.0665512"
     d="m 85.712087,70.81282 c -0.389369,-1.050459 -0.607846,-2.217148 -0.710376,-3.793469 -0.07576,-1.164734 -0.06128,-1.722896 0.117118,-4.51536 l 0.112022,-1.753483 0.202772,0.03549 c 0.111525,0.01952 0.562149,0.09839 1.001387,0.175273 0.439238,0.07688 0.993277,0.135096 1.231198,0.129365 0.349014,-0.0084 0.625955,0.04895 0.850201,0.176094 0.02867,0.01625 -0.560822,2.741315 -0.84852,3.922465 -0.142649,0.585651 -0.452363,1.708703 -0.688254,2.495671 -0.235892,0.786968 -0.494531,1.730332 -0.574755,2.096364 -0.174674,0.796977 -0.392987,1.497402 -0.46672,1.497402 -0.02938,0 -0.131111,-0.209614 -0.226073,-0.465809 z"
     id="path163" />
  <path
     style="fill:#2b1100;stroke-width:0.0665512"
     d="m 89.666535,77.071505 c -0.420807,-0.279168 -0.853873,-0.712851 -1.110898,-1.11248 -0.20983,-0.326248 -0.216265,-0.354048 -0.123237,-0.53241 0.05398,-0.103503 0.09834,-0.290579 0.09856,-0.415724 2.25e-4,-0.125145 0.133333,-0.634262 0.295794,-1.131371 0.362609,-1.109532 1.379588,-4.620029 1.566968,-5.409 0.0755,-0.317873 0.242974,-1.156263 0.372177,-1.863088 0.312614,-1.71021 0.411526,-2.089784 1.002566,-3.84736 0.566653,-1.685054 0.764989,-2.216499 1.004127,-2.690583 0.251309,-0.498212 0.337256,-0.782927 0.417986,-1.384657 0.09692,-0.722442 0.188755,-1.023484 0.415186,-1.361085 0.49201,-0.733568 0.917325,-1.927516 1.572705,-4.414911 0.255811,-0.970895 0.574338,-2.063999 0.707836,-2.42912 0.935935,-2.559816 1.009092,-2.820033 1.595063,-5.673593 0.205019,-0.998402 0.400985,-1.88187 0.43548,-1.963261 0.103135,-0.243347 -0.07612,13.296648 -0.197604,14.925868 -0.181601,2.435462 -0.428012,4.102554 -0.860925,5.824569 -0.147048,0.584916 -0.465322,1.915558 -0.707275,2.956982 -0.800688,3.446341 -1.223071,4.786392 -1.98997,6.313382 -0.767668,1.528517 -2.067815,3.005217 -3.456594,3.925978 -0.397028,0.263229 -0.726457,0.47847 -0.732064,0.478314 -0.0056,-1.33e-4 -0.143256,-0.08856 -0.305885,-0.19645 z"
     id="path165" />
  <path
     style="fill:#2b1100;stroke-width:0.376471"
     d="m 86.065653,52.391912 c 0.0055,-0.921238 1.89717,-6.916329 3.013279,-9.54974 1.096239,-2.586529 3.186465,-5.534095 4.138763,-5.836342 0.396659,-0.125895 1.04915,-0.05339 1.44998,0.161133 0.832091,0.445321 0.702355,1.456498 -0.703987,5.486974 -0.433491,1.242353 -1.112037,3.853558 -1.50788,5.802679 -0.395843,1.94912 -0.85298,3.670778 -1.015859,3.825907 -0.16288,0.155128 -1.439674,0.401306 -2.837321,0.547061 -2.325102,0.242476 -2.54082,0.205261 -2.536975,-0.437672 z"
     id="path167" />
</svg>
