<svg xmlns="http://www.w3.org/2000/svg" data-name="Layer 1" viewBox="0 0 100 125" x="0px" y="0px"><defs><style>.cls-1{fill:#231f20;}</style></defs><title>June2017_NounProject</title><path class="cls-1" d="M88.81,27.14a1.52,1.52,0,0,0-1.52-.63L12.17,39.77a1.53,1.53,0,0,0-.39,2.89L34.29,53.4V72a1.53,1.53,0,0,0,2.53,1.16l13.43-11.5a1.15,1.15,0,0,0,.32-.48L65,68a1.52,1.52,0,0,0,.66.15A1.54,1.54,0,0,0,67,67.42l21.9-38.64A1.52,1.52,0,0,0,88.81,27.14Zm-7.27,2.78L35.18,51.14l-.07,0-20-9.53ZM36.64,70.19V54.52l11.74,5.6Zm28.68-4.6L37.88,52.5,84.95,31Z"/><text x="0" y="115" fill="#000000" font-size="5px" font-weight="bold" font-family="'Helvetica Neue', Helvetica, Arial-Unicode, Arial, Sans-serif">Created by Bucky Clarke</text><text x="0" y="120" fill="#000000" font-size="5px" font-weight="bold" font-family="'Helvetica Neue', Helvetica, Arial-Unicode, Arial, Sans-serif">from the Noun Project</text></svg>