<svg xmlns="http://www.w3.org/2000/svg" xmlns:xlink="http://www.w3.org/1999/xlink" version="1.1" x="0px" y="0px" viewBox="0 0 64 80" enable-background="new 0 0 64 64" xml:space="preserve"><g><g><path d="M53.282,51.426c-0.059-1.596,0.294-3.248,0.767-4.96c1.063-4.545,2.362-9.976-5.372-17.71    c-0.944-0.943-1.533-0.708-2.183-0.472l0,0c-1.654,0.708-3.661,1.535-8.206-2.951c-4.486-4.545-3.659-6.554-3.01-8.206l0,0    c0.295-0.649,0.53-1.24-0.413-2.185C27.131,7.208,21.642,8.508,17.153,9.57c-1.769,0.414-3.364,0.827-4.958,0.769L32.03,30.173    l1.063-1.062l1.357,1.416l-1.005,1.005L53.282,51.426z M29.612,32.593l1.061-1.061L7.06,7.918l1.359-1.359l0,0l0,0l0.178,0.119    c2.477,2.362,5.075,1.771,8.085,1.003c5.019-1.179,11.04-2.597,19.541,5.846c1.888,1.888,1.416,3.01,0.885,4.369l0,0    c-0.472,1.122-1.004,2.421,2.538,6.02c3.601,3.603,4.958,3.07,6.08,2.598l0,0c1.357-0.532,2.421-1.004,4.369,0.886    c8.44,8.501,7.024,14.522,5.785,19.541c-0.71,3.01-1.299,5.608,1.062,8.087l0.119,0.117v0.061l0,0l-1.416,1.357L32.03,32.948    l-1.002,1.003L29.612,32.593z"/></g></g><text x="0" y="79" fill="#000000" font-size="5px" font-weight="bold" font-family="'Helvetica Neue', Helvetica, Arial-Unicode, Arial, Sans-serif">Created by Eight on</text><text x="0" y="84" fill="#000000" font-size="5px" font-weight="bold" font-family="'Helvetica Neue', Helvetica, Arial-Unicode, Arial, Sans-serif">from the Noun Project</text></svg>