<svg xmlns="http://www.w3.org/2000/svg" xmlns:xlink="http://www.w3.org/1999/xlink" version="1.1" x="0px" y="0px" viewBox="0 0 512 640" enable-background="new 0 0 512 512" xml:space="preserve"><g><g><g><path d="M154.73,365.792c-1.5,0-3.001-0.56-4.164-1.68L25.836,243.903c-1.431-1.378-2.086-3.376-1.75-5.334     c0.335-1.958,1.618-3.623,3.426-4.446l460-209.583c2.649-1.207,5.782-0.338,7.432,2.061c1.649,2.399,1.339,5.635-0.736,7.677     L158.938,364.069C157.771,365.217,156.25,365.792,154.73,365.792z M40.516,241.385l114.171,110.033L461.575,49.544     L40.516,241.385z"/></g><g><path d="M274.939,496c-1.661,0-3.264-0.689-4.408-1.93l-120.21-130.208c-2.197-2.381-2.108-6.076,0.201-8.348l335.27-329.792     c2.071-2.037,5.301-2.298,7.672-0.622s3.201,4.81,1.972,7.44l-215.061,460c-0.847,1.811-2.54,3.081-4.515,3.388     C275.553,495.977,275.245,496,274.939,496z M163.082,359.993l110.207,119.373L470.452,57.645L163.082,359.993z"/></g><g><path d="M154.729,496c-0.814,0-1.635-0.166-2.411-0.506c-2.18-0.958-3.588-3.113-3.588-5.494V359.792c0-3.313,2.687-6,6-6     c3.314,0,6,2.687,6,6v116.543l55.209-50.752c2.439-2.243,6.235-2.083,8.478,0.356c2.243,2.439,2.083,6.235-0.356,8.478l-65.27,60     C157.661,495.455,156.205,496,154.729,496z"/></g></g></g><text x="0" y="527" fill="#000000" font-size="5px" font-weight="bold" font-family="'Helvetica Neue', Helvetica, Arial-Unicode, Arial, Sans-serif">Created by Flatart</text><text x="0" y="532" fill="#000000" font-size="5px" font-weight="bold" font-family="'Helvetica Neue', Helvetica, Arial-Unicode, Arial, Sans-serif">from the Noun Project</text></svg>