<svg xmlns="http://www.w3.org/2000/svg" xmlns:xlink="http://www.w3.org/1999/xlink" viewBox="0 0 60 75" version="1.1" x="0px" y="0px"><title>30 -Quiver- (Outline)</title><desc>Created with Sketch.</desc><g stroke="none" stroke-width="1" fill="none" fill-rule="evenodd"><g transform="translate(-1200.000000, -571.000000)" fill="#000000"><g transform="translate(1200.000000, 571.000000)"><path d="M13,60.0018 L1,60.0018 C0.447,60.0018 0,59.5538 0,59.0018 C0,58.4498 0.447,58.0018 1,58.0018 L13,58.0018 C13.553,58.0018 14,58.4498 14,59.0018 C14,59.5538 13.553,60.0018 13,60.0018"/><path d="M50,60.0018 L17,60.0018 C16.447,60.0018 16,59.5538 16,59.0018 C16,58.4498 16.447,58.0018 17,58.0018 L50,58.0018 C50.553,58.0018 51,58.4498 51,59.0018 C51,59.5538 50.553,60.0018 50,60.0018"/><path d="M59,60.0018 L54,60.0018 C53.447,60.0018 53,59.5538 53,59.0018 C53,58.4498 53.447,58.0018 54,58.0018 L59,58.0018 C59.553,58.0018 60,58.4498 60,59.0018 C60,59.5538 59.553,60.0018 59,60.0018"/><path d="M25,27.0018 L25,37.0018 L29.001,37.0018 L29,27.0018 L25,27.0018 Z M29,39.0018 L25,39.0018 C23.897,39.0018 23,38.1048 23,37.0018 L23,27.0018 C23,25.8988 23.897,25.0018 25,25.0018 L29,25.0018 C30.103,25.0018 31,25.8988 31,27.0018 L31,37.0018 C31,38.1048 30.103,39.0018 29,39.0018 L29,39.0018 Z"/><path d="M31,35.002 L41,35.002 L41,29.002 L31,29.002 L31,35.002 Z M41,37.002 L30,37.002 C29.447,37.002 29,36.554 29,36.002 L29,28.002 C29,27.45 29.447,27.002 30,27.002 L41,27.002 C42.103,27.002 43,27.899 43,29.002 L43,35.002 C43,36.105 42.103,37.002 41,37.002 L41,37.002 Z"/><path d="M19,35.002 L23,35.002 L23,29.002 L19,29.002 L19,35.002 Z M24,37.002 L19,37.002 C17.897,37.002 17,36.105 17,35.002 L17,29.002 C17,27.899 17.897,27.002 19,27.002 L24,27.002 C24.553,27.002 25,27.45 25,28.002 L25,36.002 C25,36.554 24.553,37.002 24,37.002 L24,37.002 Z"/><path d="M38,60.0018 L22,60.0018 C21.469,60.0018 21.03,59.5858 21.001,59.0558 L19.758,36.0558 C19.729,35.5038 20.151,35.0328 20.703,35.0028 C21.238,34.9738 21.726,35.3958 21.756,35.9478 L22.947,58.0018 L37.053,58.0018 L38.244,35.9478 C38.274,35.3958 38.738,34.9758 39.297,35.0028 C39.849,35.0328 40.271,35.5038 40.242,36.0558 L38.999,59.0558 C38.97,59.5858 38.531,60.0018 38,60.0018"/><path d="M39.6768,29.0018 C39.6578,29.0018 39.6408,29.0018 39.6218,29.0008 C39.0708,28.9708 38.6478,28.4998 38.6768,27.9478 L38.9448,23.0018 L21.0558,23.0018 L21.3228,27.9478 C21.3528,28.4998 20.9298,28.9708 20.3778,29.0008 C19.8308,29.0258 19.3558,28.6078 19.3248,28.0558 L19.0578,23.1098 C19.0298,22.5628 19.2288,22.0228 19.6048,21.6258 C19.9808,21.2298 20.5098,21.0018 21.0558,21.0018 L38.9448,21.0018 C39.4898,21.0018 40.0198,21.2298 40.3958,21.6258 C40.7718,22.0228 40.9708,22.5628 40.9428,23.1088 L40.6748,28.0558 C40.6458,28.5888 40.2038,29.0018 39.6768,29.0018"/><path d="M30,23.0018 C29.447,23.0018 29,22.5538 29,22.0018 L29,5.0018 C29,4.4498 29.447,4.0018 30,4.0018 C30.553,4.0018 31,4.4498 31,5.0018 L31,22.0018 C31,22.5538 30.553,23.0018 30,23.0018"/><path d="M27,9.5687 L30,12.5837 L33,9.5687 L33,3.4277 L30.705,5.7107 C30.314,6.0987 29.686,6.0987 29.295,5.7107 L27,3.4277 L27,9.5687 Z M30,15.0017 C29.734,15.0017 29.479,14.8957 29.291,14.7067 L25.291,10.6867 C25.104,10.4997 25,10.2457 25,9.9817 L25,1.0227 C25,0.6187 25.243,0.2547 25.616,0.0997 C25.987,-0.0553 26.418,0.0287 26.705,0.3137 L30,3.5907 L33.295,0.3137 C33.583,0.0287 34.014,-0.0553 34.384,0.0997 C34.757,0.2547 35,0.6187 35,1.0227 L35,9.9817 C35,10.2457 34.896,10.4997 34.709,10.6867 L30.709,14.7067 C30.521,14.8957 30.266,15.0017 30,15.0017 L30,15.0017 Z"/><path d="M24.001,23.0018 C23.624,23.0018 23.264,22.7888 23.094,22.4238 L16.755,8.8298 C16.522,8.3298 16.738,7.7348 17.238,7.5018 C17.739,7.2668 18.334,7.4838 18.567,7.9848 L24.906,21.5798 C25.14,22.0798 24.923,22.6748 24.423,22.9078 C24.286,22.9718 24.143,23.0018 24.001,23.0018"/><path d="M16.0264,12.0008 L20.0194,13.4658 L21.4634,9.4648 L19.7104,5.7028 L18.6004,8.7498 C18.5094,8.9988 18.3244,9.2018 18.0844,9.3138 C17.8444,9.4268 17.5694,9.4388 17.3194,9.3468 L14.2714,8.2378 L16.0264,12.0008 Z M20.6194,15.7508 C20.5034,15.7508 20.3854,15.7308 20.2744,15.6898 L14.9504,13.7368 C14.7024,13.6458 14.5004,13.4598 14.3884,13.2208 L11.4384,6.8958 C11.2674,6.5288 11.3344,6.0948 11.6074,5.7968 C11.8814,5.4988 12.3094,5.3948 12.6864,5.5328 L17.0634,7.1258 L18.6564,2.7498 C18.7944,2.3698 19.1484,2.1098 19.5514,2.0928 C19.9524,2.0778 20.3314,2.3028 20.5024,2.6688 L23.4514,8.9948 C23.5624,9.2338 23.5754,9.5078 23.4854,9.7558 L21.5594,15.0908 C21.4694,15.3408 21.2834,15.5448 21.0424,15.6578 C20.9084,15.7198 20.7634,15.7508 20.6194,15.7508 L20.6194,15.7508 Z"/><path d="M35.999,23.0018 C35.857,23.0018 35.714,22.9718 35.577,22.9078 C35.077,22.6748 34.86,22.0798 35.094,21.5798 L41.433,7.9848 C41.667,7.4848 42.263,7.2678 42.762,7.5018 C43.262,7.7348 43.478,8.3298 43.245,8.8298 L36.906,22.4238 C36.736,22.7888 36.376,23.0018 35.999,23.0018"/><path d="M38.5361,9.4652 L39.9801,13.4662 L43.9731,12.0012 L45.7281,8.2382 L42.6811,9.3472 C42.4321,9.4382 42.1561,9.4252 41.9161,9.3142 C41.6761,9.2022 41.4901,8.9992 41.3991,8.7492 L40.2901,5.7022 L38.5361,9.4652 Z M39.3811,15.7512 C39.2361,15.7512 39.0921,15.7202 38.9581,15.6572 C38.7171,15.5452 38.5301,15.3412 38.4401,15.0902 L36.5151,9.7562 C36.4251,9.5072 36.4371,9.2342 36.5491,8.9942 L39.4981,2.6692 C39.6691,2.3022 40.0441,2.0802 40.4481,2.0922 C40.8511,2.1102 41.2061,2.3692 41.3441,2.7502 L42.9361,7.1262 L47.3131,5.5332 C47.6941,5.3952 48.1191,5.4992 48.3921,5.7972 C48.6661,6.0952 48.7321,6.5282 48.5611,6.8952 L45.6111,13.2202 C45.5001,13.4602 45.2981,13.6452 45.0501,13.7362 L39.7251,15.6902 C39.6141,15.7312 39.4971,15.7512 39.3811,15.7512 L39.3811,15.7512 Z"/><path d="M29,55.0047 L21.729,55.0047 C21.177,55.0047 20.729,54.5567 20.729,54.0047 C20.729,53.4527 21.177,53.0047 21.729,53.0047 L29,53.0047 C29.553,53.0047 30,53.4527 30,54.0047 C30,54.5567 29.553,55.0047 29,55.0047"/><path d="M26,51.0018 L21.514,51.0018 C20.961,51.0018 20.514,50.5538 20.514,50.0018 C20.514,49.4498 20.961,49.0018 21.514,49.0018 L26,49.0018 C26.553,49.0018 27,49.4498 27,50.0018 C27,50.5538 26.553,51.0018 26,51.0018"/></g></g></g><text x="0" y="75" fill="#000000" font-size="5px" font-weight="bold" font-family="'Helvetica Neue', Helvetica, Arial-Unicode, Arial, Sans-serif">Created by Ben Davis</text><text x="0" y="80" fill="#000000" font-size="5px" font-weight="bold" font-family="'Helvetica Neue', Helvetica, Arial-Unicode, Arial, Sans-serif">from the Noun Project</text></svg>