<?xml version="1.0" encoding="UTF-8" standalone="no"?>
<svg
   xmlns:dc="http://purl.org/dc/elements/1.1/"
   xmlns:cc="http://creativecommons.org/ns#"
   xmlns:rdf="http://www.w3.org/1999/02/22-rdf-syntax-ns#"
   xmlns:svg="http://www.w3.org/2000/svg"
   xmlns="http://www.w3.org/2000/svg"
   xmlns:sodipodi="http://sodipodi.sourceforge.net/DTD/sodipodi-0.dtd"
   xmlns:inkscape="http://www.inkscape.org/namespaces/inkscape"
   width="210mm"
   height="297mm"
   viewBox="0 0 210 297"
   version="1.1"
   id="svg929"
   inkscape:version="1.0.1 (3bc2e813f5, 2020-09-07)"
   sodipodi:docname="user-archer.svg">
  <defs
     id="defs923" />
  <sodipodi:namedview
     id="base"
     pagecolor="#ffffff"
     bordercolor="#666666"
     borderopacity="1.0"
     inkscape:pageopacity="0.0"
     inkscape:pageshadow="2"
     inkscape:zoom="0.49497475"
     inkscape:cx="487.53402"
     inkscape:cy="671.96754"
     inkscape:document-units="mm"
     inkscape:current-layer="layer1"
     inkscape:document-rotation="0"
     showgrid="false"
     inkscape:window-width="1600"
     inkscape:window-height="837"
     inkscape:window-x="3832"
     inkscape:window-y="450"
     inkscape:window-maximized="1" />
  <metadata
     id="metadata926">
    <rdf:RDF>
      <cc:Work
         rdf:about="">
        <dc:format>image/svg+xml</dc:format>
        <dc:type
           rdf:resource="http://purl.org/dc/dcmitype/StillImage" />
        <dc:title />
      </cc:Work>
    </rdf:RDF>
  </metadata>
  <g
     inkscape:label="Layer 1"
     inkscape:groupmode="layer"
     id="layer1">
    <path
       d="m 163.28566,73.704558 c -0.56443,-1.453175 -1.73541,-2.587986 -3.20616,-3.107737 -2.50846,-1.150593 -5.39433,-1.150593 -7.90292,0 -1.17206,0.609284 -2.38261,1.144175 -3.62286,1.60197 0.70486,-3.924826 -0.38484,-5.28642 -1.18692,-6.279741 -0.20119,-0.212932 -0.36863,-0.456647 -0.49691,-0.720885 -0.54687,-1.23781 -1.24093,-2.404557 -2.06799,-3.476127 -0.30517,-0.375832 -0.63734,-0.728578 -0.99382,-1.056949 0.77372,0.277062 1.49424,0.683679 2.13199,1.201894 0.60224,0.523345 1.5303,0.0017 1.39459,-0.785021 -0.65759,-3.572329 -3.51065,-4.389284 -5.5785,-4.982019 -0.51717,-0.134689 -1.02623,-0.300153 -1.52288,-0.496412 -0.63599,-0.324525 -1.18556,-0.797838 -1.60308,-1.377622 -1.11805,-1.394174 -2.5595,-2.494095 -4.19998,-3.203942 -2.77973,-1.106974 -5.74419,-1.677649 -8.73646,-1.682012 h -0.94656 c -2.6967,0.05131 -5.31817,0.897896 -7.53429,2.434959 -1.94564,0.811952 -3.56479,2.249609 -4.60061,4.084901 -0.75753,1.183937 -1.24905,2.517181 -1.44281,3.908793 -0.0945,0.65674 -0.13501,0.881218 -1.28278,1.79425 -0.97223,0.729853 -1.56135,1.86107 -1.60308,3.075665 0.15394,1.394176 0.93983,2.640579 2.132,3.380184 -0.66166,1.542326 -0.62113,3.296041 0.10801,4.805786 0.47398,1.021029 1.08968,1.969852 1.82752,2.819517 -0.98708,0.37198 -1.76837,1.146735 -2.14807,2.130576 -0.35109,1.209583 -0.2363,2.506781 0.32004,3.636467 0.42669,0.849148 1.71473,0.463053 1.60307,-0.481012 -0.0404,-0.492567 0.10803,-0.981275 0.40102,-1.377632 0.16474,-0.180857 0.3754,-0.31426 0.60902,-0.384804 -0.0945,0.223191 -0.18637,0.45407 -0.25657,0.688808 -0.35109,1.375574 -0.0811,2.835806 0.75347,3.988961 0.18497,0.270645 0.29571,0.586192 0.32001,0.913286 v 0 c -2.09013,1.334142 -3.94289,3.007037 -5.48248,4.950083 -0.91418,1.089024 -1.76323,2.002434 -2.56479,2.803486 l -11.493779,2.242679 c -0.48071,-5.847085 -0.76968,-9.611698 -0.76968,-9.707896 0,-0.08978 -1.60305,-11.99856 3.20605,-20.136428 5.466409,-9.131193 3.686999,-26.560462 -1.47482,-35.467314 -0.41724,-1.068494 -2.01977,-0.442531 -1.60294,0.624681 0,0.143661 3.47851,14.145289 0,22.219021 -0.67379,1.60197 -1.42673,3.091832 -2.22827,4.677771 -3.38237,6.744209 -7.21372,14.417603 -5.64265,30.340977 0.33624,3.364031 0.60899,6.311686 0.86555,8.890819 l -0.84935,0.160344 c -0.54686,-1.502945 -1.89041,-2.573237 -3.47851,-2.771413 -0.21469,-0.02559 -0.43209,0.02558 -0.60898,0.14366 l -7.26166,5.318478 c -0.79263,0.413041 -0.49284,1.610572 0.40103,1.601972 l 8.41603,0.8966 h 0.16071 c 0.0945,0.013 0.19308,0.013 0.28896,0 1.34489,-0.57464 2.2635,-1.843484 2.38854,-3.300009 l 0.84935,-0.288596 0.24035,2.547065 c -0.31733,0.0257 -0.63329,0.0514 -0.94522,0.11545 h -0.10803 c -1.27873,0.3925 -2.23462,1.45883 -2.48468,2.7714 -0.68866,3.20394 1.97172,7.75346 3.01373,8.74663 0.33757,0.33352 0.7913,0.52335 1.2666,0.52847 h 0.30516 0.14447 c 0.30519,3.20398 1.7473,12.97585 8.59226,20.3768 1.36259,1.47385 2.58096,2.70727 3.686999,3.82866 -2.923259,5.22098 -5.328569,10.71518 -7.181589,16.40399 l -2.51669,4.53357 c -0.33353,0.64265 0.24036,1.38033 0.94523,1.21731 1.43617,-0.22446 0.66568,-0.84659 2.0076,-0.28734 -2.13198,7.51319 -6.46403,16.33848 -6.52814,16.41863 -0.53068,0.84147 0.57116,1.75181 1.29899,1.07363 0.28896,-0.35275 4.81246,-9.65736 7.10473,-17.45878 1.51598,0.84916 4.810049,3.3698 5.992109,4.64315 l 1.79537,1.37389 c 0.84934,0.89664 0.8399,0.61956 1.54542,1.32403 -3.81339,7.50843 -5.592689,10.67173 -6.746799,11.39259 -0.46449,0.304 -1.05055,0.95177 -0.97085,1.62457 0.0541,0.42457 0.40507,0.7478 0.83312,0.75291 h 0.0945 c 0.29301,-0.0383 0.54687,-0.2142 0.67379,-0.481 l 0.1958,-0.99283 c 0.692689,-1.61698 3.532379,-3.70432 7.251379,-11.36155 1.22608,1.12621 3.61532,3.54555 5.28064,3.57516 1.42255,-0.0514 2.82389,-0.36043 4.13582,-0.9133 2.88547,-1.10568 5.54653,-5.03012 8.35178,-9.17915 l 1.33005,-1.93843 4.21591,7.38504 c 0.081,0.13599 0.1958,0.24759 0.33623,0.32068 -2.46242,4.319 -4.44074,8.89622 -5.89921,13.64864 -0.10802,0.45535 0.16879,0.91456 0.62519,1.02486 h 0.19309 c 0.38619,-0.004 0.72242,-0.2655 0.81694,-0.64135 1.4108,-5.89506 7.13352,-15.73108 7.19766,-15.82714 0.57658,-1.01465 -0.94522,-1.87968 -1.52287,-0.86456 l -0.59279,1.05695 -4.36026,-7.62529 c 2.77325,-3.8607 5.80292,-7.28898 9.07309,-7.54528 0.17284,0.007 0.34028,-0.0512 0.46451,-0.17572 0,0 0.69,-0.304 2.30847,1.08901 0.82099,3.01564 1.89394,5.95755 3.20603,8.79462 1.92364,4.45342 2.90153,6.6802 0.12153,11.21366 -2.30106,3.98088 -5.11428,7.64326 -8.36783,10.89337 -0.68596,0.76193 0.31462,1.86042 1.1383,1.24937 3.3786,-3.3344 6.29525,-7.10581 8.67233,-11.21368 3.20615,-5.31849 1.93971,-8.2982 0,-12.81564 l -0.44831,-1.05693 c 0.054,-0.0643 0.0945,-0.12828 0.13503,-0.19242 0.10803,-0.22447 2.5649,-5.54269 0.89796,-8.61837 -1.3626,-2.53115 -4.80911,-12.31896 -6.01142,-15.53895 l -0.10802,-0.32068 c 0.10802,-1.00949 0.28896,-2.0504 0.52932,-3.55616 l 0.10802,-0.7209 v 0 l 0.28896,-1.82631 c 1.85411,0.4528 3.62368,1.19935 5.24201,2.21077 0.79804,0.48485 1.68113,-0.4849 1.12211,-1.23397 0,0 -3.70308,-4.46934 -2.19614,-8.31409 l 0.40105,-0.99282 c 1.92364,-4.58159 4.40833,-10.82912 4.00756,-13.74472 -0.82909,-3.01346 -1.99021,-5.925455 -3.46258,-8.682631 -0.19715,-0.36686 -0.63194,-0.536174 -1.02623,-0.400211 l -0.32002,0.115449 c -0.76833,-1.755517 -0.65625,-3.771802 0.30516,-5.43059 0.4132,-0.302725 0.79938,-0.640078 1.15451,-1.009496 l 9.93868,-2.803352 c 0.15393,-0.03849 0.29301,-0.128267 0.40104,-0.239868 0.35378,-0.392501 0.66975,-0.815798 0.94521,-1.266032 6.26797,-2.226648 8.8168,-8.474319 8.0794,-11.229698 z m -79.943479,26.063811 -5.96334,-0.641361 5.27402,-3.732543 c 1.01946,0.166757 1.79309,1.005641 1.87557,2.0345 0.0945,0.944081 -0.36594,1.859673 -1.1869,2.338884 z M 115.17842,82.899762 c -0.53878,-0.737559 -0.73726,-1.670088 -0.54553,-2.5631 0.21471,-0.713188 0.63193,-1.347099 1.20177,-1.826194 0.73322,-0.709329 -0.17689,-1.871213 -1.04244,-1.329649 -0.2255,0.139812 -0.48881,0.207798 -0.75345,0.192404 -0.59144,-0.01156 -1.17746,0.102623 -1.71516,0.352746 0.25116,-0.255262 0.55091,-0.456642 0.88174,-0.592612 0.42399,-0.173169 0.81828,-0.411745 1.1707,-0.704203 0.36594,-0.336072 0.36594,-0.913287 0,-1.249357 -0.92899,-0.895326 -1.68382,-1.954584 -2.2281,-3.123774 -0.59145,-1.210873 -0.55634,-2.633389 0.0945,-3.812716 0.21873,-0.295015 0.21873,-0.697792 0,-0.992807 v 0 c -0.0809,-0.986402 0.18092,-1.969341 0.73726,-2.787324 0.26599,-0.237296 0.55631,-0.44638 0.86554,-0.62467 1.02622,-0.609292 1.74729,-1.201903 2.51669,-3.684447 0.43208,-0.877369 -1.46304,-1.464598 -1.60296,-0.496406 -0.6414,2.066563 -1.08968,2.338884 -1.77942,2.739339 -0.40642,0.232181 -0.78723,0.506674 -1.13831,0.81709 -0.62383,0.779885 -1.02353,1.716644 -1.1545,2.707274 -0.32678,-0.346328 -0.52933,-0.791433 -0.57659,-1.266026 0.0406,-0.663163 0.3727,-1.273728 0.89796,-1.682011 1.60307,-1.233965 1.76335,-1.826186 1.92363,-2.899563 0.16474,-1.17752 0.58604,-2.303221 1.23419,-3.300011 0.86556,-1.527068 2.22099,-2.717924 3.84728,-3.380056 l 0.20794,-0.128272 c 1.91675,-1.340299 4.18582,-2.086961 6.5244,-2.146734 h 0.84934 c 2.74732,0.0385 5.46414,0.582346 8.01526,1.601971 1.41053,0.593891 2.65429,1.522956 3.62287,2.707279 0.59278,0.783735 1.36894,1.410973 2.26027,1.82631 0.55902,0.228329 1.13155,0.42073 1.71515,0.577224 1.15316,0.223194 2.24529,0.68753 3.20616,1.361584 -1.24633,-0.489985 -2.64092,-0.437396 -3.84728,0.143671 -0.74402,0.315535 -0.6684,1.393396 0.10802,1.601968 1.09105,0.289889 2.06624,0.910721 2.78919,1.778213 0.71971,0.92996 1.3287,1.940096 1.81143,3.011662 0.18229,0.43997 0.43615,0.846589 0.75347,1.201895 0.6738,0.833763 1.44266,1.778217 0.80208,5.0622 -0.14583,0.764493 -0.50096,1.474978 -1.02623,2.050534 0.68865,-3.476261 -1.01002,-6.503963 -5.17787,-9.211234 l -0.16069,-0.07697 c 0,0 -1.07349,-0.448952 -1.21797,-2.354922 -0.19174,-0.990252 -1.64413,-0.87994 -1.68315,0.128273 -0.0135,1.562339 0.82908,3.007047 2.19613,3.764608 4.26412,2.835421 5.45036,5.622866 3.81528,9.243303 v 0.08978 c -0.77507,0.323245 -1.58026,0.56439 -2.40462,0.720887 h -0.20795 c -0.9317,0.386089 -1.74027,1.01718 -2.34034,1.826182 -0.83449,1.006928 -0.47531,2.531553 0.72106,3.059771 l 0.40104,0.304001 c -0.99652,0.225749 -1.91459,0.713177 -2.66104,1.409691 -0.39024,-1.440735 -0.63735,-2.916354 -0.73727,-4.405455 v -2.002558 c 0.39159,-0.01014 0.77508,-0.102615 1.1221,-0.288609 1.32735,-0.990248 2.24475,-2.432264 2.58084,-4.052967 0.054,-0.171879 0.054,-0.356585 0,-0.528474 -0.56983,-1.311304 -1.29629,-2.548605 -2.164,-3.684438 -0.20659,-0.250129 -0.39969,-0.513087 -0.57657,-0.785022 -0.21605,-0.334782 -0.636,-0.474593 -1.01003,-0.336061 -0.68461,-1.649302 -2.02681,-2.938293 -3.70308,-3.556432 -0.96141,-0.256538 -0.97761,-0.41688 -1.02623,-1.18522 -0.0135,-0.468185 -0.0945,-0.931241 -0.24035,-1.377756 -0.64139,-1.858253 -2.05178,-2.370819 -4.44034,-2.675209 -0.79127,-0.115442 -1.49168,-0.56824 -1.90771,-1.249351 -0.17958,-0.268086 -0.4969,-0.410465 -0.81693,-0.368138 h -0.0945 c -0.16339,0.02568 -0.31327,0.102614 -0.43209,0.224469 -1.1059,1.089015 -2.70926,2.178675 -3.35037,2.066572 -2.09865,-0.304001 -3.69268,1.847222 -2.78931,3.764482 -0.5469,1.395322 -1.36435,2.66905 -2.40464,3.748577 v 0 0 0 c -0.0541,0.06409 -0.081,0.14366 -0.10804,0.224472 -0.005,0.05129 -0.005,0.102623 0,0.143668 -0.003,0.03848 -0.003,0.07697 0,0.115442 0.0272,2.395711 0.4186,4.773328 1.17073,7.048589 1.00867,2.907255 2.72829,5.517047 5.00138,7.593101 v 0 c 0.60494,0.625971 1.11266,1.338379 1.50681,2.114668 -0.73321,-0.383522 -1.54516,-0.591317 -2.37235,-0.609281 h -0.0945 c -1.49827,-0.0064 -2.98199,0.293744 -4.36025,0.881218 -0.17419,-0.319389 -0.39564,-0.611845 -0.65759,-0.864544 z m 29.28753,2.450987 c -0.51177,1.389681 -1.41296,2.602362 -2.59691,3.492295 -0.10802,0.03847 -0.19579,0.115449 -0.27276,0.19241 -0.239,0.164183 -0.49151,0.307842 -0.75347,0.432277 -0.56307,0.311693 -1.22607,0.386085 -1.84343,0.207797 -0.70216,-0.309131 -1.29764,-0.81581 -1.71529,-1.457677 l 1.60294,-0.303992 c 1.04244,0.07697 0.61034,-2.078886 -0.32002,-1.601972 l -1.74729,0.336063 c 0.52257,-2.038989 2.33494,-3.484208 4.44047,-3.540259 1.19097,-0.03848 2.38301,0.07697 3.54266,0.352735 -0.0135,0.643923 -0.13503,1.280148 -0.33623,1.890202 z M 126.015,88.666801 v 0 c 0.40644,-0.230886 0.54958,-0.746536 0.32002,-1.153152 -0.49016,-0.863262 -1.08834,-1.659309 -1.77943,-2.370821 0.013,-0.638792 -0.10803,-1.272449 -0.36863,-1.858263 h 0.17689 0.4645 c 2.85333,0 6.89303,-2.787443 7.37387,-3.203929 1.09375,-0.616985 -0.027,-2.205359 -0.97762,-1.377632 -1.21797,0.864543 -4.8091,3.027567 -6.66861,2.803354 -2.16412,-0.06417 -5.73891,-4.373382 -6.9573,-8.041792 -0.59953,-1.886095 -0.96006,-3.839652 -1.07349,-5.815147 1.34086,-0.05128 2.68155,0.115439 3.97556,0.464337 l 0.27277,0.416881 0.13503,0.192403 c -0.95466,-0.293736 -1.94997,-0.439965 -2.9496,-0.432268 -0.4186,0.05129 -0.7332,0.410464 -0.73728,0.832477 0.008,0.466905 0.39971,0.835044 0.86553,0.817079 1.10727,-0.01157 2.20225,0.223193 3.20618,0.688816 -0.13503,1.682014 -0.41724,3.203809 -0.43344,3.300015 -0.0135,0.08978 0,0 0,0 -0.007,0.06408 -0.007,0.128276 0,0.192404 -0.003,0.05129 -0.003,0.102624 0,0.143667 -0.003,0.03849 -0.003,0.08979 0,0.128266 0.0135,0.06408 0.0405,0.115449 0.0811,0.175737 v 0 c 0.64544,0.84786 1.52637,1.489091 2.53289,1.842215 h 0.20794 c 0.81019,-0.150078 0.95332,-1.24935 0.20795,-1.601973 -0.53472,-0.205225 -1.00867,-0.541298 -1.37865,-0.977414 0.0945,-0.624678 0.30516,-1.938293 0.40103,-3.283983 0.17554,-1.067214 -0.0945,-2.160076 -0.73726,-3.027702 -0.081,-0.128264 -0.1769,-0.239864 -0.25656,-0.384812 -0.081,-0.14366 -0.64139,-1.07362 -4.44046,-1.201896 1.92362,-2.643141 1.87556,-3.620303 1.50679,-4.213046 -0.13772,-0.301433 -0.0945,-0.654177 0.10803,-0.913285 0.18499,-0.300145 0.53337,-0.459206 0.88176,-0.400199 1.41065,0.25654 3.20601,-1.089014 4.19998,-1.938429 0.66568,0.690103 1.54878,1.131347 2.50075,1.249355 2.22814,0.271934 2.74111,0.640077 3.04574,1.601847 0.0945,0.311693 0.14989,0.634936 0.16069,0.960739 -0.0675,1.350437 0.91685,2.525014 2.26027,2.691255 l 0.32003,0.115439 h -0.17689 c -1.3503,0.215494 -2.67968,0.541298 -3.97556,0.977423 -0.54552,0.224473 -2.27621,0.720877 -2.9014,0.896612 -0.74536,0.357873 -0.59142,1.462028 0.22415,1.601973 h 0.22415 c 0.24036,0 2.34048,-0.656752 3.07789,-0.945358 1.14775,-0.373266 2.32089,-0.661875 3.51065,-0.864541 0.46315,-0.03849 0.80613,-0.448952 0.76967,-0.913286 -0.0135,-0.17317 -0.0945,-0.336076 -0.20795,-0.464339 0.80613,0.601587 1.44078,1.401993 1.84357,2.322847 l 0.36863,0.945356 c 0.12153,0.314257 0.43075,0.522063 0.76968,0.528471 0.19714,0.01183 0.39158,-0.05129 0.54552,-0.175729 l 0.0945,0.115443 c 0.71161,0.932529 1.31384,1.942401 1.79536,3.011661 -0.23225,1.041562 -0.79398,1.979343 -1.60294,2.675212 -0.26736,0.134682 -0.58198,0.134682 -0.84934,0 -0.54147,-0.207798 -1.12751,0.174448 -1.15451,0.752951 l -0.0945,2.995623 c 0.0945,1.807208 0.40644,3.596964 0.91415,5.334517 0.054,0.20139 0.1904,0.371991 0.36864,0.48102 -0.53472,0.772191 -0.92631,1.635577 -1.15451,2.547195 v 0 z m -16.03041,2.146616 c 4.52057,-5.398532 7.85486,-6.0554 10.21141,-6.039372 1.12616,0.07697 2.18533,0.56183 2.98161,1.361726 v 0 c 0.67514,0.65418 1.25712,1.398536 1.73122,2.210611 0.14718,0.242432 0.40644,0.392508 0.69,0.400209 l -16.71957,3.203816 z m -6.28388,3.940846 c -0.73189,0.637519 -1.50829,1.221138 -2.32443,1.746159 l -4.215899,2.258709 c -0.71431,-0.679834 -1.58378,-1.173667 -2.53287,-1.441753 v -0.817083 z m 24.95926,34.538127 c 1.49344,0.30018 3.0132,0.45024 4.53661,0.44893 1.0735,0 2.14591,-0.0898 3.20603,-0.25653 -0.17689,1.08905 -0.30517,1.93831 -0.41724,2.73937 -9.81063,1.81015 -21.04786,-3.36416 -24.31814,-5.03013 l 0.40103,-0.43229 c 2.7622,1.73525 5.75797,3.06759 8.89686,3.95678 0.47127,0.0898 0.94793,0.12955 1.42675,0.12825 2.16953,-0.11543 4.29747,-0.63876 6.26784,-1.55385 z m -11.70212,-10.22047 1.08969,0.23987 c -0.41318,0.89406 -0.95331,1.72538 -1.60307,2.46702 0.28219,-0.88377 0.4591,-1.79807 0.5293,-2.72331 z m 2.43662,-17.30111 -4.03972,3.36413 -0.56171,-1.74612 4.93739,-3.684581 c -0.10803,0.577211 -0.24035,1.266031 -0.33624,2.050531 z m -0.19309,2.3549 c -0.0945,1.45087 -0.0945,2.90624 0,4.35724 0.37808,3.08669 0.17148,6.217 -0.60899,9.22725 l -1.6031,-0.35274 c 0,-0.91329 0,-1.93841 -0.0945,-3.20395 -0.21333,-2.39403 -0.64272,-4.76384 -1.28277,-7.08065 z m -7.58236,-3.79669 c 1.84736,4.49217 3.08205,9.21215 3.67094,14.03307 0.4645,6.23163 -0.91416,7.75346 -0.94523,7.76948 -0.78587,0.75296 -6.81293,6.56808 -8.73659,10.1725 l -0.35243,-0.4169 c -0.6252,-0.73625 -1.25038,-1.42569 -1.84342,-2.0985 -3.687009,-4.10093 -6.604479,-7.32091 -7.662599,-19.22341 l -0.13501,-1.60193 c 3.517,-1.28938 6.908279,-2.89803 10.131319,-4.80593 v 0 c 2.02126,-1.17881 3.97964,-2.46202 5.86708,-3.84465 z M 94.771161,99.159213 c 0.86419,0.332219 1.54177,1.021037 1.8595,1.890327 0.0809,0.16544 0.0809,0.363 0,0.52848 -0.42803,0.45537 -0.98978,0.7632 -1.60309,0.88121 z m 9.810489,3.780657 c -2.91356,1.68585 -5.964959,3.12209 -9.121299,4.29318 l -0.27275,-3.0437 c 1.09913,-0.2232 2.08621,-0.8248 2.7893,-1.69806 0.36864,-0.5708 0.4618,-1.275 0.25656,-1.92239 -0.0404,-0.14109 -0.0945,-0.28092 -0.14447,-0.41688 l 3.831199,-2.09849 c 1.02353,0.831185 1.8325,1.897623 2.35656,3.10771 0.27951,0.54902 0.38484,1.16858 0.30515,1.77823 z M 87.733771,87.208622 c -1.52286,-15.474814 2.22827,-22.891796 5.43431,-29.427821 0.81827,-1.601971 1.60308,-3.203949 2.27632,-4.805786 1.97171,-4.62967 1.87558,-10.861308 1.34627,-15.715194 2.5969,9.179167 2.26027,20.729288 -1.36258,26.800589 -5.16181,8.63453 -3.55874,20.713256 -3.4946,21.177848 0,0 0.28895,3.892756 0.78588,9.851957 l -4.16799,0.817074 c -0.19172,-2.515121 -0.49691,-5.398653 -0.81693,-8.698667 z m 0.35244,23.773028 h -0.13504 c -0.84934,-0.78504 -3.02982,-4.80592 -2.51684,-7.14467 0.12153,-0.70934 0.62658,-1.29207 1.31387,-1.50591 0.80209,-0.14365 3.01372,-0.27192 3.62284,0.81709 0.79805,1.58197 0.79805,3.44805 0,5.03013 l -0.30516,0.48102 c -0.41724,0.6093 -1.42672,2.2428 -1.98778,2.32286 z m 1.97173,0.57719 c 0.54954,-0.65158 1.04375,-1.34785 1.47477,-2.0826 l 0.28897,-0.46433 c 1.10589,-2.11221 1.10589,-4.63207 0,-6.74421 -0.6198,-0.99024 -1.67262,-1.62646 -2.83739,-1.71419 l -0.27277,-2.931485 4.15179,-0.800414 c 0.32003,3.972919 0.73725,8.714709 1.18692,13.824869 1.1221,12.51125 4.34433,16.09961 8.095339,20.24865 0.59278,0.65675 1.20176,1.32968 1.81142,2.05056 l 0.94657,1.12105 c 4.05562,4.80592 7.90291,9.32334 9.21742,14.94623 0.6333,3.16275 0.79533,6.40171 0.48072,9.6117 l -1.87557,-6.50384 c -2.3884,-8.16991 -4.92133,-10.68507 -9.50599,-15.21853 -1.42661,-1.40982 -3.04575,-3.01177 -4.937259,-5.0622 -7.43815,-8.02575 -8.17555,-19.46375 -8.22362,-20.28072 z m 52.242929,37.95027 c 0.80208,1.48987 0.17689,4.08493 -0.4321,5.81503 -0.70891,-1.8194 -1.30304,-3.68127 -1.77943,-5.57476 v 0 -0.16036 l -0.0945,-0.12826 v 0 c -2.37248,-2.13055 -3.83121,-1.7941 -4.4244,-1.47371 -4.95332,0.52848 -8.80061,6.23152 -12.51961,11.74228 -2.66104,3.92481 -5.16179,7.64131 -7.56642,8.55448 -3.65486,1.39368 -5.28992,0.97743 -7.66242,-1.21728 v 0 c -0.78587,-0.72089 -1.60308,-1.602 -2.69321,-2.75536 l -1.81141,-1.90638 c -4.215909,-4.34133 -7.951119,-5.17429 -10.018969,-5.17429 l 1.76334,-3.30005 v -0.16032 c 1.79402,-5.46291 4.10764,-10.74137 6.909099,-15.76331 v 0 c 4.53662,4.4855 6.79691,6.7442 9.07322,14.41763 l 3.06184,10.46071 c 0.10802,0.36174 0.44017,0.61058 0.81692,0.60929 v 0 c 0.38889,-0.0258 0.71298,-0.30656 0.78588,-0.68881 0.87636,-4.76603 0.87636,-9.65145 0,-14.41759 -1.34627,-5.73499 -5.00139,-10.23653 -8.97695,-14.93017 0.97086,-1.91666 2.23017,-3.67267 3.73507,-5.2064 2.42057,1.28143 11.62194,5.81515 21.07985,5.81515 1.55325,0.004 3.10368,-0.12957 4.63289,-0.40021 2.08393,5.8471 4.85718,13.48841 6.12349,15.84321 z m -5.57851,-21.78661 c -1.67964,0.31681 -3.39385,0.4079 -5.09766,0.27193 l 0.49691,-0.22447 1.76336,-0.80042 c 0.95601,-0.40277 1.99575,-0.56822 3.02968,-0.48099 z m 8.86474,-22.77969 c 0.054,1.40582 -0.16608,2.8086 -0.64139,4.13298 -0.25656,0.30402 -1.3946,1.37776 -4.00757,0.62471 -3.97556,-1.15318 -11.22129,2.56308 -11.54185,2.7233 -1.15451,0.46047 -0.28086,2.17046 0.76967,1.50576 1.92365,-0.99279 7.53429,-3.39608 10.30741,-2.59504 1.20177,0.40021 2.49293,0.44382 3.71914,0.12825 -0.76967,2.22669 -1.71529,4.56556 -2.43662,6.40778 l -0.40104,0.99283 c -0.81964,2.39942 -0.59279,5.03268 0.62519,7.2569 -2.35655,-1.0095 -5.787,-1.93843 -8.75267,-0.6093 l -1.77929,0.8004 c -3.76721,1.73012 -7.32594,3.34813 -10.09919,2.83542 -2.63553,-0.7196 -5.15991,-1.79796 -7.50212,-3.20379 7.19762,-3.62045 7.6624,-10.7972 7.13348,-17.46134 -0.34568,-3.41701 -0.0405,-6.86852 0.89795,-10.172385 3.70308,-1.778214 7.64651,-0.817083 10.8366,0 l 1.08969,0.256541 c 2.90153,0.673425 7.14959,-0.481016 8.81681,-0.992816 1.25713,2.336062 2.25662,4.80142 2.9816,7.353 z m -11.41357,-8.185972 -1.07349,-0.256543 c -3.36644,-0.817091 -8.01526,-1.954465 -12.32745,0.336069 v 0 0 l -6.76475,5.014086 c -0.41724,-1.13776 -0.7535,-2.018469 -0.99383,-2.579124 l 0.22417,-0.175746 c 1.08968,-0.817085 2.03582,-1.601958 2.80537,-2.018455 1.15989,-0.885067 2.51022,-1.48769 3.94342,-1.762184 0.83314,-0.102624 1.02488,-1.227559 0.27278,-1.601849 -0.33625,0 -1.68315,-0.128266 -5.11361,1.986409 -0.84936,0.528472 -1.81144,1.249347 -2.94959,2.098502 -1.60309,1.185215 -3.52676,2.659307 -5.97942,4.181107 -0.44965,-1.84711 -1.43686,-3.519485 -2.83739,-4.805776 1.22203,-0.917137 2.37939,-1.918169 3.46259,-2.995766 l 28.56619,-5.542702 c 0.62519,1.195478 1.63643,2.143393 2.86939,2.691241 0.38754,0.152647 0.80208,0.229611 1.21798,0.224471 0.32947,-0.0037 0.65759,-0.05136 0.97762,-0.128265 -0.51177,1.5785 -0.41995,3.290649 0.25655,4.805798 -2.12011,0.627233 -4.34838,0.801684 -6.54046,0.513073 z m 11.30136,-9.707911 c 0.1985,-0.365572 0.36998,-0.746537 0.51312,-1.137759 0.54552,-1.601848 0.83313,-2.579138 0.28896,-3.380057 -0.54552,-0.801688 -1.25038,-0.88122 -2.66104,-0.992816 l 6.41219,-3.844654 c 1.33544,-0.03849 2.64429,0.375838 3.719,1.169829 0.65759,0.601587 1.03568,1.448431 1.04243,2.338882 -0.29166,1.338123 -0.8831,2.592611 -1.73136,3.668544 z M 156.21534,82.6436 c 0.13503,-0.402768 0.2417,-0.815801 0.32002,-1.233962 0.006,-0.06417 0.006,-0.115441 0,-0.175726 -0.009,-1.376732 -0.59008,-2.687917 -1.60308,-3.620438 -0.68595,-0.595177 -1.49641,-1.027446 -2.37248,-1.266031 0.48341,-0.419441 1.02218,-0.770907 1.60294,-1.041553 1.06809,-0.459217 0.37944,-2.061176 -0.68865,-1.601978 -1.14776,0.518216 -2.16562,1.284375 -2.98174,2.242811 -0.24576,-0.01236 -0.49151,-0.01236 -0.73727,0 -0.13503,0.0065 -0.26736,0.03847 -0.38483,0.115447 l -8.01513,4.805781 c -0.28492,-0.410464 -0.65085,-0.759362 -1.07349,-1.02488 -0.16069,-0.102612 -0.31057,-0.22062 -0.4483,-0.352743 0.027,-0.152645 0.0945,-0.296304 0.19309,-0.416875 0.42804,-0.518215 0.97897,-0.919701 1.60294,-1.169835 2.53263,-0.320676 4.80452,-1.716131 6.23584,-3.828618 1.77875,-0.502816 3.49431,-1.207024 5.11373,-2.098633 2.05408,-0.878648 4.38525,-0.84402 6.41205,0.08978 0.99787,0.334792 1.81791,1.055668 2.27634,2.00256 0.43345,1.698051 -1.05864,6.263577 -5.4343,8.554363 z"
       id="path4"
       sodipodi:nodetypes="cccccccccccccccccccccccccccccccsscccsccccccccccccccccccccccccccccccccccccccccccccccccccccccccccccccccccccccccccccccccccccccccccccccccccccccccccssccccccccccccccccccccccccccccccccccccccccccccccccccccccccccsccsccccssccccccccccccccccccsccccsccccccccccccsccccssccccccsccccccccccccccsccccccccccccccccsccccsscccccccccccccccccccccccccccccccccccccccccccccssccccccccccccccccccccccccccccccccccccccccccccccccccccscccscccsscccccssccssccccccccccccccccccccccccccccccccccccsccccccccccccccccccccccsccccccccccccccccccccccccccc"
       style="stroke-width:1.6025" />
    <path
       d="m 130.77603,68.322073 a -5.8510859,5.8471255 0 0 0 -4.53661,1.009484 -0.84960989,0.8490346 0 0 0 0.59278,1.393662 -0.84960989,0.8490346 0 0 0 0.54552,-0.192403 -4.2961408,4.2932308 0 0 1 3.20603,-0.59261 -0.84960989,0.8490346 0 1 0 0.20795,-1.601971 z"
       id="path6"
       style="stroke-width:1.6025" />
    <path
       d="m 129.54172,70.46868 -1.97185,0.496404 a -0.84960989,0.8490346 0 0 0 0.20795,1.601969 h 0.20794 l 1.97185,-0.496404 a -0.84960989,0.8490346 0 0 0 -0.41724,-1.601969 z"
       id="path8"
       style="stroke-width:1.6025" />
    <path
       d="m 119.97159,70.724964 -1.15451,-0.25654 a -0.84960989,0.8490346 0 0 0 -0.35244,1.601968 l 1.17073,0.239866 h 0.17688 a -0.84960989,0.8490346 0 0 0 0.17689,-1.601969 z"
       id="path10"
       style="stroke-width:1.6025" />
    <path
       d="m 117.60613,202.31286 c 0.4483,-1.71844 5.57377,-22.32178 5.62563,-22.52934 0.0541,-0.22062 0.20929,-0.41431 0.42939,-0.53616 0.2201,-0.12829 0.48746,-0.16547 0.74401,-0.11546 l 10.97622,2.03234 c 0.53337,0.10258 0.87364,0.55153 0.75752,1.01075 l -2.39342,9.58222 0.25116,0.0515 c 0.53337,0.10257 0.87365,0.55155 0.75887,1.01077 -0.0945,0.39891 -0.50906,0.67213 -0.96547,0.67213 -0.0675,0 -0.13773,-0.004 -0.20794,-0.0126 l -0.25116,-0.0513 -0.081,0.33351 c -0.10802,0.39121 -0.22145,0.90944 -0.30112,1.4487 l 0.1931,0.0383 c 0.53337,0.10267 0.87365,0.55158 0.75752,1.0108 -0.0945,0.39889 -0.50906,0.67213 -0.96547,0.67213 -0.027,0 -0.054,-0.004 -0.0675,-0.007 0.027,0.25654 0.0675,0.48358 0.14988,0.65675 0.12153,0.26678 0.38619,0.56694 0.71837,0.8671 0.14718,0.077 1.81778,1.32478 2.38841,1.62262 0.027,0.0115 0.0405,0.0258 0.0675,0.0383 l 6.20681,3.81003 c 0.0945,0.0642 2.28025,1.43934 1.67896,3.84697 -0.36188,1.45048 -1.04648,2.43662 -2.03423,2.93019 -0.52257,0.26169 -1.00597,0.31941 -1.3314,0.31941 -0.19849,0 -0.33892,-0.0258 -0.39293,-0.0258 l -12.72782,-2.35657 c -0.53337,-0.10256 -2.99282,-1.81335 -2.87764,-2.27281 0.10802,-0.4592 2.7576,0.51052 3.29366,0.60929 l 12.68178,2.34948 c 0.31868,0.0258 1.06404,-0.33094 1.45617,-1.90434 0.32407,-1.30231 -0.85474,-2.07873 -0.8966,-2.10479 l -6.17561,-3.79014 c -0.27277,-0.14492 -1.38595,-0.75164 -2.37856,-1.56128 l -7.16768,-1.3275 c -0.53337,-0.10257 -0.87365,-0.55155 -0.75752,-1.01077 0.10802,-0.45919 0.63869,-0.75166 1.17342,-0.65288 l 5.12709,0.95048 c -0.12152,-0.40277 -0.17824,-0.86454 -0.18499,-1.33851 l -4.45019,-0.82348 c -0.53337,-0.10258 -0.87365,-0.55156 -0.75752,-1.01078 0.10803,-0.45921 0.63734,-0.75039 1.17342,-0.6529 l 4.17256,0.77219 c 0.12153,-0.75168 0.27681,-1.3389 0.31327,-1.4678 l 0.081,-0.313 -4.12113,-0.7632 c -0.53337,-0.10256 -0.87364,-0.55152 -0.75886,-1.01076 0.10802,-0.45922 0.64139,-0.75037 1.17341,-0.6529 l 4.12166,0.7632 2.18493,-8.75036 -9.04339,-1.67559 c -0.96951,3.89725 -5.02434,20.18685 -5.42309,21.71378 -0.63195,2.42083 1.85787,3.03513 2.35831,3.13263 l 2.80742,0.51947 c 0.53337,0.10268 0.87365,0.55158 0.75752,1.01079 -0.10803,0.45919 -0.63869,0.75163 -1.17341,0.65288 l -2.80688,-0.51948 c -0.0945,-0.0127 -2.20761,-0.4233 -3.33712,-1.94484 -0.67516,-0.9107 -0.85474,-1.99538 -0.5334,-3.22448 z"
       id="path2"
       style="stroke-width:0.458496"
       sodipodi:nodetypes="cccccccccsccccccsccccccccsccccccccccccccccccccccccccccccccccc" />
    <path
       id="path2-0"
       style="stroke-width:0.458496"
       d="m 87.510031,175.15615 c -0.12152,0.0258 -0.2471,0.0644 -0.35648,0.12829 -0.22009,0.12829 -0.37674,0.31682 -0.4321,0.53872 -0.027,0.077 -1.23284,4.93317 -2.26054,9.05797 -0.6738,-0.11545 -0.69542,0.0644 -1.03027,0.52591 0.0404,0.295 0.29032,0.56053 0.69542,0.81323 -0.26602,1.06595 -0.29303,1.1801 -0.56039,2.25281 -0.52799,0.0258 -0.8696,0.20137 -0.99249,0.62852 -0.0809,0.26938 0.1607,0.51051 0.64545,0.75039 -0.15528,0.6234 -0.19174,0.76835 -0.33757,1.3548 -0.50636,0.003 -0.87094,0.11544 -1.05459,0.42842 -0.0272,0.29631 0.24306,0.57336 0.73589,0.85429 -0.5779,2.31129 -1.34487,5.41313 -1.46209,5.86017 h -0.004 c -0.0405,0.17443 -0.054,0.3386 -0.081,0.50664 0.004,-7.7e-4 0.009,-0.004 0.0127,-0.006 0.0541,-0.077 0.14174,-0.13213 0.29164,-0.15393 0.15529,-0.1347 0.26196,0.83631 0.44426,0.82349 0.19578,0 0.75618,-0.67598 0.75481,-0.48101 -7.3e-4,0.42328 0.36595,-0.42458 0.53605,-0.42072 0.12154,-0.48357 0.89393,-3.5826 1.34357,-5.37838 1.18695,0.40659 2.6828,0.8453 4.61184,1.40482 l 5.00637,0.92995 c 5.4e-4,-0.0514 -5.2e-4,-0.0898 0,-0.14109 2.7e-4,-0.0258 -3.9e-4,-0.0642 0,-0.0899 l 0.004,0.004 c -0.0135,-0.10257 -0.0135,-0.20778 0.0271,-0.30401 0.0134,-0.0514 0.0271,-0.0898 0.0404,-0.14107 0.0135,-0.0383 0.054,-0.0771 0.081,-0.10267 2.7e-4,-0.0258 -0.004,-0.0514 0.004,-0.0771 0.0404,-0.1308 0.14855,-0.21806 0.2471,-0.29757 0.004,-0.0127 0.007,-0.0383 0.0134,-0.0514 0.0271,-0.0383 0.0405,-0.0644 0.0676,-0.0898 0.006,-0.0258 0.007,-0.0513 0.0136,-0.077 0.004,-0.0898 0.0272,-0.12829 0.0404,-0.13469 -0.081,-0.0257 -0.14179,-0.0898 -0.1877,-0.1783 l -4.94061,-0.91713 c -1.90866,-0.61312 -3.39914,-1.10567 -4.60563,-1.42663 0.10803,-0.40533 0.15529,-0.6298 0.2633,-1.06079 1.23149,0.35402 2.80191,0.74397 4.8341,1.27374 l 4.11723,0.7632 c 0.0675,-0.0772 0.14445,-0.14112 0.20389,-0.0898 0.0541,0.0383 0.0809,0.0898 0.10803,0.15008 l 0.0136,0.004 c 1.4e-4,0.006 -1.5e-4,0.0123 0,0.0126 0.0404,0.0645 0.0809,0.13211 0.13502,0.17832 0.007,0.006 -0.006,-0.0258 -0.004,-0.0258 0.009,-0.0258 0.004,-0.0771 -0.0101,-0.11545 -0.0135,-0.0383 -0.1742,-0.18986 0,-0.0258 0.0676,0.10268 0.0676,0.10268 0.0945,0.19112 v 0.004 c 0.004,0.004 0.009,0.004 0.0124,0.006 0.004,0.0101 0.009,0.0126 0.0123,0.0258 0.006,2.6e-4 0.0136,-7.8e-4 0.0124,0 -0.12154,0.0258 -0.0809,0.006 0.0123,-0.006 0.0404,-0.004 0.0676,-0.006 0.10799,-0.0101 0.054,2.4e-4 0.0945,-0.0101 0.14045,0.004 0.23358,0.0644 0.48341,0.17703 0.14043,0.0644 0.0539,0 0.0945,-2.4e-4 0.14719,0 0.0404,0 0.0945,0 0.13503,0 0.12153,-6.6e-4 0.25653,-8.1e-4 0.38483,0 0.0135,2.7e-4 0.0405,-2.4e-4 0.054,0 0.0405,0.003 0.0809,0.003 0.13772,0.004 0.013,-0.006 0.027,-0.0258 0.0406,-0.0258 0.12152,-0.0513 0.26061,-0.0383 0.38483,-0.0383 0.12153,0 0.15527,0.0513 0.1634,0.10256 0.44019,-0.0127 0.83042,-0.27834 0.92629,-0.66699 0.12153,-0.45919 -0.22414,-0.91201 -0.7575,-1.01078 l -0.19447,-0.0384 c 0.0809,-0.53872 0.19447,-1.0582 0.30385,-1.44854 l 0.0809,-0.33224 0.24982,0.0513 c 0.0676,0.0126 0.14044,0.0126 0.20932,0.0126 0.45638,0 0.86553,-0.27322 0.9641,-0.67214 0.12151,-0.4592 -0.22416,-0.91199 -0.75751,-1.01076 l -0.25116,-0.0513 3.099199,-9.52394 c 0.12156,-0.45925 -0.931689,-0.9685 -1.464799,-1.06722 l -10.97702,-2.03389 c -0.13503,-0.0258 -0.25926,-0.0258 -0.38484,-0.006 z m 0.93576,1.84609 9.04527,1.677 -2.18545,8.75129 -4.12341,-0.76324 c -1.32467,-0.38611 -2.41896,-0.69395 -3.32501,-0.93253 -0.67109,-0.177 -1.03029,-0.2732 -1.49343,-0.39764 0.90065,-3.61209 1.70974,-6.83912 2.08203,-8.33514 z m -2.49226,9.97456 c 1.19908,0.39892 2.75516,0.81966 4.81544,1.35479 l 4.12033,0.76066 -0.081,0.31297 c -0.0405,0.12828 -0.19445,0.71576 -0.31327,1.46742 l -4.17041,-0.76961 c -2.06744,-0.56825 -3.60018,-1.03261 -4.82166,-1.33287 0.1931,-0.7722 0.25117,-1.00436 0.4483,-1.7927 z m 10.17872,5.99807 c 0.004,0.0108 0.002,0.011 0.004,0.0257 0.004,-1e-4 0.006,-0.004 0.01,-0.004 -0.006,-0.004 -0.007,-0.0101 -0.0124,-0.0127 z m -1.5404,0.94533 c 0.007,-0.0258 -0.0272,0.0515 -0.0405,0.077 -0.007,0.0258 -0.0104,0.0899 -0.006,0.0645 0.0101,-0.0645 0.0272,-0.0514 0.0272,-0.077 0.0115,-0.0258 -7.2e-4,0.006 0.0135,-0.0644 z m 6.524789,3.50731 c -0.006,0.004 -0.0127,0.007 -0.0136,0.0115 0,0.006 0.004,0.0116 0.004,0.0127 0.006,-0.0118 0.01,-0.0257 0.0135,-0.0257 z m -18.165609,1.83041 c 0.002,7.9e-4 0.004,7.9e-4 0.006,0.004 v -0.004 c -0.002,-1.1e-4 -0.005,1.4e-4 -0.006,0 z m -0.081,0.0514 c -0.0405,0.007 -0.054,0.0127 -0.081,0.0383 0.0136,5.3e-4 0.0405,-5.1e-4 0.054,0 0.009,-0.0106 0.0136,-0.0257 0.0271,-0.0383 z m 3.72901,4.43034 c -0.0405,-2.6e-4 -0.0945,0.0115 -0.13503,0.0105 -0.0271,0 -0.0541,0 -0.0676,0 -0.0272,0.006 -0.0404,0.0127 -0.0677,0.0127 l 0.18502,0.0383 c 0.0271,-0.0258 0.0539,-0.0514 0.081,-0.0643 z m 4.74335,0.94535 c -0.006,0.003 -0.013,0.004 -0.0135,0.007 l 0.006,0.004 c 0.005,-0.004 0.007,-0.007 0.0124,-0.0105 z"
       sodipodi:nodetypes="scccccccccccccccccsccccscccsccccccccccccccccccscccccccccccccscccsccccccccccccccssccccsccsccccccsscccccscccsscccccccccccccccccccccccsc" />
    <path
       style="fill:none;stroke:#000000;stroke-width:1.6025px;stroke-linecap:butt;stroke-linejoin:miter;stroke-opacity:1"
       d="m 95.015021,192.90279 -3.76558,15.58228 -0.48074,1.67922 -7.28121,5.51715 v 0"
       id="path983"
       sodipodi:nodetypes="ccccc" />
    <path
       style="fill:none;stroke:#000000;stroke-width:1.6025px;stroke-linecap:butt;stroke-linejoin:miter;stroke-opacity:1"
       d="m 81.955711,198.60966 -1.65386,4.77501 -4.05645,4.38403 -4.43305,5.05911 -0.40104,0.7273 -0.40507,0.77603 c -0.0405,0.26039 -0.51989,1.1788 -0.30653,2.00679 l 2.40042,1.43933 2.88047,0.16032 5.2809,-0.95947 2.22611,-1.29629"
       id="path985"
       sodipodi:nodetypes="ccccccccccc" />
    <path
       style="fill:#ffccaa;stroke-width:1.6025"
       d="m 94.158641,176.19965 c -2.41166,-0.4592 -4.42641,-0.87609 -4.47731,-0.92609 -0.0541,-0.0513 0.50098,-1.41368 1.22741,-3.02836 1.76928,-3.93409 2.82349,-6.57721 4.08722,-10.24806 l 1.0546,-3.06439 1.93458,1.4633 c 1.78333,1.34891 3.452319,2.72743 6.025059,4.97642 l 1.00327,0.87737 -1.92135,3.65377 c -1.92487,3.66009 -4.111269,7.22125 -4.397249,7.16201 -0.081,-0.0127 -2.12565,-0.40665 -4.53716,-0.86583 z"
       id="path1152" />
    <path
       style="fill:#ffccaa;stroke-width:1.6025"
       d="m 130.17933,180.06031 c -1.92661,-0.36682 -3.55156,-0.71573 -3.61111,-0.77471 -0.29842,-0.29759 1.41606,-4.34711 4.04267,-9.55079 1.61132,-3.19254 2.92989,-5.82772 2.92989,-5.85594 0,-0.17189 -0.93441,-0.94153 -1.14236,-0.94153 -0.13908,0 -0.51041,0.27712 -0.82638,0.61702 -0.31598,0.33864 -0.61844,0.56182 -0.67111,0.49511 -0.054,-0.0642 -0.96006,-1.63545 -2.0141,-3.48653 -2.24854,-3.94648 -2.30335,-3.52728 0.9128,-6.9865 2.42744,-2.61121 3.97583,-3.61941 5.91068,-3.84838 2.01614,-0.23857 2.42501,0.22574 3.90359,4.43047 0.6846,1.94701 1.79347,4.81426 2.46403,6.37172 1.04379,2.42343 1.22068,3.118 1.22878,4.81425 0.008,1.8054 -0.0945,2.18457 -1.20987,4.2478 -1.61456,2.99857 -4.59778,7.16084 -6.70844,9.35977 l -1.70381,1.77529 z"
       id="path1154" />
    <path
       style="fill:#ffccaa;stroke-width:1.6025"
       d="m 105.79891,100.27991 c -0.28489,-0.663165 -0.87092,-1.6266 -1.30436,-2.141093 -0.43751,-0.519494 -0.67514,-1.033858 -0.53607,-1.157001 0.13906,-0.128274 0.86148,-0.770906 1.60579,-1.441892 l 1.35352,-1.219851 14.09068,-2.751919 14.09056,-2.751919 0.70891,0.818368 c 1.06944,1.235244 2.29659,1.935219 3.40047,1.938169 l 0.99247,0.0026 -0.008,2.334135 -0.008,2.334283 -0.84124,0.17958 c -1.79779,0.384805 -4.96142,0.233453 -7.40776,-0.354033 -3.25127,-0.78117 -7.30974,-0.844019 -9.36315,-0.146229 -0.85473,0.291185 -2.93406,1.566177 -4.93778,3.0295 -1.90353,1.389932 -3.4982,2.489732 -3.54386,2.444072 -0.0404,-0.0513 -0.27545,-0.54388 -0.51179,-1.10826 l -0.42802,-1.024877 2.33223,-1.565046 c 1.28278,-0.860688 3.00848,-1.779867 3.83515,-2.042447 1.3562,-0.430998 1.49451,-0.550276 1.41687,-1.218574 -0.0811,-0.651609 -0.20795,-0.737561 -1.10051,-0.713186 -1.5951,0.03848 -3.74238,1.209591 -8.47867,4.60223 -2.41584,1.7305 -4.49259,3.14878 -4.61493,3.15185 -0.12153,0.003 -0.45505,-0.53744 -0.73997,-1.20059 z"
       id="path1156" />
    <path
       style="fill:#ffccaa;stroke-width:1.6025"
       d="m 126.45627,87.834584 c 0,-0.364283 -0.36593,-1.10569 -0.81153,-1.64751 -0.44695,-0.541299 -0.90335,-1.399048 -1.01407,-1.905195 -0.1931,-0.881219 -0.16474,-0.920985 0.6603,-0.920985 1.23417,0 3.66418,-0.972295 5.67127,-2.268595 1.34355,-0.868395 1.72987,-1.272439 1.72987,-1.812338 0,-0.963307 -0.91955,-1.205743 -1.91311,-0.505378 -1.48641,1.049245 -4.33488,2.333235 -5.52935,2.493577 -1.03163,0.138532 -1.36853,0.03849 -2.39288,-0.70677 -1.42739,-1.038995 -3.26448,-3.300659 -4.2332,-5.211126 -0.81152,-1.601583 -1.80076,-5.235486 -1.80076,-6.619015 0,-0.909438 0.0405,-0.945347 1.0627,-0.917125 0.87362,0.02569 0.94115,0.06417 0.38078,0.21934 -1.64211,0.459208 -1.50885,2.002305 0.17689,2.046685 0.91415,0.02568 0.9668,0.05129 0.36323,0.22575 -0.55092,0.152648 -0.70892,0.382246 -0.70892,1.033864 0,0.782453 0.081,0.842731 1.2045,0.923546 1.1734,0.08979 1.20444,0.06418 1.20444,-0.778597 0,-0.47589 0.13774,-0.865833 0.30788,-0.865833 0.21065,0 0.24711,0.65162 0.10802,2.074647 l -0.19445,2.074525 0.90067,0.756795 c 1.57458,1.324008 2.84061,1.341706 2.84061,0.03848 0,-0.477171 -0.2633,-0.819652 -0.86958,-1.13391 l -0.86959,-0.450226 0.19443,-2.478829 c 0.17013,-2.171366 0.12153,-2.618904 -0.38214,-3.608122 -0.64003,-1.254482 -1.3314,-1.666495 -3.28933,-1.959843 -0.72781,-0.115448 -1.28008,-0.278349 -1.22743,-0.377118 0.90607,-1.655585 1.36516,-3.028722 1.21393,-3.628899 -0.23226,-0.924832 0.27409,-1.505384 1.31115,-1.505384 0.85473,0 2.29348,-0.611853 3.10353,-1.320035 0.39969,-0.350178 0.58468,-0.330933 1.41687,0.14495 0.52662,0.300152 1.46683,0.633657 2.09027,0.740115 1.7747,0.304003 2.34575,0.813236 2.56747,2.290656 0.10802,0.737557 0.49691,1.658031 0.8939,2.129164 0.62654,0.745256 0.64544,0.831194 0.17688,0.84659 -1.03432,0.03848 -5.60713,1.615308 -5.86909,2.030132 -0.4591,0.727294 0.007,1.35056 1.01813,1.360315 0.85609,0.008 0.8885,0.0385 0.40915,0.404048 -0.63735,0.482299 -0.52122,1.313106 0.24035,1.704459 0.36593,0.188556 0.53201,0.514369 0.47396,0.92868 -0.12153,0.829909 0.51176,1.060798 2.02032,0.742689 1.07484,-0.227039 1.18826,-0.330941 1.18826,-1.099278 0,-0.827349 -0.027,-0.846592 -1.26388,-0.765782 -0.6954,0.05129 -1.16261,-0.0128 -1.03973,-0.141092 0.12153,-0.128273 1.01002,-0.287326 1.97171,-0.365569 1.64953,-0.133402 1.75283,-0.184713 1.83655,-0.910728 0.0945,-0.842733 -0.20525,-0.98896 -2.35574,-1.144173 -1.02353,-0.07699 -0.90336,-0.135964 1.24768,-0.641345 1.71813,-0.404057 2.41772,-0.697795 2.51183,-1.053106 0.10803,-0.430989 0.1985,-0.406616 0.67245,0.196259 0.29842,0.378394 0.73187,1.141606 0.96277,1.696243 0.30652,0.733708 0.59548,1.008203 1.06134,1.008203 0.46585,0 0.8858,0.397638 1.53894,1.460625 0.86824,1.410591 0.8831,1.490502 0.45505,2.336182 -0.69405,1.370703 -1.17881,1.797329 -1.88718,1.662002 -1.20177,-0.229599 -1.41296,0.464345 -1.25308,4.103636 0.081,1.827475 0.32812,3.835418 0.55092,4.462146 0.36323,1.027445 0.35243,1.255773 -0.10802,2.318112 -0.57928,1.328756 -0.40239,1.249348 -4.61777,2.064506 -1.71434,0.330944 -3.34024,0.667016 -3.61301,0.745258 -0.37133,0.102613 -0.49556,-0.02559 -0.49556,-0.519495 z"
       id="path1158" />
    <path
       style="fill:#ffccaa;stroke-width:1.6025"
       d="m 138.18906,88.95451 -0.81288,-0.637494 0.98707,-0.141102 c 0.87905,-0.128275 0.99652,-0.246281 1.07754,-1.094153 l 0.0945,-0.951762 -1.1545,0.115439 c -0.63465,0.06417 -1.15316,-7.86e-4 -1.15316,-0.137243 0,-0.557982 1.18556,-1.852232 2.09175,-2.281808 1.29764,-0.615704 4.94022,-0.642635 5.1722,-0.03848 0.43075,1.122364 -1.39878,4.087471 -3.15998,5.118891 -1.46089,0.855567 -2.10255,0.865833 -3.13959,0.05137 z"
       id="path1160" />
    <path
       style="fill:#ffccaa;stroke-width:1.6025"
       d="m 156.62218,81.706455 c 0.46316,-1.459972 -0.99652,-4.130688 -2.75448,-5.039361 l -0.85879,-0.443812 0.89255,-0.564401 c 0.95601,-0.605432 1.14641,-1.361841 0.48071,-1.913915 -0.54148,-0.44895 -1.30575,-0.180866 -2.85549,1.000506 -0.69946,0.533602 -1.4085,0.969729 -1.57526,0.969729 -0.16744,0 -2.13429,1.095433 -4.37201,2.433799 l -4.06874,2.433813 -0.71701,-0.522067 c -0.39429,-0.287327 -0.72106,-0.608002 -0.72646,-0.714466 -0.0135,-0.383523 1.50018,-1.365699 2.10944,-1.365699 1.07079,0 4.05955,-1.684829 5.05864,-2.851196 0.52392,-0.611852 1.09915,-1.113385 1.27604,-1.113385 0.17689,0 1.5041,-0.514369 2.94838,-1.144177 1.44415,-0.629807 3.21022,-1.217289 3.92452,-1.308232 1.80657,-0.228319 4.23429,0.520784 5.37232,1.657642 0.81828,0.818369 0.8858,1.01462 0.72917,2.151744 -0.29842,2.179954 -2.62486,5.5595 -4.57794,6.65185 -0.38888,0.218062 -0.43885,0.162904 -0.28626,-0.319396 z"
       id="path1162" />
    <path
       style="fill:#ffccaa;stroke-width:1.6025"
       d="m 110.29099,90.742087 c 0.99653,-1.398651 4.00784,-3.954317 5.54463,-4.705726 1.96657,-0.962029 4.05279,-1.26988 5.43226,-0.804254 0.99787,0.337352 3.48809,2.656479 3.48809,3.249091 0,0.137241 -0.28761,0.314268 -0.63734,0.392502 -1.22337,0.273219 -13.989,2.700104 -14.2037,2.700104 -0.12152,0 0.0541,-0.374557 0.37674,-0.832486 z"
       id="path1164" />
    <path
       style="fill:#ffccaa;stroke-width:1.6025"
       d="m 87.262251,109.67419 c -2.27431,-3.87813 -2.11931,-7.33913 0.32812,-7.33913 1.47249,0 2.53087,0.54771 2.85551,1.47883 0.72104,2.06657 0.22549,4.04795 -1.51492,6.06014 l -0.92494,1.06977 z"
       id="path1166" />
    <path
       style="fill:#ffcc00;stroke-width:1.6025"
       d="m 95.001121,100.72821 v -1.323746 l 0.70891,0.665716 c 0.80612,0.7568 0.9209,1.55709 0.2606,1.81041 -0.84124,0.32324 -0.96818,0.17188 -0.96818,-1.15185 z"
       id="path1168" />
    <path
       style="fill:#ffcc00;stroke-width:1.6025"
       d="m 113.71428,154.93727 c -1.73528,-6.1212 -3.06586,-9.39415 -4.91268,-12.08452 -0.47259,-0.6888 -3.14902,-3.61989 -5.94727,-6.5133 -5.319509,-5.50087 -7.240989,-7.91585 -8.898219,-11.18378 -1.37326,-2.70819 -2.77285,-7.12183 -3.34673,-10.55463 l -0.48205,-2.88451 0.7224,-0.94667 c 2.75315,-3.60722 2.46971,-8.56166 -0.57116,-9.9743 -1.08701,-0.50539 -1.18829,-0.64521 -1.27875,-1.781551 -0.0809,-1.047972 -0.0124,-1.251921 0.47126,-1.360955 2.02882,-0.454069 3.11461,-0.656746 3.17901,-0.592609 0.0405,0.03843 0.39565,3.697275 0.78724,8.125695 1.02892,11.6241 1.66033,14.85898 3.73169,19.12063 1.01679,2.0935 2.12754,3.54437 8.066979,10.54423 5.39985,6.36415 7.55306,9.80887 8.61656,13.78523 0.41724,1.56159 0.9533,8.63725 0.65354,8.63725 -0.0675,0 -0.42805,-1.05185 -0.79262,-2.33634 z"
       id="path1170" />
    <path
       style="fill:#ffcc00;stroke-width:1.6025"
       d="m 88.638211,94.865096 c -0.62248,-3.912002 -1.05997,-11.611698 -0.9209,-16.176199 0.24709,-8.056036 1.21122,-11.638505 5.61604,-20.847816 3.01494,-6.303981 3.60896,-8.392608 3.85689,-13.559473 0.21197,-4.419563 0.42532,-3.996654 0.96409,1.908921 0.61709,6.760113 -0.34568,12.755608 -2.83035,17.631037 -3.55698,6.978946 -4.26266,12.215589 -3.29788,24.476072 0.27684,3.522958 0.42942,6.480239 0.33761,6.57181 -0.0945,0.0898 -0.93579,0.327096 -1.87612,0.523357 l -1.70962,0.356584 z"
       id="path1172" />
    <path
       style="fill:#aa8800;stroke-width:1.6025"
       d="m 146.14208,86.111137 c 0.10802,-0.343761 0.2633,-1.233957 0.34972,-1.978701 0.16204,-1.396477 -0.36728,-2.470099 -1.21797,-2.470099 -1.03703,0 -0.41049,-0.658036 1.99251,-2.091064 2.95568,-1.762571 3.79246,-1.917008 5.54596,-1.022319 1.90393,0.971005 2.21261,2.518206 0.96142,4.816557 -0.6684,1.227545 -0.88715,1.396354 -2.33792,1.805539 -0.88039,0.248841 -2.47456,0.701631 -3.54306,1.009482 l -1.94295,0.557981 z"
       id="path1174" />
    <path
       style="fill:#aa8800;stroke-width:1.6025"
       d="m 95.563901,106.22898 c -0.002,-0.35017 -0.081,-0.90431 -0.16337,-1.23141 -0.12153,-0.4656 0.0271,-0.67086 0.70485,-0.95177 1.44469,-0.59774 2.29607,-1.65212 2.29607,-2.84299 0,-1.00052 0.0809,-1.10056 1.722449,-1.972149 l 1.72256,-0.917135 0.7143,0.66572 c 0.84666,0.788864 1.79215,2.541804 1.79215,3.320544 0,0.36172 -0.44425,0.80169 -1.28684,1.27245 -1.6949,0.94662 -6.828359,3.29423 -7.203459,3.29423 -0.16204,0 -0.29573,-0.28732 -0.29843,-0.63749 z"
       id="path1176" />
    <path
       style="fill:#aa8800;stroke-width:1.6025"
       d="m 109.43814,168.07332 c -0.69271,-0.44638 -2.74317,-2.35044 -4.55593,-4.23216 -4.33082,-4.49562 -6.533949,-5.89916 -10.526419,-6.70637 l -0.78722,-0.15905 0.72241,-1.23142 c 0.39697,-0.67721 1.087,-2.29855 1.53329,-3.60334 1.25578,-3.67124 1.88121,-5.16099 4.06237,-9.67328 l 2.023279,-4.18585 1.66695,1.6371 c 4.18773,4.11287 5.61092,6.87557 8.41036,16.32618 1.09781,3.70635 2.06855,6.85576 2.15685,6.99855 0.25656,0.41432 1.46777,0.30013 1.64223,-0.15393 0.081,-0.22703 0.30789,-1.78872 0.49017,-3.46905 0.37405,-3.44818 0.18094,-8.23665 -0.45504,-11.26783 -0.74809,-3.56707 -3.21347,-8.01702 -7.04832,-12.72264 l -1.82939,-2.24484 0.61709,-1.09031 c 0.33892,-0.59902 1.13695,-1.68395 1.77079,-2.41008 l 1.15316,-1.32042 2.74896,1.20448 c 4.61465,2.02246 8.93587,3.34425 13.08022,4.00113 2.08717,0.33094 8.49827,0.42715 9.24945,0.13979 0.32272,-0.12825 0.56037,0.15523 0.8912,1.04798 0.24845,0.66956 1.17746,3.1924 2.06515,5.60648 0.88715,2.41429 2.18479,5.72752 2.88303,7.36298 l 1.26929,2.97343 -0.35918,1.9823 c -0.35648,1.96777 -0.36188,1.97612 -0.72512,1.13263 -0.20119,-0.46689 -0.59278,-1.71241 -0.87094,-2.76707 -0.4267,-1.62249 -0.663,-2.02745 -1.5353,-2.63095 -1.39486,-0.96586 -2.69642,-1.12878 -4.60156,-0.57466 -3.64568,1.05952 -6.34426,3.76105 -11.8967,11.91174 -3.70943,5.44507 -6.0117,7.8491 -8.11454,8.47315 -2.3117,0.68625 -3.65942,0.5926 -5.1322,-0.35534 z"
       id="path1178" />
    <path
       style="fill:#aa4400;stroke-width:1.6025"
       d="m 120.77095,128.75789 c -1.56647,-0.4002 -4.35458,-1.55681 -5.75483,-2.38659 l -0.8129,-0.48231 0.87095,-0.45023 c 1.28684,-0.66573 3.48257,-2.97509 4.3446,-4.57183 1.50437,-2.78602 1.73999,-4.41647 1.77862,-12.30204 0.027,-4.85041 0.15529,-7.70802 0.40239,-8.70378 0.35918,-1.451509 0.39699,-1.491409 1.81319,-1.911498 2.10134,-0.62339 4.65745,-0.528464 8.39321,0.31171 3.61111,0.81194 5.73798,0.804255 8.93752,-0.03842 0.92226,-0.242434 1.78402,-0.333491 1.91446,-0.202662 0.4645,0.464329 2.5302,5.86121 2.69061,7.03103 0.21875,1.59682 -0.37808,4.00652 -1.08699,4.38569 -0.35378,0.18984 -1.70098,0.22961 -3.72522,0.11545 -2.87128,-0.16674 -3.39749,-0.11545 -5.57904,0.52591 -3.62192,1.06848 -6.23435,2.31297 -6.23435,2.97099 0,0.29887 0.18634,0.69779 0.41454,0.88764 0.33353,0.27577 0.95466,0.12827 3.18793,-0.77734 4.042,-1.63351 5.10941,-1.83272 8.60656,-1.60619 l 3.0155,0.19497 -1.48425,3.86005 c -1.74946,4.54925 -2.0183,6.08335 -1.44591,8.24894 0.22685,0.85685 0.37674,1.5917 0.33487,1.63391 -0.0405,0.0383 -0.95601,-0.12956 -2.03125,-0.38097 -2.94812,-0.69139 -4.5481,-0.43867 -8.64465,1.36724 -5.67492,2.50115 -7.44814,2.90958 -9.90515,2.28116 z"
       id="path1180" />
    <path
       style="fill:#aa4400;stroke-width:1.6025"
       d="m 117.74224,117.39517 c -0.57525,-0.077 -0.63734,-0.24756 -0.6387,-1.69918 -0.002,-1.65511 -0.63194,-5.99948 -1.1059,-7.62045 -0.25791,-0.88249 -0.21199,-0.95818 1.34086,-2.19073 l 1.60794,-1.27628 0.16069,3.46496 c 0.16067,3.45383 -0.0945,7.85092 -0.50773,8.87352 -0.14312,0.35273 -0.43883,0.50665 -0.85745,0.44765 z"
       id="path1182" />
    <path
       style="fill:#d45500;stroke-width:1.6025"
       d="m 126.73957,132.06241 c -0.70081,-0.13726 -2.03774,-0.40663 -2.96972,-0.59775 l -1.69462,-0.3489 2.19557,-0.3707 c 1.20718,-0.20395 2.61852,-0.54771 3.13528,-0.76323 0.71161,-0.29755 1.87854,-0.35659 4.81234,-0.24496 l 3.87268,0.14749 -0.004,0.73882 c -0.009,1.49616 -0.24036,1.58418 -4.30639,1.63845 -2.07109,0.0257 -4.33946,-0.0644 -5.04081,-0.19885 z"
       id="path1186" />
    <path
       style="fill:#d45500;stroke-width:1.6025"
       d="m 132.13876,127.98121 c -0.28222,-0.0514 -0.27817,-0.0514 0.93846,-0.59773 0.67245,-0.30273 1.47966,-0.61188 1.79482,-0.68624 0.73592,-0.17575 1.86828,-0.26424 1.93782,-0.15267 0.027,0.0383 0.0117,0.31684 -0.0405,0.60545 -0.0675,0.43867 -0.10802,0.53105 -0.23495,0.56184 -0.78723,0.19753 -3.75898,0.37836 -4.40132,0.26935 z"
       id="path1190" />
    <path
       style="fill:#d45500;stroke-width:1.6025"
       d="m 116.58827,121.50137 c 0,-0.0258 0.0676,-0.30013 0.13907,-0.62467 0.081,-0.32453 0.16878,-0.83889 0.2066,-1.14418 0.0405,-0.30529 0.081,-0.56439 0.0945,-0.57725 0.0128,-0.0127 0.24034,0.0259 0.50367,0.0899 l 0.47934,0.10255 -0.2606,0.47079 c -0.39024,0.70161 -1.15856,1.81976 -1.15856,1.68455 z"
       id="path1192" />
    <path
       style="fill:#d45500;stroke-width:1.6025"
       d="m 115.34855,104.94691 c -0.0135,-0.0512 -0.14314,-0.41688 -0.27545,-0.81196 l -0.24037,-0.7183 2.37896,-1.77656 c 1.30845,-0.97743 2.39181,-1.76372 2.40747,-1.74795 0.0134,0.01284 -0.0272,0.34122 -0.081,0.72472 -0.0676,0.38226 -0.13503,0.79529 -0.14852,0.91587 -0.0271,0.186 -0.32003,0.45665 -1.85493,1.73446 -2.32657,1.93692 -2.13875,1.7922 -2.18101,1.67894 z"
       id="path1194" />
    <path
       style="fill:#d45500;stroke-width:1.6025"
       d="m 134.22862,208.07322 c -3.89333,-0.72604 -6.54154,-1.25321 -7.11987,-1.41868 -1.44456,-0.41432 -1.73339,-0.47077 -2.19627,-0.431 -0.46181,0.0383 -2.63985,-0.32579 -3.50675,-0.58747 -1.16125,-0.35021 -1.9081,-1.19419 -1.91418,-2.16264 -0.003,-0.32839 0.61979,-2.91954 2.74301,-11.43376 1.51003,-6.0549 2.74623,-11.01309 2.74719,-11.01808 0.007,-0.0383 8.6152,1.60353 8.7582,1.6706 l 0.18499,0.0898 -1.06269,4.25883 c -0.58468,2.34236 -1.07214,4.27077 -1.08429,4.28517 -0.0115,0.0127 -0.92361,-0.14111 -2.026,-0.34764 -1.1032,-0.20523 -2.13226,-0.37328 -2.28809,-0.37455 -0.56713,-7.9e-4 -0.97627,0.36429 -0.97627,0.87224 0,0.34248 0.16609,0.60928 0.46585,0.74652 0.12153,0.0514 1.15182,0.27451 2.28134,0.48231 2.02897,0.37454 2.05436,0.381 2.04086,0.549 -0.0135,0.20012 -0.28627,1.48384 -0.31868,1.51693 -0.0124,0.0125 -0.94656,-0.1488 -2.07663,-0.36044 -1.1302,-0.21036 -2.15846,-0.38352 -2.28674,-0.38479 -0.57117,-0.004 -1.07079,0.5169 -0.97761,1.01974 0.054,0.26552 0.34432,0.57337 0.64544,0.67342 0.12153,0.0383 1.18286,0.24884 2.37033,0.46688 1.18826,0.21807 2.16331,0.40278 2.1675,0.4092 0.027,0.0383 0.16878,1.20704 0.15258,1.22243 -0.0101,0.0106 -1.11805,-0.18601 -2.46187,-0.43614 -1.34355,-0.25012 -2.60284,-0.45407 -2.7977,-0.45407 -0.61303,-8e-4 -0.97627,0.32196 -0.96816,0.86454 0.006,0.34379 0.16069,0.59262 0.4591,0.73243 0.12152,0.0643 1.85086,0.40662 3.83567,0.77346 3.41627,0.63111 3.62435,0.67854 3.89657,0.88123 0.45236,0.33862 1.39176,0.92612 4.99869,3.12813 1.85086,1.13007 3.48,2.16546 3.6203,2.30093 0.40779,0.39378 0.59413,0.82989 0.58603,1.37081 -0.0135,1.05697 -0.81288,2.28041 -1.4721,2.25808 -0.12153,-0.006 -3.00929,-0.5272 -6.41867,-1.16214 z"
       id="path1196" />
    <path
       style="fill:#d45500;stroke-width:1.6025"
       d="m 93.067741,186.9836 c -1.07213,-0.20393 -2.52209,-0.53488 -3.22344,-0.73499 -0.70078,-0.2001 -1.7492,-0.49127 -2.32848,-0.64651 -0.57926,-0.15517 -1.06402,-0.29242 -1.07617,-0.30397 -0.0123,-0.0118 0.44155,-1.87865 1.01002,-4.14697 0.87365,-3.49193 1.04919,-4.11931 1.14642,-4.09045 0.0676,0.0127 2.04338,0.38738 4.40076,0.82093 2.35737,0.4323 4.3226,0.79787 4.36729,0.81197 0.0539,0.0127 -0.27952,1.46513 -0.99652,4.3317 -0.95061,3.80257 -1.09375,4.30732 -1.21392,4.31731 -0.081,0.006 -1.0141,-0.15517 -2.08582,-0.35915 z"
       id="path1198" />
    <path
       style="fill:#d45500;stroke-width:1.6025"
       d="m 74.384281,217.01816 -1.00732,-0.0643 -0.95466,-0.57208 c -1.08567,-0.65033 -1.03706,-0.55157 -0.71839,-1.44239 0.38485,-1.07749 0.70757,-1.5195 3.1115,-4.2536 1.26257,-1.43699 3.18497,-3.57347 4.27061,-4.74767 l 1.97415,-2.13508 0.77914,-2.2855 c 0.54686,-1.6021 0.85608,-2.40315 1.0357,-2.6792 0.22545,-0.3476 0.32809,-0.68625 0.87766,-2.90698 0.34163,-1.3824 0.64546,-2.54003 0.67513,-2.57274 0.0271,-0.0383 0.44698,0.0644 0.92902,0.22447 2.34618,0.75934 3.62057,1.08648 5.83453,1.49901 1.23689,0.23087 2.26448,0.43351 2.28298,0.45277 0.0404,0.0383 -2.84362,12.01931 -3.19226,13.27447 l -0.22413,0.80552 -0.46046,0.36686 c -0.25388,0.20141 -1.83453,1.40559 -3.51379,2.67612 -2.19857,1.66327 -3.34212,2.4791 -4.08547,2.91429 l -1.03161,0.60417 -2.53603,0.46177 c -1.39483,0.25396 -2.64876,0.45794 -2.78648,0.45151 -0.13773,-0.007 -0.7035,-0.0383 -1.25847,-0.0772 z m 12.2012,-13.22636 c 0.027,-0.0384 -0.0406,-0.0643 -0.15529,-0.0643 -0.17552,0.006 -0.1823,0.0127 -0.054,0.0643 0.081,0.0383 0.14716,0.0644 0.15527,0.0644 0.007,0.004 0.027,-0.0258 0.0541,-0.0644 z m -3.68402,-4.46024 c 0.0272,-0.0383 0.01,-0.0771 -0.027,-0.0771 -0.0405,0 -0.0811,0.0258 -0.0811,0.0771 0,0.0384 0.0135,0.0644 0.0272,0.0644 0.0136,0 0.054,-0.0258 0.081,-0.0644 z"
       id="path1200" />
    <path
       style="fill:#d45500;stroke-width:1.6025"
       d="m 91.438341,193.31233 c -1.84452,-0.35274 -2.40447,-0.49256 -3.82569,-0.95046 -0.9155,-0.29502 -1.91284,-0.60415 -2.21598,-0.68497 -0.43885,-0.11544 -0.54416,-0.17318 -0.51715,-0.26424 0.0135,-0.0644 0.0676,-0.27449 0.12151,-0.46947 0.0404,-0.19497 0.0945,-0.36303 0.0945,-0.37328 0.007,-0.011 1.04782,0.25271 2.30969,0.58492 2.15185,0.56699 6.24852,1.41328 6.61675,1.36712 0.22416,-0.0258 0.34027,0.0771 0.22144,0.19111 -0.054,0.0514 -0.13773,0.30659 -0.18635,0.56183 -0.081,0.43485 -0.0945,0.46306 -0.27409,0.45793 -0.10804,-0.004 -1.15855,-0.19242 -2.34749,-0.42074 z"
       id="path1202" />
    <path
       style="fill:#d45500;stroke-width:1.6025"
       d="m 92.362071,190.4446 c -1.45223,-0.27323 -2.62146,-0.54901 -4.17986,-0.98383 -1.18961,-0.33222 -2.26714,-0.62467 -2.39382,-0.65033 -0.12152,-0.0258 -0.22954,-0.0643 -0.22954,-0.077 0,-0.0257 0.21199,-0.88507 0.35916,-1.4466 l 0.0676,-0.25785 0.54823,0.17445 c 1.67761,0.53231 4.29706,1.18007 6.15035,1.52049 1.10724,0.20394 2.04165,0.3874 2.07556,0.40918 0.0675,0.0383 -0.2714,1.70806 -0.34166,1.69755 -0.0271,-0.004 -0.94654,-0.17698 -2.05514,-0.38609 z"
       id="path1204" />
    <path
       style="fill:#28170b;stroke-width:1.6025"
       d="m 115.44063,83.016747 c -0.97085,-1.151871 -0.93979,-2.723577 0.081,-3.987684 0.62787,-0.781164 0.74941,-1.273719 0.43614,-1.768077 -0.13503,-0.211647 -0.45101,-0.243713 -1.34895,-0.135961 -1.16262,0.138532 -1.16936,0.135961 -0.67382,-0.212934 1.06406,-0.749096 1.0573,-1.207023 -0.0404,-2.474082 -1.81657,-2.107482 -2.44609,-4.307326 -1.66479,-5.817327 0.20659,-0.398921 0.26196,-0.845301 0.17419,-1.394685 -0.19579,-1.223699 0.35782,-2.470619 1.42013,-3.201247 1.18151,-0.811956 1.80413,-1.602352 2.29442,-2.911744 0.22955,-0.611842 0.41591,-1.192917 0.41591,-1.290402 0,-0.350177 -0.63871,-0.808105 -1.12616,-0.808105 -0.38891,0 -0.56173,0.16419 -0.78992,0.750384 -0.609,1.557077 -0.97765,2.068239 -1.93163,2.679964 -0.97489,0.624677 -1.95807,2.085803 -1.96523,2.920202 -0.004,0.304002 -0.0271,0.3117 -0.19712,0.05129 -0.46454,-0.718316 -0.21607,-1.394817 0.98976,-2.689584 0.84527,-0.908149 1.25172,-1.529366 1.40297,-2.147629 0.70214,-2.858248 1.33814,-4.117096 2.79093,-5.526407 1.34084,-1.300919 4.89822,-3.117614 6.95743,-3.553479 3.48486,-0.737555 9.08227,0.1706 12.05402,1.955102 0.57794,0.34761 1.65885,1.251915 2.40192,2.011411 1.45509,1.486523 2.25163,1.984216 3.78423,2.364791 0.53877,0.133402 1.3395,0.401489 1.78024,0.596459 l 0.80208,0.352745 -1.00193,0.0128 c -0.55092,0.008 -1.31789,0.171882 -1.70327,0.364281 -0.56173,0.280922 -0.70081,0.466914 -0.70081,0.936381 0,0.522063 0.14719,0.660595 1.36462,1.276286 1.48412,0.750386 2.42582,1.798488 3.44449,3.831835 0.29976,0.59902 0.84529,1.524751 1.21257,2.058352 0.39429,0.572089 0.72511,1.352617 0.80748,1.902892 0.14718,0.978705 -0.10803,2.743712 -0.53607,3.761282 -0.2444,0.577213 -0.26061,0.542586 -0.39024,-0.903025 -0.2336,-2.585166 -1.62806,-4.624796 -4.74307,-6.939055 -1.21798,-0.90431 -1.48169,-1.208303 -1.676,-1.922514 -0.12152,-0.466905 -0.26331,-0.963317 -0.30382,-1.103129 -0.10802,-0.359154 -0.59683,-0.510519 -1.18421,-0.363002 -0.44425,0.115439 -0.50097,0.230878 -0.50097,1.059513 0,1.582852 0.59819,2.482155 2.7075,4.066041 1.97738,1.485251 3.11231,2.809383 3.60571,4.207026 0.38484,1.089013 0.37809,1.991655 -0.027,3.420971 l -0.32272,1.148022 -1.33005,0.345049 c -2.66266,0.691374 -4.03592,1.896476 -4.03592,3.543083 0,0.778605 0.0945,0.992818 0.62654,1.441125 0.34433,0.289888 0.59279,0.547718 0.55093,0.572089 -0.27141,0.165461 -2.00858,0.936369 -2.13011,0.946635 -0.2147,0.0128 -0.59818,-2.025394 -0.76021,-4.040778 l -0.1391,-1.730895 0.59143,-0.129551 c 1.18827,-0.260389 3.25558,-3.096703 3.26152,-4.473811 0.004,-1.038995 -2.55329,-5.080804 -3.38102,-5.34337 -0.2228,-0.06416 -0.59144,-0.429708 -0.81964,-0.79913 -0.61574,-0.995378 -1.92175,-2.094783 -3.11704,-2.623132 -0.99112,-0.437397 -1.06539,-0.522056 -1.19097,-1.329527 -0.40914,-2.639037 -1.4243,-3.497797 -4.80708,-4.066817 -0.53471,-0.08979 -1.00462,-0.356582 -1.43927,-0.817077 -0.79804,-0.845302 -1.43525,-0.877369 -2.31834,-0.115442 -1.32736,1.145456 -2.23555,1.635065 -3.029,1.635065 -0.96954,0 -1.91703,0.450229 -2.43839,1.158279 -0.29978,0.407905 -0.40372,0.870962 -0.41182,1.845683 -0.0119,1.460493 -0.29438,2.137251 -1.54369,3.704459 l -0.79803,1.001789 0.12154,2.002432 c 0.28896,4.829259 1.98156,8.743434 5.37989,12.437493 0.96949,1.054384 1.76253,1.975372 1.7624,2.048098 0,0.07698 -1.01407,0.138538 -2.25418,0.147515 -1.56408,0.01014 -2.5124,0.11544 -3.09776,0.33863 l -0.84392,0.323246 z"
       id="path1206" />
    <path
       style="fill:#ac9393;stroke-width:1.6025"
       d="m 80.299261,99.360981 c -1.24901,-0.144944 -2.30861,-0.302721 -2.35437,-0.347619 -0.0405,-0.05127 1.01543,-0.85813 2.35805,-1.8049 2.39137,-1.686359 2.45281,-1.715612 3.00224,-1.43162 0.6306,0.325808 1.16937,1.22243 1.16937,1.945605 0,0.734999 -0.82907,1.83646 -1.40906,1.872505 -0.2714,0.01284 -1.51651,-0.08979 -2.76568,-0.233464 z"
       id="path1208" />
    <path
       style="fill:#28170b;stroke-width:1.6025"
       d="m 115.68992,83.093833 c -0.97763,-1.119804 -1.02895,-2.497427 -0.14315,-3.876973 0.40239,-0.62725 0.5928,-1.153153 0.55094,-1.519368 -0.0541,-0.51308 -0.14855,-0.569521 -1.04921,-0.660597 -0.86959,-0.08978 -0.94654,-0.132115 -0.65084,-0.374549 0.55631,-0.457928 0.39971,-1.292584 -0.44154,-2.352222 -1.64871,-2.078364 -2.23773,-3.879285 -1.73783,-5.31374 0.16608,-0.47845 0.30382,-1.347475 0.30649,-1.931234 0.004,-1.363517 0.33895,-1.985761 1.69505,-3.14315 0.72645,-0.620819 1.3071,-1.35274 1.70826,-2.154424 0.93443,-1.868388 0.73861,-2.862487 -0.53336,-2.716647 -0.4564,0.05129 -0.6576,0.261675 -1.06404,1.109549 -0.31327,0.651608 -1.04649,1.56425 -1.95349,2.427004 -1.01137,0.962027 -1.49154,1.577721 -1.58118,2.02526 -0.0809,0.392509 -0.18636,0.550283 -0.27547,0.404055 -0.2525,-0.407905 0.002,-0.912007 1.12344,-2.227683 0.88042,-1.033854 1.18017,-1.587465 1.60593,-2.971251 0.75076,-2.441762 1.29359,-3.3884 2.67684,-4.667636 1.40822,-1.302846 4.56417,-2.95638 6.62054,-3.468692 1.87595,-0.466906 5.65762,-0.287325 8.2664,0.393788 2.57625,0.672136 3.98542,1.453051 6.0896,3.373769 1.95308,1.782836 2.19411,1.929964 4.21875,2.577091 0.79398,0.25397 1.40419,0.523336 1.35746,0.597739 -0.0405,0.07697 -0.45505,0.187274 -0.9074,0.247564 -0.97762,0.130833 -1.59228,0.625957 -1.59228,1.284239 0,0.359154 0.23496,0.611855 0.94926,1.01975 1.44024,0.823499 3.05925,2.565671 4.04146,4.347863 1.99602,3.621712 1.86707,3.26179 1.75729,4.905709 -0.054,0.826057 -0.18499,1.724593 -0.28897,1.996784 -0.16609,0.437404 -0.21469,0.350176 -0.40779,-0.747816 -0.44155,-2.507182 -1.63846,-4.262178 -4.35689,-6.39044 -0.93171,-0.729864 -1.69665,-1.335166 -1.69976,-1.346075 -0.003,-0.01078 -0.17014,-0.515647 -0.37133,-1.121084 -0.35918,-1.083887 -0.37809,-1.10184 -1.14641,-1.10184 h -0.78047 l -0.054,1.049248 c -0.081,1.402771 0.35378,2.258852 1.73622,3.420079 3.54427,2.977035 4.63626,4.453299 4.63626,6.267817 0,1.180085 -0.40914,3.003196 -0.69,3.079515 -2.8301,0.765777 -4.32611,1.548998 -4.83382,2.530263 -0.4375,0.845299 -0.37403,2.434703 0.10803,2.8766 0.56037,0.506663 0.51311,0.611844 -0.4321,0.990242 -1.03163,0.413032 -1.07079,0.360442 -1.35138,-1.778211 -0.39294,-3.001529 -0.37944,-3.409046 0.12152,-3.47985 1.14371,-0.162909 3.26233,-3.110692 3.26558,-4.543086 0.002,-0.999228 -1.47926,-3.717407 -2.6389,-4.841193 -0.4348,-0.420721 -0.98707,-0.986391 -1.22878,-1.255766 -1.23282,-1.375829 -2.15819,-2.169175 -3.14998,-2.698549 -1.28009,-0.6824 -1.31385,-0.724734 -1.48061,-1.763851 -0.18769,-1.174961 -0.81829,-2.262696 -1.58553,-2.73678 -0.37403,-0.230887 -1.3503,-0.587482 -2.16899,-0.791427 -1.68761,-0.420732 -2.11836,-0.618263 -2.65672,-1.212162 -0.62655,-0.692655 -1.48723,-0.545149 -2.80579,0.478451 -1.10727,0.859413 -2.14024,1.302327 -3.04251,1.30464 -0.56983,0.0017 -1.71962,0.800406 -2.02762,1.408924 -0.13775,0.271933 -0.25115,0.909439 -0.25387,1.415853 -0.005,1.295789 -0.31865,2.086185 -1.42982,3.601959 l -0.96816,1.319395 0.19308,2.191375 c 0.4483,5.104651 2.01115,8.579372 5.70828,12.691212 l 1.35031,1.501916 -2.37816,0.128277 c -1.30844,0.06417 -2.63189,0.225751 -2.94216,0.350177 -0.70082,0.280909 -0.61981,0.291174 -0.98169,-0.128277 z"
       id="path1210" />
    <path
       style="fill:#28170b;stroke-width:1.6025"
       d="m 115.68992,83.093833 c -0.97763,-1.119804 -1.02895,-2.497427 -0.14315,-3.876973 0.40239,-0.62725 0.5928,-1.153153 0.55094,-1.519368 -0.0541,-0.51308 -0.14855,-0.569521 -1.04921,-0.660597 -0.86959,-0.08978 -0.94654,-0.132115 -0.65084,-0.374549 0.54419,-0.447662 0.38888,-1.218568 -0.47935,-2.367229 -1.67519,-2.217415 -2.20182,-3.858639 -1.6999,-5.298733 0.16609,-0.47845 0.30519,-1.365563 0.30651,-1.971256 0.005,-1.344531 0.38485,-2.026161 1.79254,-3.212408 0.70216,-0.591329 1.21931,-1.264751 1.62402,-2.110693 0.90334,-1.890326 0.71699,-2.796424 -0.54419,-2.651098 -0.45232,0.05129 -0.65759,0.265524 -1.06404,1.106979 -0.30245,0.62468 -1.07617,1.595429 -1.93472,2.424566 -0.97356,0.940227 -1.47668,1.592349 -1.5747,2.038475 -0.0945,0.423293 -0.1985,0.56824 -0.29844,0.406617 -0.24303,-0.39379 -0.0135,-0.933808 0.78182,-1.854403 1.20584,-1.391862 1.53694,-1.975753 2.01024,-3.551682 0.66568,-2.215493 1.2463,-3.212795 2.60687,-4.470997 1.40821,-1.302846 4.56415,-2.956383 6.62053,-3.468693 1.87598,-0.466905 5.65764,-0.287326 8.26643,0.393792 2.57624,0.672133 3.98541,1.453047 6.08959,3.373766 1.95308,1.782835 2.19397,1.929964 4.21876,2.577091 0.79397,0.25397 1.40404,0.523336 1.35745,0.597737 -0.0405,0.07697 -0.45505,0.187276 -0.9074,0.247561 -0.97627,0.130837 -1.59228,0.625963 -1.59228,1.281419 0,0.355314 0.23766,0.610576 0.95197,1.019749 1.57904,0.905591 3.04331,2.567083 4.45856,5.059893 l 1.30304,2.294122 -0.0135,1.702019 c -0.0111,0.936374 -0.10802,1.927392 -0.2282,2.202787 -0.20119,0.483578 -0.21199,0.472041 -0.33757,-0.300153 -0.43885,-2.724211 -1.53786,-4.490366 -4.04929,-6.507415 -2.17926,-1.750254 -2.08136,-1.638021 -2.47092,-2.83222 -0.34433,-1.054377 -0.36458,-1.073619 -1.13155,-1.073619 h -0.78048 l -0.054,1.049248 c -0.081,1.402771 0.35378,2.25885 1.73622,3.420079 3.54428,2.977037 4.63627,4.453297 4.63627,6.267817 0,1.180083 -0.40914,3.003196 -0.69136,3.079514 -2.75435,0.745246 -4.33933,1.574775 -4.83287,2.528597 -0.42399,0.818367 -0.36728,2.222032 0.10803,2.832727 0.2201,0.279632 0.40104,0.552848 0.40104,0.605439 0,0.05128 -0.37539,0.246279 -0.83314,0.429706 -1.03298,0.413036 -1.07349,0.359154 -1.34625,-1.778218 -0.4537,-3.560403 -0.49286,-3.249473 0.45235,-3.706376 1.3368,-0.646483 2.92894,-2.976 2.92894,-4.286027 0,-1.090302 -1.33005,-3.432648 -2.90544,-5.11813 -2.32523,-2.486774 -3.0263,-3.115814 -4.1426,-3.717279 -1.24903,-0.673419 -1.28684,-0.718312 -1.45212,-1.75397 -0.18769,-1.174953 -0.81828,-2.26269 -1.58552,-2.736782 -0.37404,-0.230887 -1.35031,-0.587481 -2.169,-0.791429 -1.68747,-0.420719 -2.11835,-0.61826 -2.65671,-1.212153 -0.60089,-0.663162 -1.43064,-0.536168 -2.6516,0.405329 -1.12613,0.868393 -2.22731,1.355307 -3.0965,1.369933 -0.66031,0.01105 -1.80062,0.770911 -2.1278,1.416491 -0.13775,0.271935 -0.25927,0.945354 -0.26874,1.495763 -0.027,1.340681 -0.31595,2.069134 -1.42698,3.569765 l -0.93441,1.262184 0.1931,2.236273 c 0.4375,5.09234 1.97845,8.493309 5.77902,12.756376 l 1.24902,1.401739 -2.37345,0.129557 c -1.30572,0.07697 -2.62726,0.228317 -2.93755,0.350173 -0.7008,0.274503 -0.6198,0.286048 -0.98168,-0.129553 z"
       id="path1212" />
    <path
       style="fill:#2b1100;stroke-width:1.6025"
       d="m 115.68992,83.093833 c -0.97763,-1.119804 -1.02895,-2.497427 -0.14315,-3.876973 0.40239,-0.62725 0.5928,-1.153153 0.55094,-1.519368 -0.0541,-0.51308 -0.14855,-0.569521 -1.04921,-0.660597 -0.86959,-0.08978 -0.94654,-0.132115 -0.65084,-0.374549 0.48206,-0.396359 0.41184,-1.058236 -0.20524,-1.949968 -0.29572,-0.428427 -0.83043,-1.205739 -1.18825,-1.728572 -0.8939,-1.30746 -1.19369,-2.81952 -0.78993,-3.978822 0.16879,-0.48358 0.30787,-1.356075 0.30923,-1.939834 0.004,-1.327988 0.33351,-1.971266 1.57444,-3.073617 1.20041,-1.067212 1.93593,-2.173803 2.2631,-3.408788 0.2957,-1.118526 0.054,-1.567467 -0.85069,-1.567467 -0.49693,0 -0.65218,0.153917 -1.15991,1.151862 -0.34568,0.67984 -1.09104,1.623781 -1.81712,2.304767 -0.67649,0.634938 -1.39445,1.518847 -1.59441,1.96523 -0.23633,0.527193 -0.40239,0.710616 -0.47396,0.523345 -0.14719,-0.384815 0.21469,-1.045401 1.30842,-2.387372 0.64005,-0.785012 1.06946,-1.605687 1.45929,-2.785649 0.3038,-0.919702 0.75886,-2.085424 1.01139,-2.589396 1.00192,-2.001919 4.44694,-4.363507 7.87618,-5.399548 1.32328,-0.400204 1.76267,-0.434838 4.20793,-0.333504 4.76657,0.196253 7.51674,1.213439 10.44757,3.860688 1.99143,1.798989 2.50414,2.118004 4.34514,2.703043 1.43497,0.456649 1.72825,0.786298 0.69946,0.78758 -0.29707,3.9e-4 -0.83854,0.183424 -1.20312,0.405338 -1.02623,0.625959 -0.83989,1.29681 0.59143,2.131342 1.55393,0.905592 2.64294,2.193683 4.23023,5.004601 1.18286,2.095559 1.3526,2.523977 1.3526,3.424056 0,1.031299 -0.36864,3.14994 -0.52122,2.997295 -0.0405,-0.03848 -0.17824,-0.614414 -0.29842,-1.264744 -0.42939,-2.346459 -1.5912,-4.026674 -4.2733,-6.182387 -1.62198,-1.303484 -1.94957,-1.737551 -2.23624,-2.963043 -0.13503,-0.565679 -0.70216,-0.851719 -1.42173,-0.714466 -0.29032,0.05128 -0.37944,0.289886 -0.42805,1.132621 -0.081,1.404305 0.53742,2.464976 2.21207,3.796937 1.74878,1.390836 3.3054,3.083753 3.7641,4.094013 0.44965,0.990249 0.49962,2.429953 0.13503,3.842083 -0.2552,0.983839 -0.2579,0.986399 -1.48654,1.332347 -1.69869,0.478451 -3.19401,1.33363 -3.66527,2.095561 -0.52932,0.855556 -0.52662,2.274236 0.005,2.950096 0.2201,0.279629 0.40104,0.552843 0.40104,0.605434 0,0.05129 -0.37538,0.246283 -0.83313,0.429706 -1.03299,0.413028 -1.07349,0.359155 -1.34626,-1.778216 -0.4483,-3.516924 -0.46315,-3.295911 0.24306,-3.592985 1.35854,-0.570809 3.12879,-3.077079 3.12879,-4.429951 0,-1.196765 -1.61997,-3.924181 -3.22291,-5.426875 -0.48206,-0.451511 -1.30439,-1.271161 -1.82763,-1.820281 -0.52257,-0.549003 -1.42498,-1.254485 -2.00372,-1.565927 -1.23688,-0.665726 -1.27064,-0.709338 -1.44037,-1.765129 -0.17554,-1.099282 -0.86959,-2.277962 -1.60807,-2.731139 -0.33488,-0.205229 -1.19503,-0.520779 -1.91136,-0.699076 -1.79334,-0.447662 -2.29228,-0.664445 -2.82038,-1.226265 -0.53743,-0.572088 -1.28279,-0.620829 -2.00615,-0.133403 -0.28491,0.192403 -0.95061,0.638783 -1.47885,0.99153 -0.54688,0.36557 -1.35867,0.700363 -1.88611,0.777324 -1.88705,0.274494 -2.82634,1.231395 -2.82969,2.885955 -0.004,1.383142 -0.31056,2.185606 -1.38731,3.613895 l -0.98842,1.311182 0.18903,2.169696 c 0.43886,5.056301 1.82818,8.199564 5.51776,12.488675 l 1.49885,1.74243 -2.36453,0.129548 c -1.30035,0.07699 -2.61838,0.228328 -2.92869,0.350187 -0.7008,0.274492 -0.61978,0.286037 -0.98166,-0.129557 z"
       id="path1214" />
    <path
       style="fill:#552200;stroke-width:1.6025"
       d="m 115.7905,83.203119 c -0.99922,-1.249357 -1.04243,-2.536805 -0.13636,-4.081051 0.59951,-1.023601 0.59142,-1.950737 -0.0271,-2.04156 -1.13696,-0.169316 -1.36018,-0.266805 -1.13157,-0.495125 0.43616,-0.434838 0.2255,-1.103127 -0.85876,-2.732028 -1.65846,-2.490508 -1.67318,-2.574013 -1.14373,-6.491134 0.23494,-1.739862 0.70352,-2.671493 1.73905,-3.460869 1.38986,-1.059513 2.68804,-3.872999 2.10878,-4.570404 -0.14449,-0.174449 -0.51583,-0.315547 -0.8237,-0.315547 -0.46721,0 -0.66434,0.178295 -1.17069,1.051819 -0.33489,0.578501 -1.15857,1.636987 -1.82887,2.352865 -0.67111,0.715747 -1.36422,1.571958 -1.5415,1.902381 -0.19042,0.355313 -0.35783,0.495123 -0.40914,0.342479 -0.054,-0.141091 0.39023,-0.908154 0.97355,-1.702016 0.66165,-0.900462 1.33546,-2.1611 1.78943,-3.346578 0.40104,-1.046688 0.8831,-2.199975 1.07215,-2.563617 1.06268,-2.041038 5.14829,-4.621074 8.49664,-5.365428 1.3206,-0.29374 1.86153,-0.309132 4.13719,-0.115445 4.48571,0.382248 6.63593,1.20446 9.51626,3.63711 2.30254,1.944838 2.54776,2.105048 4.13652,2.702788 1.64413,0.618271 2.01465,0.903032 1.17747,0.903032 -0.75887,8.61e-4 -1.89461,0.690092 -1.89056,1.148012 0.004,0.498975 0.17554,0.697792 1.20582,1.397388 0.49961,0.33991 1.20987,0.919694 1.57945,1.288349 0.85879,0.859412 2.64052,3.560655 3.43112,5.203926 0.55497,1.154441 0.60088,1.396999 0.48746,2.576058 -0.2282,2.373912 -0.31732,2.452789 -0.78318,0.693946 -0.57118,-2.15366 -1.55852,-3.572849 -3.86997,-5.564116 -1.78294,-1.535909 -2.45444,-2.356328 -2.45444,-2.998706 0,-0.481018 -0.72917,-0.976145 -1.3341,-0.906879 -0.52662,0.06418 -0.57388,0.135973 -0.63059,1.030016 -0.0945,1.476521 0.50771,2.49884 2.44202,4.144549 3.45556,2.940347 4.26304,4.541162 3.68228,7.299878 l -0.25116,1.195475 -1.40459,0.516937 c -2.9415,1.082599 -3.90548,1.970104 -3.90548,3.59324 0,0.465624 0.15664,1.112106 0.34838,1.436633 0.30517,0.516927 0.31192,0.614413 0.054,0.783733 -0.43075,0.278342 -1.19772,0.459206 -1.3422,0.315549 -0.16203,-0.161625 -0.6495,-3.419191 -0.6549,-4.375191 -0.003,-0.616973 0.0945,-0.796559 0.55633,-1.036425 0.79668,-0.411743 2.20612,-1.99704 2.65537,-2.986134 0.55362,-1.217288 0.48206,-1.919441 -0.36188,-3.570022 -0.91956,-1.799902 -4.49894,-5.610301 -6.29296,-6.699316 -0.83718,-0.507951 -1.20312,-0.863264 -1.28548,-1.246787 -0.49422,-2.317985 -1.31655,-3.262952 -3.35659,-3.85325 -1.90784,-0.552851 -2.85751,-0.964598 -3.26733,-1.416496 -0.53336,-0.58876 -1.30709,-0.445094 -2.76677,0.511801 -0.74131,0.486144 -1.8144,0.994098 -2.38409,1.128777 -0.56981,0.133406 -1.28819,0.37071 -1.59579,0.525914 -0.74132,0.374549 -1.3422,1.394688 -1.3422,2.279879 -0.002,1.201892 -0.55365,2.630314 -1.50167,3.887117 -0.49692,0.659305 -0.90335,1.397375 -0.90335,1.641735 0,0.243713 0.13909,1.502301 0.30788,2.795389 0.59141,4.513335 1.83019,7.165964 5.26779,11.286018 1.61429,1.934829 1.61469,1.933806 -0.66705,1.994351 -1.25578,0.03848 -2.78014,0.257826 -3.32431,0.491274 -0.17554,0.07699 -0.41184,0.02569 -0.52527,-0.128275 z"
       id="path1216" />
    <path
       style="fill:#552200;stroke-width:1.6025"
       d="m 115.54258,82.612691 c -0.55091,-0.903023 -0.51578,-2.009612 0.10805,-3.317201 0.68726,-1.451257 0.60223,-2.085558 -0.31195,-2.353768 -0.62247,-0.182145 -0.69404,-0.273215 -0.64273,-0.806826 0.0404,-0.42457 -0.18093,-0.981262 -0.75887,-1.902379 -1.56121,-2.485238 -1.67451,-2.852862 -1.53975,-4.997414 0.17823,-2.830035 0.53876,-3.810407 1.96657,-5.344393 1.79642,-1.929833 2.76569,-4.407761 1.85991,-4.755119 -0.8993,-0.34505 -1.24362,-0.134683 -2.34682,1.430343 -1.50926,2.140579 -2.92947,3.428802 -1.65115,1.497557 0.27142,-0.410463 0.8615,-1.647765 1.3098,-2.749093 0.44829,-1.10184 1.03704,-2.338119 1.30844,-2.748328 0.99787,-1.507812 3.90359,-3.388132 6.78365,-4.390052 1.33951,-0.465622 1.96064,-0.565674 3.52955,-0.566956 3.40776,-0.0024 6.96919,0.738836 8.78697,1.828754 0.40239,0.241146 1.71016,1.201892 2.9068,2.134934 1.39202,1.085166 2.69128,1.910335 3.60679,2.290399 1.809,0.750383 1.92567,0.867104 1.01678,1.014619 -0.40644,0.06417 -0.90741,0.273216 -1.114,0.459211 -0.67381,0.609283 -0.46991,1.160845 0.77642,2.095292 1.55393,1.165986 2.13119,1.799379 3.39008,3.721388 1.61982,2.473314 2.06852,3.559633 2.05421,4.974075 -0.0135,1.890836 -0.2363,2.143016 -0.663,0.76706 -0.59413,-1.918543 -1.25443,-2.853898 -3.72697,-5.273584 -1.71489,-1.678167 -2.39274,-2.48063 -2.49712,-2.95523 -0.16338,-0.74269 -0.68595,-1.101843 -1.47318,-1.010772 -0.50096,0.06417 -0.54552,0.13853 -0.60088,1.101849 -0.081,1.494604 0.40509,2.292579 2.73531,4.439441 1.10049,1.013331 2.30132,2.311688 2.6686,2.883775 0.63194,0.983831 0.66705,1.139045 0.66705,2.866076 0,1.178806 -0.0945,1.933805 -0.25385,2.13109 -0.13909,0.168032 -0.81559,0.506671 -1.50289,0.752942 -1.64521,0.588765 -3.09922,1.523086 -3.46178,2.22357 -0.34972,0.675992 -0.37808,1.881346 -0.0675,2.778727 0.25251,0.723444 0.0405,1.000517 -0.75347,1.006924 -0.4753,0.0037 -0.56442,-0.273213 -0.77237,-2.399809 -0.0675,-0.715755 -0.16879,-1.502948 -0.21875,-1.749099 -0.054,-0.275782 0.054,-0.582344 0.29032,-0.800406 2.50927,-2.320931 3.23087,-3.364409 3.2306,-4.671874 -4.1e-4,-2.013337 -3.3971,-6.379016 -6.93948,-8.919161 -1.07214,-0.769625 -1.25848,-1.001793 -1.46778,-1.831576 -0.50366,-2.000633 -1.27739,-2.701252 -3.93856,-3.564385 -0.8696,-0.282188 -1.90082,-0.732418 -2.29241,-1.001784 -0.39159,-0.269376 -0.91821,-0.488718 -1.17206,-0.488718 -0.25252,0 -1.19503,0.396358 -2.09311,0.882499 -0.89929,0.484867 -2.1509,1.041562 -2.7827,1.236532 -1.61174,0.497693 -2.08351,1.063361 -2.44,2.925335 -0.30246,1.583245 -0.66705,2.428804 -1.71003,3.966771 -0.71699,1.056945 -0.74805,1.531415 -0.29976,4.579894 0.58605,3.997173 1.68829,6.401342 4.68313,10.220083 0.88985,1.13392 1.61712,2.142893 1.61712,2.241532 0,0.102615 -0.15798,0.182147 -0.35109,0.184706 -0.77236,0.01156 -3.99132,0.36686 -4.49961,0.496413 -0.46717,0.115442 -0.59817,0.05129 -0.95062,-0.532322 z"
       id="path1218" />
    <path
       style="fill:#552200;stroke-width:1.6025"
       d="m 115.54462,82.616148 c -0.54958,-0.90174 -0.51853,-2.038342 0.0945,-3.346833 0.73862,-1.586574 0.64139,-2.03783 -0.50368,-2.326692 -0.41724,-0.102624 -0.50094,-0.247565 -0.50904,-0.867114 -0.006,-0.534889 -0.31059,-1.232682 -1.0897,-2.504991 -1.25174,-2.042969 -1.4185,-2.997168 -1.01137,-5.7818 0.27815,-1.89853 0.67784,-2.783467 1.70366,-3.768073 1.55245,-1.490249 2.6913,-4.006141 2.12323,-4.690209 -0.53879,-0.647771 -1.16666,-0.379684 -2.16726,0.926112 -1.15854,1.512564 -2.28671,2.797069 -2.37665,2.707149 -0.0404,-0.03849 0.28219,-0.737557 0.70892,-1.557208 0.42669,-0.819641 1.07077,-2.211637 1.43308,-3.092732 0.51173,-1.245498 0.90874,-1.847218 1.78251,-2.703299 1.39459,-1.365309 3.98355,-2.846961 6.18088,-3.537056 1.55798,-0.489995 1.83938,-0.515651 4.30814,-0.406622 4.89917,0.218064 6.56342,0.811955 10.42975,3.722925 1.90392,1.433551 3.25652,2.295147 4.09412,2.608126 1.35597,0.506669 1.73541,0.815801 1.00327,0.817079 -0.69135,8.84e-4 -1.76511,0.728583 -1.76511,1.195488 0,0.256539 0.54822,0.850429 1.52097,1.648277 1.11131,0.911997 1.86329,1.761792 2.79189,3.156478 1.84168,2.766156 2.29592,3.837731 2.29457,5.413148 -0.001,1.693171 -0.24575,2.092604 -0.58468,0.958181 -0.60493,-2.020653 -1.42106,-3.208055 -3.82001,-5.558988 -1.29494,-1.269881 -2.42136,-2.532963 -2.50265,-2.808358 -0.2255,-0.761931 -0.70485,-1.201895 -1.31249,-1.201895 -0.61439,0 -0.79263,0.296305 -0.79263,1.324395 0,1.264746 0.54822,2.07811 3.07572,4.558093 2.96,2.904944 3.25869,3.474077 3.07774,5.865171 -0.0675,0.859408 -0.2309,1.637115 -0.37943,1.777823 -0.14448,0.13725 -0.92766,0.525913 -1.74054,0.861984 -1.78739,0.7414 -2.68764,1.335034 -3.11285,2.05425 -0.38079,0.643923 -0.4132,1.795277 -0.081,2.728315 0.20389,0.564391 0.19579,0.70677 -0.054,0.861976 -0.27547,0.174447 -1.19637,0.271935 -1.19637,0.128273 0,-0.03847 -0.13638,-1.033863 -0.30247,-2.218695 -0.16609,-1.183942 -0.23765,-2.258839 -0.15933,-2.387761 0.081,-0.128266 0.62788,-0.677261 1.21932,-1.219849 1.30304,-1.192918 2.24488,-2.755765 2.24137,-3.720231 -0.003,-0.822213 -0.51447,-2.022951 -1.4293,-3.353376 -0.96142,-1.398145 -3.8462,-4.323099 -5.39932,-5.473693 -1.02758,-0.760639 -1.38595,-1.15699 -1.49127,-1.644294 -0.2012,-0.931244 -0.81154,-2.053616 -1.42579,-2.623133 -0.29437,-0.271932 -1.35355,-0.778604 -2.35453,-1.12365 -1.00057,-0.346332 -2.15616,-0.847871 -2.56706,-1.114669 -0.41049,-0.266806 -0.89931,-0.486148 -1.0843,-0.486148 -0.18633,0 -1.24767,0.438686 -2.35884,0.976135 -1.11129,0.53746 -2.46268,1.145464 -3.00239,1.351594 -1.25716,0.481011 -1.64347,1.028726 -2.02625,2.869669 -0.17151,0.820931 -0.53341,1.879925 -0.80615,2.352858 -1.74823,3.036933 -1.59659,2.499615 -1.34084,4.74948 0.50905,4.481768 1.67854,7.310006 4.64192,11.221235 0.99788,1.317469 1.81496,2.466383 1.81496,2.55309 0,0.0898 -0.10802,0.160343 -0.25118,0.162912 -0.63055,0.0128 -3.92383,0.383524 -4.49758,0.505383 -0.57521,0.128274 -0.6819,0.06416 -1.05052,-0.537451 z"
       id="path1220" />
  </g>
</svg>
